<svg xmlns="http://www.w3.org/2000/svg" xmlns:xlink="http://www.w3.org/1999/xlink" width="38.603" height="43.377" xmlns:v="https://vecta.io/nano"><style><![CDATA[.K{fill:#334350}.L{fill:#fff}]]></style><path d="M27.397 23.945l-8.394-1.1-8.394 1.1s-2.007 5.986-1.916 9.358 1.277 5.649 4.106 6.829c3.965 1.686 8.444 1.686 12.409 0 2.828-1.18 4.014-3.457 4.106-6.829s-1.917-9.358-1.917-9.358z" fill="#fafafa"/><path fill="#b1b1d4" d="M27.401 23.945l-2.729-.356c.824 2.546 1.312 5.188 1.451 7.86-.091 3.373-1.277 5.649-4.106 6.829a19.86 19.86 0 0 1-6.2 1.265 20.82 20.82 0 0 1-5.278-.921 6.58 6.58 0 0 0 2.267 1.511 15.85 15.85 0 0 0 12.409 0c2.829-1.181 4.015-3.457 4.106-6.829s-1.92-9.359-1.92-9.359z" opacity=".32"/><g class="K"><path d="M6.201 36.621c-1.242 1.709-2.622 1.831-3.3 2.956a2.32 2.32 0 0 0 .251 2.87c.573.672.658.925 1.458.931a26.6 26.6 0 0 0 5.05-.714l5.3-1.269a1.52 1.52 0 0 0 1.252-.91c.2-.7-.336-1.359-.817-1.816l-4.267-4.047c-1.229-1.157-2.623-1.172-4.927 1.999z"/><path d="M2.205 42.575a9.09 9.09 0 0 1-1.9-4.717 1.26 1.26 0 0 1 .107-.827c.147-.21.409-.306.657-.243-.052-.269.021-.547.2-.754s.41-.355.668-.437a1.54 1.54 0 0 1 .772-.085c.262.041.495.19.642.411a1.19 1.19 0 0 1 1.458-.048 2.77 2.77 0 0 1 .92 1.259 9.01 9.01 0 0 1 .742 3.716 3.37 3.37 0 0 1-.359 1.64c-.235.444-.67.747-1.168.814a2.97 2.97 0 0 1-2.739-.729zm30.197-5.954c1.242 1.709 2.622 1.831 3.3 2.956a2.32 2.32 0 0 1-.251 2.87c-.573.672-.657.925-1.458.931a26.6 26.6 0 0 1-5.05-.714l-5.3-1.269a1.52 1.52 0 0 1-1.252-.91c-.2-.7.335-1.359.817-1.816l4.267-4.047c1.227-1.157 2.627-1.172 4.927 1.999z"/><path d="M36.398 42.575a9.09 9.09 0 0 0 1.9-4.717 1.26 1.26 0 0 0-.108-.827c-.147-.21-.409-.306-.657-.243a.89.89 0 0 0-.2-.754 1.49 1.49 0 0 0-.667-.437 1.54 1.54 0 0 0-.772-.085c-.262.041-.495.19-.642.411a1.19 1.19 0 0 0-1.459-.048 2.77 2.77 0 0 0-.919 1.259c-.508 1.172-.761 2.439-.743 3.716a3.37 3.37 0 0 0 .359 1.64c.235.444.67.747 1.168.814a2.97 2.97 0 0 0 2.74-.729zM28.64 28.38a12.41 12.41 0 0 0-1.428-5.28L18.818 22l-8.394 1.1a20.07 20.07 0 0 0-1.544 5.876c1.398-1.346 3.084-2.357 4.929-2.957 2.303-.687 4.716-.929 7.11-.712 5.97.425 7.666 3.028 7.721 3.073zM4.697 11.424s-7.78-3.254-3.313-9.109c3.938-5.162 9.111.658 9.111.658z"/></g><path d="M5.27 8.939S.929 7.123 3.422 3.857c2.2-2.88 5.084.367 5.084.367z" fill="#f09fad"/><path d="M.739 3.323c3.774-4.946 8.681.192 9.084.629l.671-.978s-5.173-5.82-9.111-.658A8.3 8.3 0 0 0 .66 3.429z" class="K"/><path d="M.554 5.861a2.75 2.75 0 0 0 .415 1.58.71.71 0 0 0 .6.386.55.55 0 0 0 .435-.469 1.12 1.12 0 0 0-.13-.673c-.1-.208-.237-.4-.343-.6a2.5 2.5 0 0 1-.214-1.675c.025-.113.049-.256-.04-.326C.81 3.714.558 5.661.554 5.861z" opacity=".22" class="L"/><path d="M27.523 3.811s4.437-7.171 9.516-1.839c4.478 4.7-2.083 8.894-2.083 8.894z" class="K"/><path d="M29.887 4.769s2.476-4 5.31-1.026c2.5 2.623-1.162 4.963-1.162 4.963z" fill="#f09fad"/><path d="M36.146 1.177c4.291 4.5-1.555 8.543-2.05 8.872l.86.816s6.561-4.193 2.083-8.894a8.32 8.32 0 0 0-.985-.889z" class="K"/><path d="M33.669.594a2.75 2.75 0 0 0-1.626.162c-.232.106-.464.288-.476.536a.55.55 0 0 0 .395.5c.225.064.465.056.685-.023.221-.068.428-.172.647-.244a2.5 2.5 0 0 1 1.688.052c.108.043.245.089.328.012.437-.404-1.448-.96-1.641-.995z" opacity=".22" class="L"/><path d="M35.403 12.194c-.527-4.352-3.087-8.197-6.9-10.361-3.995-2.234-13.817-2.438-18.571 0-3.941 2.021-6.326 6.786-6.633 10.255s.612 9.541 5.663 10.867 15.459 1.327 20.51 0 6.237-7.292 5.931-10.761z" fill="#fafafa"/><path d="M16.202 8.663c-1.496 1.332-2.448 3.169-2.672 5.159-.112.623-.598 1.113-1.22 1.23-3.13.6-5.511-2.8-3.943-6.567 2.064-4.878 7.218-4.29 8.29-1.54a1.51 1.51 0 0 1-.455 1.718zm6.544 0c1.496 1.332 2.448 3.169 2.672 5.159.112.623.598 1.113 1.22 1.23 3.13.6 5.51-2.8 3.943-6.567-2.064-4.878-7.219-4.29-8.29-1.54a1.51 1.51 0 0 0 .455 1.718z" class="K"/><ellipse cx="2.655" cy="1.828" rx="2.655" ry="1.828" transform="matrix(.129038 -.99164 .99164 .129038 9.931 14.901)" class="L"/><use xlink:href="#B" fill="#000072"/><ellipse cx="2.655" cy="1.828" rx="2.655" ry="1.828" transform="matrix(.129038 -.99164 .99164 .129038 9.931 14.901)" class="L"/><g class="K"><use xlink:href="#B"/><ellipse cx="2.161" cy="1.488" rx="2.161" ry="1.488" transform="matrix(.129038 -.99164 .99164 .129038 10.664 14.541)"/></g><g class="L"><circle cx=".67" cy=".67" r=".67" transform="matrix(.325799 -.945439 .945439 .325799 10.758 12.182)"/><ellipse cx="1.828" cy="2.655" rx="1.828" ry="2.655" transform="matrix(.992 -.129 .129 .992 24.745 10.108)"/></g><use xlink:href="#C" fill="#000072"/><ellipse cx="1.828" cy="2.655" rx="1.828" ry="2.655" transform="matrix(.992 -.129 .129 .992 24.745 10.108)" class="L"/><g class="K"><use xlink:href="#C"/><ellipse cx="1.488" cy="2.161" rx="1.488" ry="2.161" transform="matrix(.992 -.129 .129 .992 24.814 10.639)"/></g><circle cx=".67" cy=".67" r=".67" transform="matrix(.985859 -.167578 .167578 .985859 26.605 11.219)" class="L"/><path fill="#b1b1d4" d="M35.415 12.054c-.515-5.05-3.932-9.335-8.742-10.959-2.524-1.029-8.434-1.39-11.7-.777a26.31 26.31 0 0 0-3.52.838 10.01 10.01 0 0 0-1.025.422 14.25 14.25 0 0 0-.913.493c.415-.172 1.867-.7 2.408-.837a27.6 27.6 0 0 1 2.982-.635c3.837-.401 7.715-.061 11.424 1 5.829 1.8 7.481 8.334 7.591 9.571.306 3.469-2.44 7.853-7.49 9.18s-15.459 1.326-20.51 0a6.92 6.92 0 0 1-.919-.311 6.66 6.66 0 0 0 3.97 2.914c5.051 1.327 15.459 1.327 20.51 0s6.24-7.43 5.934-10.899z" opacity=".1"/><g class="K"><path d="M19.527 17.78c-.212-.001-.384-.173-.384-.385v-1.428c0-.212.172-.384.384-.385s.384.172.385.385v1.428c0 .213-.172.385-.385.385z"/><path d="M17.88 19.094c-.168 0-.316-.109-.367-.269s.008-.334.146-.431l1.312-.919c.334-.233.779-.233 1.113 0l1.313.919c.174.122.216.362.095.535s-.362.216-.535.095l-1.313-.919a.2.2 0 0 0-.23 0l-1.312.919a.38.38 0 0 1-.221.07zm3.88-5.09c.038.827-.384 1.608-1.097 2.029s-1.601.413-2.307-.021-1.114-1.222-1.061-2.049c.009-1.006 1.011-1.267 2.244-1.255s2.23.289 2.221 1.295z"/></g><g fill="#7b7b7b"><ellipse cx="1.854" cy="2.541" rx="1.854" ry="2.541" transform="matrix(.961262 -.275637 .275637 .961262 .988 37.989)" opacity=".38"/><ellipse cx="1.854" cy="2.541" rx="1.854" ry="2.541" transform="matrix(-.961262 -.275637 .275637 -.961262 36.168 42.874)" opacity=".38"/></g><path d="M27.709 28.858a8.1 8.1 0 0 0-13.348-6.16l.058-.04a8.1 8.1 0 0 1 10.235 12.535 8.08 8.08 0 0 0 3.055-6.335z" fill="#c97329"/><path fill="#f1701f" d="M27.428 29.092a8.1 8.1 0 0 0-13.009-6.433q.184-.123.375-.236a7.91 7.91 0 0 1 11.447 9.504 7.91 7.91 0 0 1-7.439 5.223c-.107 0-.214 0-.32-.007a8.17 8.17 0 0 0 .85.044 8.1 8.1 0 0 0 8.1-8.1z"/><path fill="#f68f33" d="M23.279 35.762a7.91 7.91 0 0 0-8.484-13.338q-.191.113-.376.236l-.058.04a7.91 7.91 0 0 0 4.121 14.445l.32.007a7.87 7.87 0 0 0 4.477-1.39zm-1.957-13.837a.5.5 0 1 1 0 1 .5.5 0 1 1 0-1zm-6.371.748l.932.932a6.35 6.35 0 0 1 8.559 8.559l.931.931c-.566.961-1.336 1.787-2.255 2.418l-.91-.91a6.31 6.31 0 0 1-2.917.971.54.54 0 0 1-.821.651.54.54 0 0 1-.152-.651 6.35 6.35 0 0 1-4.873-9.734l-.911-.911c.632-.92 1.458-1.69 2.42-2.256z"/><path d="M12.537 24.928l.911.911a6.38 6.38 0 0 1 2.439-2.234l-.932-.932a7.64 7.64 0 0 0-2.418 2.255zm9.67 9.673l.91.91a7.62 7.62 0 0 0 2.255-2.418l-.931-.931a6.38 6.38 0 0 1-2.234 2.439z" fill="#ffefd0"/><path fill="#ffd074" d="M13.443 25.839a6.35 6.35 0 0 0 4.873 9.734c.088-.189.278-.31.486-.31s.398.121.486.31a6.31 6.31 0 0 0 2.917-.971 6.35 6.35 0 0 0-2.213-11.596 6.35 6.35 0 0 0-6.55 2.833zm5.359 8.45c-.055 0-.11-.004-.164-.013a.85.85 0 0 1-.81-.85.85.85 0 0 1 .81-.85c.054-.009.109-.013.164-.013.329-.034.648.123.823.403s.175.636 0 .916-.494.437-.823.403zm-.164-10.086l.164-.007a1.94 1.94 0 0 1 2.028 1.835c0 1.014-.938 5.636-2.057 5.636-.056 0-.112-.012-.163-.034-1.042-.412-1.836-4.638-1.836-5.6a1.92 1.92 0 0 1 1.864-1.83z"/><path d="M21.322 22.922a.5.5 0 1 0 0-1 .5.5 0 1 0 0 1zm-2.519 12.341a.54.54 0 1 0 .486.309c-.088-.189-.278-.309-.486-.309z" fill="#ffefd0"/><path d="M20.507 26.031c0 .963-.847 5.188-1.892 5.6.051.022.107.034.163.034 1.119 0 2.057-4.622 2.057-5.636a1.94 1.94 0 0 0-2.028-1.835l-.164.006a1.92 1.92 0 0 1 1.864 1.831zm-1.708 6.535a1 1 0 0 0-.164.013.85.85 0 0 1 .81.85.85.85 0 0 1-.81.85 1 1 0 0 0 .164.013c.329.034.648-.123.823-.403s.175-.636 0-.916-.494-.437-.823-.403z" fill="#c97329"/><path d="M18.61 31.633c1.046-.415 1.893-4.639 1.893-5.6-.023-1.013-.851-1.822-1.865-1.822s-1.841.809-1.865 1.822c0 .962.795 5.188 1.836 5.6zm.816 1.794a.79.79 0 1 0-.787.848.89.89 0 0 0 .787-.848z" fill="#f58830"/><path d="M6.981 29.119a4.52 4.52 0 0 0 .055 2.614c.418.907 1.191 1.602 2.138 1.92a9.63 9.63 0 0 0 2.906.483 4.4 4.4 0 0 0 2.021-.217.57.57 0 0 0 .326-.278c.054-.137-.031-.329-.178-.328.343-.143.607-.429.724-.782.074-.36-.278-.79-.619-.653.164-.041.164-.3.036-.408a.84.84 0 0 0-.479-.132 5.58 5.58 0 0 1-3.313-1.442c-1.9-2.066-1.173-3.75-.217-6.629a11.56 11.56 0 0 0-3.4 5.852zm23.62.236a4.52 4.52 0 0 1-.194 2.607c-.466.882-1.275 1.534-2.237 1.8-.953.258-1.94.369-2.927.328a4.4 4.4 0 0 1-2.007-.324c-.139-.056-.25-.163-.311-.3-.046-.139.049-.327.2-.318-.335-.162-.584-.461-.681-.82-.055-.363.32-.774.653-.619-.161-.05-.147-.307-.014-.41a.84.84 0 0 1 .486-.106 5.58 5.58 0 0 0 3.385-1.263c2.424-2.381 1.265-4.155.466-6.557a11.57 11.57 0 0 1 3.181 5.982z" class="K"/><defs ><path id="B" d="M11.908 15.195a1.3 1.3 0 0 1-.17-.011c-1.025-.133-1.7-1.443-1.51-2.92.074-.671.348-1.304.785-1.818a1.51 1.51 0 0 1 2.639.344c.291.609.393 1.291.293 1.958-.182 1.394-1.075 2.447-2.037 2.447zm.355-5.287c-.462.022-.892.24-1.182.6-.425.5-.69 1.116-.762 1.768-.186 1.426.456 2.69 1.431 2.817.053.007.106.01.159.01.916 0 1.77-1.018 1.945-2.367.097-.647-.002-1.309-.284-1.9a1.55 1.55 0 0 0-1.146-.913 1.22 1.22 0 0 0-.161-.015z"/><path id="C" d="M27.08 15.194c-.962 0-1.856-1.053-2.038-2.447a3.38 3.38 0 0 1 .293-1.958 1.51 1.51 0 0 1 2.639-.344c.437.514.711 1.147.785 1.817.192 1.477-.485 2.787-1.51 2.92a1.35 1.35 0 0 1-.169.012zm-.355-5.287a1.28 1.28 0 0 0-.16.01 1.55 1.55 0 0 0-1.147.913c-.282.591-.381 1.253-.284 1.9.186 1.426 1.129 2.484 2.1 2.357s1.616-1.39 1.431-2.817c-.072-.652-.337-1.268-.762-1.768-.29-.357-.718-.574-1.178-.595z"/></defs></svg>