<svg xmlns="http://www.w3.org/2000/svg" width="97.868" height="62.875" viewBox="0 0 97.868 62.875">
  <g id="Group_31210" data-name="Group 31210" transform="translate(-7269.566 12516.51)">
    <g id="Group_31206" data-name="Group 31206" transform="translate(435.85 -217)">
      <path id="Path_20954" data-name="Path 20954" d="M4.264,64.429C2.953,51.625,1.311,36.4,0,23.594c4.031-.588,8.013-.927,12.044-1.516a7.659,7.659,0,0,0,4.127,6.7A6.851,6.851,0,0,0,25.3,20.154c4.081-.559,8.685-1.394,12.451-1.394.6,5.192,1.29,11.221,1.885,16.413,1.817-1.056,4.346-1.805,6.339-1.137A7.52,7.52,0,0,1,50.459,38.2a6.864,6.864,0,0,1-1.284,7.34,5.793,5.793,0,0,1-7.226.745c.171,4.652.1,9.7.268,14.357-3.937.163-8.306.329-12.244.491.385,3.408-2.867,7.4-6.289,7.621a6.619,6.619,0,0,1-6.774-6.229,90.833,90.833,0,0,1-12.645,1.9" transform="translate(6833.716 -12305.401)" fill="#ffd074"/>
      <path id="Path_20955" data-name="Path 20955" d="M82.178,39.293c.135,3.236.587,8.955.723,12.191,5.289-.231,10.176-.243,15.465-.474-.222-2.788,2.33-5.535,5.472-5.868a6.661,6.661,0,0,1,6.8,5.054c2.689.027,8.451-.036,11.14-.009.161-4.106.4-8.652.564-12.758a6.922,6.922,0,0,0,6.668-1.858,5.108,5.108,0,0,0,.542-6.152,6.934,6.934,0,0,0-6.394-2.79c-.143-5.684-.249-11.311-.393-16.994-4.156-.329-8.653-.614-12.809-.943a6.745,6.745,0,0,0-2.924-7.327A9.055,9.055,0,0,0,98.245.933,7.657,7.657,0,0,0,94.4,8.417c-5.211.16-11.428,1.174-16.639,1.334.767,4.166,1.155,8.957,1.782,13.294,0,0,10.345-3.556,11.433,7.254,1.108,11-8.8,8.994-8.8,8.994" transform="translate(6801.245 -12296.461)" fill="#ffd074"/>
      <g id="Group_31198" data-name="Group 31198" transform="translate(6871.117 -12299.51)">
        <g id="Group_31199" data-name="Group 31199" transform="translate(0)">
          <path id="Path_20963" data-name="Path 20963" d="M2.9,2.248.012,10.4a.215.215,0,0,0,.256.28l3.775-.971a.215.215,0,0,1,.262.26L2.192,18.334a.215.215,0,0,0,.395.158L8.955,7.256a.215.215,0,0,0-.223-.317l-4.488.775A.215.215,0,0,1,4.021,7.4L8.054.322a.215.215,0,0,0-.273-.3l-4.765,2.1a.215.215,0,0,0-.116.125" transform="translate(0.001 -0.001)" fill="#ffb31d"/>
        </g>
      </g>
    </g>
  </g>
</svg>
