<svg xmlns="http://www.w3.org/2000/svg" xmlns:xlink="http://www.w3.org/1999/xlink" width="46.399" height="56.15" xmlns:v="https://vecta.io/nano"><path d="M30.815 36.666l-8.417-1.1-8.417 1.1s-2.012 6-1.921 9.383 1.281 5.664 4.116 6.847a15.9 15.9 0 0 0 12.442 0c2.836-1.183 4.025-3.466 4.116-6.847s-1.919-9.383-1.919-9.383z" fill="#fafafa"/><path fill="#b1b1d4" d="M30.815 36.665l-2.735-.357a30.79 30.79 0 0 1 1.455 7.881c-.092 3.381-1.281 5.664-4.117 6.847a19.92 19.92 0 0 1-6.221 1.268c-1.796-.078-3.575-.389-5.292-.923a6.6 6.6 0 0 0 2.272 1.515c3.975 1.691 8.467 1.691 12.442 0 2.836-1.184 4.025-3.466 4.116-6.847s-1.92-9.384-1.92-9.384z" opacity=".32"/><g fill="#334350"><path d="M9.563 49.375c-1.245 1.714-2.628 1.836-3.312 2.964-.595.901-.491 2.093.251 2.877.575.673.659.927 1.462.933a26.68 26.68 0 0 0 5.063-.716l5.311-1.273c.553-.052 1.034-.402 1.255-.912.2-.7-.336-1.363-.819-1.82l-4.278-4.057c-1.225-1.16-2.623-1.175-4.933 2.004z"/><path d="M5.558 55.344a9.11 9.11 0 0 1-1.9-4.729 1.27 1.27 0 0 1 .107-.829.62.62 0 0 1 .659-.244.9.9 0 0 1 .2-.756 1.49 1.49 0 0 1 .669-.439c.246-.094.513-.123.774-.085a.94.94 0 0 1 .644.412 1.19 1.19 0 0 1 1.463-.047c.422.324.742.762.922 1.262.509 1.175.763 2.445.745 3.726a3.38 3.38 0 0 1-.36 1.644 1.56 1.56 0 0 1-1.172.817c-.982.239-2.018-.037-2.751-.732zm30.276-5.969c1.245 1.714 2.628 1.836 3.312 2.964.595.901.491 2.093-.251 2.877-.575.673-.659.927-1.462.933-1.707-.076-3.402-.316-5.063-.716l-5.311-1.273c-.553-.052-1.034-.402-1.255-.912-.2-.7.336-1.363.819-1.82l4.279-4.057c1.224-1.16 2.622-1.175 4.932 2.004z"/><path d="M39.836 55.344a9.11 9.11 0 0 0 1.9-4.729 1.27 1.27 0 0 0-.107-.829.62.62 0 0 0-.66-.244.89.89 0 0 0-.2-.756 1.49 1.49 0 0 0-.669-.439 1.54 1.54 0 0 0-.774-.085.95.95 0 0 0-.644.412 1.19 1.19 0 0 0-1.462-.047 2.78 2.78 0 0 0-.922 1.262 9.04 9.04 0 0 0-.745 3.726 3.38 3.38 0 0 0 .36 1.644 1.56 1.56 0 0 0 1.172.817c.982.239 2.018-.037 2.751-.732zm-7.775-14.233a12.44 12.44 0 0 0-1.432-5.294l-8.416-1.1-8.416 1.1a20.12 20.12 0 0 0-1.548 5.891c1.402-1.349 3.092-2.363 4.942-2.965a18.96 18.96 0 0 1 7.129-.714c5.986.428 7.687 3.038 7.741 3.082zm-24.003-17s-7.8-3.263-3.322-9.133c3.949-5.175 9.135.66 9.135.66z"/></g><path d="M8.63 21.618s-4.352-1.82-1.854-5.1c2.2-2.888 5.1.368 5.1.368z" fill="#f09fad"/><path d="M4.087 15.988c3.784-4.959 8.7.192 9.108.631l.673-.981s-5.186-5.836-9.135-.66c-.271.352-.513.725-.725 1.116z" fill="#334350"/><path d="M3.901 18.529c-.025.558.12 1.11.416 1.584a.71.71 0 0 0 .606.387.55.55 0 0 0 .436-.47 1.12 1.12 0 0 0-.131-.675c-.1-.208-.237-.4-.344-.6a2.5 2.5 0 0 1-.215-1.68c.026-.114.05-.257-.039-.327-.471-.367-.725 1.588-.729 1.781z" fill="#fff" opacity=".22"/><path d="M30.942 16.478s4.448-7.19 9.542-1.844c4.49 4.714-2.089 8.918-2.089 8.918z" fill="#334350"/><path d="M33.312 17.44s2.482-4.012 5.324-1.029c2.505 2.63-1.165 4.976-1.165 4.976z" fill="#f09fad"/><path d="M39.588 13.838c4.3 4.517-1.559 8.566-2.055 8.9l.862.819s6.579-4.2 2.089-8.918a8.34 8.34 0 0 0-.988-.891z" fill="#334350"/><path d="M37.104 13.253c-.547-.112-1.116-.056-1.63.162-.233.107-.466.289-.478.538a.55.55 0 0 0 .4.5 1.12 1.12 0 0 0 .687-.023c.222-.068.429-.172.649-.245a2.5 2.5 0 0 1 1.693.052c.108.043.246.09.329.012.434-.403-1.457-.96-1.65-.996z" fill="#fff" opacity=".22"/><path d="M38.844 24.883c-.528-4.363-3.094-8.217-6.915-10.388-4.006-2.24-13.854-2.444-18.62 0-3.952 2.026-6.343 6.8-6.65 10.282s.614 9.566 5.678 10.9 15.5 1.33 20.564 0 6.25-7.317 5.943-10.794z" fill="#fafafa"/><g fill="#334350"><path d="M19.591 21.344c-1.5 1.335-2.454 3.177-2.679 5.173a1.53 1.53 0 0 1-1.223 1.234c-3.138.6-5.525-2.805-3.953-6.584 2.069-4.891 7.238-4.3 8.312-1.544.237.612.053 1.307-.457 1.721zm6.562 0a8.15 8.15 0 0 1 2.679 5.173 1.53 1.53 0 0 0 1.223 1.234c3.138.6 5.525-2.805 3.953-6.584-2.069-4.891-7.237-4.3-8.312-1.544-.237.612-.053 1.307.457 1.721zm-1.007 5.344c.042.825-.378 1.605-1.089 2.026s-1.596.413-2.3-.021-1.108-1.221-1.052-2.045c.009-1 1.005-1.26 2.232-1.249s2.217.289 2.208 1.289z"/><path d="M18.845 28.223c.129.242.273.476.431.7.141.198.31.376.5.528.184.15.395.263.622.333.234.064.48.076.719.034a1.69 1.69 0 0 0 1.173-.763c.255-.433.339-.945.237-1.437a.36.36 0 0 1 .299-.405.36.36 0 0 1 .413.287 3.15 3.15 0 0 1 .012.983c-.049.339-.168.663-.351.952s-.43.54-.719.728-.611.309-.949.363-.683.042-1.016-.037a2.24 2.24 0 0 1-.928-.447c-.132-.112-.249-.241-.348-.383s-.177-.289-.234-.448c-.058-.154-.095-.315-.112-.478a1.74 1.74 0 0 1 .012-.479c.005-.033.023-.063.05-.082s.061-.028.094-.023.071.028.09.061z"/><path d="M26.137 30.196s-.056 1.94-.8 2.587a2.83 2.83 0 0 0-4.833 0l-.645-1.579v-1.007l.1-.215c.478.239 1.033.272 1.536.092s.91-.559 1.127-1.048h.592a1.95 1.95 0 0 0 2.708.928l.215.242z"/></g><path d="M25.217 32.576c-.585.65-1.418 1.021-2.292 1.021s-1.707-.371-2.292-1.021a2.51 2.51 0 0 1 4.584 0z" fill="#f09fad"/><g fill="#334350"><path d="M27.243 28.262c.049.322.014.651-.1.956a1.98 1.98 0 0 1-.582.83c-.269.221-.587.374-.928.448-.333.078-.678.091-1.016.038-1.049-.163-1.869-.993-2.019-2.044a3.16 3.16 0 0 1 .013-.982.36.36 0 0 1 .411-.282.36.36 0 0 1 .301.397c-.101.492-.017 1.003.238 1.436a1.73 1.73 0 0 0 1.891.729 1.79 1.79 0 0 0 .622-.333c.393-.341.71-.76.932-1.23.016-.03.043-.052.075-.061s.067-.006.097.01.058.05.065.088z"/><path d="M22.925 33.957a3.44 3.44 0 0 1-2.561-1.141 4.29 4.29 0 0 1-1.012-2.936.36.36 0 0 1 .546-.328.36.36 0 0 1 .175.328 3.59 3.59 0 0 0 .828 2.453 2.72 2.72 0 0 0 4.047 0 3.59 3.59 0 0 0 .828-2.454.36.36 0 0 1 .546-.328.36.36 0 0 1 .175.328c.041 1.071-.321 2.118-1.013 2.936a3.44 3.44 0 0 1-2.559 1.142z"/></g><ellipse cx="2.662" cy="1.833" rx="2.662" ry="1.833" transform="matrix(.129038 -.99164 .99164 .129038 13.304 27.597)" fill="#fff"/><use xlink:href="#B" fill="#000072"/><ellipse cx="2.662" cy="1.833" rx="2.662" ry="1.833" transform="matrix(.129038 -.99164 .99164 .129038 13.304 27.597)" fill="#fff"/><g fill="#334350"><use xlink:href="#B"/><ellipse cx="2.167" cy="1.492" rx="2.167" ry="1.492" transform="matrix(.129038 -.99164 .99164 .129038 14.039 27.236)"/></g><g fill="#fff"><circle cx=".672" cy=".672" r=".672" transform="matrix(.325799 -.945439 .945439 .325799 14.133 24.871)"/><ellipse cx="1.833" cy="2.662" rx="1.833" ry="2.662" transform="matrix(.992 -.129 .129 .992 28.156 22.791)"/></g><use xlink:href="#C" fill="#000072"/><ellipse cx="1.833" cy="2.662" rx="1.833" ry="2.662" transform="matrix(.992 -.129 .129 .992 28.156 22.791)" fill="#fff"/><g fill="#334350"><use xlink:href="#C"/><ellipse cx="1.492" cy="2.167" rx="1.492" ry="2.167" transform="matrix(.992 -.129 .129 .992 28.225 23.324)"/></g><circle cx=".672" cy=".672" r=".672" transform="matrix(.985859 -.167578 .167578 .985859 30.021 23.905)" fill="#fff"/><path fill="#b1b1d4" d="M38.852 24.743a12.99 12.99 0 0 0-8.766-10.988c-2.531-1.032-8.456-1.393-11.735-.779a26.37 26.37 0 0 0-3.529.84c-.35.122-.693.263-1.028.423-.162.073-.462.238-.915.494.416-.172 1.872-.7 2.415-.84.984-.267 1.982-.48 2.99-.637 3.847-.401 7.736-.059 11.454 1.006 5.844 1.8 7.5 8.356 7.611 9.6.307 3.479-2.446 7.874-7.51 9.2s-15.5 1.33-20.564 0a6.94 6.94 0 0 1-.921-.312c.905 1.447 2.329 2.493 3.981 2.922 5.064 1.33 15.5 1.33 20.564 0s6.263-7.449 5.953-10.929z" opacity=".1"/><path d="M10.346 41.852a4.53 4.53 0 0 0 .055 2.621 3.63 3.63 0 0 0 2.143 1.925 9.68 9.68 0 0 0 2.913.485 4.41 4.41 0 0 0 2.027-.218c.141-.047.258-.147.327-.279.054-.137-.031-.33-.178-.329a1.29 1.29 0 0 0 .726-.784c.074-.361-.279-.792-.621-.655.164-.041.164-.3.036-.409a.84.84 0 0 0-.48-.132 5.6 5.6 0 0 1-3.322-1.446c-1.9-2.072-1.176-3.76-.218-6.646-1.696 1.572-2.883 3.615-3.408 5.867zm23.682.238a4.53 4.53 0 0 1-.195 2.614c-.467.886-1.278 1.54-2.243 1.808a9.68 9.68 0 0 1-2.935.329 4.41 4.41 0 0 1-2.012-.325c-.139-.055-.251-.163-.312-.3-.047-.14.049-.328.2-.319a1.29 1.29 0 0 1-.683-.822c-.055-.364.32-.776.655-.621-.162-.05-.148-.308-.014-.411a.84.84 0 0 1 .487-.106c1.241-.034 2.435-.479 3.394-1.267 2.431-2.387 1.27-4.166.467-6.574a11.6 11.6 0 0 1 3.191 5.994z" fill="#334350"/><g fill="#7b7b7b"><ellipse cx="1.859" cy="2.548" rx="1.859" ry="2.548" transform="matrix(.961262 -.275637 .275637 .961262 4.337 50.747)" opacity=".38"/><ellipse cx="1.859" cy="2.548" rx="1.859" ry="2.548" transform="matrix(-.961262 -.275637 .275637 -.961262 39.609 55.645)" opacity=".38"/></g><path fill="#e8b331" d="M41.108 42.106a6.49 6.49 0 0 1 .461 2.859c0 0 .894-.389 1.039-1.107-.039-.888-.235-1.762-.578-2.582z"/><path fill="#ffcb39" d="M40.078 40.446a2.95 2.95 0 0 1 1.952 2.09 1.28 1.28 0 0 0 .577-1.214 2.58 2.58 0 0 0-1.745-1.537c0 0-.369.015-.784.661z"/><path fill="#bf8e22" d="M42.03 42.536c-.352-.018-.682-.172-.922-.43l.526-.536a2.38 2.38 0 0 1 .396.966z"/><path fill="#fda046" d="M43.108 22.454a11.53 11.53 0 0 1 2.695.143 2.4 2.4 0 0 0-.717-1.8 7.07 7.07 0 0 0-1.978 1.657z"/><path d="M45.723 30.239a3.91 3.91 0 0 0-2.121-.143c0 0 .277-.789.784-.973a3.66 3.66 0 0 1 2.013.4c-.149.301-.384.55-.676.716z" fill="#234080"/><path fill="#0d344c" d="M43.602 30.095a1.7 1.7 0 0 0 .692.394l.108-.5c-.271-.027-.545.009-.8.106z"/><path fill="#1a3a72" d="M44.293 30.489a4.31 4.31 0 0 0-2.136.335c-.017-.425.179-.831.523-1.082s.79-.314 1.19-.168l-.268.521.691.394z"/><path d="M26.819 9.134c.383-1.098.982-2.109 1.762-2.971a4.35 4.35 0 0 0-1.68-.512 6.22 6.22 0 0 0-.082 3.483z" fill="#ea543b"/><path d="M33.772 9.134c.494-.595 1.185-.995 1.947-1.127a2.93 2.93 0 0 1 .328 1.127 5.85 5.85 0 0 0-2.275 0zM1.693 27.076a1.92 1.92 0 0 0-.962-.068.95.95 0 0 0-.706.607c-.099.323.072.667.389.784.318.087.627-.131.915-.291a3.81 3.81 0 0 1 1.649-.379c-.364-.326-.807-.551-1.285-.653z" fill="#ccc"/><path d="M6.267 9.378a3.82 3.82 0 0 1 .635 1.066l1.086-.635s-.123-.922-.861-1.127z" fill="#234080"/><g fill="#ea543b"><path d="M2.234 38.548a5.31 5.31 0 0 1 2.112-1.071c-.283-.327-.689-.52-1.121-.534a6.19 6.19 0 0 0-1.868 1.093z"/><path d="M1.201 39.765c.004-.832.435-1.603 1.142-2.041a1.05 1.05 0 0 0-1.09-.147 2.11 2.11 0 0 0-.763 1.742s.103.282.711.446z"/></g><path fill="#d63f2b" d="M2.343 37.722c.074.279.036.575-.105.826l-.548-.276c.174-.229.397-.417.653-.55z"/><g transform="matrix(.961262 -.275637 .275637 .961262 8.469 1.867)"><path fill="#00a4b7" d="M4.974 2.769L0 14.253c1.604.543 3.281.838 4.974.875 1.693-.037 3.37-.332 4.974-.875L4.974 2.769"/><path d="M4.952 7.421a13.39 13.39 0 0 0 1.624-.952L5.82 4.721a5.89 5.89 0 0 1-2.119.987L2.552 8.361a16.48 16.48 0 0 0 2.4-.94M3.5 14.418a15.78 15.78 0 0 0 2.763-1.271 11.17 11.17 0 0 0 2.386-1.895L7.493 8.584a5.35 5.35 0 0 1-.855.85c-.615.46-1.277.854-1.974 1.177a15.41 15.41 0 0 1-2.19.928 5.6 5.6 0 0 1-1.427.3L0 14.253a14.01 14.01 0 0 0 2.138.564 12.42 12.42 0 0 0 1.362-.4m3.991.458a14.53 14.53 0 0 0 2.457-.624l-.39-.9a10.28 10.28 0 0 1-2.067 1.524" fill="#3e519c"/><path d="M4.199 7.763l-1.647.6-1.504 3.471a5.6 5.6 0 0 0 1.427-.3c.562-.184 1.111-.405 1.643-.662a4.1 4.1 0 0 1-.062-.515 12.95 12.95 0 0 1 .07-1.859q.032-.37.073-.739m.742-4.912l-1.5 3.466.262-.605a4.85 4.85 0 0 0 .818-.261l.42-2.6" fill="#177598"/><path d="M4.521 5.449c-.265.11-.539.197-.819.259l-.263.605-.887 2.048 1.646-.6q.066-.6.152-1.2.081-.554.171-1.112" fill="#3e3c8a"/><path fill="#d4a8cf" d="M6.591 15.007l-1.489.117 1.489-.117m.1-.012"/><path d="M5.836 13.388a16.16 16.16 0 0 1-2.332 1.03 12.42 12.42 0 0 1-1.362.4c-.726-.132-1.441-.321-2.138-.564 1.603.541 3.279.835 4.97.873h.13l1.49-.117h.096l1.769-.315-.969.2q.324-.188.637-.392a14.61 14.61 0 0 1-1.512-.663 7.42 7.42 0 0 1-.779-.452m2.634 1.29h-.008.008M0 14.253" fill="#177598"/><path d="M4.118 10.876c-.532.257-1.081.478-1.643.662-.461.162-.94.263-1.427.3L0 14.253a14.16 14.16 0 0 0 2.134.563 12.42 12.42 0 0 0 1.362-.4 16.15 16.15 0 0 0 2.336-1.03 4.29 4.29 0 0 1-.995-.9 3.69 3.69 0 0 1-.719-1.61m4.01 3.607q-.313.2-.637.392l.969-.192h.015l.1-.025-.135-.06-.312-.115" fill="#3e3c8a"/><path fill="#ffc639" d="M4.826.123c.081-.165.214-.165.3 0l.311.63c.102.179.276.306.478.347l.7.1c.182.026.223.153.091.281l-.5.491c-.139.152-.206.357-.183.562l.119.693c.031.181-.077.259-.239.174l-.63-.325c-.188-.085-.403-.085-.591 0l-.626.324c-.163.085-.27.007-.239-.174l.119-.693c.022-.204-.044-.408-.183-.559l-.5-.491c-.132-.128-.09-.255.091-.281l.7-.1c.2-.043.371-.17.471-.348z"/><path fill="#f49136" d="M4.919 2.025c-.261-.653-.244-1.384.048-2.024-.051 0-.1.044-.141.123l-.311.63c-.102.179-.276.306-.478.347l-.7.1c-.182.026-.223.153-.091.281l.5.491c.139.152.206.357.183.562l-.119.693c-.031.181.077.259.239.174l.622-.327c.188-.085.403-.085.591 0l.622.327c.135.071.232.029.243-.092-.542-.271-.971-.727-1.208-1.285z"/></g><defs ><path id="B" d="M15.287 27.891a1.29 1.29 0 0 1-.171-.011c-1.027-.134-1.707-1.447-1.514-2.928.074-.673.348-1.308.787-1.823.324-.454.873-.693 1.426-.621s1.022.443 1.22.965c.292.61.395 1.294.295 1.963-.183 1.4-1.079 2.455-2.043 2.455zm.356-5.3a1.62 1.62 0 0 0-1.185.6 3.29 3.29 0 0 0-.764 1.772c-.186 1.43.457 2.7 1.434 2.824a1.21 1.21 0 0 0 .159.01c.919 0 1.774-1.021 1.95-2.374.098-.651-.002-1.315-.285-1.909-.206-.479-.637-.823-1.15-.916-.053-.006-.107-.009-.16-.008z"/><path id="C" d="M30.501 27.892c-.965 0-1.861-1.055-2.043-2.454-.1-.669.002-1.353.294-1.963.198-.522.666-.893 1.22-.965s1.102.167 1.426.621c.439.515.713 1.15.787 1.822.193 1.481-.487 2.794-1.514 2.928-.056.007-.113.011-.17.011zm-.356-5.3a1.24 1.24 0 0 0-.16.01c-.513.094-.944.437-1.15.916a3.3 3.3 0 0 0-.285 1.909c.186 1.43 1.131 2.49 2.11 2.363s1.621-1.394 1.434-2.825a3.29 3.29 0 0 0-.764-1.772 1.62 1.62 0 0 0-1.189-.602z"/></defs></svg>