<svg width="60" height="66" viewBox="0 0 60 66" fill="none" xmlns="http://www.w3.org/2000/svg">
<g opacity="0.28">
<path opacity="0.28" d="M30.0008 65.4681C46.1836 65.4681 59.3024 63.2268 59.3024 60.4621C59.3024 57.6973 46.1836 55.4561 30.0008 55.4561C13.818 55.4561 0.699219 57.6973 0.699219 60.4621C0.699219 63.2268 13.818 65.4681 30.0008 65.4681Z" fill="#87C3FF"/>
</g>
<path d="M41.3236 33.9641L29.5812 32.4307L17.8387 33.9641C17.8387 33.9641 15.0309 42.3378 15.1585 47.0554C15.2861 51.773 16.9455 54.9571 20.9019 56.6087C24.8584 58.2604 29.5812 58.3779 29.5812 58.3779C29.5812 58.3779 34.3036 58.26 38.2604 56.6087C42.2172 54.9574 43.8762 51.773 44.0038 47.0554C44.1315 42.3378 41.3236 33.9641 41.3236 33.9641Z" fill="#FAFAFA"/>
<path opacity="0.32" d="M41.3262 33.9644L37.5092 33.4658C38.3302 36.258 39.6266 41.2214 39.5392 44.461C39.4116 49.1786 37.7522 52.3628 33.7958 54.0144C29.8393 55.6661 25.1168 55.7835 25.1168 55.7835C22.6108 55.674 20.1295 55.2411 17.7344 54.4958C18.6321 55.4139 19.7122 56.1338 20.9049 56.6094C24.8617 58.2607 29.5841 58.3785 29.5841 58.3785C29.5841 58.3785 34.3066 58.2607 38.2634 56.6094C42.2202 54.9581 43.8795 51.7736 44.0068 47.0564C44.1341 42.3392 41.3262 33.9644 41.3262 33.9644Z" fill="#B1B1D4"/>
<path d="M11.6754 51.6968C9.93812 54.0883 8.00814 54.2583 7.05434 55.8316C6.65123 56.442 6.46633 57.1708 6.52981 57.8996C6.59328 58.6283 6.9014 59.3142 7.40397 59.8457C8.20533 60.7852 8.32351 61.1394 9.44338 61.1477C11.4492 61.1624 14.535 60.5908 16.5059 60.1492C18.982 59.5947 21.4486 58.9842 23.9149 58.3738C24.6142 58.199 25.4306 57.9126 25.6663 57.1011C25.9488 56.1277 25.197 55.2001 24.5233 54.5614L18.554 48.9009C16.8489 47.2817 14.8966 47.2611 11.6754 51.6968Z" fill="#334350"/>
<path d="M6.08501 60.0253C4.23616 58.0503 3.51841 54.5749 3.42786 53.4271C3.40618 53.1474 3.32574 52.6173 3.57818 52.2698C3.67892 52.1265 3.82087 52.0173 3.98517 51.9566C4.14947 51.8959 4.32839 51.8866 4.49809 51.93C4.46182 51.7444 4.46808 51.5531 4.51653 51.3704C4.56498 51.1876 4.65438 51.0183 4.77782 50.8751C5.02762 50.59 5.35048 50.3784 5.71165 50.2632C6.05561 50.1321 6.42743 50.0914 6.79162 50.1451C6.97306 50.1732 7.14668 50.2388 7.30138 50.3377C7.45608 50.4366 7.58851 50.5666 7.69019 50.7195C8.2101 50.1951 9.11632 50.2454 9.73062 50.6531C10.3192 51.1049 10.7658 51.7163 11.017 52.4146C11.7276 54.0539 12.0817 55.8256 12.0557 57.6122C12.0846 58.4068 11.9119 59.1958 11.5536 59.9057C11.3915 60.2119 11.1586 60.475 10.8743 60.673C10.59 60.8711 10.2625 60.9985 9.9191 61.0445C9.66037 61.0554 7.57025 61.612 6.08501 60.0253Z" fill="#334350"/>
<path d="M48.3292 51.6968C50.0669 54.0883 51.9965 54.2583 52.9503 55.8316C53.3535 56.442 53.5383 57.1708 53.4749 57.8996C53.4114 58.6283 53.1033 59.3142 52.6007 59.8457C51.799 60.7852 51.6812 61.1394 50.5613 61.1477C48.5551 61.1624 45.4696 60.5908 43.4988 60.1492C41.023 59.5947 38.5564 58.9842 36.0894 58.3738C35.3901 58.199 34.5741 57.9126 34.3384 57.1011C34.0559 56.1277 34.8076 55.2001 35.481 54.5614L41.4506 48.9009C43.1554 47.2817 45.1067 47.2611 48.3292 51.6968Z" fill="#334350"/>
<path d="M53.9154 60.0253C55.7643 58.0503 56.4821 54.5749 56.5727 53.4271C56.5943 53.1474 56.6747 52.6173 56.4219 52.2698C56.3212 52.1265 56.1793 52.0173 56.0151 51.9566C55.8509 51.8959 55.6721 51.8866 55.5024 51.93C55.5388 51.7444 55.5324 51.5531 55.484 51.3703C55.4355 51.1876 55.3462 51.0183 55.2227 50.8751C54.9729 50.59 54.65 50.3784 54.2889 50.2632C53.9449 50.1321 53.573 50.0914 53.2088 50.1451C53.0274 50.1732 52.8538 50.2388 52.6991 50.3377C52.5444 50.4366 52.4119 50.5666 52.3102 50.7195C51.79 50.1951 50.8841 50.2454 50.2698 50.6531C49.6812 51.1049 49.2347 51.7163 48.9835 52.4146C48.2728 54.0539 47.9186 55.8256 47.9445 57.6122C47.9159 58.4068 48.0886 59.1958 48.4468 59.9057C48.609 60.2119 48.842 60.475 49.1263 60.673C49.4105 60.8711 49.7379 60.9985 50.0813 61.0445C50.3418 61.0554 52.4316 61.612 53.9154 60.0253Z" fill="#334350"/>
<path d="M43.0632 40.1681C43.0632 36.3676 41.065 32.7822 41.065 32.7822L29.3227 31.249L17.5803 32.7822C17.5803 32.7822 15.7342 36.8536 15.4199 41.0016C17.3761 39.1193 19.7337 37.7051 22.3153 36.8655C25.4886 35.8453 28.9118 35.631 32.2617 35.8694C40.6137 36.4645 42.9866 40.1055 43.0632 40.1681Z" fill="#334350"/>
<path d="M9.5697 16.4484C9.5697 16.4484 -1.31365 11.8965 4.93532 3.70637C10.4445 -3.51423 17.6808 4.6273 17.6808 4.6273L9.5697 16.4484Z" fill="#334350"/>
<path d="M10.3733 12.9715C10.3733 12.9715 4.30092 10.4318 7.78605 5.86171C10.86 1.83291 14.8976 6.37567 14.8976 6.37567L10.3733 12.9715Z" fill="#F09FAD"/>
<path d="M4.03428 5.11554C9.31372 -1.80368 16.1784 5.38336 16.742 5.99556L17.6808 4.62745C17.6808 4.62745 10.4434 -3.51443 4.93564 3.70652C4.55739 4.19745 4.21906 4.71784 3.92383 5.26274C3.96054 5.21379 3.99687 5.16519 4.03428 5.11554Z" fill="#334350"/>
<path opacity="0.22" d="M3.77534 8.66565C3.74047 9.44427 3.94296 10.2151 4.35604 10.876C4.43629 11.0329 4.5569 11.1656 4.70541 11.2605C4.85393 11.3554 5.02504 11.409 5.20114 11.4159C5.35822 11.3836 5.50127 11.3031 5.61035 11.1856C5.71943 11.068 5.78907 10.9193 5.80949 10.7603C5.8487 10.4351 5.78483 10.1058 5.62695 9.81874C5.4843 9.52855 5.29553 9.26527 5.14693 8.97962C4.77798 8.25729 4.67191 7.42908 4.84694 6.63709C4.8819 6.47871 4.91688 6.27906 4.79171 6.18257C4.13405 5.66406 3.78128 8.39154 3.77534 8.66565Z" fill="white"/>
<path d="M41.502 5.79889C41.502 5.79889 47.7089 -4.2331 54.8145 3.22629C61.0789 9.80287 51.9003 15.6679 51.9003 15.6679L41.502 5.79889Z" fill="#334350"/>
<path d="M44.8086 7.13777C44.8086 7.13777 48.272 1.54017 52.2365 5.70218C55.7328 9.37332 50.6107 12.6441 50.6107 12.6441L44.8086 7.13777Z" fill="#F09FAD"/>
<path d="M53.5642 2.11451C59.5671 8.41627 51.3895 14.0653 50.6973 14.5264L51.9007 15.6687C51.9007 15.6687 61.0788 9.80326 54.8145 3.22704C54.3891 2.77642 53.9283 2.36055 53.4366 1.9834C53.4789 2.02605 53.5216 2.06976 53.5642 2.11451Z" fill="#334350"/>
<path opacity="0.22" d="M50.0988 1.30019C49.3359 1.14363 48.5434 1.22239 47.8262 1.52605C47.5014 1.67464 47.1769 1.92882 47.1602 2.27601C47.1673 2.43619 47.2243 2.59014 47.3232 2.71633C47.4221 2.84252 47.558 2.93464 47.7118 2.97982C48.0269 3.06976 48.3622 3.05851 48.6705 2.94765C48.9796 2.85255 49.2691 2.70745 49.5761 2.60571C50.3477 2.35487 51.1826 2.38046 51.9375 2.67808C52.0885 2.73822 52.2801 2.8029 52.3962 2.69521C53.0063 2.12671 50.3698 1.34948 50.0988 1.30019Z" fill="white"/>
<path d="M52.5261 17.525C52.0978 12.6718 48.9099 6.40427 42.8784 3.03173C37.2899 -0.0929328 23.5501 -0.378232 16.9008 3.03173C11.3878 5.85885 8.05088 12.5242 7.62258 17.3771C7.19428 22.23 8.47881 30.7233 15.5445 32.5791C22.6102 34.435 37.1696 34.4346 44.2353 32.5791C51.3011 30.7236 52.9544 22.3783 52.5261 17.525Z" fill="#FAFAFA"/>
<path d="M25.6657 12.5865C23.6462 14.2129 22.469 16.688 21.9271 19.8032C21.8507 20.2293 21.6465 20.6222 21.3417 20.9296C21.0368 21.237 20.6457 21.4444 20.2202 21.5244C15.8421 22.3684 12.5115 17.6107 14.7051 12.3375C17.592 5.51374 24.8025 6.33643 26.302 10.1831C26.4639 10.5995 26.4896 11.0565 26.3752 11.4884C26.2609 11.9203 26.0124 12.3047 25.6657 12.5865Z" fill="#334350"/>
<path d="M34.8206 12.5865C36.8401 14.2129 38.017 16.688 38.5589 19.8032C38.6354 20.2293 38.8396 20.6221 39.1444 20.9295C39.4492 21.2369 39.8404 21.4444 40.2659 21.5244C44.6443 22.3684 47.9742 17.6107 45.7809 12.3375C42.8944 5.51374 35.6836 6.33643 34.1843 10.1831C34.0226 10.5995 33.997 11.0565 34.1114 11.4884C34.2257 11.9202 34.474 12.3047 34.8206 12.5865Z" fill="#334350"/>
<path d="M22.4461 18.2898C22.7108 16.2559 21.7898 14.4593 20.3891 14.277C18.9885 14.0948 17.6384 15.5958 17.3738 17.6298C17.1091 19.6637 18.03 21.4603 19.4307 21.6425C20.8314 21.8248 22.1814 20.3237 22.4461 18.2898Z" fill="white"/>
<path d="M19.6598 21.7233C19.5803 21.7233 19.5009 21.7182 19.4221 21.7079C17.9886 21.5215 17.0404 19.6888 17.3093 17.6228C17.4131 16.6847 17.7954 15.7991 18.4071 15.0803C18.6292 14.7692 18.9318 14.5243 19.2823 14.3717C19.6328 14.2191 20.0181 14.1646 20.3972 14.214C20.7763 14.2633 21.1349 14.4147 21.4346 14.6519C21.7344 14.8892 21.9641 15.2034 22.0992 15.561C22.5066 16.4123 22.6497 17.366 22.51 18.2993C22.2552 20.2509 21.0052 21.7233 19.6598 21.7233ZM20.156 14.3278C19.8367 14.3427 19.5242 14.4252 19.2391 14.5699C18.9541 14.7145 18.7031 14.918 18.5025 15.167C17.9083 15.8662 17.5371 16.7274 17.4369 17.6396C17.1771 19.6349 18.0746 21.4023 19.4382 21.5803C19.5119 21.5899 19.5862 21.5946 19.6605 21.5946C20.9426 21.5946 22.1359 20.1698 22.381 18.2829C22.5174 17.3755 22.3791 16.4481 21.9838 15.6201C21.8426 15.2914 21.6223 15.0027 21.3424 14.7797C21.0626 14.5568 20.732 14.4064 20.3801 14.3422C20.3058 14.3325 20.2309 14.3277 20.156 14.3278Z" fill="#000072"/>
<path d="M22.4461 18.2898C22.7108 16.2559 21.7898 14.4593 20.3891 14.277C18.9885 14.0948 17.6384 15.5958 17.3738 17.6298C17.1091 19.6637 18.03 21.4603 19.4307 21.6425C20.8314 21.8248 22.1814 20.3237 22.4461 18.2898Z" fill="white"/>
<path d="M19.6598 21.7233C19.5803 21.7233 19.5009 21.7182 19.4221 21.7079C17.9886 21.5215 17.0404 19.6888 17.3093 17.6228C17.4131 16.6847 17.7954 15.7991 18.4071 15.0803C18.6292 14.7692 18.9318 14.5243 19.2823 14.3717C19.6328 14.2191 20.0181 14.1646 20.3972 14.214C20.7763 14.2633 21.1349 14.4147 21.4346 14.6519C21.7344 14.8892 21.9641 15.2034 22.0992 15.561C22.5066 16.4123 22.6497 17.366 22.51 18.2993C22.2552 20.2509 21.0052 21.7233 19.6598 21.7233ZM20.156 14.3278C19.8367 14.3427 19.5242 14.4252 19.2391 14.5699C18.9541 14.7145 18.7031 14.918 18.5025 15.167C17.9083 15.8662 17.5371 16.7274 17.4369 17.6396C17.1771 19.6349 18.0746 21.4023 19.4382 21.5803C19.5119 21.5899 19.5862 21.5946 19.6605 21.5946C20.9426 21.5946 22.1359 20.1698 22.381 18.2829C22.5174 17.3755 22.3791 16.4481 21.9838 15.6201C21.8426 15.2914 21.6223 15.0027 21.3424 14.7797C21.0626 14.5568 20.732 14.4064 20.3801 14.3422C20.3058 14.3325 20.2309 14.3277 20.156 14.3278Z" fill="#334350"/>
<path d="M22.4374 18.3479C22.6528 16.6922 21.9031 15.2297 20.7629 15.0813C19.6226 14.9329 18.5235 16.1549 18.3081 17.8106C18.0926 19.4663 18.8423 20.9289 19.9826 21.0773C21.1229 21.2256 22.2219 20.0037 22.4374 18.3479Z" fill="#334350"/>
<path d="M20.1298 17.2335C20.2984 16.7442 20.0384 16.2109 19.5492 16.0423C19.0599 15.8737 18.5266 16.1336 18.358 16.6229C18.1894 17.1122 18.4494 17.6455 18.9386 17.8141C19.4279 17.9827 19.9612 17.7227 20.1298 17.2335Z" fill="white"/>
<path d="M41.1105 21.6457C42.5117 21.4634 43.4331 19.6663 43.1685 17.6317C42.9039 15.597 41.5535 14.0953 40.1523 14.2775C38.7511 14.4597 37.8297 16.2568 38.0943 18.2915C38.3589 20.3262 39.7093 21.8279 41.1105 21.6457Z" fill="white"/>
<path d="M40.8808 21.7232C39.5347 21.7232 38.2848 20.2509 38.0306 18.2996C37.8908 17.3662 38.0338 16.4123 38.4411 15.5609C38.5763 15.2033 38.806 14.8892 39.1058 14.6519C39.4056 14.4147 39.7642 14.2633 40.1433 14.214C40.5224 14.1646 40.9077 14.2191 41.2582 14.3717C41.6088 14.5243 41.9113 14.7691 42.1335 15.0802C42.7453 15.7988 43.1279 16.6843 43.2317 17.6224C43.5002 19.688 42.5528 21.5208 41.1189 21.7075C41.04 21.7177 40.9604 21.7229 40.8808 21.7232ZM40.3843 14.3274C40.3095 14.3275 40.2348 14.3324 40.1606 14.3421C39.8085 14.4061 39.4778 14.5563 39.1979 14.7792C38.918 15.0021 38.6976 15.2909 38.5564 15.6197C38.1612 16.4479 38.0227 17.3753 38.1589 18.2828C38.4183 20.2778 39.7375 21.7574 41.1024 21.5795C42.4674 21.4015 43.3639 19.6345 43.1038 17.6388C43.0034 16.7267 42.6322 15.8655 42.0381 15.1662C41.8376 14.9175 41.5868 14.7141 41.3019 14.5695C41.0171 14.4249 40.7048 14.3424 40.3857 14.3274H40.3843Z" fill="#000072"/>
<path d="M41.1105 21.6457C42.5117 21.4634 43.4331 19.6663 43.1685 17.6317C42.9039 15.597 41.5535 14.0953 40.1523 14.2775C38.7511 14.4597 37.8297 16.2568 38.0943 18.2915C38.3589 20.3262 39.7093 21.8279 41.1105 21.6457Z" fill="white"/>
<path d="M40.8808 21.7232C39.5347 21.7232 38.2848 20.2509 38.0306 18.2996C37.8908 17.3662 38.0338 16.4123 38.4411 15.5609C38.5763 15.2033 38.806 14.8892 39.1058 14.6519C39.4056 14.4147 39.7642 14.2633 40.1433 14.214C40.5224 14.1646 40.9077 14.2191 41.2582 14.3717C41.6088 14.5243 41.9113 14.7691 42.1335 15.0802C42.7453 15.7988 43.1279 16.6843 43.2317 17.6224C43.5002 19.688 42.5528 21.5208 41.1189 21.7075C41.04 21.7177 40.9604 21.7229 40.8808 21.7232ZM40.3843 14.3274C40.3095 14.3275 40.2348 14.3324 40.1606 14.3421C39.8085 14.4061 39.4778 14.5563 39.1979 14.7792C38.918 15.0021 38.6976 15.2909 38.5564 15.6197C38.1612 16.4479 38.0227 17.3753 38.1589 18.2828C38.4183 20.2778 39.7375 21.7574 41.1024 21.5795C42.4674 21.4015 43.3639 19.6345 43.1038 17.6388C43.0034 16.7267 42.6322 15.8655 42.0381 15.1662C41.8376 14.9175 41.5868 14.7141 41.3019 14.5695C41.0171 14.4249 40.7048 14.3424 40.3857 14.3274H40.3843Z" fill="#334350"/>
<path d="M40.5563 21.0802C41.697 20.9318 42.4471 19.4688 42.2317 17.8125C42.0163 16.1561 40.917 14.9337 39.7763 15.082C38.6356 15.2303 37.8855 16.6933 38.1009 18.3497C38.3163 20.006 39.4157 21.2285 40.5563 21.0802Z" fill="#334350"/>
<path d="M41.4546 17.8507C41.9648 17.7639 42.3081 17.2801 42.2213 16.7699C42.1346 16.2597 41.6507 15.9164 41.1406 16.0031C40.6304 16.0899 40.2871 16.5737 40.3738 17.0839C40.4605 17.5941 40.9444 17.9374 41.4546 17.8507Z" fill="white"/>
<path opacity="0.1" d="M52.5419 17.329C52.3234 14.8522 50.5053 5.4719 40.3121 1.9983C36.7808 0.558521 28.5144 0.0543517 23.9395 0.91095C22.2731 1.18835 20.6278 1.58016 19.0153 2.08362C18.5269 2.2536 18.0484 2.45051 17.5818 2.67344C17.3559 2.77484 16.9378 3.00559 16.3053 3.36326C16.8857 3.12307 18.9174 2.3843 19.6743 2.19165C21.0473 1.81901 22.4398 1.52253 23.8454 1.30359C29.2098 0.864099 34.6193 1.09975 39.8264 2.70771C47.9798 5.22505 50.292 14.3655 50.4448 16.0969C50.8731 20.9501 47.032 27.0826 39.9663 28.9381C32.9006 30.7936 18.3409 30.7936 11.2751 28.9381C10.8372 28.8234 10.4078 28.678 9.99023 28.5032C11.2525 30.5218 13.2399 31.9803 15.5441 32.5792C22.6099 34.4347 37.1696 34.4347 44.2353 32.5792C51.301 30.7237 52.9698 22.1822 52.5419 17.329Z" fill="#B1B1D4"/>
<path d="M33.412 18.6612C33.3994 20.0573 31.9953 21.9373 30.2846 21.9222C28.5738 21.9072 27.204 20.0013 27.2169 18.6056C27.2298 17.2099 28.6193 16.8484 30.3286 16.8637C32.038 16.8791 33.4246 17.2648 33.412 18.6612Z" fill="#334350"/>
<path d="M24.6231 20.8027C24.8027 21.1419 25.0034 21.4696 25.2241 21.7837C25.4218 22.0607 25.6571 22.3086 25.9234 22.5204C26.1803 22.7295 26.475 22.8871 26.7915 22.9848C27.1183 23.0745 27.4609 23.0907 27.7946 23.0323C28.1277 22.982 28.4461 22.8609 28.7284 22.6772C29.0108 22.4936 29.2505 22.2517 29.4316 21.9677C29.7868 21.3637 29.9046 20.6492 29.7623 19.9632C29.7443 19.8333 29.7777 19.7014 29.8555 19.5958C29.9332 19.4901 30.0491 19.4189 30.1785 19.3974C30.3079 19.3759 30.4406 19.4058 30.5483 19.4806C30.656 19.5555 30.7303 19.6694 30.7553 19.7982V19.8006V19.8045C30.8327 20.2577 30.8384 20.7203 30.7724 21.1754C30.7045 21.6477 30.5377 22.1005 30.2829 22.504C30.0257 22.9111 29.6834 23.2576 29.2795 23.5197C28.8784 23.779 28.4275 23.9514 27.9558 24.0259C27.4843 24.1014 27.0027 24.0838 26.538 23.9739C26.0642 23.8693 25.6213 23.6557 25.2444 23.3501C25.06 23.1941 24.8969 23.0145 24.7595 22.8159C24.6228 22.6231 24.513 22.4127 24.4329 22.1904C24.3529 21.9757 24.3006 21.7518 24.2773 21.524C24.252 21.3018 24.2575 21.0772 24.2937 20.8565C24.2985 20.82 24.3146 20.7858 24.3399 20.759C24.3652 20.7321 24.3984 20.714 24.4346 20.7072C24.4708 20.7003 24.5083 20.705 24.5417 20.7208C24.575 20.7365 24.6026 20.7623 24.6203 20.7946L24.6231 20.8027Z" fill="#334350"/>
<path d="M34.7979 23.555C34.7979 23.555 34.7203 26.2622 33.6875 27.1639C31.9645 24.6438 28.6679 24.6438 26.9449 27.1639L26.0449 24.9612V23.5557L26.1904 23.2564C27.4914 23.9473 29.1482 23.4239 29.9048 21.9219C30.1828 21.924 30.4607 21.924 30.7314 21.924C31.5006 23.4502 33.2012 23.9648 34.5102 23.2176C34.6808 23.4166 34.7979 23.555 34.7979 23.555Z" fill="#334350"/>
<path d="M33.5123 26.8757C33.109 27.3242 32.6159 27.6828 32.065 27.9282C31.5142 28.1737 30.9178 28.3005 30.3147 28.3005C29.7117 28.3005 29.1153 28.1737 28.5644 27.9282C28.0135 27.6828 27.5205 27.3242 27.1172 26.8757C27.3927 26.2579 27.8414 25.7332 28.4088 25.365C28.9763 24.9967 29.6383 24.8008 30.3147 24.8008C30.9912 24.8008 31.6532 24.9967 32.2207 25.365C32.7881 25.7332 33.2367 26.2579 33.5123 26.8757Z" fill="#F09FAD"/>
<path d="M36.34 20.856C36.4081 21.3054 36.36 21.7647 36.2002 22.1902C36.0343 22.64 35.7544 23.039 35.388 23.3482C35.0125 23.6562 34.569 23.8702 34.0943 23.9726C33.6296 24.0813 33.1482 24.0991 32.6766 24.0251C31.9636 23.9142 31.3051 23.5773 30.7979 23.064C30.2908 22.5507 29.9619 21.8881 29.8596 21.1738C29.794 20.719 29.7999 20.2567 29.8771 19.8036V19.8001C29.8983 19.6684 29.971 19.5504 30.0792 19.4723C30.1874 19.3941 30.3222 19.3621 30.454 19.3834C30.5858 19.4046 30.7037 19.4773 30.7819 19.5855C30.86 19.6937 30.892 19.8285 30.8708 19.9603V19.9624C30.7288 20.6482 30.8468 21.3624 31.2019 21.9661C31.479 22.3916 31.8831 22.7188 32.3569 22.9014C32.8307 23.084 33.3499 23.1126 33.8409 22.9832C34.1583 22.8874 34.4534 22.7293 34.709 22.5182C35.2571 22.0428 35.6998 21.4582 36.009 20.8018V20.7991C36.0267 20.7668 36.054 20.7408 36.0872 20.7248C36.1204 20.7088 36.1577 20.7036 36.194 20.7098C36.2303 20.716 36.2637 20.7334 36.2897 20.7596C36.3156 20.7857 36.3327 20.8193 36.3387 20.8557L36.34 20.856Z" fill="#334350"/>
<path d="M30.3136 28.8032C29.6398 28.8036 28.9734 28.6621 28.3579 28.3879C27.7425 28.1137 27.1916 27.7129 26.7414 27.2117C25.7758 26.0707 25.2718 24.6098 25.3285 23.1161C25.3285 22.9826 25.3815 22.8546 25.4759 22.7602C25.5703 22.6658 25.6983 22.6128 25.8318 22.6128C25.9653 22.6128 26.0933 22.6658 26.1877 22.7602C26.2821 22.8546 26.3351 22.9826 26.3351 23.1161C26.2803 24.361 26.6917 25.5816 27.4889 26.5393C27.845 26.9351 28.2804 27.2516 28.7667 27.4683C29.2531 27.6849 29.7796 27.7969 30.312 27.7969C30.8444 27.7969 31.3709 27.6849 31.8572 27.4683C32.3436 27.2516 32.779 26.9351 33.1351 26.5393C33.9331 25.5817 34.3453 24.3608 34.291 23.1154C34.291 22.982 34.344 22.854 34.4383 22.7596C34.5327 22.6653 34.6607 22.6123 34.7941 22.6123C34.9276 22.6123 35.0555 22.6653 35.1499 22.7596C35.2442 22.854 35.2972 22.982 35.2972 23.1154C35.3538 24.6096 34.8494 26.0708 33.8833 27.212C33.4333 27.7129 32.8829 28.1134 32.2678 28.3876C31.6528 28.6617 30.9869 28.8033 30.3136 28.8032Z" fill="#334350"/>
<path opacity="0.38" d="M8.83534 59.7288C10.2122 59.334 10.8898 57.4842 10.3487 55.5972C9.80764 53.7103 8.25281 52.5006 6.87591 52.8955C5.49901 53.2903 4.82145 55.14 5.36253 57.027C5.90361 58.914 7.45844 60.1236 8.83534 59.7288Z" fill="#7B7B7B"/>
<path opacity="0.38" d="M53.0601 52.8951C51.6832 52.5003 50.1283 53.7099 49.5873 55.5969C49.0462 57.4839 49.7238 59.3337 51.1007 59.7285C52.4776 60.1233 54.0324 58.9137 54.5735 57.0267C55.1145 55.1397 54.437 53.29 53.0601 52.8951Z" fill="#7B7B7B"/>
<path d="M40.7201 60.4541L35.2165 60.6251C33.6967 60.5373 31.9485 60.5646 30.0839 60.6188C28.2141 60.673 26.4509 60.7554 24.9115 60.9334L19.2656 61.1002V62.2466C19.2656 62.2466 19.2656 62.2467 19.2656 62.2501C19.2656 62.9826 24.1416 63.4238 30.1042 63.2389C36.0105 63.0557 40.7488 62.2876 40.7372 61.568C40.7372 61.5659 40.7372 61.5243 40.7372 61.5243L40.7201 60.4541Z" fill="#5E2A00"/>
<path d="M40.7201 60.4679C40.7313 61.1861 35.9969 61.9119 30.0955 62.0895C24.1374 62.2689 19.2656 61.8221 19.2656 61.0913C19.2656 60.3606 24.128 59.6334 30.0748 59.4669C35.9654 59.3016 40.71 59.7498 40.7201 60.4679Z" fill="#AD561F"/>
<path opacity="0.5" d="M33.7864 43.5453L31.0593 45.691L33.8431 47.7625C35.3838 48.9171 36.6375 50.4114 37.5069 52.1293C38.3762 53.8472 38.8376 55.7424 38.8554 57.6676L38.8939 60.3675C38.8939 60.4178 38.8495 60.4612 38.7733 60.5119L30.366 60.314L29.7996 60.3301L21.2637 61.0203C21.1843 60.9734 21.1588 60.9314 21.1588 60.8804L21.155 58.141C21.1511 56.1714 21.5949 54.2267 22.4528 52.4538C23.3108 50.6808 24.5605 49.1261 26.1075 47.907L28.8633 45.7392L26.0809 43.6628C24.543 42.5209 23.2934 41.0351 22.4322 39.324C21.571 37.613 21.122 35.7243 21.121 33.8087L21.1172 31.0264L29.5912 31.3858L30.1506 31.3827L38.4739 30.9365L38.5131 33.6804C38.5366 35.5775 38.1224 37.4543 37.3026 39.1652C36.4828 40.8761 35.2796 42.375 33.7864 43.5453Z" fill="#D8DEE8"/>
<path d="M38.8813 60.3662C38.8813 60.4165 38.8425 60.4672 38.7663 60.5179C38.0859 60.9662 34.4658 61.4007 30.0717 61.5318C25.645 61.6629 21.9476 61.4413 21.2421 61.0277C21.1627 60.9809 21.1214 60.9319 21.1211 60.8809C21.1211 60.375 25.137 59.8522 30.0573 59.7134C34.9392 59.5739 38.8743 59.8676 38.8813 60.3662Z" fill="#BFC8D6"/>
<path d="M30.2198 52.2317L29.7653 52.2419L29.709 44.895L30.1604 44.8877L30.2198 52.2317Z" fill="url(#paint0_linear_10180_183385)"/>
<path d="M29.9277 40.5724L24.6973 40.6395L24.9696 41.0923C26.2929 42.8743 28.0004 44.3355 29.9655 45.3675C31.901 44.2791 33.5707 42.7744 34.854 40.9622L35.1149 40.5049L29.9277 40.5724Z" fill="url(#paint1_linear_10180_183385)"/>
<path d="M35.1138 40.4187C35.117 40.6925 32.8021 40.9449 29.9312 40.9831C27.0471 41.0212 24.6983 40.8282 24.6973 40.5519C24.6962 40.2757 27.0398 40.0233 29.9236 39.9876C32.7919 39.952 35.1107 40.1453 35.1138 40.4187Z" fill="url(#paint2_linear_10180_183385)"/>
<path d="M29.9826 51.644C29.9779 51.644 29.9826 51.644 29.9826 51.644C29.9826 51.644 29.9865 51.6385 29.9826 51.644Z" fill="url(#paint3_linear_10180_183385)"/>
<path d="M37.3246 60.408C34.7374 60.9859 30.7075 61.1635 30.1222 61.181L30.0568 61.183L29.9914 61.1848C29.6796 61.1939 28.3891 61.2152 26.8504 61.1687C25.4639 61.1407 24.0804 61.0283 22.7076 60.832C22.7048 60.832 22.7139 60.8226 22.7139 60.8219V60.4974C22.7695 59.5408 22.9107 56.7767 23.3928 56.1799C23.9669 55.4698 29.7911 51.7745 29.9859 51.6455C30.1813 51.7665 36.0048 55.1725 36.5782 55.8473C36.778 56.177 36.9068 56.5447 36.9565 56.927C37.0721 57.5383 37.1568 58.155 37.2103 58.7748C37.2932 59.6657 37.3246 60.408 37.3246 60.408Z" fill="url(#paint4_linear_10180_183385)"/>
<g style="mix-blend-mode:soft-light">
<path d="M24.9615 35.111C24.9215 34.1177 24.9508 33.123 25.0492 32.1338C25.0492 32.1338 24.5804 31.0451 22.9301 31.5475C22.5315 32.7002 22.336 33.9134 22.3525 35.133L24.9615 35.111Z" fill="white"/>
</g>
<g style="mix-blend-mode:soft-light">
<path d="M25.0007 35.8789L22.3984 35.9023C22.9809 41.6307 28.5747 44.9124 28.5747 44.9124L29.9033 44.8907C26.2367 43.4607 25.2238 39.0864 25.0007 35.8789Z" fill="white"/>
</g>
<g style="mix-blend-mode:soft-light">
<path d="M25.1707 59.9984L22.8176 60.0648C22.5317 59.0766 22.3927 58.0517 22.4051 57.023L25.056 56.9531C25.0243 57.9697 25.0627 58.9871 25.1707 59.9984Z" fill="white"/>
</g>
<g style="mix-blend-mode:soft-light">
<path d="M25.0888 56.1614L22.4473 56.2282C23.0067 50.2907 28.5893 46.7923 28.5893 46.7923L29.9178 46.7686C26.2642 48.3964 25.2866 52.8654 25.0888 56.1614Z" fill="white"/>
</g>
<path d="M40.26 30.9412L34.8732 30.9737C33.3859 30.8552 31.6751 30.8387 29.8507 30.8478C28.0208 30.8573 26.2957 30.8943 24.7898 31.0293L19.2656 31.059V32.111C19.2656 32.111 19.2656 32.1303 19.2656 32.1324C19.2656 32.8316 24.0353 33.3753 29.8693 33.3341C35.6494 33.2931 40.2883 32.6984 40.2764 32.0093C40.2764 32.0072 40.2764 31.9998 40.2764 31.9998L40.26 30.9412Z" fill="#AD561F"/>
<path d="M40.2602 30.9335C40.271 31.6212 35.6366 32.2079 29.8614 32.2435C24.032 32.2785 19.2676 31.7415 19.2676 31.0418C19.2676 30.3422 24.0243 29.7573 29.8429 29.7332C35.6059 29.7094 40.2493 30.2464 40.2602 30.9335Z" fill="#5E2A00"/>
<path style="mix-blend-mode:multiply" opacity="0.3" d="M37.3246 60.4071C34.7374 60.9851 30.7075 61.163 30.1222 61.1801L30.0568 61.1818L29.9914 61.1836C29.6796 61.1927 28.3891 61.2141 26.8504 61.1679C25.4639 61.1399 24.0804 61.0274 22.7076 60.8312C22.7048 60.8312 22.7139 60.8217 22.7139 60.821V60.819C22.7139 60.8022 22.7048 60.6854 22.7139 60.4977C24.1697 60.4977 27.1993 60.3927 28.5136 59.5393C30.2656 58.4012 31.727 58.3278 33.643 58.638C35.2163 58.8925 36.3526 58.0129 36.9572 56.9248C37.0711 57.4842 37.1533 58.1632 37.2114 58.7722C37.2932 59.6659 37.3246 60.4071 37.3246 60.4071Z" fill="url(#paint5_linear_10180_183385)"/>
<path d="M12.7669 41.2C12.5086 42.4101 12.3823 43.7076 12.8442 44.8561C13.3574 46.1361 14.5449 47.0536 15.835 47.542C17.1473 47.974 18.518 48.202 19.8995 48.2182C20.855 48.2706 21.8511 48.3004 22.7269 47.9147C22.9238 47.8489 23.0873 47.7093 23.1832 47.5252C23.2583 47.3343 23.1395 47.0647 22.9343 47.0665C23.386 46.8218 23.8433 46.4756 23.9482 45.9725C24.053 45.4694 23.5594 44.868 23.0822 45.0586C23.3112 45.0012 23.3111 44.639 23.1318 44.4873C22.9321 44.3596 22.6984 44.2953 22.4615 44.303C20.9029 44.1544 18.8852 43.4391 17.8269 42.2856C15.1746 39.3949 16.1867 37.0412 17.5226 33.0127C15.1745 35.3912 13.4749 37.8824 12.7669 41.2Z" fill="#334350"/>
<path d="M45.8082 41.5319C46.0019 42.7556 46.0574 44.0565 45.5365 45.1789C44.9554 46.4298 43.7209 47.2826 42.4069 47.7015C41.093 48.1203 39.6914 48.1581 38.3121 48.1598C37.3551 48.1598 36.359 48.1378 35.5045 47.7053C35.3116 47.6291 35.1557 47.4809 35.0699 47.292C35.0049 47.0973 35.1399 46.8344 35.3434 46.8469C34.9049 46.5791 34.4665 46.2085 34.3903 45.7005C34.314 45.1925 34.8375 44.6166 35.3035 44.8341C35.078 44.7642 35.0972 44.4041 35.2842 44.2611C35.4905 44.1442 35.7274 44.0925 35.9636 44.1128C37.5275 44.0471 39.5823 43.4422 40.6987 42.3454C44.0901 39.0148 42.4692 36.5335 41.3504 33.1729C43.567 35.6738 45.2767 38.181 45.8082 41.5319Z" fill="#334350"/>
<defs>
<linearGradient id="paint0_linear_10180_183385" x1="30.0635" y1="40.4678" x2="16.7016" y2="45.7321" gradientUnits="userSpaceOnUse">
<stop stop-color="#FFC444"/>
<stop offset="0.996" stop-color="#F36F56"/>
</linearGradient>
<linearGradient id="paint1_linear_10180_183385" x1="29.9477" y1="37.4852" x2="29.8796" y2="62.9176" gradientUnits="userSpaceOnUse">
<stop stop-color="#FFC444"/>
<stop offset="0.996" stop-color="#F36F56"/>
</linearGradient>
<linearGradient id="paint2_linear_10180_183385" x1="31.5201" y1="21.7676" x2="31.4958" y2="52.054" gradientUnits="userSpaceOnUse">
<stop stop-color="#FFC444"/>
<stop offset="0.996" stop-color="#F36F56"/>
</linearGradient>
<linearGradient id="paint3_linear_10180_183385" x1="29.9824" y1="51.6401" x2="29.9824" y2="51.6527" gradientUnits="userSpaceOnUse">
<stop stop-color="#FFC444"/>
<stop offset="0.996" stop-color="#F36F56"/>
</linearGradient>
<linearGradient id="paint4_linear_10180_183385" x1="30.1912" y1="45.9047" x2="29.9353" y2="95.3293" gradientUnits="userSpaceOnUse">
<stop stop-color="#FFC444"/>
<stop offset="0.996" stop-color="#F36F56"/>
</linearGradient>
<linearGradient id="paint5_linear_10180_183385" x1="30.0889" y1="54.2122" x2="30.0652" y2="76.8101" gradientUnits="userSpaceOnUse">
<stop stop-color="#FFC444"/>
<stop offset="0.996" stop-color="#F36F56"/>
</linearGradient>
</defs>
</svg>
