<svg xmlns="http://www.w3.org/2000/svg" xmlns:xlink="http://www.w3.org/1999/xlink" width="38.784" height="43.581" xmlns:v="https://vecta.io/nano"><style>.I,.J{isolation:isolate}.I{mix-blend-mode:multiply}.J{mix-blend-mode:screen}</style><path d="M27.524 24.057l-8.433-1.1-8.434 1.1s-2.016 6.014-1.925 9.4 1.283 5.675 4.125 6.861c3.983 1.694 8.484 1.694 12.467 0 2.842-1.186 4.033-3.473 4.125-6.861s-1.925-9.4-1.925-9.4z" fill="#fafafa"/><path fill="#b1b1d4" d="M27.525 24.057l-2.741-.358a30.84 30.84 0 0 1 1.458 7.9c-.092 3.388-1.284 5.675-4.125 6.861-1.996.754-4.101 1.183-6.233 1.27a20.92 20.92 0 0 1-5.3-.925c.645.659 1.42 1.176 2.277 1.518 3.983 1.694 8.484 1.694 12.467 0 2.842-1.186 4.033-3.473 4.125-6.861s-1.928-9.405-1.928-9.405z" opacity=".32"/><g fill="#334350"><path d="M6.23 36.793c-1.248 1.717-2.634 1.839-3.319 2.97a2.33 2.33 0 0 0 .252 2.883c.576.675.66.929 1.465.935 1.71-.076 3.409-.316 5.073-.717l5.321-1.275c.555-.052 1.037-.403 1.258-.914.2-.7-.337-1.365-.821-1.824l-4.287-4.066c-1.227-1.163-2.628-1.178-4.942 2.008z"/><path d="M2.215 42.774a9.13 9.13 0 0 1-1.908-4.739 1.27 1.27 0 0 1 .108-.831.62.62 0 0 1 .66-.244.9.9 0 0 1 .2-.757 1.49 1.49 0 0 1 .671-.44c.247-.094.514-.124.776-.085a.95.95 0 0 1 .645.413c.42-.349 1.023-.369 1.465-.048a2.78 2.78 0 0 1 .924 1.265c.51 1.177.765 2.45.746 3.733.021.571-.104 1.137-.361 1.647-.236.446-.674.751-1.174.818-.982.238-2.018-.038-2.752-.732zm30.339-5.981c1.248 1.717 2.634 1.839 3.319 2.97a2.33 2.33 0 0 1-.252 2.883c-.576.675-.66.929-1.465.935a26.72 26.72 0 0 1-5.073-.717l-5.322-1.275c-.554-.052-1.036-.403-1.257-.914-.2-.7.337-1.365.82-1.824l4.287-4.066c1.226-1.163 2.628-1.178 4.943 2.008z"/><path d="M36.567 42.774a9.13 9.13 0 0 0 1.908-4.739 1.27 1.27 0 0 0-.108-.831.62.62 0 0 0-.661-.244.9.9 0 0 0-.2-.757c-.179-.205-.411-.357-.671-.44a1.55 1.55 0 0 0-.775-.085.95.95 0 0 0-.646.413c-.42-.349-1.023-.369-1.465-.048a2.78 2.78 0 0 0-.924 1.265 9.04 9.04 0 0 0-.746 3.733 3.38 3.38 0 0 0 .36 1.647c.236.446.674.751 1.174.818.983.238 2.019-.037 2.754-.732zm-7.794-14.262a12.47 12.47 0 0 0-1.435-5.3l-8.434-1.1-8.433 1.1a20.17 20.17 0 0 0-1.552 5.9c1.405-1.352 3.098-2.368 4.952-2.971a19 19 0 0 1 7.143-.715c5.998.426 7.704 3.041 7.759 3.086zM4.718 11.478S-3.098 8.209 1.39 2.327c3.957-5.186 9.154.661 9.154.661z"/></g><path d="M5.295 8.98S.934 7.156 3.438 3.874c2.208-2.894 5.107.369 5.107.369z" fill="#f09fad"/><path d="M.742 3.338c3.792-4.969 8.722.192 9.127.632l.674-.982s-5.2-5.847-9.154-.661c-.271.353-.514.727-.726 1.118z" fill="#334350"/><path d="M.556 5.888C.531 6.447.677 7 .973 7.475c.117.23.349.378.607.388.231-.048.407-.237.437-.471s-.018-.47-.131-.676c-.1-.208-.238-.4-.345-.6a2.51 2.51 0 0 1-.215-1.683c.026-.114.05-.257-.039-.327C.814 3.732.561 5.691.556 5.888z" fill="#fff" opacity=".22"/><path d="M27.651 3.828s4.458-7.2 9.561-1.848c4.5 4.723-2.093 8.936-2.093 8.936z" fill="#334350"/><path d="M30.026 4.789s2.487-4.02 5.334-1.031c2.51 2.635-1.168 4.986-1.168 4.986z" fill="#f09fad"/><path d="M36.314 1.183c4.311 4.526-1.561 8.583-2.06 8.914l.865.82s6.592-4.212 2.093-8.936c-.306-.324-.637-.622-.99-.893z" fill="#334350"/><path d="M33.826.597c-.548-.113-1.118-.056-1.633.162-.234.107-.466.289-.479.539.011.237.172.441.4.506a1.12 1.12 0 0 0 .688-.023c.222-.068.43-.172.65-.246a2.51 2.51 0 0 1 1.7.052c.108.043.246.09.329.012.433-.408-1.461-.966-1.655-1.002z" fill="#fff" opacity=".22"/><path d="M35.567 12.25c-.529-4.372-3.1-8.234-6.929-10.409-4.014-2.244-13.882-2.449-18.658 0-3.959 2.03-6.356 6.817-6.663 10.3s.615 9.585 5.69 10.918 15.531 1.333 20.606 0 6.263-7.323 5.954-10.809z" fill="#fafafa"/><path d="M16.278 8.704a8.16 8.16 0 0 0-2.685 5.183 1.53 1.53 0 0 1-1.226 1.236c-3.144.606-5.536-2.811-3.961-6.6 2.073-4.9 7.252-4.31 8.329-1.547.239.614.055 1.312-.457 1.728zm6.575 0c1.503 1.338 2.459 3.183 2.685 5.183a1.53 1.53 0 0 0 1.226 1.236c3.145.606 5.536-2.811 3.961-6.6-2.073-4.9-7.252-4.31-8.329-1.547-.24.614-.055 1.313.457 1.728z" fill="#334350"/><ellipse cx="2.667" cy="1.837" rx="2.667" ry="1.837" transform="matrix(.129038 -.99164 .99164 .129038 9.978 14.971)" fill="#fff"/><use xlink:href="#B" fill="#000072"/><ellipse cx="2.667" cy="1.837" rx="2.667" ry="1.837" transform="matrix(.129038 -.99164 .99164 .129038 9.978 14.971)" fill="#fff"/><g fill="#334350"><use xlink:href="#B"/><ellipse cx="2.171" cy="1.495" rx="2.171" ry="1.495" transform="matrix(.129038 -.99164 .99164 .129038 10.714 14.609)"/></g><g fill="#fff"><circle cx=".673" cy=".673" r=".673" transform="matrix(.325799 -.945439 .945439 .325799 10.809 12.239)"/><ellipse cx="1.837" cy="2.667" rx="1.837" ry="2.667" transform="matrix(.992 -.129 .129 .992 24.86 10.155)"/></g><use xlink:href="#C" fill="#000072"/><ellipse cx="1.837" cy="2.667" rx="1.837" ry="2.667" transform="matrix(.992 -.129 .129 .992 24.86 10.155)" fill="#fff"/><g fill="#334350"><use xlink:href="#C"/><ellipse cx="1.495" cy="2.171" rx="1.495" ry="2.171" transform="matrix(.992 -.129 .129 .992 24.929 10.689)"/></g><circle cx=".673" cy=".673" r=".673" transform="matrix(.985859 -.167578 .167578 .985859 26.729 11.272)" fill="#fff"/><path fill="#b1b1d4" d="M35.58 12.11c-.517-5.074-3.951-9.378-8.783-11.01C24.261.066 18.323-.3 15.038.319a26.42 26.42 0 0 0-3.536.842 10.04 10.04 0 0 0-1.031.423c-.162.073-.463.239-.917.5.417-.172 1.876-.7 2.42-.841a27.72 27.72 0 0 1 3-.638c3.855-.401 7.751-.059 11.477 1.008 5.855 1.808 7.516 8.373 7.626 9.616.308 3.486-2.451 7.89-7.525 9.223s-15.531 1.333-20.606 0a6.95 6.95 0 0 1-.923-.312 6.69 6.69 0 0 0 3.989 2.927c5.074 1.333 15.531 1.333 20.606 0s6.27-7.471 5.962-10.957z" opacity=".1"/><g fill="#334350"><path d="M19.617 17.862c-.103 0-.201-.041-.273-.113s-.113-.171-.113-.274v-1.436c0-.213.173-.386.386-.386s.386.173.387.386v1.435c0 .103-.04.202-.113.274s-.171.114-.274.114z"/><path d="M17.962 19.183c-.167-.001-.315-.11-.365-.269s.007-.333.143-.431l1.318-.923a.98.98 0 0 1 1.118 0l1.319.923c.113.079.175.213.163.35s-.096.258-.222.317-.272.046-.385-.034l-1.319-.923a.2.2 0 0 0-.231 0l-1.319.923c-.065.044-.142.068-.221.067zm3.898-5.113a2.25 2.25 0 0 1-1.097 2.053c-.719.427-1.616.419-2.328-.021s-1.12-1.238-1.06-2.072c.009-1.011 1.015-1.273 2.254-1.261s2.24.289 2.231 1.301z"/></g><g fill="#7b7b7b"><ellipse cx="1.863" cy="2.553" rx="1.863" ry="2.553" transform="matrix(.961262 -.275637 .275637 .961262 .993 38.167)" opacity=".38"/><ellipse cx="1.863" cy="2.553" rx="1.863" ry="2.553" transform="matrix(-.961262 -.275637 .275637 -.961262 36.337 43.075)" opacity=".38"/></g><g fill="#f68f33"><path d="M25.148 32.009c-.274 0-.537-.109-.73-.303s-.303-.456-.303-.73l.011-4.414c.111-1.136-.194-2.273-.859-3.2-.924-1.031-2.23-1.638-3.614-1.68h-.528c-1.389.041-2.699.653-3.622 1.692a4.71 4.71 0 0 0-.847 3.184 945.47 945.47 0 0 1 .011 4.417c.012.377-.182.73-.507.921s-.727.192-1.052 0-.518-.545-.507-.921v-4.206a6.75 6.75 0 0 1 1.275-4.667c1.275-1.505 3.124-2.404 5.095-2.48.034 0 .068-.005.1-.005h.633c.034 0 .068 0 .1.005 1.971.076 3.82.975 5.095 2.48a6.75 6.75 0 0 1 1.275 4.667v4.207c0 .568-.459 1.03-1.027 1.033z"/><path d="M24.906 22.103q-.159-.2-.335-.391a1.2 1.2 0 0 1 .046.5.61.61 0 0 1-.588.572 1.91 1.91 0 0 1-.947-.53c-.374-.273-.781-.497-1.212-.665-1.746-.709-3.712-.636-5.4.2-.761.369-1.398.951-1.836 1.674a6.43 6.43 0 0 0-.605 2.985l-.017.6c0 .16-.012.32-.034.479a.86.86 0 0 1-.418.713c-.284.124-.615.036-.8-.212a1.14 1.14 0 0 1-.156-.274v3.222c-.012.377.182.73.507.921s.727.192 1.052 0 .518-.545.507-.921l-.011-4.417a4.71 4.71 0 0 1 .847-3.184c.923-1.039 2.233-1.651 3.622-1.692h.528c1.382.042 2.686.647 3.61 1.676.665.927.97 2.064.859 3.2-.008.052-.011 4.414-.011 4.414 0 .571.462 1.033 1.033 1.033s1.033-.462 1.033-1.033V26.77a6.75 6.75 0 0 0-1.273-4.667z" class="I" opacity=".5"/><path d="M12.604 29.029v1.947a1.03 1.03 0 0 0 .507.921c.325.191.727.192 1.052 0s.518-.545.507-.921V28.05a10.58 10.58 0 0 0-2.065.979zm13.379-.358l-1.864-.691v3c0 .571.462 1.033 1.033 1.033s1.033-.462 1.033-1.033v-2.233z" class="I" opacity=".5"/></g><use xlink:href="#D" fill="#aaa"/><use xlink:href="#D" fill="#fbb035"/><path d="M19.392 27.947c4.9 0 8.877 2.3 8.877 5.137s-3.974 5.137-8.877 5.137-8.877-2.3-8.877-5.137 3.974-5.137 8.877-5.137c-5.19 0-9.4 2.435-9.4 5.438s4.207 5.439 9.4 5.439 9.4-2.435 9.4-5.439-4.213-5.438-9.4-5.438z" fill="#f68f33"/><path fill="#ffd074" d="M27.63 33.024c0 2.633-3.688 4.767-8.237 4.767s-8.237-2.135-8.237-4.767 3.688-4.767 8.237-4.767 8.237 2.133 8.237 4.767z"/><path fill="#ad561f" d="M17.87 31.264a1.56 1.56 0 0 1 1.4-1.511 1.73 1.73 0 0 0-.218-.014 1.57 1.57 0 0 0-1.614 1.526 1.53 1.53 0 0 0 1.023 1.419l-1.163 3.485h.436l1.163-3.485a1.53 1.53 0 0 1-1.027-1.42z"/><path fill="#5e2a00" d="M20.663 31.263a1.4 1.4 0 0 0-2.125-1.295 1.4 1.4 0 0 0-.668 1.295 1.53 1.53 0 0 0 1.023 1.419l-1.163 3.485h2.931l-1.055-3.473c.621-.203 1.046-.777 1.057-1.431z"/><path d="M17.009 20.174a6.53 6.53 0 0 0-3.813 3.509.2.2 0 0 0 .161.321c0 0 .092.046.321-.39a5.33 5.33 0 0 1 3.281-2.866c2.295-.734.688-.826.05-.574z" style="mix-blend-mode:screen" fill="#f68f33"/><path d="M13.226 30.862a1.44 1.44 0 0 0 .408.99c.417.377 2.833-1.319 2.53-1.93s-2.9-.179-2.938.94zm-1.25.752c-.471.7.959 1.7 1.317.706.2-.547-.6-1.158-1.08-.907a.63.63 0 0 0-.237.201z" class="J" fill="#aaa"/><path d="M7.015 29.254c-.241.862-.221 1.775.055 2.626a3.64 3.64 0 0 0 2.148 1.929 9.7 9.7 0 0 0 2.919.486 4.42 4.42 0 0 0 2.031-.218c.141-.047.259-.148.328-.28.054-.137-.031-.331-.179-.329a1.29 1.29 0 0 0 .727-.786c.074-.361-.28-.793-.622-.656.164-.041.165-.3.035-.41a.84.84 0 0 0-.481-.132 5.6 5.6 0 0 1-3.329-1.449c-1.905-2.076-1.178-3.767-.219-6.66a11.61 11.61 0 0 0-3.413 5.879zm23.73.238a4.54 4.54 0 0 1-.2 2.619 3.64 3.64 0 0 1-2.248 1.812 9.7 9.7 0 0 1-2.941.329 4.42 4.42 0 0 1-2.017-.326c-.139-.056-.251-.163-.312-.3-.046-.14.049-.329.2-.32a1.29 1.29 0 0 1-.685-.823c-.054-.365.322-.777.656-.622-.162-.05-.148-.309-.014-.412a.84.84 0 0 1 .488-.106 5.6 5.6 0 0 0 3.4-1.269c2.436-2.392 1.272-4.174.468-6.588a11.62 11.62 0 0 1 3.205 6.006z" fill="#334350"/><defs ><path id="B" d="M11.964 15.265c-.057 0-.114-.004-.171-.011-1.03-.134-1.711-1.45-1.517-2.934a3.39 3.39 0 0 1 .788-1.826c.325-.455.875-.695 1.429-.623s1.025.444 1.223.968c.293.611.395 1.297.295 1.967-.183 1.401-1.08 2.459-2.047 2.459zm.356-5.312a1.62 1.62 0 0 0-1.187.6 3.3 3.3 0 0 0-.765 1.776c-.187 1.433.458 2.7 1.437 2.83.053.007.107.01.16.01.921 0 1.778-1.023 1.954-2.379a3.3 3.3 0 0 0-.286-1.912 1.56 1.56 0 0 0-1.152-.918 1.23 1.23 0 0 0-.161-.006z"/><path id="C" d="M27.206 15.266c-.967 0-1.865-1.057-2.047-2.459a3.39 3.39 0 0 1 .295-1.967c.198-.523.668-.895 1.223-.968s1.104.167 1.429.623a3.39 3.39 0 0 1 .789 1.826c.193 1.484-.488 2.8-1.517 2.934-.057.007-.114.011-.172.011zm-.356-5.312a1.29 1.29 0 0 0-.161.01 1.56 1.56 0 0 0-1.152.918 3.3 3.3 0 0 0-.286 1.913c.187 1.433 1.134 2.5 2.114 2.368s1.624-1.4 1.437-2.83a3.3 3.3 0 0 0-.765-1.776 1.62 1.62 0 0 0-1.187-.603z"/><path id="D" d="M28.789 33.385c0 3-4.207 5.439-9.4 5.439s-9.4-2.435-9.4-5.439 4.207-5.438 9.4-5.438 9.4 2.435 9.4 5.438z"/></defs></svg>