<svg width="32" height="34" viewBox="0 0 32 34" fill="none" xmlns="http://www.w3.org/2000/svg">
<g opacity="0.28">
<path opacity="0.28" d="M15.5392 33.9999C6.95724 33.9999 0.000205994 32.8114 0.000205994 31.3452C0.000205994 29.879 6.95724 28.6904 15.5392 28.6904C24.1211 28.6904 31.0781 29.879 31.0781 31.3452C31.0781 32.8114 24.1211 33.9999 15.5392 33.9999Z" fill="#87C3FF"/>
</g>
<path d="M28.0829 16.7002C28.2852 16.5562 28.5268 16.3811 28.7398 16.5089C28.8587 16.5986 28.8036 16.7288 28.7719 16.8308C28.826 16.7111 28.9204 16.6143 29.0387 16.5572C29.1569 16.5001 29.2914 16.4862 29.4188 16.5182C29.6654 16.6068 29.7525 17.0021 29.5289 17.1395C29.5816 17.1304 29.6357 17.1423 29.6797 17.1726C29.7236 17.203 29.7539 17.2494 29.764 17.3019C29.7795 17.4084 29.7622 17.5171 29.7143 17.6136C29.2588 18.7617 28.2047 19.579 27.0776 20.0835C25.3743 20.8466 23.2922 20.9813 21.6944 20.0167C21.1753 19.703 20.6956 19.2393 20.5862 18.6425C20.4611 17.9579 20.8755 17.2533 21.4658 16.8849C22.0706 16.5076 22.6721 16.5649 23.1084 17.1241C23.4792 17.5997 23.7959 17.664 24.4278 17.7087C25.7258 17.8024 27.0165 17.4463 28.0829 16.7002Z" fill="#334350"/>
<path d="M8.84872 17.7641L15.0758 16.9509L21.303 17.7641C21.303 17.7641 22.792 22.2048 22.7243 24.7066C22.6566 27.2084 21.7767 28.8969 19.6785 29.7728C17.5804 30.6487 15.0758 30.711 15.0758 30.711C15.0758 30.711 12.5715 30.6485 10.4731 29.7728C8.3748 28.8971 7.49501 27.2084 7.42734 24.7066C7.35966 22.2048 8.84872 17.7641 8.84872 17.7641Z" fill="#FAFAFA"/>
<path opacity="0.32" d="M8.85035 17.7639L10.8745 17.4995C10.4392 18.9802 9.75166 21.6124 9.79801 23.3304C9.86569 25.8322 10.7457 27.5208 12.8438 28.3967C14.9419 29.2726 17.4463 29.3348 17.4463 29.3348C18.7753 29.2767 20.0912 29.0472 21.3613 28.652C20.8852 29.1388 20.3125 29.5206 19.68 29.7728C17.5817 30.6485 15.0773 30.711 15.0773 30.711C15.0773 30.711 12.5729 30.6485 10.4746 29.7728C8.37624 28.8971 7.49627 27.2083 7.42878 24.7067C7.36129 22.2051 8.85035 17.7639 8.85035 17.7639Z" fill="#B1B1D4"/>
<path d="M24.5733 27.1672C25.4946 28.4355 26.5181 28.5256 27.0239 29.3599C27.2377 29.6837 27.3358 30.0701 27.3021 30.4566C27.2684 30.8431 27.1051 31.2068 26.8385 31.4887C26.4136 31.9869 26.3509 32.1747 25.757 32.1792C24.6933 32.1869 23.0568 31.8838 22.0117 31.6496C20.6986 31.3556 19.3905 31.0318 18.0826 30.7081C17.7118 30.6154 17.2788 30.4635 17.1538 30.0332C17.004 29.517 17.4027 29.0251 17.76 28.6863L20.9255 25.6845C21.8298 24.8258 22.8651 24.8149 24.5733 27.1672Z" fill="#334350"/>
<path d="M27.5382 31.5841C28.5186 30.5367 28.8993 28.6937 28.9473 28.085C28.9588 27.9366 29.0014 27.6555 28.8676 27.4712C28.8141 27.3953 28.7389 27.3373 28.6517 27.3051C28.5646 27.2729 28.4697 27.268 28.3797 27.291C28.399 27.1926 28.3956 27.0912 28.37 26.9943C28.3443 26.8974 28.2969 26.8075 28.2314 26.7316C28.0989 26.5804 27.9277 26.4682 27.7362 26.4071C27.5538 26.3376 27.3566 26.316 27.1635 26.3445C27.0672 26.3594 26.9752 26.3942 26.8931 26.4466C26.8111 26.4991 26.7408 26.568 26.6869 26.6491C26.4112 26.371 25.9306 26.3977 25.6049 26.6139C25.2927 26.8535 25.0559 27.1777 24.9227 27.548C24.5458 28.4174 24.3581 29.3569 24.3718 30.3044C24.3565 30.7258 24.4481 31.1442 24.6381 31.5207C24.7241 31.683 24.8476 31.8225 24.9984 31.9276C25.1491 32.0326 25.3228 32.1001 25.5049 32.1246C25.6421 32.1303 26.7505 32.4255 27.5382 31.5841Z" fill="#334350"/>
<path d="M5.13601 27.1672C4.21451 28.4355 3.1912 28.5256 2.68539 29.3599C2.47162 29.6837 2.37357 30.0701 2.40723 30.4566C2.44089 30.8431 2.60429 31.2068 2.87081 31.4887C3.29596 31.9869 3.35845 32.1747 3.95233 32.1792C5.01623 32.1869 6.6525 31.8838 7.69767 31.6496C9.01059 31.3556 10.3187 31.0318 11.6269 30.7081C11.9978 30.6154 12.4305 30.4635 12.5555 30.0332C12.7053 29.517 12.3067 29.0251 11.9496 28.6863L8.78381 25.6845C7.87973 24.8258 6.84497 24.8149 5.13601 27.1672Z" fill="#334350"/>
<path d="M2.17371 31.5841C1.19324 30.5367 0.812568 28.6937 0.764546 28.085C0.75305 27.9366 0.710433 27.6555 0.844487 27.4712C0.897884 27.3953 0.973131 27.3373 1.06023 27.3052C1.14733 27.273 1.24214 27.268 1.3321 27.291C1.31284 27.1926 1.31618 27.0911 1.34188 26.9942C1.36758 26.8973 1.41496 26.8075 1.48044 26.7316C1.61292 26.5804 1.78413 26.4682 1.97566 26.4071C2.15807 26.3376 2.3553 26.316 2.54843 26.3445C2.64465 26.3594 2.73672 26.3942 2.81876 26.4466C2.9008 26.4991 2.97103 26.568 3.02495 26.6491C3.30085 26.371 3.78124 26.3977 4.10702 26.6139C4.41918 26.8535 4.65594 27.1777 4.78914 27.548C5.16607 28.4174 5.35389 29.3569 5.34018 30.3044C5.35534 30.7258 5.26373 31.1442 5.07378 31.5207C4.98778 31.683 4.86422 31.8225 4.71346 31.9276C4.5627 32.0326 4.38908 32.1001 4.20697 32.1246C4.06883 32.1303 2.9606 32.4255 2.17371 31.5841Z" fill="#334350"/>
<path d="M7.92835 21.0534C7.92835 19.0379 8.98801 17.1365 8.98801 17.1365L15.2151 16.3235L21.4422 17.1365C21.4422 17.1365 22.4212 19.2957 22.5879 21.4954C21.5505 20.4972 20.3003 19.7472 18.9312 19.302C17.2484 18.7609 15.433 18.6473 13.6565 18.7737C9.22737 19.0893 7.96896 21.0202 7.92835 21.0534Z" fill="#334350"/>
<path d="M25.6898 8.47461C25.6898 8.47461 31.4614 6.06071 28.1475 1.71739C25.2259 -2.11177 21.3884 2.20577 21.3884 2.20577L25.6898 8.47461Z" fill="#334350"/>
<path d="M25.2647 6.63091C25.2647 6.63091 28.485 5.28406 26.6368 2.86052C25.0066 0.723997 22.8655 3.13308 22.8655 3.13308L25.2647 6.63091Z" fill="#F09FAD"/>
<path d="M28.625 2.46469C25.8253 -1.20464 22.1848 2.60672 21.886 2.93138L21.3881 2.20586C21.3881 2.20586 25.2262 -2.11187 28.147 1.71748C28.3476 1.97782 28.527 2.25379 28.6836 2.54275C28.6641 2.51679 28.6449 2.49102 28.625 2.46469Z" fill="#334350"/>
<path opacity="0.22" d="M28.7616 4.34733C28.7801 4.76024 28.6727 5.16902 28.4537 5.51952C28.4111 5.60272 28.3472 5.67309 28.2684 5.72341C28.1896 5.77372 28.0989 5.80215 28.0055 5.80579C27.9222 5.7887 27.8463 5.74601 27.7885 5.68368C27.7307 5.62134 27.6937 5.54249 27.6829 5.45814C27.6621 5.28567 27.696 5.11103 27.7797 4.95882C27.8553 4.80493 27.9555 4.66531 28.0343 4.51383C28.2299 4.13077 28.2862 3.69156 28.1933 3.27156C28.1748 3.18757 28.1563 3.08169 28.2226 3.03052C28.5714 2.75555 28.7585 4.20196 28.7616 4.34733Z" fill="white"/>
<path d="M8.75586 2.82715C8.75586 2.82715 5.46422 -2.49293 1.69606 1.46287C-1.62599 4.9505 3.24148 8.06082 3.24148 8.06082L8.75586 2.82715Z" fill="#334350"/>
<path d="M7.00195 3.53747C7.00195 3.53747 5.16527 0.568998 3.06286 2.77616C1.20873 4.723 3.92502 6.45755 3.92502 6.45755L7.00195 3.53747Z" fill="#F09FAD"/>
<path d="M2.36048 0.873485C-0.82289 4.21538 3.51374 7.21111 3.88086 7.45567L3.24269 8.06141C3.24269 8.06141 -1.62461 4.95091 1.69745 1.46347C1.92305 1.2245 2.16739 1.00396 2.42815 0.803955C2.40572 0.826576 2.3831 0.849752 2.36048 0.873485Z" fill="#334350"/>
<path opacity="0.22" d="M4.19745 0.441291C4.60204 0.358267 5.02231 0.400034 5.40264 0.561068C5.57489 0.639868 5.74696 0.774665 5.75586 0.958781C5.75208 1.04373 5.72186 1.12537 5.6694 1.19229C5.61694 1.25921 5.54489 1.30806 5.4633 1.33202C5.29623 1.37972 5.1184 1.37375 4.95491 1.31496C4.791 1.26453 4.63746 1.18758 4.47467 1.13362C4.06545 1.0006 3.62271 1.01417 3.2224 1.17201C3.1423 1.2039 3.04069 1.2382 2.97914 1.18109C2.65559 0.879607 4.05376 0.467435 4.19745 0.441291Z" fill="white"/>
<path d="M2.90977 9.04566C3.1369 6.47193 4.8275 3.14821 8.02607 1.35971C10.9897 -0.297335 18.2761 -0.448632 21.8023 1.35971C24.7259 2.85896 26.4955 6.39369 26.7226 8.96723C26.9497 11.5408 26.2685 16.0448 22.5215 17.029C18.7745 18.0132 11.0535 18.013 7.30646 17.029C3.55944 16.045 2.68264 11.6194 2.90977 9.04566Z" fill="#FAFAFA"/>
<path d="M17.1518 6.42736C18.2227 7.2899 18.847 8.60244 19.1344 10.2545C19.1749 10.4805 19.2832 10.6888 19.4449 10.8518C19.6065 11.0148 19.814 11.1248 20.0396 11.1673C22.3613 11.6149 24.1276 9.09175 22.9643 6.29534C21.4334 2.67662 17.6096 3.1129 16.8143 5.15282C16.7285 5.37364 16.7149 5.61601 16.7755 5.84504C16.8362 6.07407 16.9679 6.27795 17.1518 6.42736Z" fill="#334350"/>
<path d="M12.2975 6.42736C11.2266 7.2899 10.6024 8.60244 10.315 10.2545C10.2745 10.4805 10.1662 10.6888 10.0046 10.8518C9.84289 11.0148 9.63546 11.1248 9.40984 11.1673C7.0879 11.6149 5.32204 9.09175 6.48514 6.29534C8.01591 2.67662 11.8399 3.1129 12.6349 5.15282C12.7207 5.37365 12.7343 5.616 12.6736 5.84502C12.613 6.07404 12.4813 6.27792 12.2975 6.42736Z" fill="#334350"/>
<path d="M18.8606 9.45147C18.7203 8.37286 19.2087 7.42012 19.9515 7.32346C20.6943 7.2268 21.4102 8.02283 21.5506 9.10145C21.6909 10.1801 21.2025 11.1328 20.4597 11.2295C19.7169 11.3261 19.001 10.5301 18.8606 9.45147Z" fill="white"/>
<path d="M20.3387 11.2717C20.3808 11.2717 20.4229 11.269 20.4648 11.2635C21.2249 11.1647 21.7278 10.1927 21.5852 9.09714C21.5302 8.59963 21.3274 8.13002 21.003 7.74881C20.8852 7.58384 20.7248 7.45396 20.5389 7.37305C20.353 7.29214 20.1487 7.26322 19.9476 7.2894C19.7466 7.31557 19.5564 7.39585 19.3975 7.52166C19.2385 7.64748 19.1167 7.81411 19.045 8.00376C18.829 8.45518 18.7531 8.96095 18.8272 9.4559C18.9623 10.4909 19.6252 11.2717 20.3387 11.2717ZM20.0756 7.34978C20.2449 7.35768 20.4106 7.40143 20.5618 7.47814C20.7129 7.55485 20.8461 7.66278 20.9524 7.79478C21.2675 8.16559 21.4644 8.62231 21.5175 9.10603C21.6553 10.1642 21.1793 11.1015 20.4562 11.1958C20.4171 11.2009 20.3777 11.2035 20.3383 11.2034C19.6584 11.2034 19.0256 10.4479 18.8956 9.44719C18.8232 8.96601 18.8966 8.4742 19.1062 8.03508C19.1811 7.86076 19.298 7.70767 19.4464 7.58943C19.5947 7.47119 19.7701 7.39148 19.9567 7.35739C19.9961 7.35225 20.0358 7.34971 20.0756 7.34978Z" fill="#000072"/>
<path d="M18.8606 9.45147C18.7203 8.37286 19.2087 7.42012 19.9515 7.32346C20.6943 7.2268 21.4102 8.02283 21.5506 9.10145C21.6909 10.1801 21.2025 11.1328 20.4597 11.2295C19.7169 11.3261 19.001 10.5301 18.8606 9.45147Z" fill="white"/>
<path d="M20.3387 11.2717C20.3808 11.2717 20.4229 11.269 20.4648 11.2635C21.2249 11.1647 21.7278 10.1927 21.5852 9.09714C21.5302 8.59963 21.3274 8.13002 21.003 7.74881C20.8852 7.58384 20.7248 7.45396 20.5389 7.37305C20.353 7.29214 20.1487 7.26322 19.9476 7.2894C19.7466 7.31557 19.5564 7.39585 19.3975 7.52166C19.2385 7.64748 19.1167 7.81411 19.045 8.00376C18.829 8.45518 18.7531 8.96095 18.8272 9.4559C18.9623 10.4909 19.6252 11.2717 20.3387 11.2717ZM20.0756 7.34978C20.2449 7.35768 20.4106 7.40143 20.5618 7.47814C20.7129 7.55485 20.8461 7.66278 20.9524 7.79478C21.2675 8.16559 21.4644 8.62231 21.5175 9.10603C21.6553 10.1642 21.1793 11.1015 20.4562 11.1958C20.4171 11.2009 20.3777 11.2035 20.3383 11.2034C19.6584 11.2034 19.0256 10.4479 18.8956 9.44719C18.8232 8.96601 18.8966 8.4742 19.1062 8.03508C19.1811 7.86076 19.298 7.70767 19.4464 7.58943C19.5947 7.47119 19.7701 7.39148 19.9567 7.35739C19.9961 7.35225 20.0358 7.34971 20.0756 7.34978Z" fill="#334350"/>
<path d="M18.865 9.48219C18.7508 8.60413 19.1483 7.82854 19.753 7.74985C20.3577 7.67116 20.9406 8.31918 21.0548 9.19724C21.1691 10.0753 20.7715 10.8509 20.1668 10.9296C19.5621 11.0083 18.9793 10.3603 18.865 9.48219Z" fill="#334350"/>
<path d="M20.0899 8.89134C20.0005 8.63188 20.1384 8.34906 20.3978 8.25965C20.6573 8.17024 20.9401 8.3081 21.0295 8.56756C21.1189 8.82702 20.9811 9.10984 20.7216 9.19925C20.4621 9.28866 20.1793 9.1508 20.0899 8.89134Z" fill="white"/>
<path d="M8.96283 11.2307C8.21976 11.1341 7.73113 10.1811 7.87144 9.10207C8.01176 8.02307 8.72788 7.2267 9.47096 7.32333C10.214 7.41996 10.7027 8.373 10.5623 9.452C10.422 10.531 9.70591 11.3274 8.96283 11.2307Z" fill="white"/>
<path d="M9.08591 11.2716C9.79975 11.2716 10.4626 10.4909 10.5974 9.45606C10.6715 8.96107 10.5957 8.45522 10.3797 8.00371C10.308 7.81407 10.1862 7.64747 10.0272 7.52166C9.86821 7.39586 9.67805 7.31557 9.47701 7.2894C9.27597 7.26322 9.07163 7.29215 8.88573 7.37305C8.69984 7.45396 8.53942 7.5838 8.42157 7.74877C8.09711 8.12987 7.89424 8.59944 7.83916 9.09691C7.69676 10.1923 8.19923 11.1643 8.95961 11.2633C9.00149 11.2687 9.04368 11.2715 9.08591 11.2716ZM9.34918 7.34958C9.38886 7.34962 9.42848 7.35222 9.46782 7.35737C9.65452 7.39131 9.82991 7.47094 9.97834 7.58916C10.1268 7.70737 10.2437 7.86051 10.3185 8.03488C10.5281 8.47406 10.6016 8.96591 10.5293 9.44716C10.3918 10.5051 9.6922 11.2898 8.96835 11.1954C8.24449 11.101 7.76907 10.164 7.90702 9.10562C7.96026 8.62192 8.15711 8.16525 8.47218 7.7944C8.57846 7.66249 8.71151 7.55463 8.86256 7.47796C9.01361 7.40128 9.17924 7.35752 9.34845 7.34958H9.34918Z" fill="#000072"/>
<path d="M8.96283 11.2307C8.21976 11.1341 7.73113 10.1811 7.87144 9.10207C8.01176 8.02307 8.72788 7.2267 9.47096 7.32333C10.214 7.41996 10.7027 8.373 10.5623 9.452C10.422 10.531 9.70591 11.3274 8.96283 11.2307Z" fill="white"/>
<path d="M9.08591 11.2716C9.79975 11.2716 10.4626 10.4909 10.5974 9.45606C10.6715 8.96107 10.5957 8.45522 10.3797 8.00371C10.308 7.81407 10.1862 7.64747 10.0272 7.52166C9.86821 7.39586 9.67805 7.31557 9.47701 7.2894C9.27597 7.26322 9.07163 7.29215 8.88573 7.37305C8.69984 7.45396 8.53942 7.5838 8.42157 7.74877C8.09711 8.12987 7.89424 8.59944 7.83916 9.09691C7.69676 10.1923 8.19923 11.1643 8.95961 11.2633C9.00149 11.2687 9.04368 11.2715 9.08591 11.2716ZM9.34918 7.34958C9.38886 7.34962 9.42848 7.35222 9.46782 7.35737C9.65452 7.39131 9.82991 7.47094 9.97834 7.58916C10.1268 7.70737 10.2437 7.86051 10.3185 8.03488C10.5281 8.47406 10.6016 8.96591 10.5293 9.44716C10.3918 10.5051 9.6922 11.2898 8.96835 11.1954C8.24449 11.101 7.76907 10.164 7.90702 9.10562C7.96026 8.62192 8.15711 8.16525 8.47218 7.7944C8.57846 7.66249 8.71151 7.55463 8.86256 7.47796C9.01361 7.40128 9.17924 7.35752 9.34845 7.34958H9.34918Z" fill="#334350"/>
<path d="M9.25668 10.9308C8.65176 10.8521 8.25397 10.0763 8.36819 9.19791C8.48242 8.31953 9.0654 7.67124 9.67032 7.7499C10.2752 7.82856 10.673 8.6044 10.5588 9.48278C10.4446 10.3612 9.8616 11.0095 9.25668 10.9308Z" fill="#334350"/>
<path d="M8.78108 9.219C8.51052 9.17301 8.32848 8.9164 8.37447 8.64585C8.42046 8.3753 8.67706 8.19325 8.94762 8.23924C9.21817 8.28523 9.40022 8.54184 9.35423 8.81239C9.30824 9.08295 9.05163 9.26499 8.78108 9.219Z" fill="white"/>
<path opacity="0.1" d="M2.9012 8.94167C3.01708 7.6282 3.98123 2.65373 9.38678 0.81165C11.2595 0.0481169 15.6432 -0.21925 18.0694 0.235014C18.9531 0.38212 19.8256 0.589905 20.6807 0.856892C20.9397 0.947038 21.1935 1.05146 21.4409 1.16968C21.5607 1.22345 21.7824 1.34583 22.1179 1.5355C21.8101 1.40812 20.7326 1.01635 20.3312 0.914183C19.6031 0.716565 18.8647 0.559343 18.1192 0.443233C15.2744 0.210168 12.4057 0.335136 9.64435 1.18785C5.32051 2.52283 4.09434 7.3701 4.01332 8.28827C3.78619 10.862 5.82314 14.1142 9.57016 15.0981C13.3172 16.0821 21.0384 16.0821 24.7854 15.0981C25.0176 15.0373 25.2453 14.9602 25.4668 14.8675C24.7974 15.938 23.7434 16.7114 22.5215 17.029C18.7745 18.013 11.0533 18.013 7.30626 17.029C3.55924 16.045 2.67425 11.5154 2.9012 8.94167Z" fill="#B1B1D4"/>
<path d="M14.6894 13.1898C14.7269 13.1898 14.764 13.1823 14.7986 13.168C14.8332 13.1536 14.8647 13.1326 14.8912 13.1061C14.9176 13.0795 14.9386 13.0481 14.9529 13.0134C14.9673 12.9788 14.9746 12.9417 14.9746 12.9042V11.8446C14.9746 11.7689 14.9445 11.6964 14.891 11.6429C14.8376 11.5894 14.765 11.5593 14.6893 11.5593C14.6137 11.5593 14.5411 11.5894 14.4876 11.6429C14.4342 11.6964 14.4041 11.7689 14.4041 11.8446V12.9042C14.4041 12.9799 14.4341 13.0525 14.4876 13.1061C14.5412 13.1596 14.6138 13.1897 14.6894 13.1898Z" fill="#334350"/>
<path d="M15.9096 14.1647C15.9704 14.1648 16.0295 14.1455 16.0785 14.1096C16.1275 14.0737 16.1638 14.0231 16.1821 13.9652C16.2004 13.9073 16.1997 13.8451 16.1802 13.7876C16.1607 13.7301 16.1233 13.6804 16.0735 13.6455L15.1001 12.9638C14.979 12.8796 14.835 12.8345 14.6875 12.8345C14.54 12.8345 14.396 12.8796 14.2748 12.9638L13.3011 13.6455C13.2391 13.6889 13.1969 13.7551 13.1837 13.8296C13.1705 13.9041 13.1875 13.9808 13.2309 14.0428C13.2742 14.1048 13.3405 14.147 13.415 14.1601C13.4895 14.1733 13.5661 14.1563 13.6281 14.113L14.6019 13.4312C14.627 13.4138 14.6568 13.4044 14.6873 13.4044C14.7178 13.4044 14.7476 13.4138 14.7727 13.4312L15.7465 14.113C15.7942 14.1466 15.8512 14.1647 15.9096 14.1647Z" fill="#334350"/>
<path d="M13.0316 10.3888C13.0383 11.1351 13.7891 12.1402 14.7037 12.1317C15.6183 12.1232 16.3507 11.1047 16.3437 10.3586C16.3367 9.6125 15.5939 9.41891 14.6792 9.42726C13.7646 9.4356 13.025 9.64216 13.0316 10.3888Z" fill="#334350"/>
<path opacity="0.38" d="M26.0782 31.4271C25.348 31.2177 24.9887 30.2367 25.2757 29.236C25.5626 28.2354 26.3872 27.5939 27.1173 27.8033C27.8475 28.0126 28.2068 28.9936 27.9199 29.9943C27.633 30.995 26.8084 31.6364 26.0782 31.4271Z" fill="#7B7B7B"/>
<path opacity="0.38" d="M2.62481 27.803C3.35499 27.5936 4.17954 28.2351 4.46648 29.2358C4.75342 30.2365 4.3941 31.2174 3.66391 31.4268C2.93373 31.6362 2.10919 30.9947 1.82224 29.994C1.5353 28.9933 1.89462 28.0124 2.62481 27.803Z" fill="#7B7B7B"/>
<path d="M6.4703 21.7769C6.36758 22.4258 6.33812 23.1157 6.61438 23.7109C6.92254 24.3743 7.57722 24.8265 8.27401 25.0487C8.97079 25.2708 9.7141 25.2908 10.4456 25.2917C10.953 25.2917 11.4813 25.2801 11.9344 25.0507C12.0368 25.0103 12.1194 24.9317 12.1649 24.8316C12.1994 24.7283 12.1278 24.5888 12.0199 24.5955C12.2524 24.4535 12.4849 24.257 12.5253 23.9875C12.5658 23.7181 12.2882 23.4128 12.041 23.5281C12.1606 23.491 12.1505 23.3 12.0513 23.2242C11.9419 23.1622 11.8163 23.1348 11.691 23.1456C10.8616 23.1107 9.77196 22.79 9.17994 22.2083C7.38142 20.4421 8.241 19.1262 8.83432 17.344C7.6588 18.6703 6.75213 19.9999 6.4703 21.7769Z" fill="#334350"/>
<path d="M25.7378 16.487L26.6423 15.7909L23.7443 12.0871L22.8398 12.7832L25.7378 16.487Z" fill="#334350"/>
<path opacity="0.18" d="M23.7871 12.1418L24.1496 14.4573L22.8828 12.8379C23.2055 12.6349 23.5083 12.4018 23.7871 12.1418Z" fill="black"/>
<path opacity="0.51" d="M24.8401 8.51372C25.0954 10.9427 23.3159 13.1206 20.8654 13.3781C18.4149 13.6357 16.2215 11.8754 15.9662 9.44641C15.7109 7.01742 17.4904 4.83955 19.9409 4.58199C22.3914 4.32444 24.5848 6.08473 24.8401 8.51372Z" fill="#F2F2F2"/>
<path opacity="0.18" d="M24.0499 10.27C24.1938 9.45855 24.1663 8.62596 23.9692 7.82576C23.7997 7.02509 23.444 6.27561 22.9309 5.63801C22.7141 5.38387 22.461 5.1632 22.1797 4.98315C22.8391 5.28466 23.4138 5.74436 23.8527 6.32144C24.2917 6.89851 24.5813 7.57507 24.6958 8.29101C24.8104 9.00695 24.7463 9.7401 24.5093 10.4253C24.2723 11.1105 23.8697 11.7266 23.3373 12.2188C23.6919 11.6182 23.9335 10.9577 24.0499 10.27Z" fill="black"/>
<path d="M28.8193 19.7639L29.2091 19.4638C29.2703 19.4171 29.3216 19.3587 29.36 19.292C29.3985 19.2254 29.4233 19.1517 29.4331 19.0754C29.4429 18.9991 29.4374 18.9215 29.417 18.8473C29.3966 18.7731 29.3617 18.7037 29.3143 18.6431L26.3435 14.8455C26.3276 14.8253 26.3044 14.8123 26.2789 14.8091C26.2534 14.806 26.2277 14.813 26.2073 14.8287L25.0381 15.7287C25.028 15.7363 25.0196 15.7459 25.0133 15.7569C25.0069 15.7679 25.0029 15.78 25.0012 15.7925C24.9996 15.8051 25.0005 15.8178 25.0039 15.83C25.0072 15.8422 25.013 15.8536 25.0207 15.8636L27.991 19.6608C28.0876 19.7836 28.2289 19.8634 28.384 19.8827C28.5391 19.902 28.6955 19.8593 28.8193 19.7639Z" fill="#F68F33"/>
<path d="M25.6892 16.7257L27.0118 15.7078L26.8886 15.5504L25.566 16.5684L25.6892 16.7257Z" fill="#F1701F"/>
<path d="M25.9939 17.0967L27.3164 16.0787L27.1933 15.9212L25.8707 16.9391L25.9939 17.0967Z" fill="#F1701F"/>
<path d="M23.3314 12.7239C23.8266 12.3447 24.2418 11.8712 24.553 11.3306C24.8643 10.7901 25.0653 10.1933 25.1446 9.57462C25.2239 8.95597 25.1799 8.32772 25.015 7.72618C24.8502 7.12463 24.5679 6.5617 24.1843 6.06986C23.4 5.07649 22.256 4.432 20.9999 4.27593C19.7439 4.11987 18.477 4.46478 17.4734 5.236C16.9782 5.61521 16.563 6.08874 16.2518 6.62928C15.9406 7.16981 15.7396 7.76664 15.6603 8.38529C15.581 9.00395 15.625 9.63218 15.7899 10.2337C15.9547 10.8353 16.2371 11.3982 16.6207 11.89C17.405 12.8833 18.549 13.5278 19.8049 13.6838C21.0609 13.8399 22.3278 13.495 23.3314 12.7239ZM17.741 5.57776C18.6531 4.87726 19.8043 4.56399 20.9456 4.70571C22.0868 4.84743 23.1264 5.43275 23.8395 6.33505C24.1881 6.78204 24.4447 7.29366 24.5945 7.84036C24.7443 8.38707 24.7843 8.95803 24.7122 9.52028C24.6402 10.0825 24.4574 10.625 24.1746 11.1162C23.8918 11.6075 23.5144 12.0378 23.0643 12.3824C22.1523 13.0829 21.0011 13.3962 19.8598 13.2545C18.7185 13.1128 17.6789 12.5274 16.9659 11.6251C16.6173 11.1781 16.3607 10.6665 16.2109 10.1198C16.0611 9.57307 16.021 9.00209 16.0931 8.43982C16.1652 7.87755 16.3479 7.33512 16.6307 6.84386C16.9136 6.35259 17.2909 5.92221 17.741 5.57757L17.741 5.57776Z" fill="#334350"/>
<path opacity="0.61" d="M16.6463 9.86065C16.4295 9.23688 16.4249 8.55896 16.6331 7.93226C16.804 7.39861 17.1792 6.85767 17.7247 6.6538C17.8074 6.62292 17.915 6.71509 17.8463 6.7965C17.5148 7.16115 17.2617 7.58992 17.1025 8.05631C16.9346 8.60529 17.0163 9.15899 17.1046 9.71163C17.1469 9.97248 16.7444 10.1255 16.6463 9.86065Z" fill="white"/>
<path d="M24.7808 8.4958C24.6971 7.62564 24.3568 6.79996 23.803 6.12356C23.2492 5.44715 22.507 4.95052 21.6704 4.6967C20.8339 4.44288 19.9409 4.4433 19.1046 4.69793C18.2683 4.95255 17.5265 5.44989 16.9734 6.12682C16.4203 6.80375 16.0807 7.62976 15.9978 8.5C15.915 9.37024 16.0925 10.2455 16.508 11.0147C16.9234 11.7838 17.558 12.4122 18.3312 12.8201C19.1043 13.228 19.9813 13.397 20.8507 13.3056C22.0091 13.1876 23.0735 12.615 23.8103 11.7133C24.547 10.8116 24.8961 9.65451 24.7808 8.4958ZM16.0898 9.40927C15.9926 8.55722 16.1508 7.69551 16.5442 6.93351C16.9376 6.1715 17.5486 5.54356 18.2995 5.12939C19.0504 4.71521 19.9075 4.53346 20.7619 4.60722C21.6163 4.68098 22.4295 5.00692 23.0983 5.54366C23.7671 6.0804 24.2614 6.80376 24.5184 7.62191C24.7755 8.44006 24.7836 9.31614 24.5419 10.1389C24.3001 10.9617 23.8194 11.6941 23.1606 12.2432C22.5019 12.7923 21.6949 13.1333 20.842 13.223C19.7063 13.346 18.5682 13.0137 17.6773 12.2987C16.7864 11.5838 16.2155 10.5446 16.0898 9.40927Z" fill="#F09FAD"/>
</svg>
