<svg width="38" height="38" viewBox="0 0 38 38" fill="none" xmlns="http://www.w3.org/2000/svg">
<path d="M3.44377 20.7188C3.19682 20.5429 2.90188 20.3293 2.64181 20.4852C2.49672 20.5948 2.56395 20.7537 2.60266 20.8782C2.53657 20.7321 2.42131 20.6139 2.27698 20.5442C2.13266 20.4744 1.96842 20.4576 1.81294 20.4965C1.5119 20.6047 1.40552 21.0873 1.67849 21.255C1.61421 21.2439 1.54815 21.2584 1.49447 21.2955C1.4408 21.3326 1.40382 21.3892 1.3915 21.4533C1.37259 21.5833 1.39373 21.7161 1.45215 21.8338C2.00827 23.2353 3.29506 24.233 4.671 24.8489C6.7502 25.7805 9.29204 25.9449 11.2424 24.7674C11.8762 24.3845 12.4618 23.8184 12.5953 23.0898C12.7481 22.2541 12.2422 21.394 11.5215 20.9443C10.7832 20.4836 10.0489 20.5536 9.51635 21.2362C9.06366 21.8168 8.67708 21.8954 7.90569 21.9499C6.32113 22.0643 4.74549 21.6295 3.44377 20.7188Z" fill="#334350"/>
<path d="M26.8516 21.9395L19.2498 20.9468L11.648 21.9395C11.648 21.9395 9.83027 27.3605 9.91289 30.4145C9.99551 33.4686 11.0697 35.5299 13.631 36.5992C16.1924 37.6684 19.2498 37.7445 19.2498 37.7445C19.2498 37.7445 22.307 37.6682 24.8686 36.5992C27.4301 35.5301 28.5041 33.4686 28.5867 30.4145C28.6694 27.3605 26.8516 21.9395 26.8516 21.9395Z" fill="#FAFAFA"/>
<path opacity="0.32" d="M26.851 21.939L24.38 21.6162C24.9114 23.4238 25.7507 26.637 25.6941 28.7343C25.6115 31.7884 24.5372 33.8497 21.9759 34.9189C19.4146 35.9882 16.3574 36.0642 16.3574 36.0642C14.735 35.9933 13.1287 35.7131 11.5781 35.2306C12.1593 35.8249 12.8585 36.291 13.6306 36.5989C16.1922 37.6679 19.2494 37.7442 19.2494 37.7442C19.2494 37.7442 22.3066 37.6679 24.8682 36.5989C27.4297 35.5298 28.5039 33.4683 28.5863 30.4145C28.6687 27.3606 26.851 21.939 26.851 21.939Z" fill="#B1B1D4"/>
<path d="M27.9767 25.9547C27.9767 23.4943 26.6831 21.1732 26.6831 21.1732L19.0814 20.1807L11.4796 21.1732C10.9439 22.9052 10.5895 24.6882 10.4219 26.4934C11.6396 25.3108 12.8716 24.3545 14.545 23.8164C16.5993 23.156 18.8154 23.0172 20.984 23.1716C26.3909 23.557 27.9271 25.9142 27.9767 25.9547Z" fill="#334350"/>
<path d="M6.2941 10.5994C6.2941 10.5994 -0.751548 7.6526 3.2939 2.35048C6.86041 -2.32398 11.5451 2.94667 11.5451 2.94667L6.2941 10.5994Z" fill="#334350"/>
<path d="M6.81294 8.3485C6.81294 8.3485 2.88179 6.70433 5.13799 3.74579C7.12801 1.13762 9.74182 4.07851 9.74182 4.07851L6.81294 8.3485Z" fill="#F09FAD"/>
<path d="M2.71018 3.26275C6.12798 -1.21661 10.572 3.43613 10.9369 3.83246L11.5446 2.94677C11.5446 2.94677 6.8593 -2.32411 3.29369 2.35058C3.04883 2.66839 2.8298 3.00529 2.63867 3.35804C2.66244 3.32635 2.68596 3.29489 2.71018 3.26275Z" fill="#334350"/>
<path opacity="0.22" d="M2.54156 5.56096C2.51899 6.06501 2.65007 6.56404 2.91749 6.99191C2.96944 7.09348 3.04752 7.17939 3.14367 7.24081C3.23981 7.30223 3.35059 7.33694 3.46459 7.34138C3.56628 7.32052 3.65889 7.2684 3.7295 7.19231C3.80012 7.11621 3.84521 7.01995 3.85843 6.91698C3.88381 6.70644 3.84246 6.49325 3.74025 6.30744C3.6479 6.11958 3.52569 5.94914 3.4295 5.76421C3.19065 5.29659 3.12198 4.76042 3.23529 4.24771C3.25792 4.14517 3.28057 4.01593 3.19953 3.95346C2.77378 3.61779 2.5454 5.3835 2.54156 5.56096Z" fill="white"/>
<path d="M26.9668 3.70516C26.9668 3.70516 30.9851 -2.78934 35.5851 2.03971C39.6405 6.29725 33.6985 10.0942 33.6985 10.0942L26.9668 3.70516Z" fill="#334350"/>
<path d="M29.1074 4.57223C29.1074 4.57223 31.3496 0.948461 33.9161 3.64286C36.1795 6.01948 32.8636 8.13693 32.8636 8.13693L29.1074 4.57223Z" fill="#F09FAD"/>
<path d="M34.7759 1.32023C38.662 5.39986 33.3681 9.05691 32.9199 9.35545L33.699 10.0949C33.699 10.0949 39.6407 6.29777 35.5853 2.04046C35.3099 1.74874 35.0116 1.47951 34.6933 1.23535C34.7207 1.26297 34.7483 1.29126 34.7759 1.32023Z" fill="#334350"/>
<path opacity="0.22" d="M32.5333 0.792523C32.0394 0.691171 31.5263 0.742158 31.0621 0.93874C30.8518 1.03494 30.6417 1.19949 30.6309 1.42425C30.6355 1.52795 30.6724 1.62761 30.7364 1.7093C30.8004 1.791 30.8884 1.85064 30.988 1.87988C31.192 1.93811 31.409 1.93082 31.6086 1.85906C31.8087 1.79749 31.9961 1.70356 32.1949 1.63769C32.6944 1.4753 33.2349 1.49187 33.7236 1.68454C33.8214 1.72348 33.9454 1.76535 34.0206 1.69563C34.4155 1.3276 32.7087 0.824437 32.5333 0.792523Z" fill="white"/>
<path d="M34.1017 11.2965C33.8245 8.15457 31.7606 4.09712 27.856 1.91381C24.2381 -0.109033 15.3432 -0.29373 11.0386 1.91381C7.46962 3.74403 5.30939 8.05906 5.03212 11.2007C4.75485 14.3424 5.58643 19.8407 10.1606 21.0422C14.7348 22.2436 24.1603 22.2434 28.7344 21.0422C33.3086 19.841 34.379 14.4383 34.1017 11.2965Z" fill="#FAFAFA"/>
<path d="M16.7125 8.10025C15.4052 9.1532 14.6431 10.7555 14.2922 12.7722C14.2427 13.0481 14.1106 13.3024 13.9132 13.5014C13.7159 13.7004 13.4627 13.8347 13.1872 13.8865C10.3529 14.4329 8.19677 11.3528 9.61686 7.93908C11.4858 3.52152 16.1537 4.05411 17.1245 6.54435C17.2293 6.81392 17.2459 7.1098 17.1718 7.38939C17.0978 7.66898 16.937 7.91786 16.7125 8.10025Z" fill="#334350"/>
<path d="M22.6395 8.10025C23.9468 9.1532 24.7087 10.7555 25.0596 12.7722C25.1091 13.0481 25.2412 13.3024 25.4386 13.5014C25.6359 13.7004 25.8892 13.8347 26.1646 13.8865C28.9991 14.4329 31.1548 11.3528 29.7349 7.93908C27.8662 3.52152 23.1981 4.05411 22.2276 6.54435C22.1228 6.81393 22.1063 7.10979 22.1803 7.38936C22.2543 7.66893 22.4151 7.91782 22.6395 8.10025Z" fill="#334350"/>
<path d="M14.6291 11.7917C14.8005 10.475 14.2043 9.31192 13.2975 9.19393C12.3907 9.07593 11.5167 10.0477 11.3454 11.3644C11.1741 12.6811 11.7702 13.8442 12.677 13.9622C13.5838 14.0802 14.4578 13.1084 14.6291 11.7917Z" fill="white"/>
<path d="M12.8266 14.0139C12.7751 14.014 12.7237 14.0106 12.6727 14.004C11.7447 13.8833 11.1308 12.6968 11.3049 11.3594C11.3721 10.752 11.6196 10.1787 12.0156 9.71338C12.1594 9.51199 12.3553 9.35344 12.5822 9.25467C12.8091 9.1559 13.0586 9.1206 13.304 9.15255C13.5494 9.18451 13.7815 9.2825 13.9756 9.43609C14.1696 9.58968 14.3183 9.7931 14.4058 10.0246C14.6695 10.5757 14.7622 11.1931 14.6718 11.7973C14.5068 13.0608 13.6976 14.0139 12.8266 14.0139ZM13.1478 9.22627C12.9411 9.23591 12.7388 9.28931 12.5543 9.38296C12.3698 9.4766 12.2072 9.60836 12.0774 9.7695C11.6927 10.2222 11.4524 10.7797 11.3875 11.3702C11.2193 12.662 11.8004 13.8061 12.6831 13.9213C12.7308 13.9276 12.7789 13.9307 12.8271 13.9306C13.6571 13.9306 14.4296 13.0083 14.5882 11.7867C14.6766 11.1993 14.587 10.5989 14.3311 10.0628C14.2397 9.85004 14.097 9.66315 13.9159 9.51881C13.7348 9.37447 13.5207 9.27716 13.2929 9.23555C13.2448 9.22928 13.1963 9.22617 13.1478 9.22627Z" fill="#000072"/>
<path d="M14.6291 11.7917C14.8005 10.475 14.2043 9.31192 13.2975 9.19393C12.3907 9.07593 11.5167 10.0477 11.3454 11.3644C11.1741 12.6811 11.7702 13.8442 12.677 13.9622C13.5838 14.0802 14.4578 13.1084 14.6291 11.7917Z" fill="white"/>
<path d="M12.8266 14.0139C12.7751 14.014 12.7237 14.0106 12.6727 14.004C11.7447 13.8833 11.1308 12.6968 11.3049 11.3594C11.3721 10.752 11.6196 10.1787 12.0156 9.71338C12.1594 9.51199 12.3553 9.35344 12.5822 9.25467C12.8091 9.1559 13.0586 9.1206 13.304 9.15255C13.5494 9.18451 13.7815 9.2825 13.9756 9.43609C14.1696 9.58968 14.3183 9.7931 14.4058 10.0246C14.6695 10.5757 14.7622 11.1931 14.6718 11.7973C14.5068 13.0608 13.6976 14.0139 12.8266 14.0139ZM13.1478 9.22627C12.9411 9.23591 12.7388 9.28931 12.5543 9.38296C12.3698 9.4766 12.2072 9.60836 12.0774 9.7695C11.6927 10.2222 11.4524 10.7797 11.3875 11.3702C11.2193 12.662 11.8004 13.8061 12.6831 13.9213C12.7308 13.9276 12.7789 13.9307 12.8271 13.9306C13.6571 13.9306 14.4296 13.0083 14.5882 11.7867C14.6766 11.1993 14.587 10.5989 14.3311 10.0628C14.2397 9.85004 14.097 9.66315 13.9159 9.51881C13.7348 9.37447 13.5207 9.27716 13.2929 9.23555C13.2448 9.22928 13.1963 9.22617 13.1478 9.22627Z" fill="#334350"/>
<path d="M14.625 11.8294C14.7645 10.7575 14.2791 9.81068 13.5409 9.71462C12.8027 9.61856 12.0913 10.4096 11.9518 11.4815C11.8123 12.5534 12.2976 13.5002 13.0358 13.5963C13.774 13.6923 14.4855 12.9013 14.625 11.8294Z" fill="#334350"/>
<path d="M13.1278 11.1079C13.237 10.7911 13.0687 10.4459 12.752 10.3368C12.4352 10.2276 12.09 10.3959 11.9808 10.7126C11.8717 11.0294 12.04 11.3746 12.3567 11.4838C12.6734 11.5929 13.0187 11.4246 13.1278 11.1079Z" fill="white"/>
<path d="M26.712 13.9641C27.6191 13.8462 28.2156 12.6827 28.0443 11.3655C27.873 10.0483 26.9988 9.07617 26.0917 9.19413C25.1846 9.31209 24.5881 10.4755 24.7594 11.7927C24.9307 13.1099 25.8049 14.0821 26.712 13.9641Z" fill="white"/>
<path d="M26.5624 14.0139C25.691 14.0139 24.8819 13.0607 24.7173 11.7975C24.6268 11.1932 24.7194 10.5757 24.9831 10.0245C25.0706 9.79305 25.2193 9.58967 25.4134 9.43609C25.6075 9.28251 25.8396 9.1845 26.085 9.15255C26.3304 9.1206 26.5799 9.1559 26.8068 9.25467C27.0337 9.35343 27.2296 9.51195 27.3734 9.71333C27.7695 10.1786 28.0172 10.7518 28.0844 11.3591C28.2582 12.6963 27.6449 13.8828 26.7166 14.0037C26.6655 14.0103 26.614 14.0137 26.5624 14.0139ZM26.2411 9.22602C26.1926 9.22607 26.1443 9.22924 26.0962 9.23552C25.8683 9.27696 25.6542 9.37417 25.473 9.51848C25.2918 9.66279 25.1491 9.84974 25.0577 10.0626C24.8018 10.5987 24.7122 11.1992 24.8004 11.7866C24.9683 13.0782 25.8223 14.036 26.706 13.9208C27.5896 13.8056 28.17 12.6617 28.0016 11.3697C27.9366 10.7792 27.6963 10.2218 27.3117 9.76903C27.1819 9.608 27.0195 9.47634 26.8351 9.38273C26.6507 9.28913 26.4485 9.23571 26.2419 9.22602H26.2411Z" fill="#000072"/>
<path d="M26.712 13.9641C27.6191 13.8462 28.2156 12.6827 28.0443 11.3655C27.873 10.0483 26.9988 9.07617 26.0917 9.19413C25.1846 9.31209 24.5881 10.4755 24.7594 11.7927C24.9307 13.1099 25.8049 14.0821 26.712 13.9641Z" fill="white"/>
<path d="M26.5624 14.0139C25.691 14.0139 24.8819 13.0607 24.7173 11.7975C24.6268 11.1932 24.7194 10.5757 24.9831 10.0245C25.0706 9.79305 25.2193 9.58967 25.4134 9.43609C25.6075 9.28251 25.8396 9.1845 26.085 9.15255C26.3304 9.1206 26.5799 9.1559 26.8068 9.25467C27.0337 9.35343 27.2296 9.51195 27.3734 9.71333C27.7695 10.1786 28.0172 10.7518 28.0844 11.3591C28.2582 12.6963 27.6449 13.8828 26.7166 14.0037C26.6655 14.0103 26.614 14.0137 26.5624 14.0139ZM26.2411 9.22602C26.1926 9.22607 26.1443 9.22924 26.0962 9.23552C25.8683 9.27696 25.6542 9.37417 25.473 9.51848C25.2918 9.66279 25.1491 9.84974 25.0577 10.0626C24.8018 10.5987 24.7122 11.1992 24.8004 11.7866C24.9683 13.0782 25.8223 14.036 26.706 13.9208C27.5896 13.8056 28.17 12.6617 28.0016 11.3697C27.9366 10.7792 27.6963 10.2218 27.3117 9.76903C27.1819 9.608 27.0195 9.47634 26.8351 9.38273C26.6507 9.28913 26.4485 9.23571 26.2419 9.22602H26.2411Z" fill="#334350"/>
<path d="M26.3538 13.5979C27.0922 13.5018 27.5778 12.5547 27.4384 11.4825C27.299 10.4102 26.5873 9.61877 25.8488 9.7148C25.1104 9.81082 24.6248 10.7579 24.7642 11.8302C24.9036 12.9025 25.6153 13.6939 26.3538 13.5979Z" fill="#334350"/>
<path d="M26.9361 11.508C27.2664 11.4518 27.4886 11.1386 27.4325 10.8083C27.3763 10.478 27.0631 10.2558 26.7328 10.3119C26.4025 10.3681 26.1803 10.6813 26.2364 11.0116C26.2926 11.3419 26.6058 11.5641 26.9361 11.508Z" fill="white"/>
<path opacity="0.1" d="M34.1134 11.1693C33.972 9.56588 32.795 3.49329 26.1961 1.24456C23.9101 0.312474 18.5586 -0.0139145 15.5969 0.540629C14.5181 0.72021 13.453 0.973864 12.409 1.29979C12.0929 1.40983 11.7831 1.53731 11.481 1.68163C11.3348 1.74727 11.0641 1.89666 10.6546 2.12821C11.0304 1.97271 12.3457 1.49444 12.8357 1.36973C13.7245 1.12849 14.626 0.936556 15.536 0.794814C19.0088 0.510299 22.5108 0.662853 25.8817 1.70381C31.1601 3.33349 32.6569 9.25081 32.7558 10.3717C33.0331 13.5136 30.5465 17.4836 25.9723 18.6848C21.3981 19.8861 11.9724 19.8861 7.39823 18.6848C7.11472 18.6105 6.83676 18.5165 6.56641 18.4033C7.3836 19.71 8.67019 20.6543 10.1619 21.042C14.7361 22.2432 24.1617 22.2432 28.7359 21.042C33.3101 19.8408 34.3905 14.3112 34.1134 11.1693Z" fill="#B1B1D4"/>
<path d="M19.7251 16.3556C19.6793 16.3556 19.634 16.3465 19.5918 16.329C19.5495 16.3115 19.5112 16.2858 19.4788 16.2534C19.4465 16.221 19.4209 16.1826 19.4034 16.1403C19.3859 16.0981 19.3769 16.0528 19.377 16.007V14.7135C19.377 14.6211 19.4137 14.5325 19.479 14.4672C19.5443 14.4019 19.6328 14.3652 19.7252 14.3652C19.8176 14.3652 19.9061 14.4019 19.9714 14.4672C20.0367 14.5325 20.0734 14.6211 20.0734 14.7135V16.007C20.0734 16.0994 20.0367 16.1881 19.9714 16.2534C19.9061 16.3188 19.8175 16.3556 19.7251 16.3556Z" fill="#334350"/>
<path d="M18.2335 17.5457C18.1594 17.5458 18.0871 17.5223 18.0273 17.4785C17.9675 17.4347 17.9232 17.373 17.9009 17.3023C17.8786 17.2316 17.8794 17.1556 17.9033 17.0854C17.9271 17.0152 17.9727 16.9545 18.0334 16.912L19.2217 16.0797C19.3696 15.977 19.5454 15.9219 19.7254 15.9219C19.9055 15.9219 20.0813 15.977 20.2292 16.0797L21.4179 16.912C21.4936 16.9649 21.5451 17.0458 21.5612 17.1367C21.5773 17.2277 21.5566 17.3213 21.5036 17.3969C21.4507 17.4726 21.3698 17.5241 21.2789 17.5402C21.1879 17.5563 21.0943 17.5356 21.0187 17.4826L19.8299 16.6503C19.7993 16.629 19.763 16.6176 19.7257 16.6176C19.6884 16.6176 19.652 16.629 19.6214 16.6503L18.4327 17.4826C18.3744 17.5237 18.3048 17.5457 18.2335 17.5457Z" fill="#334350"/>
<path d="M21.7464 12.9363C21.7382 13.8474 20.8218 15.0744 19.7052 15.064C18.5887 15.0536 17.6946 13.8103 17.7032 12.8995C17.7118 11.9887 18.6185 11.7523 19.7351 11.7625C20.8516 11.7727 21.7545 12.0249 21.7464 12.9363Z" fill="#334350"/>
<path d="M32.3509 6.2825C23.9309 7.69421 15.7069 7.82166 7.71081 6.44685C7.40464 6.39433 7.09868 6.33954 6.79297 6.2825C6.79297 6.2825 6.79297 4.22731 7.54284 3.79703C7.39323 2.85657 7.95481 2.23886 8.58405 2.59173C15.9468 3.90701 23.4076 4.03014 30.5621 2.59173C30.5621 2.59173 31.1823 2.67277 31.5077 3.60011C31.512 3.6026 31.5335 3.6173 31.567 3.64039C31.8853 3.86855 33.304 4.9937 32.3509 6.2825Z" fill="#0F87FF"/>
<path d="M34.8281 5.43809C34.8281 5.43809 33.317 6.59405 30.6373 4.5205L30.5295 4.08887L30.3711 3.45736L30.69 3.33037V2.80571C30.69 2.80571 32.166 0.793724 34.7241 2.04337C34.3126 2.88582 32.9996 3.39646 31.6884 3.60515C32.3796 3.59184 33.0627 3.75546 33.6728 4.08047C34.209 4.37893 34.6193 4.86108 34.8281 5.43809Z" fill="#0F87FF"/>
<g opacity="0.55">
<path opacity="0.55" d="M30.6895 3.2387V2.80571C30.6895 2.80571 32.1657 0.793724 34.7243 2.04337C34.6391 2.21211 34.5259 2.36518 34.3895 2.49606C32.358 1.63391 31.0532 2.83694 30.6895 3.2387Z" fill="white"/>
</g>
<path d="M0.405753 16.3184C0.469979 16.2816 0.540831 16.2578 0.614261 16.2483C0.687691 16.2389 0.76226 16.244 0.833708 16.2634C0.905156 16.2828 0.972084 16.3161 1.03067 16.3613C1.08925 16.4066 1.13834 16.463 1.17514 16.5272L7.57117 27.6829C7.57865 27.6959 7.58537 27.7094 7.59131 27.7232L7.59166 27.7255C7.61156 27.7692 7.62508 27.8156 7.63182 27.8633L7.71862 28.4836L7.78199 28.9314C7.78633 28.9586 7.78231 28.9865 7.77045 29.0114C7.75858 29.0362 7.73944 29.0569 7.71556 29.0706C7.69168 29.0844 7.66419 29.0905 7.63674 29.0882C7.60929 29.086 7.58317 29.0754 7.56186 29.058L7.19502 28.7675L6.71611 28.3887C6.67841 28.3587 6.64514 28.3236 6.6173 28.2843L6.61695 28.282C6.60798 28.2699 6.59976 28.2572 6.59236 28.244L0.196961 17.088C0.160131 17.0238 0.136317 16.9529 0.126878 16.8794C0.117439 16.806 0.12256 16.7314 0.141949 16.6599C0.161337 16.5885 0.194614 16.5215 0.239877 16.4629C0.285141 16.4043 0.341506 16.3552 0.405753 16.3184Z" fill="#F58830"/>
<g opacity="0.55">
<path opacity="0.55" d="M0.364172 16.3198C0.405014 16.2963 0.448627 16.2781 0.493996 16.2655C0.404653 16.3529 0.346838 16.4675 0.329616 16.5913C0.312394 16.7151 0.336738 16.8411 0.398833 16.9495L6.79486 28.1052C6.80224 28.1183 6.81044 28.1309 6.81942 28.143L6.81981 28.1455C6.84757 28.1848 6.88083 28.2198 6.91858 28.2497L7.39572 28.6274L7.7348 28.8945L7.7405 28.9305C7.74479 28.9577 7.74073 28.9855 7.72887 29.0103C7.71701 29.0351 7.6979 29.0557 7.67407 29.0694C7.65024 29.0831 7.62281 29.0893 7.5954 29.0871C7.568 29.0848 7.54191 29.0744 7.5206 29.057L7.15372 28.7663L6.67659 28.3886C6.63888 28.3587 6.60562 28.3236 6.57781 28.2844L6.57742 28.2819C6.56845 28.2699 6.56025 28.2572 6.55287 28.2441L0.155344 17.0891C0.118521 17.0249 0.0947129 16.9541 0.0852793 16.8806C0.0758456 16.8072 0.0809715 16.7326 0.100364 16.6612C0.119757 16.5897 0.153036 16.5228 0.198301 16.4642C0.243566 16.4056 0.29993 16.3566 0.364172 16.3198Z" fill="white"/>
</g>
<path d="M0.405753 16.3184C0.469979 16.2816 0.540831 16.2578 0.614261 16.2483C0.687691 16.2389 0.76226 16.244 0.833708 16.2634C0.905157 16.2828 0.972084 16.3161 1.03067 16.3613C1.08925 16.4066 1.13834 16.463 1.17514 16.5272L1.60103 17.2701C1.26856 16.6902 0.232524 17.1678 0.564985 17.7477L0.196961 17.088C0.160131 17.0238 0.136317 16.9529 0.126878 16.8794C0.117439 16.806 0.12256 16.7314 0.141949 16.6599C0.161337 16.5885 0.194614 16.5215 0.239877 16.4629C0.285141 16.4043 0.341506 16.3552 0.405753 16.3184Z" fill="#ED4327"/>
<path d="M7.5913 27.7233L7.59169 27.7258C7.61159 27.7696 7.62512 27.8161 7.63188 27.8638L7.71976 28.4837L7.78221 28.9301C7.7865 28.9573 7.78244 28.9851 7.77058 29.0099C7.75872 29.0347 7.73961 29.0553 7.71578 29.069C7.69195 29.0827 7.66452 29.0889 7.63711 29.0867C7.60971 29.0845 7.58362 29.074 7.5623 29.0566L7.19543 28.7659L6.71763 28.3883C6.67987 28.3584 6.64659 28.3232 6.61881 28.2839L6.61846 28.2817C6.36753 27.7347 7.2457 27.2313 7.5913 27.7233Z" fill="#FFE5A4"/>
<g opacity="0.3">
<path opacity="0.3" d="M0.405359 16.3182C0.535084 16.2439 0.68901 16.2242 0.83329 16.2633C0.977569 16.3025 1.10039 16.3973 1.17474 16.527L7.57078 27.6827C7.57826 27.6958 7.58499 27.7092 7.59092 27.7231L7.59127 27.7253C7.61113 27.7691 7.62465 27.8155 7.63143 27.8631L7.71882 28.4829L7.78159 28.9313C7.78594 28.9585 7.78192 28.9863 7.77005 29.0112C7.75819 29.0361 7.73905 29.0567 7.71517 29.0705C7.69129 29.0842 7.6638 29.0903 7.63635 29.0881C7.6089 29.0858 7.58278 29.0752 7.56147 29.0578L7.38276 28.9163L7.35172 28.6957L7.26474 28.0756C7.25803 28.0279 7.24457 27.9815 7.22477 27.9376L7.22441 27.9353C7.21847 27.9215 7.21167 27.908 7.20405 27.895L0.808018 16.7394C0.752411 16.6416 0.668828 16.5627 0.568021 16.5128C0.467213 16.463 0.353792 16.4444 0.242346 16.4595C0.28687 16.4022 0.342263 16.3541 0.405359 16.3182Z" fill="#000072"/>
</g>
<path d="M7.69687 28.4787L7.72057 28.4836L7.78025 28.9096C7.78424 28.9381 7.77961 28.9672 7.76694 28.9931C7.75428 29.0189 7.73417 29.0404 7.70919 29.0548C7.68421 29.0692 7.6555 29.0757 7.62677 29.0736C7.59803 29.0715 7.57058 29.0609 7.54794 29.0431L7.19532 28.7657C7.20626 28.7121 7.2285 28.6615 7.26055 28.6172C7.2926 28.5729 7.33372 28.5359 7.38118 28.5088C7.42864 28.4816 7.48134 28.4649 7.53578 28.4597C7.59022 28.4545 7.64513 28.461 7.69687 28.4787Z" fill="#334350"/>
<path d="M32.9677 37.5415H20.1478C20.1511 37.2716 20.1077 37.0031 20.0197 36.7479C19.9289 36.4464 19.7433 36.1821 19.4906 35.9942C19.2378 35.8064 18.9313 35.7049 18.6163 35.7049C18.3014 35.7049 17.9949 35.8064 17.7421 35.9942C17.4893 36.1821 17.3038 36.4464 17.213 36.7479C17.1251 37.0031 17.0818 37.2716 17.0851 37.5415H4.18351C4.09966 37.5416 4.01704 37.5212 3.9428 37.4822C3.86856 37.4432 3.80491 37.3868 3.75733 37.3178C3.70976 37.2487 3.67967 37.1691 3.66969 37.0859C3.65971 37.0026 3.67012 36.9182 3.70003 36.8398L3.73558 36.747L4.31388 35.2324C6.21982 35.5109 8.16247 35.3996 10.0241 34.9051C10.4383 34.7957 10.8439 34.6561 11.2464 34.5065C14.9903 33.1117 17.6972 33.6579 18.6175 35.7033C19.5378 33.6579 22.2453 33.1117 25.9895 34.5065C26.3911 34.6559 26.7967 34.796 27.2118 34.9051C29.0731 35.3995 31.0154 35.5109 32.9211 35.2324L33.4222 36.747L33.4605 36.8613C33.4865 36.9392 33.4936 37.0222 33.4811 37.1033C33.4687 37.1845 33.437 37.2615 33.3889 37.328C33.3407 37.3945 33.2773 37.4486 33.2041 37.4857C33.1309 37.5228 33.0498 37.542 32.9677 37.5415Z" fill="white"/>
<g opacity="0.3">
<path opacity="0.3" d="M18.2995 35.7421C18.0472 35.8026 17.8147 35.927 17.6244 36.1033C17.4342 36.2797 17.2925 36.5021 17.2131 36.7491C17.125 37.0043 17.0816 37.2727 17.0849 37.5426H4.18331C4.09657 37.5429 4.01115 37.5212 3.93505 37.4796C3.85894 37.438 3.79461 37.3777 3.74805 37.3045V36.7093L4.06788 35.8186C6.05528 36.0986 8.07821 35.9889 10.0237 35.4956C10.4377 35.3867 10.8435 35.2466 11.2459 35.0972C14.6271 33.8369 17.1623 34.1606 18.2995 35.7421Z" fill="#000072"/>
</g>
<g opacity="0.3">
<path opacity="0.3" d="M33.435 36.8036C33.3461 36.9478 33.1577 37.542 32.9676 37.542H20.1475C20.1509 37.2726 20.1078 37.0046 20.0201 36.7498C19.9406 36.5027 19.799 36.2802 19.6087 36.1037C19.4184 35.9272 19.1859 35.8026 18.9336 35.7419C20.0721 34.1615 22.6074 33.8386 25.9881 35.0973C26.3894 35.2471 26.795 35.3868 27.2104 35.4959C29.0983 35.9956 31.167 35.985 33.0853 35.7113L33.435 36.8036Z" fill="#000072"/>
</g>
<path d="M3.73511 36.749H17.213C17.1251 37.0043 17.0818 37.2729 17.0851 37.5428H4.1835C4.09965 37.5429 4.01703 37.5225 3.94279 37.4835C3.86854 37.4446 3.8049 37.3881 3.75732 37.3191C3.70974 37.25 3.67967 37.1704 3.66969 37.0872C3.65971 37.0039 3.67012 36.9195 3.70003 36.8411L3.73511 36.749Z" fill="#298FFF"/>
<path d="M32.9673 37.5428H20.1474C20.1507 37.2729 20.1075 37.0043 20.0195 36.749H33.4191L33.4571 36.8638C33.4829 36.9414 33.49 37.024 33.4776 37.1048C33.4653 37.1856 33.4338 37.2623 33.386 37.3286C33.3382 37.395 33.2753 37.449 33.2025 37.4862C33.1297 37.5234 33.0491 37.5429 32.9673 37.5428Z" fill="#298FFF"/>
<path d="M32.9199 35.234C32.1132 35.3496 31.2981 35.3976 30.4833 35.3773C30.3831 35.375 30.2828 35.3716 30.183 35.3662C29.1785 35.3191 28.182 35.165 27.2102 34.9065C26.7962 34.7967 26.3906 34.6575 25.9879 34.5076C22.2442 33.1127 19.5371 33.6584 18.6161 35.7043C17.6967 33.6584 14.9887 33.1127 11.245 34.5076C10.8435 34.6566 10.4381 34.7967 10.0227 34.9065C8.16107 35.4008 6.21844 35.5121 4.3125 35.2337L8.27353 29.1078C8.8634 29.0281 9.44777 28.9119 10.0232 28.7596C10.4374 28.6498 10.843 28.5107 11.2454 28.3601C14.9894 26.965 17.6963 27.5121 18.6166 29.5571C19.5367 27.5121 22.2446 26.9647 25.9884 28.3601C26.3899 28.5102 26.7957 28.6498 27.2106 28.7596C27.7941 28.914 28.3867 29.0314 28.9849 29.1112L29.0888 29.273C29.0887 29.2734 29.0887 29.2739 29.0888 29.2744L29.0936 29.282L32.8962 35.1964L32.9199 35.234Z" fill="white" stroke="#6565AA" stroke-width="0.15"/>
<g opacity="0.6">
<g opacity="0.6">
<path opacity="0.6" d="M6.44922 33.9318C6.83898 33.9019 7.22648 33.87 7.61172 33.8211C7.99696 33.7722 8.37971 33.7136 8.75996 33.6434C9.13932 33.5678 9.51731 33.4879 9.89169 33.3888C10.2663 33.2937 10.6321 33.1815 10.996 33.0493C11.3582 32.9223 11.7303 32.7808 12.1065 32.6699C12.4833 32.556 12.8659 32.4624 13.2527 32.3895C13.6394 32.3156 14.0306 32.2681 14.4238 32.2473C14.816 32.2279 15.2092 32.2457 15.598 32.3005C15.2095 32.3039 14.8216 32.3322 14.4367 32.3854C14.0541 32.4393 13.6745 32.5124 13.2993 32.6043C12.9249 32.6986 12.5524 32.8014 12.1868 32.9245C12.0035 32.9849 11.821 33.0478 11.6393 33.1131L11.0902 33.3155C10.7184 33.4467 10.3398 33.5576 9.95595 33.6477C9.5723 33.7337 9.1864 33.8096 8.79641 33.8598C8.0188 33.9673 7.23195 33.9914 6.44922 33.9318Z" fill="#000072"/>
</g>
</g>
<g opacity="0.6">
<g opacity="0.6">
<path opacity="0.6" d="M10.166 31.9779C10.4634 31.867 10.7568 31.7516 11.0467 31.6291C11.3367 31.5067 11.6287 31.3801 11.9295 31.2729C12.228 31.1617 12.5331 31.0691 12.8407 30.9831C13.1483 30.8971 13.4625 30.8344 13.778 30.7794C14.0949 30.729 14.4144 30.6966 14.735 30.6823C14.8955 30.6771 15.0566 30.6766 15.2173 30.6823C15.2977 30.6859 15.3778 30.6869 15.4586 30.6948L15.5795 30.7058L15.61 30.709L15.6426 30.7133L15.7031 30.7233C16.0218 30.7772 16.3332 30.8678 16.6311 30.9933C16.7789 31.0584 16.9209 31.1359 17.0555 31.2251C17.188 31.316 17.3058 31.4267 17.4047 31.5533C17.2866 31.4504 17.1559 31.3628 17.0159 31.2925C16.8759 31.2253 16.7311 31.1687 16.5827 31.1232C16.2859 31.0345 15.9815 30.9739 15.6734 30.9422C15.3655 30.9239 15.0566 30.9264 14.749 30.9496C14.4388 30.9701 14.1298 31.0065 13.8233 31.0587C13.2067 31.1616 12.5971 31.3027 11.998 31.4813C11.697 31.5696 11.3994 31.6676 11.0942 31.7593C10.7895 31.8505 10.4795 31.9236 10.166 31.9779Z" fill="#000072"/>
</g>
</g>
<g opacity="0.6">
<g opacity="0.6">
<path opacity="0.6" d="M30.7878 34.0726C30.0055 34.1321 29.219 34.108 28.4418 34.0007C28.0525 33.9509 27.6661 33.8746 27.2824 33.7886C26.8987 33.6986 26.5201 33.5877 26.1484 33.4565L25.5994 33.2528C25.4183 33.1865 25.2349 33.1245 25.0514 33.0647C24.6856 32.9416 24.3133 32.8384 23.9391 32.7442C23.5639 32.6522 23.1843 32.579 22.8017 32.5251C22.4169 32.4718 22.0291 32.4433 21.6406 32.44C22.0293 32.3853 22.4223 32.3676 22.8144 32.387C23.2075 32.4076 23.5988 32.455 23.9855 32.5287C24.3722 32.602 24.7547 32.6957 25.1315 32.8094C25.5079 32.921 25.8798 33.0618 26.2422 33.189C26.6061 33.3209 26.9714 33.433 27.3463 33.5285C27.7211 33.624 28.0977 33.7073 28.478 33.7829C28.8585 33.8526 29.2408 33.9138 29.626 33.9606C30.0112 34.0075 30.3985 34.043 30.7878 34.0726Z" fill="#000072"/>
</g>
</g>
<g opacity="0.6">
<g opacity="0.6">
<path opacity="0.6" d="M29.8563 32.624C28.9834 32.6264 28.1131 32.5297 27.262 32.3358C26.8346 32.2409 26.4134 32.12 26.0008 31.9737C25.7934 31.902 25.5934 31.8256 25.3896 31.7589C25.2878 31.7247 25.1859 31.691 25.0832 31.6595C24.9804 31.6281 24.8781 31.5966 24.7744 31.5676C24.364 31.4449 23.9472 31.3445 23.5259 31.2666C23.1059 31.1865 22.6809 31.1356 22.2539 31.1145C22.0416 31.1027 21.8238 31.1072 21.6174 31.1145C21.4052 31.1339 21.1946 31.1676 20.987 31.2154C20.7778 31.2607 20.5733 31.325 20.3759 31.4076C20.1761 31.4883 19.9926 31.6043 19.834 31.7501C19.974 31.5802 20.1463 31.4399 20.341 31.3372C20.535 31.2322 20.739 31.1466 20.9499 31.0817C21.1611 31.0163 21.3765 30.9657 21.5947 30.9303C21.6545 30.9207 21.7056 30.9187 21.7618 30.9139C21.8179 30.9092 21.8727 30.9047 21.9272 30.9031L22.092 30.8956L22.2572 30.8936C22.367 30.8915 22.4772 30.8963 22.5873 30.8988C22.6968 30.9054 22.8071 30.9101 22.9164 30.9214C23.1355 30.9388 23.3534 30.9694 23.5703 31.0023C24.0029 31.0756 24.431 31.1738 24.8523 31.2965C25.2717 31.4198 25.688 31.5681 26.0904 31.7227C26.4928 31.8773 26.8989 32.0103 27.3126 32.124C28.1479 32.3496 28.9978 32.5166 29.8563 32.624Z" fill="#000072"/>
</g>
</g>
<path d="M29.754 26.8382C29.8794 27.6304 29.9153 28.4726 29.5781 29.1992C29.2019 30.0091 28.4027 30.5611 27.5521 30.8323C26.7015 31.1034 25.7941 31.1279 24.9012 31.129C24.2817 31.129 23.6368 31.1147 23.0836 30.8348C22.9587 30.7854 22.8578 30.6895 22.8022 30.5672C22.7601 30.4411 22.8475 30.2709 22.9793 30.2791C22.6954 30.1057 22.4116 29.8658 22.3622 29.5369C22.3129 29.208 22.6517 28.8352 22.9535 28.976C22.8075 28.9307 22.8199 28.6976 22.941 28.605C23.0745 28.5294 23.2279 28.4959 23.3808 28.5091C24.3932 28.4665 25.7234 28.0749 26.4462 27.3649C28.6417 25.2087 27.5924 23.6024 26.8681 21.4268C28.3031 23.0458 29.4099 24.6689 29.754 26.8382Z" fill="#334350"/>
</svg>
