<svg xmlns="http://www.w3.org/2000/svg" width="65.75" height="68.483" viewBox="0 0 65.75 68.483">
  <g id="Group_31209" data-name="Group 31209" transform="translate(-7279.239 12468.483)">
    <g id="Group_31195" data-name="Group 31195" transform="translate(7279.237 -12468.483)">
      <g id="Group_22464" data-name="Group 22464" transform="translate(0 0)">
        <g id="Group_31196" data-name="Group 31196" transform="translate(3.716 33.618)">
          <path id="Path_20956" data-name="Path 20956" d="M2880.55,1492.955l-13.692-1.788-13.693,1.788s-3.273,9.764-3.125,15.265,2.084,9.214,6.7,11.14a25.857,25.857,0,0,0,20.241,0c4.613-1.926,6.549-5.639,6.7-11.14S2880.55,1492.955,2880.55,1492.955Z" transform="translate(-2836.328 -1489.786)" fill="#fafafa"/>
          <path id="Path_20957" data-name="Path 20957" d="M2905.441,1502.949l-4.452-.581c.957,3.256,2.469,9.043,2.367,12.821-.149,5.5-2.082,9.214-6.7,11.14a32.4,32.4,0,0,1-10.12,2.062,33.953,33.953,0,0,1-8.609-1.5,10.736,10.736,0,0,0,3.7,2.465,25.855,25.855,0,0,0,20.241,0c4.613-1.925,6.548-5.639,6.7-11.14S2905.441,1502.949,2905.441,1502.949Z" transform="translate(-2861.217 -1499.782)" fill="#b1b1d4" opacity="0.32"/>
          <path id="Path_20958" data-name="Path 20958" d="M2762.549,1663.055c-2.026,2.788-4.276,2.986-5.389,4.821a3.782,3.782,0,0,0,.41,4.681c.935,1.1,1.073,1.509,2.378,1.518a43.4,43.4,0,0,0,8.237-1.164c2.888-.646,5.764-1.359,8.641-2.07a2.481,2.481,0,0,0,2.042-1.484c.329-1.135-.548-2.217-1.332-2.961l-6.961-6.6C2768.582,1657.907,2766.307,1657.883,2762.549,1663.055Z" transform="translate(-2752.901 -1639.211)" fill="#334350"/>
          <path id="Path_20959" data-name="Path 20959" d="M2725.935,1694.156c-2.155-2.3-2.994-6.355-3.1-7.693a2.057,2.057,0,0,1,.175-1.349,1,1,0,0,1,1.072-.4,1.457,1.457,0,0,1,.326-1.23,2.412,2.412,0,0,1,1.089-.714,2.507,2.507,0,0,1,1.259-.138,1.542,1.542,0,0,1,1.047.67,1.939,1.939,0,0,1,2.379-.077,4.507,4.507,0,0,1,1.5,2.054,14.716,14.716,0,0,1,1.211,6.061,5.493,5.493,0,0,1-.586,2.674,2.535,2.535,0,0,1-1.906,1.328A4.839,4.839,0,0,1,2725.935,1694.156Z" transform="translate(-2722.803 -1660.6)" fill="#334350"/>
          <path id="Path_20960" data-name="Path 20960" d="M3073.341,1663.055c2.027,2.788,4.277,2.986,5.389,4.821a3.78,3.78,0,0,1-.408,4.681c-.936,1.1-1.073,1.509-2.378,1.518a43.4,43.4,0,0,1-8.237-1.164c-2.887-.646-5.762-1.359-8.639-2.07a2.479,2.479,0,0,1-2.042-1.484c-.329-1.135.548-2.217,1.333-2.961l6.96-6.6C3067.309,1657.907,3069.583,1657.883,3073.341,1663.055Z" transform="translate(-3020.954 -1639.211)" fill="#334350"/>
          <path id="Path_20961" data-name="Path 20961" d="M3211.887,1694.156c2.154-2.3,2.992-6.355,3.1-7.693a2.067,2.067,0,0,0-.175-1.349,1.006,1.006,0,0,0-1.073-.4,1.447,1.447,0,0,0-.325-1.23,2.411,2.411,0,0,0-1.088-.714,2.5,2.5,0,0,0-1.259-.138,1.547,1.547,0,0,0-1.049.67,1.937,1.937,0,0,0-2.378-.077,4.518,4.518,0,0,0-1.5,2.054,14.712,14.712,0,0,0-1.211,6.061,5.49,5.49,0,0,0,.586,2.674,2.535,2.535,0,0,0,1.906,1.328A4.84,4.84,0,0,0,3211.887,1694.156Z" transform="translate(-3152.982 -1660.6)" fill="#334350"/>
          <g id="Group_31196-2" data-name="Group 31196" transform="translate(14.016 0)">
            <path id="Path_17255" data-name="Path 17255" d="M2116.542,480.608a20.251,20.251,0,0,0-2.329-8.612l-13.694-1.788L2086.827,472a32.775,32.775,0,0,0-2.518,9.584,20.945,20.945,0,0,1,8.041-4.823,30.853,30.853,0,0,1,11.6-1.162C2113.686,476.29,2116.453,480.535,2116.542,480.608Z" transform="translate(-2084.309 -470.208)" fill="#334350"/>
          </g>
          <path id="Path_20962" data-name="Path 20962" d="M3046.665,506.72a7.39,7.39,0,0,1-.319,4.252,5.91,5.91,0,0,1-3.649,2.941,15.751,15.751,0,0,1-4.775.535,7.178,7.178,0,0,1-3.274-.529.924.924,0,0,1-.505-.482c-.077-.227.079-.534.318-.519a2.1,2.1,0,0,1-1.111-1.337c-.089-.592.521-1.262,1.065-1.01-.263-.081-.24-.5-.023-.668a1.366,1.366,0,0,1,.792-.173,9.094,9.094,0,0,0,5.522-2.061c3.953-3.883,2.064-6.777.76-10.7C3044.05,499.889,3046.045,502.812,3046.665,506.72Z" transform="translate(-2997.215 -494.729)" fill="#334350"/>
          <ellipse id="Ellipse_1245" data-name="Ellipse 1245" cx="3.024" cy="4.145" rx="3.024" ry="4.145" transform="translate(1.146 26.075) rotate(-16)" fill="#7b7b7b" opacity="0.38"/>
          <ellipse id="Ellipse_1246" data-name="Ellipse 1246" cx="3.024" cy="4.145" rx="3.024" ry="4.145" transform="translate(58.529 34.043) rotate(-164)" fill="#7b7b7b" opacity="0.38"/>
        </g>
        <path id="Path_20740" data-name="Path 20740" d="M1904.338,1343.506c-.424-.3-.93-.669-1.376-.4-.249.188-.134.461-.067.674a1.174,1.174,0,0,0-1.355-.655.775.775,0,0,0-.23,1.3.426.426,0,0,0-.493.34,1.114,1.114,0,0,0,.1.653,10.18,10.18,0,0,0,5.525,5.174c3.569,1.6,7.931,1.881,11.279-.14a4.575,4.575,0,0,0,2.322-2.879,3.759,3.759,0,0,0-1.843-3.682,2.4,2.4,0,0,0-3.441.5,3.106,3.106,0,0,1-2.765,1.225A11.868,11.868,0,0,1,1904.338,1343.506Z" transform="translate(-1897.083 -1308.382)" fill="#334350"/>
        <g id="Group_22430" data-name="Group 22430" transform="translate(4.848 0)">
          <g id="Group_22348" data-name="Group 22348" transform="translate(0 0.279)">
            <path id="Path_17256" data-name="Path 17256" d="M1957.187,157.261s-12.092-5.058-5.149-14.158c6.121-8.023,14.161,1.023,14.161,1.023Z" transform="translate(-1949.888 -139.785)" fill="#334350"/>
            <path id="Path_17257" data-name="Path 17257" d="M1994.077,187.161s-6.747-2.822-2.873-7.9c3.416-4.476,7.9.571,7.9.571Z" transform="translate(-1985.885 -173.548)" fill="#f09fad"/>
            <path id="Path_17258" data-name="Path 17258" d="M1960.008,144.669c5.866-7.688,13.493.3,14.12.978l1.043-1.52s-8.04-9.046-14.162-1.023a13.157,13.157,0,0,0-1.124,1.729C1959.926,144.779,1959.966,144.724,1960.008,144.669Z" transform="translate(-1958.858 -139.785)" fill="#334350"/>
            <path id="Path_17259" data-name="Path 17259" d="M1958.256,201.01a4.277,4.277,0,0,0,.645,2.456,1.1,1.1,0,0,0,.939.6.856.856,0,0,0,.676-.728,1.741,1.741,0,0,0-.2-1.046c-.159-.323-.368-.615-.533-.934a3.877,3.877,0,0,1-.333-2.6c.04-.176.077-.4-.061-.506C1958.655,197.675,1958.263,200.705,1958.256,201.01Z" transform="translate(-1957.396 -192.181)" fill="#fff" opacity="0.22"/>
          </g>
          <g id="Group_22349" data-name="Group 22349" transform="translate(42.778)">
            <path id="Path_17260" data-name="Path 17260" d="M2366.592,142.988s6.9-11.146,14.792-2.858c6.959,7.307-3.238,13.824-3.238,13.824Z" transform="translate(-2366.592 -137.065)" fill="#334350"/>
            <path id="Path_17261" data-name="Path 17261" d="M2402.383,180.37s3.849-6.219,8.253-1.595c3.884,4.077-1.807,7.713-1.807,7.713Z" transform="translate(-2398.709 -172.959)" fill="#f09fad"/>
            <path id="Path_17262" data-name="Path 17262" d="M2469.3,153.606c6.669,7-2.417,13.278-3.187,13.79l1.338,1.269s10.2-6.517,3.236-13.824a12.846,12.846,0,0,0-1.53-1.382Z" transform="translate(-2455.894 -151.776)" fill="#334350"/>
            <path id="Path_17263" data-name="Path 17263" d="M2431.08,145.345a4.273,4.273,0,0,0-2.526.251c-.361.165-.722.448-.74.833a.852.852,0,0,0,.613.782,1.736,1.736,0,0,0,1.064-.036c.345-.106.666-.267,1.007-.38a3.882,3.882,0,0,1,2.624.081c.168.067.381.139.51.019C2434.311,146.263,2431.38,145.4,2431.08,145.345Z" transform="translate(-2421.529 -144.42)" fill="#fff" opacity="0.22"/>
          </g>
          <path id="Path_17264" data-name="Path 17264" d="M2049.073,157.1a21.491,21.491,0,0,0-10.72-16.1c-6.209-3.472-21.475-3.789-28.865,0-6.125,3.141-9.833,10.547-10.309,15.939s.951,14.829,8.8,16.891,24.028,2.062,31.878,0S2049.549,162.5,2049.073,157.1Z" transform="translate(-1994.047 -138.153)" fill="#fafafa"/>
          <g id="Group_22248" data-name="Group 22248" transform="translate(12.234 7.529)">
            <g id="Group_21990" data-name="Group 21990" transform="translate(0 0)">
              <g id="Group_21989" data-name="Group 21989">
                <path id="Path_191" data-name="Path 191" d="M1415.934,1260.747c-2.244,1.807-3.552,4.558-4.154,8.019a2.371,2.371,0,0,1-1.9,1.912c-4.865.938-8.565-4.348-6.128-10.208,3.207-7.582,11.219-6.667,12.885-2.394A2.345,2.345,0,0,1,1415.934,1260.747Z" transform="translate(-1402.986 -1254.811)" fill="#334350"/>
              </g>
            </g>
            <g id="Group_21992" data-name="Group 21992" transform="translate(22.254 0)">
              <g id="Group_21991" data-name="Group 21991">
                <path id="Path_192" data-name="Path 192" d="M2129.661,1260.747c2.244,1.807,3.552,4.558,4.154,8.019a2.372,2.372,0,0,0,1.9,1.912c4.865.938,8.564-4.348,6.128-10.208-3.208-7.582-11.219-6.667-12.886-2.394A2.346,2.346,0,0,0,2129.661,1260.747Z" transform="translate(-2128.795 -1254.811)" fill="#334350"/>
              </g>
            </g>
          </g>
          <g id="Group_22249" data-name="Group 22249" transform="translate(15.436 14.976)">
            <g id="Group_22038" data-name="Group 22038" transform="translate(0 0)">
              <ellipse id="Ellipse_8" data-name="Ellipse 8" cx="4.126" cy="2.842" rx="4.126" ry="2.842" transform="translate(0 8.184) rotate(-82.586)" fill="#fff"/>
              <path id="Path_236" data-name="Path 236" d="M1579.06,1521a2.055,2.055,0,0,1-.265-.017c-1.593-.207-2.646-2.243-2.347-4.539a5.254,5.254,0,0,1,1.22-2.825,2.345,2.345,0,0,1,4.1.534,5.242,5.242,0,0,1,.457,3.042C1581.944,1519.362,1580.556,1521,1579.06,1521Zm.551-8.217a2.509,2.509,0,0,0-1.837.932,5.1,5.1,0,0,0-1.183,2.748c-.289,2.217.708,4.181,2.222,4.378a1.917,1.917,0,0,0,.248.016c1.424,0,2.75-1.583,3.023-3.679a5.1,5.1,0,0,0-.442-2.959,2.408,2.408,0,0,0-1.782-1.42A1.885,1.885,0,0,0,1579.612,1512.781Z" transform="translate(-1575.987 -1512.359)" fill="#000072"/>
            </g>
            <g id="Group_22039" data-name="Group 22039" transform="translate(0 0)">
              <ellipse id="Ellipse_9" data-name="Ellipse 9" cx="4.126" cy="2.842" rx="4.126" ry="2.842" transform="translate(0 8.184) rotate(-82.586)" fill="#fff"/>
              <path id="Path_237" data-name="Path 237" d="M1579.06,1521a2.055,2.055,0,0,1-.265-.017c-1.593-.207-2.646-2.243-2.347-4.539a5.254,5.254,0,0,1,1.22-2.825,2.345,2.345,0,0,1,4.1.534,5.242,5.242,0,0,1,.457,3.042C1581.944,1519.362,1580.556,1521,1579.06,1521Zm.551-8.217a2.509,2.509,0,0,0-1.837.932,5.1,5.1,0,0,0-1.183,2.748c-.289,2.217.708,4.181,2.222,4.378a1.917,1.917,0,0,0,.248.016c1.424,0,2.75-1.583,3.023-3.679a5.1,5.1,0,0,0-.442-2.959,2.408,2.408,0,0,0-1.782-1.42A1.885,1.885,0,0,0,1579.612,1512.781Z" transform="translate(-1575.987 -1512.359)" fill="#334350"/>
            </g>
            <g id="Group_22040" data-name="Group 22040" transform="translate(1.139 0.962)">
              <ellipse id="Ellipse_10" data-name="Ellipse 10" cx="3.359" cy="2.313" rx="3.359" ry="2.313" transform="translate(0 6.662) rotate(-82.586)" fill="#334350"/>
            </g>
            <g id="Group_22042" data-name="Group 22042" transform="translate(1.285 1.989)">
              <ellipse id="Ellipse_11" data-name="Ellipse 11" cx="1.041" cy="1.041" rx="1.041" ry="1.041" transform="translate(0 1.969) rotate(-70.986)" fill="#fff"/>
            </g>
          </g>
          <g id="Group_22250" data-name="Group 22250" transform="translate(38.46 14.976)">
            <g id="Group_22044" data-name="Group 22044" transform="translate(0 0)">
              <ellipse id="Ellipse_12" data-name="Ellipse 12" cx="2.842" cy="4.126" rx="2.842" ry="4.126" transform="matrix(0.992, -0.129, 0.129, 0.992, 0, 0.733)" fill="#fff"/>
              <path id="Path_239" data-name="Path 239" d="M2261.839,1521c-1.5,0-2.884-1.635-3.168-3.8a5.258,5.258,0,0,1,.457-3.043,2.346,2.346,0,0,1,4.1-.534,5.256,5.256,0,0,1,1.22,2.825c.3,2.3-.754,4.331-2.347,4.539A2.137,2.137,0,0,1,2261.839,1521Zm-.552-8.217a1.975,1.975,0,0,0-.249.016,2.41,2.41,0,0,0-1.783,1.42,5.124,5.124,0,0,0-.442,2.959c.289,2.217,1.754,3.861,3.271,3.663s2.512-2.161,2.224-4.378a5.1,5.1,0,0,0-1.184-2.747A2.508,2.508,0,0,0,2261.287,1512.78Z" transform="translate(-2258.21 -1512.358)" fill="#000072"/>
            </g>
            <g id="Group_22045" data-name="Group 22045" transform="translate(0 0)">
              <ellipse id="Ellipse_13" data-name="Ellipse 13" cx="2.842" cy="4.126" rx="2.842" ry="4.126" transform="matrix(0.992, -0.129, 0.129, 0.992, 0, 0.733)" fill="#fff"/>
              <path id="Path_240" data-name="Path 240" d="M2261.839,1521c-1.5,0-2.884-1.635-3.168-3.8a5.258,5.258,0,0,1,.457-3.043,2.346,2.346,0,0,1,4.1-.534,5.256,5.256,0,0,1,1.22,2.825c.3,2.3-.754,4.331-2.347,4.539A2.137,2.137,0,0,1,2261.839,1521Zm-.552-8.217a1.975,1.975,0,0,0-.249.016,2.41,2.41,0,0,0-1.783,1.42,5.124,5.124,0,0,0-.442,2.959c.289,2.217,1.754,3.861,3.271,3.663s2.512-2.161,2.224-4.378a5.1,5.1,0,0,0-1.184-2.747A2.508,2.508,0,0,0,2261.287,1512.78Z" transform="translate(-2258.21 -1512.358)" fill="#334350"/>
            </g>
            <g id="Group_22046" data-name="Group 22046" transform="translate(0.107 0.962)">
              <ellipse id="Ellipse_14" data-name="Ellipse 14" cx="2.313" cy="3.359" rx="2.313" ry="3.359" transform="matrix(0.992, -0.129, 0.129, 0.992, 0, 0.597)" fill="#334350"/>
            </g>
            <g id="Group_22048" data-name="Group 22048" transform="translate(2.891 2.111)">
              <ellipse id="Ellipse_15" data-name="Ellipse 15" cx="1.041" cy="1.041" rx="1.041" ry="1.041" transform="translate(0 0.349) rotate(-9.647)" fill="#fff"/>
            </g>
          </g>
          <path id="Path_20738" data-name="Path 20738" d="M2073.184,179.659a20.139,20.139,0,0,0-13.59-17.034c-3.923-1.6-13.108-2.16-18.191-1.208a40.861,40.861,0,0,0-5.471,1.3,15.644,15.644,0,0,0-1.594.655c-.251.113-.715.369-1.419.766.645-.267,2.9-1.086,3.744-1.3a42.916,42.916,0,0,1,4.635-.987,46.854,46.854,0,0,1,17.756,1.56c9.059,2.8,11.628,12.953,11.8,14.877.476,5.392-3.791,12.206-11.642,14.268s-24.028,2.062-31.878,0a10.766,10.766,0,0,1-1.428-.483,10.348,10.348,0,0,0,6.171,4.529c7.851,2.062,24.027,2.062,31.878,0S2073.659,185.051,2073.184,179.659Z" transform="translate(-2018.138 -160.925)" fill="#b1b1d4" opacity="0.1"/>
          <g id="Group_22696" data-name="Group 22696" transform="translate(26.881 19.752)">
            <g id="Group_22607" data-name="Group 22607" transform="translate(2.872 4.467)">
              <path id="Path_122" data-name="Path 122" d="M1979.332,1786.131a.6.6,0,0,1-.6-.6v-2.22a.6.6,0,1,1,1.2,0v2.22A.6.6,0,0,1,1979.332,1786.131Z" transform="translate(-1978.736 -1782.715)" fill="#334350"/>
            </g>
            <g id="Group_22608" data-name="Group 22608" transform="translate(0.311 7.139)">
              <path id="Path_123" data-name="Path 123" d="M1888.3,1880.453a.6.6,0,0,1-.343-1.088l2.039-1.428a1.514,1.514,0,0,1,1.729,0l2.041,1.428a.6.6,0,1,1-.685.98l-2.041-1.429a.313.313,0,0,0-.357,0l-2.04,1.429A.594.594,0,0,1,1888.3,1880.453Z" transform="translate(-1887.703 -1877.665)" fill="#334350"/>
            </g>
            <g id="Group_22693" data-name="Group 22693" transform="translate(0)">
              <path id="Path_289" data-name="Path 289" d="M1921.806,1734.235c-.014,1.564-1.587,3.67-3.5,3.653s-3.451-2.152-3.436-3.715,1.571-1.969,3.488-1.952S1921.82,1732.671,1921.806,1734.235Z" transform="translate(-1914.867 -1732.22)" fill="#334350"/>
            </g>
          </g>
          <g id="Group_30714" data-name="Group 30714" transform="translate(8.156 2.368)">
            <g id="Group_22610" data-name="Group 22610" transform="translate(0 1.471)">
              <path id="Path_201" data-name="Path 201" d="M1335.669,1156.035a125.6,125.6,0,0,1-42.289.282c-.525-.09-1.051-.184-1.575-.282,0,0,0-3.528,1.287-4.266-.257-1.614.707-2.674,1.787-2.069a101.241,101.241,0,0,0,37.723,0s1.064.139,1.623,1.731h0c.007,0,.044.029.1.069C1334.87,1151.891,1337.3,1153.823,1335.669,1156.035Z" transform="translate(-1291.805 -1149.527)" fill="#0f87ff"/>
            </g>
            <g id="Group_22612" data-name="Group 22612" transform="translate(40.47 0)">
              <g id="Group_22474" data-name="Group 22474" transform="translate(0)">
                <path id="Path_185" data-name="Path 185" d="M2761.351,1185.015s-2.593,1.983-7.192-1.575l-.186-.741-.271-1.084.547-.218v-.9a5.429,5.429,0,0,1,6.924-1.308c-.706,1.446-2.959,2.323-5.21,2.68a6.965,6.965,0,0,1,3.406.817A4.367,4.367,0,0,1,2761.351,1185.015Z" transform="translate(-2753.703 -1178.486)" fill="#0f87ff"/>
              </g>
              <g id="Group_22475" data-name="Group 22475" transform="translate(0.547)" opacity="0.55">
                <path id="Path_186" data-name="Path 186" d="M2773,1181.24v-.743a5.431,5.431,0,0,1,6.925-1.308,2.85,2.85,0,0,1-.574.776A5.381,5.381,0,0,0,2773,1181.24Z" transform="translate(-2773.002 -1178.486)" fill="#fff"/>
              </g>
            </g>
          </g>
        </g>
        <g id="Group_30715" data-name="Group 30715" transform="translate(6.329 41.567) rotate(-130)">
          <g id="Group_22009" data-name="Group 22009" transform="translate(0.072 0.003)">
            <path id="Path_208" data-name="Path 208" d="M.624.063a.967.967,0,0,1,1.248.56L9.718,21.252a.678.678,0,0,1,.023.074l0,0a.864.864,0,0,1,.031.244l-.019,1.075-.014.774a.235.235,0,0,1-.407.155l-.545-.591-.707-.768a.876.876,0,0,1-.139-.2v0a.63.63,0,0,1-.032-.071L.063,1.312A.968.968,0,0,1,.624.063Z" transform="translate(0 0)" fill="#f58830"/>
          </g>
          <g id="Group_22011" data-name="Group 22011" transform="translate(0 0)" opacity="0.55">
            <path id="Path_210" data-name="Path 210" d="M.624.057A.969.969,0,0,1,.859,0,.969.969,0,0,0,.513,1.134L8.36,21.762a.607.607,0,0,0,.032.071l0,0a.862.862,0,0,0,.139.2l.707.768.5.545,0,.063a.235.235,0,0,1-.407.155L8.79,22.98l-.707-.768a.869.869,0,0,1-.14-.2v0a.612.612,0,0,1-.032-.071L.063,1.305A.967.967,0,0,1,.624.057Z" transform="translate(0 0)" fill="#fff"/>
          </g>
          <g id="Group_22012" data-name="Group 22012" transform="translate(0.072 0.003)">
            <path id="Path_211" data-name="Path 211" d="M.624.063a.967.967,0,0,1,1.248.56L2.394,2C1.987.925.1,1.457.51,2.529L.063,1.312A.968.968,0,0,1,.624.063Z" transform="translate(0 0)" fill="#ed4327"/>
          </g>
          <g id="Group_22013" data-name="Group 22013" transform="translate(7.981 20.873)">
            <path id="Path_212" data-name="Path 212" d="M1.832.456v0A.868.868,0,0,1,1.865.7L1.845,1.779l-.014.774a.235.235,0,0,1-.407.155L.88,2.116.173,1.348a.865.865,0,0,1-.14-.2v0A.987.987,0,0,1,1.832.456Z" transform="translate(0 0)" fill="#ffe5a4"/>
          </g>
          <g id="Group_22014" data-name="Group 22014" transform="translate(0.381 0.003)" opacity="0.3">
            <path id="Path_213" data-name="Path 213" d="M.314.063a.968.968,0,0,1,1.248.56L9.409,21.252a.669.669,0,0,1,.023.074v0a.868.868,0,0,1,.031.244l-.019,1.075-.014.774a.235.235,0,0,1-.407.155L8.76,23.29l.006-.382.019-1.074a.871.871,0,0,0-.031-.245l0,0a.621.621,0,0,0-.024-.074L.883.882A.967.967,0,0,0,0,.259.948.948,0,0,1,.314.063Z" transform="translate(0 0)" fill="#000072"/>
          </g>
          <g id="Group_22016" data-name="Group 22016" transform="translate(8.861 22.568)">
            <path id="Path_215" data-name="Path 215" d="M.927.069.965.083.952.823a.248.248,0,0,1-.43.164L0,.421A.661.661,0,0,1,.927.069Z" transform="translate(0 0)" fill="#334350"/>
          </g>
        </g>
      </g>
    </g>
  </g>
</svg>
