<svg xmlns="http://www.w3.org/2000/svg" xmlns:xlink="http://www.w3.org/1999/xlink" width="38.859" height="43.665" xmlns:v="https://vecta.io/nano"><style><![CDATA[.J{fill:#334350}.K{fill:#fff}.L{fill:#1cb4ee}.M{fill:#59c2f2}]]></style><path d="M27.578 24.104l-8.449-1.1-8.45 1.1s-2.021 6.026-1.929 9.42 1.286 5.686 4.133 6.875a15.96 15.96 0 0 0 12.491 0c2.847-1.188 4.041-3.479 4.133-6.875s-1.929-9.42-1.929-9.42z" fill="#fafafa"/><path fill="#b1b1d4" d="M27.577 24.104l-2.747-.359c.829 2.562 1.32 5.222 1.46 7.912-.092 3.395-1.286 5.686-4.133 6.874a20 20 0 0 1-6.245 1.273c-1.803-.079-3.589-.391-5.312-.927a6.62 6.62 0 0 0 2.281 1.521 15.96 15.96 0 0 0 12.491 0c2.847-1.188 4.041-3.48 4.133-6.875s-1.928-9.419-1.928-9.419z" opacity=".32"/><g class="J"><path d="M6.242 36.864c-1.25 1.721-2.639 1.843-3.325 2.975-.597.904-.492 2.101.252 2.888.577.676.661.931 1.468.937 1.713-.076 3.416-.316 5.083-.718l5.331-1.278a1.53 1.53 0 0 0 1.261-.916c.2-.7-.337-1.368-.822-1.828l-4.3-4.073c-1.226-1.164-2.629-1.179-4.948 2.013z"/><path d="M2.22 42.857a9.15 9.15 0 0 1-1.911-4.748 1.27 1.27 0 0 1 .108-.833.62.62 0 0 1 .662-.244.9.9 0 0 1 .2-.759 1.5 1.5 0 0 1 .672-.44 1.55 1.55 0 0 1 .777-.085.95.95 0 0 1 .646.413 1.2 1.2 0 0 1 1.468-.048c.424.325.745.765.926 1.268a9.09 9.09 0 0 1 .748 3.74 3.4 3.4 0 0 1-.361 1.65c-.237.448-.675.753-1.177.82a2.99 2.99 0 0 1-2.758-.734zm30.398-5.993c1.25 1.721 2.638 1.843 3.325 2.975a2.33 2.33 0 0 1-.253 2.888c-.577.676-.661.931-1.468.937a26.8 26.8 0 0 1-5.083-.718l-5.331-1.278a1.53 1.53 0 0 1-1.26-.916c-.2-.7.338-1.368.823-1.828l4.3-4.073c1.223-1.164 2.627-1.179 4.947 2.013z"/><path d="M36.639 42.857c1.076-1.369 1.739-3.016 1.912-4.748a1.27 1.27 0 0 0-.109-.833.62.62 0 0 0-.662-.244c.054-.27-.02-.55-.2-.759s-.411-.357-.671-.44a1.55 1.55 0 0 0-.778-.085.95.95 0 0 0-.646.413 1.2 1.2 0 0 0-1.469-.048c-.424.325-.745.765-.926 1.268a9.08 9.08 0 0 0-.748 3.74 3.39 3.39 0 0 0 .362 1.65c.237.447.675.753 1.176.82a2.99 2.99 0 0 0 2.759-.734zm-7.81-14.29c-.078-1.857-.569-3.672-1.438-5.315l-8.449-1.1-8.45 1.1a20.2 20.2 0 0 0-1.554 5.915 12.92 12.92 0 0 1 4.962-2.976c2.318-.692 4.747-.935 7.157-.717 6.009.428 7.717 3.048 7.772 3.093zM4.728 11.496s-7.832-3.275-3.335-9.169c3.964-5.2 9.171.663 9.171.663z"/></g><path d="M5.304 8.998S.934 7.17 3.444 3.882c2.212-2.9 5.117.37 5.117.37z" fill="#f09fad"/><path d="M.744 3.344c3.8-4.979 8.739.193 9.145.633l.675-.984S5.357-2.866 1.393 2.33a8.37 8.37 0 0 0-.728 1.12z" class="J"/><path d="M.557 5.899c-.025.56.121 1.115.418 1.59.118.23.35.378.608.388.232-.047.408-.237.438-.472s-.017-.471-.131-.678c-.1-.209-.239-.4-.345-.6-.266-.52-.342-1.116-.216-1.686.025-.114.05-.258-.04-.328C.815 3.739.561 5.702.557 5.899z" opacity=".22" class="K"/><path d="M27.705 3.835s4.467-7.219 9.579-1.851c4.508 4.732-2.1 8.953-2.1 8.953z" class="J"/><path d="M30.085 4.8S32.577.772 35.43 3.767c2.515 2.64-1.17 5-1.17 5z" fill="#f09fad"/><path d="M36.386 1.185c4.319 4.535-1.565 8.6-2.064 8.931l.866.822s6.6-4.221 2.1-8.953a8.35 8.35 0 0 0-.991-.9z" class="J"/><path d="M33.89.599a2.77 2.77 0 0 0-1.636.163c-.234.107-.467.29-.479.54.011.237.172.441.4.507s.468.057.69-.023c.223-.068.431-.173.652-.246.555-.181 1.157-.162 1.7.052.108.043.246.09.33.012.436-.411-1.462-.97-1.657-1.005z" opacity=".22" class="K"/><path d="M35.638 12.274a13.92 13.92 0 0 0-6.942-10.429c-4.021-2.249-13.908-2.454-18.694 0-3.967 2.034-6.369 6.831-6.677 10.323s.616 9.6 5.7 10.939 15.561 1.335 20.645 0 6.276-7.341 5.968-10.833z" fill="#fafafa"/><path d="M16.309 8.722a8.18 8.18 0 0 0-2.69 5.193c-.113.628-.601 1.121-1.228 1.239-3.151.607-5.547-2.817-3.969-6.611 2.077-4.91 7.266-4.318 8.345-1.55a1.52 1.52 0 0 1-.458 1.729zm6.587 0c1.506 1.34 2.464 3.189 2.69 5.193a1.54 1.54 0 0 0 1.229 1.239c3.151.607 5.547-2.817 3.969-6.611-2.077-4.91-7.266-4.318-8.345-1.55a1.52 1.52 0 0 0 .457 1.729z" class="J"/><ellipse cx="2.672" cy="1.84" rx="2.672" ry="1.84" transform="matrix(.129038 -.99164 .99164 .129038 9.997 14.999)" class="K"/><use xlink:href="#B" fill="#000072"/><ellipse cx="2.672" cy="1.84" rx="2.672" ry="1.84" transform="matrix(.129038 -.99164 .99164 .129038 9.997 14.999)" class="K"/><g class="J"><use xlink:href="#B"/><ellipse cx="2.175" cy="1.498" rx="2.175" ry="1.498" transform="matrix(.129038 -.99164 .99164 .129038 10.735 14.637)"/></g><g class="K"><circle cx=".674" cy=".674" r=".674" transform="matrix(.325799 -.945439 .945439 .325799 10.829 12.262)"/><ellipse cx="1.84" cy="2.672" rx="1.84" ry="2.672" transform="matrix(.992 -.129 .129 .992 24.909 10.174)"/></g><use xlink:href="#C" fill="#000072"/><ellipse cx="1.84" cy="2.672" rx="1.84" ry="2.672" transform="matrix(.992 -.129 .129 .992 24.909 10.174)" class="K"/><g class="J"><use xlink:href="#C"/><ellipse cx="1.498" cy="2.175" rx="1.498" ry="2.175" transform="matrix(.992 -.129 .129 .992 24.979 10.709)"/></g><circle cx=".674" cy=".674" r=".674" transform="matrix(.985859 -.167578 .167578 .985859 26.782 11.292)" class="K"/><path fill="#b1b1d4" d="M35.649 12.133a13.04 13.04 0 0 0-8.8-11.032c-2.541-1.036-8.49-1.4-11.782-.783-1.199.2-2.383.482-3.543.844a10.09 10.09 0 0 0-1.032.424c-.162.073-.463.239-.919.5.417-.173 1.88-.7 2.425-.843.987-.268 1.989-.481 3-.639 3.863-.402 7.767-.059 11.5 1.01 5.867 1.812 7.531 8.389 7.641 9.635.308 3.492-2.456 7.905-7.54 9.241s-15.561 1.335-20.646 0c-.315-.083-.624-.187-.925-.313a6.7 6.7 0 0 0 4 2.933c5.084 1.335 15.561 1.335 20.646 0s6.284-7.484 5.975-10.977z" opacity=".1"/><g class="J"><path d="M19.656 17.897a.39.39 0 0 1-.387-.387v-1.44c0-.214.173-.387.387-.387s.387.173.387.387v1.438c.001.103-.04.202-.113.275s-.171.114-.274.114z"/><path d="M17.998 19.22c-.167-.002-.313-.111-.363-.27a.39.39 0 0 1 .141-.43l1.321-.925a.98.98 0 0 1 1.12 0l1.321.925c.113.079.176.213.164.351s-.097.259-.222.317-.272.046-.386-.034l-1.321-.925a.2.2 0 0 0-.231 0l-1.322.925a.38.38 0 0 1-.222.066zm3.906-5.123a2.25 2.25 0 1 1-4.494-.04c.009-1.013 1.017-1.275 2.258-1.264s2.245.291 2.236 1.304z"/></g><g fill="#7b7b7b"><ellipse cx="1.866" cy="2.558" rx="1.866" ry="2.558" transform="matrix(.961262 -.275637 .275637 .961262 .995 38.241)" opacity=".38"/><ellipse cx="1.866" cy="2.558" rx="1.866" ry="2.558" transform="matrix(-.961262 -.275637 .275637 -.961262 36.407 43.158)" opacity=".38"/></g><path d="M7.029 29.311a4.55 4.55 0 0 0 .055 2.631 3.65 3.65 0 0 0 2.152 1.933c.944.311 1.931.475 2.925.486a4.43 4.43 0 0 0 2.035-.218c.141-.047.259-.148.328-.28.054-.137-.031-.331-.179-.33a1.3 1.3 0 0 0 .729-.787c.074-.362-.28-.795-.623-.658.165-.041.165-.3.036-.411a.85.85 0 0 0-.482-.133 5.62 5.62 0 0 1-3.335-1.452c-1.909-2.08-1.18-3.775-.219-6.673a11.63 11.63 0 0 0-3.422 5.892zm23.775.238a4.54 4.54 0 0 1-.2 2.624c-.468.89-1.283 1.546-2.252 1.815a9.72 9.72 0 0 1-2.947.33 4.43 4.43 0 0 1-2.02-.327.58.58 0 0 1-.313-.3c-.046-.14.049-.329.2-.32a1.3 1.3 0 0 1-.686-.825c-.055-.366.322-.779.658-.623-.162-.05-.149-.309-.014-.412.148-.084.319-.122.489-.107a5.61 5.61 0 0 0 3.408-1.272c2.44-2.4 1.274-4.182.468-6.6a11.64 11.64 0 0 1 3.209 6.017z" class="J"/><path d="M7.95 18.671a1.23 1.23 0 0 0 1.883 1.231 1.23 1.23 0 0 0 .539-1.231 8.74 8.74 0 0 0-1.211-3.145 8.74 8.74 0 0 0-1.211 3.145" class="L"/><path d="M9.924 18.535c-.244.041-.456.191-.576.408-.215.323-.246.68-.069.8.04.026.087.039.134.038a.81.81 0 0 0 .576-.408c.215-.323.246-.679.069-.8-.04-.026-.086-.039-.133-.038" class="M"/><path d="M14.102 13.535c.524-.037.729.454.626.958-.159.737-.865.282-1.207.8-.148.233-.1.6-.364.737-.3.16-.524-.049-.774-.159-.243-.104-.523-.066-.729.1-.234.152-.539.142-.763-.025-.251-.172-.421-.43-.718-.467a1.1 1.1 0 0 1-.865-.356.56.56 0 0 1 .057-.81 1.43 1.43 0 0 1 .843-.16c.611.003 1.222-.03 1.829-.1.759.093 1.505-.249 1.929-.885l.136.371" class="L"/><path d="M14.515 13.951c-.086.167-.047.349-.147.503a.49.49 0 0 1-.238.2.59.59 0 0 0-.178.078c-.022.018-.006.049.015.057.029.012.059.017.09.017a.56.56 0 0 0 .424-.287.63.63 0 0 0 .053-.559c-.004-.006-.011-.01-.019-.01m-1.044 1.125h-.007c-.177.059-.289.357-.381.5-.053.083-.134.232-.241.254h-.025c-.1 0-.144-.143-.247-.156-.018.002-.032.014-.037.031-.029.113.119.248.228.265a.29.29 0 0 0 .048 0c.095-.002.183-.047.242-.121.193-.221.246-.528.44-.743.006-.007.008-.016.005-.025s-.011-.014-.02-.015m-2.772.274c-.01-.001-.02.003-.028.01s-.011.017-.011.028c.055.211.225.373.439.417a.81.81 0 0 0 .169.018 1.06 1.06 0 0 0 .458-.12c.024-.011.008-.043-.014-.043a2.13 2.13 0 0 1-.364.046.61.61 0 0 1-.208-.032c-.184-.067-.256-.237-.417-.319m-1.239-.882c-.028-.001-.054.014-.068.039-.27.469.277.745.687.745a.79.79 0 0 0 .13-.01.04.04 0 0 0 .028-.039.04.04 0 0 0-.028-.039 1.81 1.81 0 0 1-.52-.16.29.29 0 0 1-.164-.155.3.3 0 0 1-.005-.226.1.1 0 0 0 .038-.026c.011-.011.015-.028.011-.043a.1.1 0 0 0-.068-.074.1.1 0 0 0-.043-.01" class="M"/><path d="M31.491 18.865a1.23 1.23 0 0 1-1.883 1.231 1.23 1.23 0 0 1-.539-1.231 8.74 8.74 0 0 1 1.211-3.145 8.74 8.74 0 0 1 1.211 3.145" class="L"/><path d="M29.52 18.729a.81.81 0 0 1 .576.408c.215.323.246.68.069.8-.04.026-.087.039-.134.038a.81.81 0 0 1-.576-.408c-.215-.323-.246-.679-.069-.8.04-.026.086-.039.133-.038" class="M"/><path d="M25.339 13.728c-.524-.037-.729.454-.626.958.159.737.865.282 1.207.8.148.233.1.6.364.737.3.16.524-.049.774-.159.243-.104.523-.066.729.1.234.152.539.142.763-.025.25-.172.421-.43.718-.467a1.1 1.1 0 0 0 .865-.356c.104-.113.158-.264.147-.417s-.085-.296-.204-.393a1.43 1.43 0 0 0-.843-.16c-.611.003-1.222-.03-1.829-.1a2.98 2.98 0 0 1-2.135-1.074l.07.56" class="L"/><path d="M24.925 14.146c.087.167.048.349.148.503a.49.49 0 0 0 .238.2c.063.016.123.042.177.078.023.018.006.049-.015.057-.029.012-.059.017-.09.017a.56.56 0 0 1-.424-.287.63.63 0 0 1-.053-.559c.004-.006.011-.01.019-.01m1.045 1.124h.007c.178.059.289.357.381.5.053.083.134.232.241.254h.025c.1 0 .144-.143.247-.156.018.002.032.014.037.031.029.113-.119.248-.228.265a.29.29 0 0 1-.048 0c-.095-.002-.183-.047-.242-.121-.193-.221-.246-.528-.44-.743-.006-.007-.008-.016-.005-.025s.011-.014.02-.015m2.772.274c.01-.001.021.003.029.01s.012.017.011.028c-.055.211-.226.373-.44.417a.81.81 0 0 1-.169.018 1.06 1.06 0 0 1-.458-.12c-.024-.011-.008-.043.014-.043a2.06 2.06 0 0 0 .364.046.61.61 0 0 0 .208-.032c.184-.067.256-.237.417-.319m1.239-.882c.028-.001.054.014.068.039.27.469-.277.745-.687.745a.79.79 0 0 1-.13-.01.04.04 0 0 1-.028-.039.04.04 0 0 1 .028-.039 1.81 1.81 0 0 0 .52-.16.29.29 0 0 0 .164-.155.3.3 0 0 0 .005-.226.1.1 0 0 1-.038-.026c-.011-.011-.015-.028-.011-.043a.1.1 0 0 1 .11-.084" class="M"/><defs ><path id="B" d="M11.987 15.293a1.33 1.33 0 0 1-.172-.011c-1.031-.134-1.713-1.453-1.52-2.94a3.4 3.4 0 0 1 .79-1.83 1.52 1.52 0 0 1 2.656.346 3.4 3.4 0 0 1 .3 1.971c-.186 1.405-1.085 2.464-2.054 2.464zm.357-5.322c-.464.021-.897.239-1.19.6a3.3 3.3 0 0 0-.767 1.779c-.187 1.436.459 2.708 1.44 2.836.053.007.106.011.16.011.922 0 1.781-1.025 1.958-2.383.098-.653-.002-1.32-.286-1.916a1.56 1.56 0 0 0-1.154-.92c-.053-.005-.107-.007-.161-.006z"/><path id="C" d="M27.255 15.294c-.969 0-1.868-1.059-2.051-2.464a3.4 3.4 0 0 1 .295-1.97 1.52 1.52 0 0 1 2.657-.346 3.4 3.4 0 0 1 .79 1.83c.193 1.486-.489 2.805-1.521 2.94a1.41 1.41 0 0 1-.17.01zm-.357-5.322a1.27 1.27 0 0 0-.161.01 1.56 1.56 0 0 0-1.155.919 3.31 3.31 0 0 0-.286 1.917c.187 1.435 1.136 2.5 2.118 2.372s1.627-1.4 1.44-2.836c-.072-.656-.339-1.276-.767-1.779a1.62 1.62 0 0 0-1.185-.603z"/></defs></svg>