<svg width="76" height="103" viewBox="0 0 76 103" fill="none" xmlns="http://www.w3.org/2000/svg">
<path d="M7.07227 67.5947C6.56504 67.2334 5.9592 66.7946 5.425 67.1149C5.12699 67.3399 5.26508 67.6663 5.34458 67.922C5.20884 67.6221 4.97209 67.3793 4.67563 67.236C4.37918 67.0927 4.04184 67.0581 3.72246 67.1382C3.10411 67.3604 2.8856 68.3516 3.4463 68.6961C3.31427 68.6732 3.17857 68.7031 3.06832 68.7792C2.95807 68.8554 2.88212 68.9718 2.8568 69.1034C2.81796 69.3705 2.8614 69.6431 2.98137 69.8849C4.12369 72.7637 6.76681 74.8131 9.59308 76.0782C13.8639 77.9918 19.0849 78.3293 23.0912 75.9108C24.393 75.1242 25.5958 73.9614 25.8701 72.4648C26.1839 70.7483 25.1448 68.9816 23.6645 68.0578C22.1479 67.1117 20.6397 67.2553 19.5457 68.6575C18.6158 69.85 17.8218 70.0114 16.2373 70.1234C12.9825 70.3584 9.74608 69.4654 7.07227 67.5947Z" fill="#334350"/>
<path d="M55.1534 70.1016L39.5389 68.0625L23.9244 70.1016C23.9244 70.1016 20.1907 81.2366 20.3604 87.5098C20.5301 93.783 22.7366 98.017 27.9977 100.213C33.2587 102.41 39.5389 102.566 39.5389 102.566C39.5389 102.566 45.8186 102.409 51.0802 100.213C56.3417 98.0175 58.5478 93.783 58.7175 87.5098C58.8872 81.2366 55.1534 70.1016 55.1534 70.1016Z" fill="#FAFAFA"/>
<path opacity="0.32" d="M55.1528 70.1011L50.0772 69.4381C51.1689 73.151 52.8928 79.751 52.7765 84.059C52.6068 90.3322 50.4003 94.5663 45.1392 96.7626C39.8782 98.9589 33.5984 99.1151 33.5984 99.1151C30.2661 98.9694 26.9665 98.3939 23.7816 97.4028C24.9754 98.6235 26.4116 99.5809 27.9976 100.213C33.2591 102.409 39.5388 102.566 39.5388 102.566C39.5388 102.566 45.8185 102.409 51.0801 100.213C56.3416 98.0175 58.5481 93.7829 58.7174 87.5102C58.8866 81.2374 55.1528 70.1011 55.1528 70.1011Z" fill="#B1B1D4"/>
<path d="M57.4649 78.3494C57.4649 73.2956 54.8078 68.5278 54.8078 68.5278L39.1934 66.4892L23.5789 68.5278C22.4591 72.0477 21.7233 75.6783 21.3841 79.3564C23.8858 76.9272 26.4387 75.0623 29.8758 73.9572C34.0955 72.6006 38.6476 72.3156 43.102 72.6327C54.2076 73.4244 57.3631 78.2661 57.4649 78.3494Z" fill="#334350"/>
<path d="M12.9271 46.8085C12.9271 46.8085 -1.54507 40.7556 6.76451 29.8648C14.0903 20.2632 23.7128 31.0894 23.7128 31.0894L12.9271 46.8085Z" fill="#334350"/>
<path d="M13.9941 42.1853C13.9941 42.1853 5.91926 38.8081 10.5536 32.7311C14.6412 27.3738 20.0101 33.4145 20.0101 33.4145L13.9941 42.1853Z" fill="#F09FAD"/>
<path d="M5.5659 31.7385C12.5862 22.5376 21.7146 32.0946 22.464 32.9087L23.7123 31.0894C23.7123 31.0894 14.0884 20.2628 6.76447 29.8648C6.26151 30.5176 5.81161 31.2096 5.41902 31.9342C5.46784 31.8691 5.51615 31.8045 5.5659 31.7385Z" fill="#334350"/>
<path opacity="0.22" d="M5.221 36.4593C5.17464 37.4947 5.4439 38.5197 5.99319 39.3985C6.09991 39.6072 6.26028 39.7836 6.45777 39.9098C6.65526 40.036 6.88279 40.1073 7.11696 40.1164C7.32584 40.0735 7.51607 39.9665 7.66111 39.8102C7.80616 39.6539 7.89877 39.4561 7.92592 39.2446C7.97806 38.8122 7.89313 38.3743 7.68319 37.9926C7.4935 37.6067 7.24248 37.2566 7.04488 36.8768C6.55427 35.9163 6.41322 34.815 6.64597 33.7618C6.69246 33.5512 6.73897 33.2857 6.57253 33.1574C5.69801 32.4679 5.22891 36.0948 5.221 36.4593Z" fill="white"/>
<path d="M55.3881 32.6474C55.3881 32.6474 63.6418 19.3073 73.0905 29.2265C81.4205 37.9717 69.2154 45.7708 69.2154 45.7708L55.3881 32.6474Z" fill="#334350"/>
<path d="M59.7853 34.4285C59.7853 34.4285 64.3908 26.9851 69.6626 32.5195C74.3118 37.4012 67.5007 41.7506 67.5007 41.7506L59.7853 34.4285Z" fill="#F09FAD"/>
<path d="M71.4279 27.7485C79.4102 36.1283 68.5361 43.64 67.6156 44.2533L69.2158 45.7722C69.2158 45.7722 81.4205 37.9726 73.0905 29.2279C72.5248 28.6287 71.9121 28.0757 71.2582 27.5741C71.3145 27.6309 71.3712 27.689 71.4279 27.7485Z" fill="#334350"/>
<path opacity="0.22" d="M66.8206 26.6648C65.8061 26.4566 64.7523 26.5613 63.7986 26.9651C63.3667 27.1627 62.9352 27.5007 62.9129 27.9624C62.9224 28.1754 62.9981 28.3801 63.1297 28.5479C63.2612 28.7157 63.4419 28.8382 63.6465 28.8983C64.0654 29.0179 64.5113 29.0029 64.9213 28.8555C65.3323 28.729 65.7173 28.5361 66.1255 28.4008C67.1516 28.0672 68.2617 28.1013 69.2655 28.497C69.4663 28.577 69.7211 28.663 69.8755 28.5198C70.6868 27.7638 67.1809 26.7303 66.8206 26.6648Z" fill="white"/>
<path d="M70.0471 48.2405C69.4775 41.7869 65.2384 33.4527 57.218 28.968C49.7866 24.813 31.5161 24.4336 22.6742 28.968C15.3433 32.7274 10.906 41.5907 10.3365 48.0438C9.76699 54.497 11.4751 65.7909 20.8707 68.2587C30.2664 70.7265 49.6267 70.726 59.0224 68.2587C68.418 65.7913 70.6166 54.6941 70.0471 48.2405Z" fill="#FAFAFA"/>
<path d="M34.3298 41.6748C31.6444 43.8377 30.079 47.1288 29.3584 51.2713C29.2568 51.838 28.9853 52.3604 28.5799 52.7692C28.1745 53.1779 27.6545 53.4538 27.0887 53.5601C21.2669 54.6824 16.838 48.3558 19.7549 41.3438C23.5938 32.2699 33.1819 33.3639 35.176 38.4789C35.3912 39.0326 35.4253 39.6404 35.2733 40.2147C35.1212 40.789 34.7909 41.3002 34.3298 41.6748Z" fill="#334350"/>
<path d="M46.5033 41.6748C49.1887 43.8377 50.7537 47.1288 51.4743 51.2713C51.576 51.8379 51.8475 52.3603 52.2529 52.769C52.6582 53.1778 53.1784 53.4537 53.7441 53.5601C59.5664 54.6824 63.9943 48.3558 61.0778 41.3438C57.2394 32.2699 47.6508 33.3639 45.6572 38.4789C45.4421 39.0327 45.4081 39.6404 45.5602 40.2146C45.7122 40.7889 46.0424 41.3001 46.5033 41.6748Z" fill="#334350"/>
<path d="M30.0476 49.2575C30.3995 46.5529 29.1749 44.1639 27.3123 43.9216C25.4497 43.6792 23.6545 45.6752 23.3026 48.3798C22.9506 51.0845 24.1753 53.4735 26.0378 53.7158C27.9004 53.9582 29.6956 51.9622 30.0476 49.2575Z" fill="white"/>
<path d="M26.3433 53.8219C26.2376 53.822 26.1321 53.8151 26.0272 53.8014C24.121 53.5536 22.8602 51.1165 23.2177 48.3693C23.3557 47.1218 23.8642 45.9442 24.6775 44.9883C24.973 44.5747 25.3753 44.249 25.8414 44.0461C26.3075 43.8432 26.8198 43.7707 27.3239 43.8364C27.828 43.902 28.3048 44.1033 28.7034 44.4188C29.102 44.7342 29.4075 45.1521 29.5871 45.6276C30.1289 46.7596 30.3192 48.0278 30.1334 49.2688C29.7945 51.864 28.1324 53.8219 26.3433 53.8219ZM27.0031 43.9878C26.5785 44.0076 26.163 44.1173 25.784 44.3096C25.405 44.502 25.0711 44.7726 24.8045 45.1036C24.0143 46.0334 23.5207 47.1786 23.3874 48.3916C23.042 51.0449 24.2354 53.3951 26.0486 53.6317C26.1467 53.6445 26.2454 53.6508 26.3443 53.6508C28.0492 53.6508 29.636 51.7562 29.9619 49.247C30.1433 48.0405 29.9593 46.8072 29.4337 45.7062C29.2459 45.269 28.9529 44.8852 28.5808 44.5887C28.2088 44.2922 27.7691 44.0923 27.3011 44.0068C27.2023 43.994 27.1027 43.9876 27.0031 43.9878Z" fill="#000072"/>
<path d="M30.0476 49.2575C30.3995 46.5529 29.1749 44.1639 27.3123 43.9216C25.4497 43.6792 23.6545 45.6752 23.3026 48.3798C22.9506 51.0845 24.1753 53.4735 26.0378 53.7158C27.9004 53.9582 29.6956 51.9622 30.0476 49.2575Z" fill="white"/>
<path d="M26.3433 53.8219C26.2376 53.822 26.1321 53.8151 26.0272 53.8014C24.121 53.5536 22.8602 51.1165 23.2177 48.3693C23.3557 47.1218 23.8642 45.9442 24.6775 44.9883C24.973 44.5747 25.3753 44.249 25.8414 44.0461C26.3075 43.8432 26.8198 43.7707 27.3239 43.8364C27.828 43.902 28.3048 44.1033 28.7034 44.4188C29.102 44.7342 29.4075 45.1521 29.5871 45.6276C30.1289 46.7596 30.3192 48.0278 30.1334 49.2688C29.7945 51.864 28.1324 53.8219 26.3433 53.8219ZM27.0031 43.9878C26.5785 44.0076 26.163 44.1173 25.784 44.3096C25.405 44.502 25.0711 44.7726 24.8045 45.1036C24.0143 46.0334 23.5207 47.1786 23.3874 48.3916C23.042 51.0449 24.2354 53.3951 26.0486 53.6317C26.1467 53.6445 26.2454 53.6508 26.3443 53.6508C28.0492 53.6508 29.636 51.7562 29.9619 49.247C30.1433 48.0405 29.9593 46.8072 29.4337 45.7062C29.2459 45.269 28.9529 44.8852 28.5808 44.5887C28.2088 44.2922 27.7691 44.0923 27.3011 44.0068C27.2023 43.994 27.1027 43.9876 27.0031 43.9878Z" fill="#334350"/>
<path d="M30.0382 49.3345C30.3247 47.1327 29.3278 45.1879 27.8115 44.9906C26.2952 44.7933 24.8338 46.4182 24.5473 48.62C24.2608 50.8217 25.2577 52.7665 26.774 52.9638C28.2903 53.1611 29.7517 51.5362 30.0382 49.3345Z" fill="#334350"/>
<path d="M26.9653 47.8525C27.1895 47.2019 26.8438 46.4927 26.1932 46.2685C25.5426 46.0444 24.8335 46.39 24.6093 47.0406C24.3851 47.6912 24.7308 48.4004 25.3814 48.6246C26.0319 48.8488 26.7411 48.5031 26.9653 47.8525Z" fill="white"/>
<path d="M54.8682 53.7193C56.7315 53.477 57.9567 51.0873 57.6049 48.3817C57.2531 45.6761 55.4574 43.6792 53.5941 43.9215C51.7309 44.1638 50.5056 46.5535 50.8575 49.2591C51.2093 51.9647 53.005 53.9616 54.8682 53.7193Z" fill="white"/>
<path d="M54.5614 53.8218C52.7715 53.8218 51.1094 51.864 50.7714 49.2693C50.5856 48.0281 50.7757 46.7597 51.3173 45.6276C51.497 45.152 51.8025 44.7343 52.2012 44.4188C52.5998 44.1034 53.0766 43.902 53.5807 43.8364C54.0848 43.7708 54.5972 43.8433 55.0633 44.0462C55.5295 44.249 55.9317 44.5746 56.2272 44.9883C57.0408 45.9439 57.5495 47.1213 57.6876 48.3687C58.0447 51.1155 56.7848 53.5527 54.8781 53.8009C54.7731 53.8145 54.6673 53.8214 54.5614 53.8218ZM53.9013 43.9873C53.8018 43.9874 53.7024 43.9939 53.6038 44.0068C53.1356 44.092 52.6958 44.2916 52.3236 44.5881C51.9514 44.8845 51.6583 45.2685 51.4706 45.7057C50.945 46.807 50.7609 48.0403 50.942 49.247C51.287 51.8999 53.0411 53.8674 54.8562 53.6307C56.6713 53.3941 57.8634 51.0444 57.5175 48.3906C57.384 47.1777 56.8904 46.0326 56.1003 45.1027C55.8338 44.7719 55.5002 44.5015 55.1215 44.3092C54.7427 44.117 54.3274 44.0072 53.9031 43.9873H53.9013Z" fill="#000072"/>
<path d="M54.8682 53.7193C56.7315 53.477 57.9567 51.0873 57.6049 48.3817C57.2531 45.6761 55.4574 43.6792 53.5941 43.9215C51.7309 44.1638 50.5056 46.5535 50.8575 49.2591C51.2093 51.9647 53.005 53.9616 54.8682 53.7193Z" fill="white"/>
<path d="M54.5614 53.8218C52.7715 53.8218 51.1094 51.864 50.7714 49.2693C50.5856 48.0281 50.7757 46.7597 51.3173 45.6276C51.497 45.152 51.8025 44.7343 52.2012 44.4188C52.5998 44.1034 53.0766 43.902 53.5807 43.8364C54.0848 43.7708 54.5972 43.8433 55.0633 44.0462C55.5295 44.249 55.9317 44.5746 56.2272 44.9883C57.0408 45.9439 57.5495 47.1213 57.6876 48.3687C58.0447 51.1155 56.7848 53.5527 54.8781 53.8009C54.7731 53.8145 54.6673 53.8214 54.5614 53.8218ZM53.9013 43.9873C53.8018 43.9874 53.7024 43.9939 53.6038 44.0068C53.1356 44.092 52.6958 44.2916 52.3236 44.5881C51.9514 44.8845 51.6583 45.2685 51.4706 45.7057C50.945 46.807 50.7609 48.0403 50.942 49.247C51.287 51.8999 53.0411 53.8674 54.8562 53.6307C56.6713 53.3941 57.8634 51.0444 57.5175 48.3906C57.384 47.1777 56.8904 46.0326 56.1003 45.1027C55.8338 44.7719 55.5002 44.5015 55.1215 44.3092C54.7427 44.117 54.3274 44.0072 53.9031 43.9873H53.9013Z" fill="#334350"/>
<path d="M54.1329 52.9671C55.6497 52.7699 56.6472 50.8245 56.3608 48.622C56.0743 46.4194 54.6125 44.7938 53.0957 44.9911C51.5788 45.1883 50.5814 47.1337 50.8678 49.3363C51.1542 51.5388 52.6161 53.1644 54.1329 52.9671Z" fill="#334350"/>
<path d="M55.3269 48.6747C56.0053 48.5594 56.4617 47.916 56.3464 47.2376C56.2311 46.5591 55.5877 46.1027 54.9093 46.218C54.2308 46.3333 53.7744 46.9768 53.8897 47.6552C54.005 48.3336 54.6484 48.7901 55.3269 48.6747Z" fill="white"/>
<path opacity="0.1" d="M70.0695 47.9796C69.7789 44.6861 67.3613 32.2127 53.8069 27.5937C49.1112 25.6791 38.1189 25.0087 32.0354 26.1478C29.8195 26.5166 27.6317 27.0376 25.4874 27.7071C24.838 27.9332 24.2017 28.195 23.5812 28.4914C23.2809 28.6263 22.7249 28.9331 21.8838 29.4087C22.6556 29.0893 25.3572 28.1069 26.3638 27.8508C28.1895 27.3552 30.0411 26.961 31.9103 26.6699C39.0436 26.0855 46.2369 26.3988 53.161 28.537C64.0031 31.8844 67.0777 44.0389 67.2808 46.3412C67.8504 52.7948 62.7427 60.9496 53.3471 63.417C43.9514 65.8843 24.5906 65.8843 15.195 63.417C14.6126 63.2643 14.0417 63.0711 13.4864 62.8386C15.1649 65.5228 17.8077 67.4623 20.8717 68.2587C30.2673 70.726 49.6281 70.726 59.0238 68.2587C68.4194 65.7913 70.6385 54.4332 70.0695 47.9796Z" fill="#B1B1D4"/>
<path d="M25.3293 7.66515L22.2584 31.2468C25.4724 31.398 28.6907 31.0582 31.8023 30.2392C34.8751 29.2849 37.7844 27.8676 40.4299 26.0362L25.3293 7.66515Z" fill="#00A4B7"/>
<path d="M27.7248 16.1693C28.6071 15.3656 29.4316 14.5007 30.1921 13.5808L27.8956 10.7874C26.9844 11.9723 25.845 12.9626 24.5447 13.6999L23.8337 19.148C25.2066 18.2583 26.5075 17.2623 27.7248 16.1693Z" fill="#3E519C"/>
<path d="M28.7389 29.715C30.3173 28.6026 31.7845 27.3405 33.1201 25.9461C34.4523 24.5372 35.5848 22.9522 36.4861 21.2354L32.9754 16.9673C32.6792 17.6746 32.3038 18.346 31.8566 18.9688C30.9738 20.1304 29.9725 21.1969 28.8688 22.151C27.7726 23.1878 26.5979 24.1383 25.3553 24.994C24.5975 25.528 23.7731 25.9608 22.9032 26.2814L22.2583 31.2463C23.6588 31.3273 25.0635 31.2974 26.4594 31.157C27.2461 30.7202 28.0072 30.2387 28.7389 29.715Z" fill="#3E519C"/>
<path d="M36.2674 28.4597C37.7227 27.7743 39.1155 26.9634 40.4299 26.0362L39.2438 24.5935C38.4172 26.0016 37.4173 27.3004 36.2674 28.4597" fill="#3E519C"/>
<path d="M26.5284 17.1938C25.6642 17.8909 24.7615 18.5377 23.8337 19.148L22.9049 26.2804C23.7748 25.9599 24.5991 25.5271 25.3569 24.993C26.2868 24.3625 27.1738 23.6707 28.0119 22.9225C27.8653 22.6289 27.7373 22.3263 27.6289 22.0166C27.2647 20.894 26.9818 19.7467 26.7823 18.5836C26.6924 18.1215 26.608 17.6586 26.5292 17.195L26.5284 17.1938ZM25.3084 7.82495L24.3815 14.9423L24.5432 13.6998C25.0228 13.4401 25.4783 13.1384 25.9045 12.7982C25.7021 11.1412 25.5197 9.48134 25.3084 7.82495Z" fill="#177598"/>
<path d="M25.9051 12.7986C25.4793 13.1386 25.0242 13.4402 24.5451 13.6997L24.3816 14.9427L23.8342 19.1479C24.7619 18.5375 25.6652 17.8911 26.5284 17.1938C26.3998 16.4407 26.2837 15.6856 26.1802 14.9285C26.0819 14.2193 25.9902 13.5093 25.9051 12.7986Z" fill="#3E3C8A"/>
<path d="M31.9658 30.187L31.9475 30.1922L31.9658 30.187ZM32.0297 30.1686L32.0056 30.1756L32.0297 30.1686ZM34.695 29.1713C33.8752 29.5171 32.9876 29.8543 32.0343 30.1644C32.9873 29.8549 33.8774 29.5164 34.695 29.1713ZM34.7187 29.1611L34.6998 29.1694L34.7187 29.1611ZM34.7441 29.1504L34.7276 29.1551L34.7441 29.1504ZM34.771 29.1393L34.7571 29.1433L34.771 29.1393ZM34.796 29.1288L34.7817 29.1329L34.796 29.1288ZM34.8197 29.1186L34.8139 29.1202L34.8197 29.1186Z" fill="#D4A8CF"/>
<path d="M32.4659 26.6111C31.3075 27.7423 30.0614 28.7801 28.7394 29.7149C28.0076 30.2386 27.2465 30.72 26.4598 31.1569C25.0668 31.2961 23.6651 31.3264 22.2674 31.2476C25.4786 31.3961 28.6937 31.0562 31.8029 30.2395L31.8337 30.2307L31.8359 30.23L31.8641 30.2219L31.869 30.2205L31.894 30.2134L31.9361 30.2013L31.9508 30.1971L32.0093 30.1803L32.033 30.1735L32.0375 30.1722C32.9909 29.8621 33.8806 29.5242 34.6981 29.1786C34.6998 29.1784 34.7014 29.1779 34.703 29.1772L34.724 29.1712L34.7325 29.1687L34.749 29.164L34.7629 29.16L34.7767 29.1561L34.7884 29.1527C34.7932 29.1518 34.798 29.1504 34.8027 29.1486L34.8214 29.1432L34.8272 29.1416L34.8484 29.1326L34.8519 29.1316L34.8756 29.1214C35.9221 28.6726 36.9453 28.1714 37.9414 27.6198C37.4494 27.8925 36.8914 28.185 36.2742 28.4848C36.6026 28.1424 36.9215 27.793 37.2311 27.4366C36.1917 27.3672 35.157 27.2395 34.132 27.0542C33.5681 26.9406 33.0117 26.7926 32.4659 26.6111" fill="#177598"/>
<path d="M37.9521 27.5863L37.9392 27.5934L37.9521 27.5863ZM37.9676 27.578L37.9632 27.5793L37.9676 27.578Z" fill="#177598"/>
<path d="M28.0119 22.9224C27.174 23.6708 26.2872 24.3626 25.3575 24.9933C24.5997 25.5274 23.7753 25.9601 22.9053 26.2803L22.2584 31.2467L22.2638 31.2452C23.6614 31.3244 25.0631 31.2944 26.456 31.1555C27.2428 30.7187 28.0039 30.2373 28.7356 29.7135C30.0577 28.7786 31.3039 27.7408 32.4625 26.6096C31.6476 26.3592 30.877 25.9826 30.1788 25.4933C29.2586 24.8248 28.5149 23.9425 28.0119 22.9224" fill="#3E3C8A"/>
<path d="M37.2241 27.4105C36.9159 27.7682 36.5969 28.1176 36.2672 28.4588C36.8844 28.1604 37.4423 27.8679 37.934 27.5939L37.9385 27.5926L37.9515 27.586L37.9633 27.5797L37.9678 27.5784L38.1453 27.4791L37.8557 27.4577C37.6456 27.4422 37.435 27.4265 37.2241 27.4105Z" fill="#3E3C8A"/>
<path d="M23.6736 2.90817C23.7357 2.56485 23.9789 2.49514 24.2135 2.75337L25.1123 3.74397C25.2505 3.87959 25.4162 3.98401 25.5982 4.05021C25.7802 4.11641 25.9743 4.14284 26.1674 4.12773L27.4909 3.94798C27.8368 3.90103 27.9781 4.11055 27.8047 4.41323L27.1426 5.57379C27.0562 5.74741 27.008 5.93754 27.0014 6.13135C26.9947 6.32516 27.0297 6.51815 27.1039 6.6973L27.6841 7.90067C27.8352 8.21524 27.6799 8.41406 27.3384 8.34318L26.0297 8.07033C25.8382 8.04174 25.6427 8.05457 25.4565 8.10796C25.2703 8.16135 25.0978 8.25405 24.9504 8.37982L23.9853 9.30323C23.7333 9.54429 23.4975 9.4576 23.4577 9.11112L23.3119 7.78318C23.28 7.5919 23.2074 7.40969 23.0991 7.24886C22.9907 7.08802 22.8491 6.95231 22.6838 6.85088L21.5075 6.21989C21.1999 6.05466 21.2087 5.80207 21.5271 5.65904L22.7445 5.10924C22.9162 5.01967 23.0668 4.89434 23.1861 4.74167C23.3053 4.58901 23.3905 4.41256 23.4358 4.22422L23.6736 2.90817Z" fill="#FFC639"/>
<path d="M24.8401 6.33365C24.435 5.81121 24.14 5.21208 23.9729 4.57245C23.8058 3.93282 23.77 3.26595 23.8678 2.61211C23.7756 2.64484 23.7039 2.74568 23.674 2.90951L23.436 4.22511C23.3908 4.41351 23.3056 4.59003 23.1864 4.74277C23.0672 4.89551 22.9166 5.02093 22.7448 5.11058L21.5269 5.65859C21.2087 5.80207 21.1999 6.05466 21.5074 6.21945L22.6837 6.85235C22.849 6.9538 22.9906 7.08952 23.099 7.25035C23.2073 7.41118 23.2799 7.59338 23.3119 7.78465L23.4576 9.11259C23.4957 9.45958 23.7332 9.54576 23.9852 9.3047L24.9504 8.38129C25.0977 8.25557 25.2703 8.1629 25.4565 8.10952C25.6426 8.05613 25.8381 8.04327 26.0297 8.0718L27.3371 8.34018C27.6215 8.39937 27.7762 8.27086 27.7328 8.04534C26.5954 7.83761 25.5696 7.23061 24.8401 6.33365Z" fill="#F49136"/>
<path d="M44.6344 51.5893C44.6176 53.4457 42.7505 55.9456 40.4756 55.9256C38.2008 55.9056 36.3792 53.3713 36.3964 51.5153C36.4136 49.6593 38.2612 49.1786 40.5342 49.1991C42.8072 49.2196 44.6511 49.7324 44.6344 51.5893Z" fill="#334350"/>
<path d="M32.9462 54.4364C33.185 54.8876 33.452 55.3233 33.7454 55.741C34.0082 56.1092 34.3212 56.439 34.6752 56.7206C35.0169 56.9986 35.4088 57.2082 35.8296 57.338C36.2641 57.4573 36.7197 57.4789 37.1635 57.4013C37.6064 57.3343 38.0298 57.1733 38.4052 56.9291C38.7807 56.6849 39.0995 56.3632 39.3403 55.9856C39.8126 55.1824 39.9693 54.2324 39.7801 53.3201C39.7561 53.1473 39.8006 52.9721 39.9039 52.8315C40.0073 52.691 40.1614 52.5964 40.3335 52.5678C40.5056 52.5392 40.682 52.5789 40.8253 52.6784C40.9685 52.778 41.0673 52.9295 41.1005 53.1007V53.104V53.1091C41.2034 53.7118 41.211 54.3269 41.1233 54.932C41.0329 55.5602 40.8111 56.1622 40.4724 56.6988C40.1304 57.2401 39.6751 57.7008 39.138 58.0493C38.6047 58.3941 38.0051 58.6235 37.3778 58.7225C36.7509 58.823 36.1104 58.7995 35.4926 58.6533C34.8625 58.5142 34.2735 58.2302 33.7723 57.8239C33.5271 57.6164 33.3103 57.3776 33.1275 57.1135C32.9458 56.8572 32.7997 56.5773 32.6933 56.2817C32.5869 55.9963 32.5174 55.6986 32.4864 55.3956C32.4527 55.1002 32.4601 54.8015 32.5082 54.508C32.5145 54.4594 32.536 54.414 32.5696 54.3783C32.6033 54.3426 32.6473 54.3185 32.6955 54.3094C32.7437 54.3003 32.7935 54.3066 32.8379 54.3275C32.8823 54.3484 32.9189 54.3828 32.9425 54.4257L32.9462 54.4364Z" fill="#334350"/>
<path d="M46.4731 58.0972C46.4731 58.0972 46.3699 61.6971 44.9966 62.8962C42.7054 59.545 38.3216 59.545 36.0305 62.8962L34.8338 59.9671V58.0982L35.0272 57.7002C36.7572 58.6189 38.9604 57.9229 39.9665 55.9256C40.3361 55.9284 40.7057 55.9284 41.0656 55.9284C42.0884 57.9578 44.3498 58.6421 46.0905 57.6486C46.3174 57.9131 46.4731 58.0972 46.4731 58.0972Z" fill="#334350"/>
<path d="M44.7664 62.5136C44.2302 63.1099 43.5744 63.5867 42.8419 63.9131C42.1094 64.2395 41.3164 64.4082 40.5145 64.4082C39.7125 64.4082 38.9195 64.2395 38.1869 63.9131C37.4544 63.5867 36.7988 63.1099 36.2625 62.5136C36.6289 61.6921 37.2255 60.9943 37.9801 60.5046C38.7347 60.0149 39.6149 59.7544 40.5145 59.7544C41.414 59.7544 42.2943 60.0149 43.0488 60.5046C43.8034 60.9943 44.4 61.6921 44.7664 62.5136Z" fill="#F09FAD"/>
<path d="M48.5248 54.5086C48.6153 55.1061 48.5513 55.7169 48.3389 56.2827C48.1183 56.8809 47.7461 57.4115 47.2589 57.8226C46.7596 58.2321 46.1699 58.5167 45.5387 58.6529C44.9206 58.7974 44.2805 58.8211 43.6534 58.7226C42.7053 58.5752 41.8296 58.1272 41.1553 57.4446C40.4809 56.762 40.0435 55.881 39.9075 54.9312C39.8203 54.3263 39.8281 53.7116 39.9307 53.1092V53.1045C39.959 52.9293 40.0557 52.7725 40.1995 52.6685C40.3434 52.5646 40.5227 52.5221 40.6979 52.5503C40.8731 52.5785 41.0299 52.6752 41.1339 52.8191C41.2378 52.963 41.2803 53.1422 41.2521 53.3174V53.3202C41.0633 54.2322 41.2202 55.1819 41.6924 55.9847C42.0609 56.5505 42.5983 56.9856 43.2283 57.2284C43.8583 57.4712 44.5487 57.5093 45.2016 57.3372C45.6237 57.2098 46.0161 56.9996 46.356 56.7188C47.0848 56.0867 47.6736 55.3093 48.0846 54.4365V54.4328C48.1082 54.3899 48.1445 54.3553 48.1886 54.3341C48.2328 54.3128 48.2824 54.3059 48.3306 54.3141C48.3789 54.3224 48.4234 54.3455 48.4579 54.3803C48.4924 54.4151 48.5152 54.4598 48.523 54.5081L48.5248 54.5086Z" fill="#334350"/>
<path d="M40.5142 65.0757C39.6182 65.0763 38.7321 64.8882 37.9137 64.5235C37.0953 64.1589 36.3628 63.626 35.7641 62.9594C34.4801 61.4421 33.81 59.4995 33.8854 57.5133C33.8854 57.3358 33.9558 57.1656 34.0813 57.0401C34.2068 56.9146 34.3771 56.8441 34.5546 56.8441C34.7321 56.8441 34.9023 56.9146 35.0278 57.0401C35.1533 57.1656 35.2238 57.3358 35.2238 57.5133C35.151 59.1687 35.6981 60.7918 36.7581 62.0654C37.2317 62.5917 37.8106 63.0125 38.4573 63.3006C39.104 63.5887 39.8041 63.7376 40.5121 63.7376C41.2201 63.7376 41.9202 63.5887 42.5669 63.3006C43.2136 63.0125 43.7926 62.5917 44.2662 62.0654C45.3273 60.7919 45.8754 59.1685 45.8032 57.5124C45.8032 57.335 45.8737 57.1648 45.9991 57.0393C46.1246 56.9138 46.2948 56.8434 46.4722 56.8434C46.6497 56.8434 46.8198 56.9138 46.9453 57.0393C47.0707 57.1648 47.1412 57.335 47.1412 57.5124C47.2164 59.4992 46.5457 61.4423 45.2611 62.9599C44.6626 63.6259 43.9307 64.1585 43.1129 64.5231C42.295 64.8876 41.4096 65.0759 40.5142 65.0757Z" fill="#334350"/>
<path d="M0.834639 58.5552C0.966563 58.4795 1.1121 58.4306 1.26293 58.4113C1.41375 58.3919 1.56692 58.4024 1.71368 58.4423C1.86044 58.4821 1.99791 58.5504 2.11825 58.6434C2.23858 58.7364 2.33942 58.8522 2.415 58.9841L15.5528 81.8985C15.5682 81.9253 15.582 81.953 15.5942 81.9814L15.5949 81.986C15.6358 82.0759 15.6635 82.1712 15.6774 82.269L15.8557 83.5432L15.9858 84.4631C15.9948 84.519 15.9865 84.5762 15.9621 84.6273C15.9377 84.6783 15.8984 84.7208 15.8494 84.749C15.8003 84.7772 15.7439 84.7898 15.6875 84.7851C15.6311 84.7805 15.5775 84.7588 15.5337 84.723L14.7802 84.1264L13.7965 83.3483C13.719 83.2867 13.6507 83.2145 13.5935 83.1338L13.5928 83.1292C13.5743 83.1042 13.5575 83.0781 13.5423 83.051L0.405769 60.136C0.330119 60.004 0.281204 59.8585 0.261815 59.7076C0.242427 59.5568 0.252946 59.4036 0.292771 59.2568C0.332596 59.11 0.400948 58.9725 0.493922 58.8521C0.586897 58.7317 0.702673 58.6308 0.834639 58.5552Z" fill="#F58830"/>
<g opacity="0.55">
<path opacity="0.55" d="M0.748029 58.558C0.83192 58.5099 0.921505 58.4725 1.01469 58.4466C0.831178 58.6261 0.712423 58.8615 0.677048 59.1157C0.641673 59.37 0.691678 59.6288 0.819224 59.8516L13.957 82.766C13.9722 82.7929 13.989 82.8188 14.0075 82.8436L14.0083 82.8487C14.0653 82.9294 14.1336 83.0015 14.2111 83.0627L15.1912 83.8386L15.8877 84.3873L15.8994 84.4612C15.9082 84.517 15.8999 84.5741 15.8755 84.6251C15.8512 84.676 15.8119 84.7184 15.763 84.7466C15.714 84.7747 15.6577 84.7873 15.6014 84.7828C15.5451 84.7782 15.4915 84.7567 15.4477 84.721L14.6941 84.124L13.7141 83.3481C13.6366 83.2868 13.5683 83.2147 13.5112 83.1341L13.5104 83.129C13.492 83.1042 13.4751 83.0783 13.46 83.0513L0.319086 60.1384C0.243449 60.0065 0.194545 59.8609 0.175168 59.7101C0.155791 59.5593 0.16632 59.4061 0.206153 59.2594C0.245987 59.1126 0.314344 58.9751 0.407321 58.8548C0.500298 58.7345 0.616072 58.6336 0.748029 58.558Z" fill="white"/>
</g>
<path d="M0.834639 58.5552C0.966563 58.4795 1.1121 58.4306 1.26293 58.4113C1.41375 58.3919 1.56692 58.4024 1.71368 58.4423C1.86044 58.4821 1.99791 58.5504 2.11825 58.6434C2.23858 58.7364 2.33942 58.8522 2.415 58.9841L3.28979 60.51C2.6069 59.319 0.478817 60.3 1.16171 61.491L0.405769 60.136C0.330119 60.004 0.281204 59.8585 0.261815 59.7076C0.242427 59.5568 0.252946 59.4036 0.292771 59.2568C0.332596 59.11 0.400948 58.9725 0.493922 58.8521C0.586897 58.7317 0.702673 58.6308 0.834639 58.5552Z" fill="#ED4327"/>
<path d="M15.5929 81.9821L15.5937 81.9871C15.6346 82.0772 15.6623 82.1726 15.6762 82.2706L15.8567 83.544L15.985 84.4609C15.9938 84.5167 15.9855 84.5738 15.9611 84.6248C15.9368 84.6757 15.8975 84.7181 15.8486 84.7462C15.7996 84.7744 15.7433 84.787 15.687 84.7825C15.6307 84.7779 15.5771 84.7564 15.5333 84.7207L14.7797 84.1236L13.7983 83.348C13.7207 83.2866 13.6524 83.2143 13.5953 83.1335L13.5946 83.1289C13.0792 82.0055 14.883 80.9714 15.5929 81.9821Z" fill="#FFE5A4"/>
<g opacity="0.3">
<path opacity="0.3" d="M0.834202 58.5553C1.10066 58.4026 1.41684 58.3621 1.71319 58.4425C2.00955 58.523 2.26183 58.7178 2.41456 58.9842L15.5524 81.8986C15.5677 81.9254 15.5815 81.953 15.5937 81.9814L15.5945 81.986C15.6353 82.076 15.663 82.1713 15.6769 82.269L15.8565 83.5422L15.9854 84.4632C15.9943 84.519 15.986 84.5763 15.9617 84.6274C15.9373 84.6784 15.898 84.7209 15.8489 84.7491C15.7999 84.7773 15.7434 84.7899 15.687 84.7852C15.6307 84.7806 15.577 84.7589 15.5332 84.7231L15.1662 84.4324L15.1024 83.9793L14.9237 82.7056C14.91 82.6077 14.8823 82.5122 14.8416 82.4221L14.8409 82.4175C14.8287 82.389 14.8147 82.3614 14.7991 82.3347L1.66129 59.4203C1.54707 59.2195 1.37538 59.0575 1.16832 58.955C0.961254 58.8526 0.728281 58.8145 0.499365 58.8455C0.590819 58.7277 0.7046 58.6291 0.834202 58.5553Z" fill="#000072"/>
</g>
<path d="M15.8089 83.5332L15.8576 83.5434L15.9802 84.4184C15.9884 84.477 15.9789 84.5367 15.9528 84.5898C15.9268 84.643 15.8855 84.6872 15.8342 84.7166C15.7829 84.7461 15.7239 84.7596 15.6649 84.7553C15.6059 84.751 15.5495 84.7292 15.503 84.6926L14.7787 84.1229C14.8012 84.0128 14.8468 83.9088 14.9127 83.8178C14.9785 83.7268 15.063 83.6509 15.1605 83.5951C15.2579 83.5393 15.3662 83.5049 15.478 83.4942C15.5898 83.4836 15.7026 83.4969 15.8089 83.5332Z" fill="#334350"/>
<path d="M67.7206 102.15H41.3878C41.3945 101.595 41.3055 101.044 41.1247 100.52C40.9382 99.9002 40.5571 99.3574 40.0379 98.9715C39.5187 98.5856 38.889 98.3773 38.2421 98.3773C37.5953 98.3773 36.9656 98.5856 36.4464 98.9715C35.9272 99.3574 35.5462 99.9002 35.3596 100.52C35.1791 101.044 35.0902 101.595 35.0969 102.15H8.59632C8.42408 102.15 8.25439 102.108 8.10189 102.028C7.94939 101.948 7.81866 101.832 7.72093 101.69C7.6232 101.548 7.56141 101.385 7.54091 101.214C7.52041 101.043 7.54179 100.869 7.60322 100.708L7.67624 100.518L8.86411 97.4066C12.779 97.9788 16.7693 97.75 20.5932 96.7343C21.444 96.5097 22.2772 96.2229 23.1038 95.9156C30.7941 93.0507 36.3541 94.1725 38.2445 98.374C40.1349 94.1725 45.6963 93.0507 53.3871 95.9156C54.2118 96.2224 55.0449 96.5102 55.8976 96.7343C59.7209 97.7499 63.7106 97.9787 67.6248 97.4066L68.6542 100.518L68.7328 100.753C68.7862 100.913 68.8008 101.083 68.7752 101.25C68.7496 101.416 68.6846 101.575 68.5857 101.711C68.4867 101.848 68.3566 101.959 68.2062 102.035C68.0557 102.111 67.8893 102.151 67.7206 102.15Z" fill="white"/>
<g opacity="0.3">
<path opacity="0.3" d="M37.5899 98.4527C37.0716 98.5769 36.5941 98.8325 36.2033 99.1948C35.8124 99.557 35.5214 100.014 35.3583 100.521C35.1773 101.045 35.0883 101.597 35.0951 102.151H8.59446C8.41627 102.152 8.24083 102.107 8.0845 102.022C7.92818 101.936 7.79604 101.812 7.70039 101.662V100.439L8.35734 98.6099C12.4396 99.1851 16.5948 98.9597 20.5909 97.9464C21.4412 97.7228 22.2748 97.435 23.1015 97.1281C30.0465 94.5394 35.2541 95.2042 37.5899 98.4527Z" fill="#000072"/>
</g>
<g opacity="0.3">
<path opacity="0.3" d="M68.6803 100.634C68.4976 100.93 68.1106 102.15 67.7201 102.15H41.3869C41.394 101.597 41.3054 101.046 41.1251 100.523C40.962 100.015 40.671 99.5585 40.2802 99.1959C39.8894 98.8333 39.4118 98.5773 38.8935 98.4527C41.2321 95.2066 46.4397 94.5432 53.3838 97.1286C54.2081 97.4364 55.0413 97.7232 55.8944 97.9473C59.7723 98.9739 64.0217 98.952 67.9619 98.3899L68.6803 100.634Z" fill="#000072"/>
</g>
<path d="M7.67576 100.521H35.3601C35.1795 101.045 35.0906 101.597 35.0974 102.152H8.59678C8.42454 102.152 8.25485 102.11 8.10235 102.03C7.94985 101.95 7.81912 101.834 7.72139 101.692C7.62366 101.55 7.5619 101.387 7.5414 101.216C7.5209 101.045 7.54228 100.871 7.60371 100.71L7.67576 100.521Z" fill="#298FFF"/>
<path d="M67.7206 102.152H41.3878C41.3946 101.598 41.3058 101.046 41.1252 100.522H68.6486L68.7267 100.757C68.7798 100.917 68.7942 101.086 68.7688 101.252C68.7434 101.418 68.6789 101.576 68.5806 101.712C68.4824 101.848 68.3532 101.959 68.2037 102.036C68.0542 102.112 67.8885 102.152 67.7206 102.152Z" fill="#298FFF"/>
<path d="M67.6202 97.4093C65.963 97.6469 64.2889 97.7454 62.6153 97.7037C62.4093 97.699 62.2034 97.6921 61.9983 97.681C59.9351 97.5842 57.8881 97.2677 55.8921 96.7367C55.0417 96.5112 54.2086 96.2252 53.3815 95.9174C45.6916 93.0521 40.1312 94.1731 38.2394 98.3755C36.3509 94.1731 30.7885 93.0521 23.0987 95.9174C22.2739 96.2233 21.4412 96.5112 20.5881 96.7367C16.7641 97.7521 12.7739 97.9807 8.85896 97.4089L16.9951 84.8258C18.2068 84.6622 19.4071 84.4234 20.589 84.1107C21.4398 83.8852 22.2729 83.5993 23.0996 83.2901C30.7899 80.4243 36.3499 81.5481 38.2403 85.7487C40.1302 81.5481 45.6925 80.4239 53.3824 83.2901C54.2071 83.5984 55.0408 83.8852 55.893 84.1107C57.0914 84.4278 58.3087 84.669 59.5375 84.8328L59.7509 85.1651C59.7506 85.1661 59.7506 85.1671 59.7509 85.168L59.7606 85.1838L67.5714 97.3323L67.6202 97.4093Z" fill="white" stroke="#6565AA" stroke-width="0.15"/>
<g opacity="0.6">
<g opacity="0.6">
<path opacity="0.6" d="M13.2507 94.7342C14.0513 94.6729 14.8472 94.6073 15.6385 94.5069C16.4298 94.4065 17.216 94.2861 17.9971 94.142C18.7763 93.9867 19.5527 93.8226 20.3217 93.6189C21.0911 93.4236 21.8425 93.193 22.5901 92.9215C23.3339 92.6607 24.0983 92.3701 24.871 92.1423C25.6449 91.9084 26.4308 91.7161 27.2253 91.5663C28.0196 91.4145 28.8233 91.317 29.6308 91.2743C30.4365 91.2345 31.2441 91.271 32.0428 91.3835C31.2448 91.3904 30.4479 91.4487 29.6573 91.5579C28.8716 91.6686 28.0918 91.8187 27.3211 92.0075C26.5521 92.2013 25.7869 92.4124 25.036 92.6653C24.6594 92.7893 24.2845 92.9184 23.9113 93.0526L22.7834 93.4683C22.0198 93.7379 21.2421 93.9657 20.4537 94.1508C19.6656 94.3275 18.873 94.4832 18.0719 94.5864C16.4747 94.8071 14.8584 94.8566 13.2507 94.7342Z" fill="#000072"/>
</g>
</g>
<g opacity="0.6">
<g opacity="0.6">
<path opacity="0.6" d="M20.8847 90.721C21.4956 90.4931 22.0982 90.256 22.6937 90.0045C23.2893 89.753 23.889 89.4931 24.5069 89.2727C25.1202 89.0444 25.7469 88.8543 26.3787 88.6776C27.0105 88.5009 27.6559 88.3721 28.304 88.2591C28.9549 88.1555 29.6111 88.089 30.2696 88.0597C30.5992 88.049 30.9303 88.048 31.2604 88.0597C31.4255 88.0671 31.59 88.0691 31.756 88.0853L32.0043 88.108L32.067 88.1146L32.134 88.1233L32.2581 88.1439C32.9128 88.2545 33.5525 88.4406 34.1643 88.6985C34.4679 88.8321 34.7595 88.9915 35.036 89.1746C35.3082 89.3613 35.5502 89.5887 35.7534 89.8488C35.5107 89.6374 35.2423 89.4574 34.9547 89.3131C34.6672 89.1751 34.3697 89.0588 34.0648 88.9653C33.4553 88.7831 32.8301 88.6587 32.1972 88.5935C31.5647 88.5559 30.9303 88.561 30.2984 88.6088C29.6612 88.6509 29.0265 88.7256 28.3969 88.8329C27.1304 89.0441 25.8783 89.334 24.6478 89.7009C24.0294 89.8822 23.4181 90.0835 22.7913 90.2718C22.1653 90.4593 21.5286 90.6093 20.8847 90.721Z" fill="#000072"/>
</g>
</g>
<g opacity="0.6">
<g opacity="0.6">
<path opacity="0.6" d="M63.2425 95.0243C61.6355 95.1465 60.02 95.097 58.4235 94.8765C57.6239 94.7743 56.8302 94.6176 56.0422 94.4409C55.2539 94.256 54.4764 94.0283 53.7129 93.7588L52.5851 93.3403C52.2132 93.2041 51.8365 93.0768 51.4594 92.9541C50.7081 92.7012 49.9433 92.4891 49.1748 92.2957C48.4041 92.1066 47.6244 91.9564 46.8386 91.8457C46.0482 91.7361 45.2515 91.6777 44.4536 91.6709C45.252 91.5585 46.0592 91.522 46.8646 91.562C47.6721 91.6043 48.4758 91.7015 49.2701 91.8531C50.0644 92.0036 50.8501 92.196 51.624 92.4296C52.3972 92.6588 53.1611 92.9479 53.9054 93.2092C54.653 93.4803 55.4034 93.7104 56.1733 93.9066C56.9432 94.1028 57.7168 94.2739 58.4979 94.4292C59.2794 94.5724 60.0647 94.698 60.856 94.7942C61.6473 94.8905 62.4428 94.9634 63.2425 95.0243Z" fill="#000072"/>
</g>
</g>
<g opacity="0.6">
<g opacity="0.6">
<path opacity="0.6" d="M61.3274 92.0487C59.5345 92.0537 57.7467 91.8551 55.9985 91.4569C55.1207 91.2619 54.2555 91.0135 53.408 90.7131C52.9821 90.5657 52.5711 90.4089 52.1527 90.2718C51.9435 90.2016 51.7343 90.1323 51.5232 90.0677C51.3121 90.003 51.102 89.9384 50.889 89.8789C50.0459 89.6269 49.1898 89.4205 48.3245 89.2606C47.4618 89.096 46.5888 88.9916 45.7116 88.9482C45.2755 88.924 44.8283 88.9333 44.4043 88.9482C43.9685 88.988 43.5358 89.0573 43.1094 89.1555C42.6798 89.2485 42.2596 89.3806 41.8541 89.5502C41.4439 89.716 41.0668 89.9543 40.7411 90.2537C41.0286 89.9048 41.3826 89.6166 41.7825 89.4057C42.1811 89.19 42.6001 89.0141 43.0332 88.8807C43.467 88.7465 43.9095 88.6426 44.3577 88.5697C44.4805 88.5502 44.5856 88.546 44.7009 88.5362C44.8162 88.5265 44.9287 88.5172 45.0407 88.514L45.3792 88.4986L45.7186 88.4944C45.9441 88.4902 46.1705 88.5 46.3964 88.5051C46.6215 88.5186 46.8479 88.5283 47.0725 88.5516C47.5225 88.5874 47.9702 88.6502 48.4156 88.7176C49.3043 88.8683 50.1835 89.07 51.049 89.3219C51.9105 89.5753 52.7654 89.8799 53.5921 90.1974C54.4187 90.515 55.2527 90.7883 56.1026 91.0217C57.8182 91.4851 59.5641 91.8282 61.3274 92.0487Z" fill="#000072"/>
</g>
</g>
<path d="M61.1146 80.164C61.3721 81.7912 61.446 83.5212 60.7533 85.0136C59.9806 86.6771 58.339 87.811 56.5918 88.368C54.8446 88.925 52.9807 88.9752 51.1466 88.9775C49.8741 88.9775 48.5496 88.9482 47.4133 88.3731C47.1567 88.2718 46.9494 88.0747 46.8353 87.8236C46.7488 87.5646 46.9284 87.215 47.199 87.2317C46.616 86.8756 46.0329 86.3828 45.9316 85.7073C45.8302 85.0317 46.5262 84.266 47.146 84.5552C46.8461 84.4622 46.8716 83.9833 47.1203 83.7932C47.3946 83.6377 47.7096 83.569 48.0237 83.596C50.1033 83.5086 52.8357 82.7043 54.3202 81.2458C58.8299 76.817 56.6745 73.5174 55.1868 69.0486C58.1344 72.3742 60.4079 75.7082 61.1146 80.164Z" fill="#334350"/>
</svg>
