<svg xmlns="http://www.w3.org/2000/svg" width="37.106" height="37.598" viewBox="0 0 37.106 37.598">
  <g id="Group_31845" data-name="Group 31845" transform="translate(-102.78 -113.678)">
    <g id="Group_31116" data-name="Group 31116" transform="translate(102.78 113.677)">
      <g id="Group_22464" data-name="Group 22464" transform="translate(0 0)">
        <path id="Path_20740" data-name="Path 20740" d="M1902.867,1343.3c-.248-.176-.543-.391-.8-.234-.145.11-.078.269-.039.394a.686.686,0,0,0-.792-.383.453.453,0,0,0-.135.76.249.249,0,0,0-.288.2.649.649,0,0,0,.061.382,5.95,5.95,0,0,0,3.228,3.024,7.237,7.237,0,0,0,6.59-.082,2.674,2.674,0,0,0,1.357-1.682,2.2,2.2,0,0,0-1.077-2.152,1.4,1.4,0,0,0-2.011.293,1.815,1.815,0,0,1-1.615.716A6.934,6.934,0,0,1,1902.867,1343.3Z" transform="translate(-1899.414 -1322.777)" fill="#334350"/>
        <path id="Path_17696" data-name="Path 17696" d="M2867.024,1492.162l-7.624-1-7.624,1s-1.823,5.437-1.74,8.5,1.16,5.13,3.729,6.2a14.4,14.4,0,0,0,11.27,0c2.569-1.072,3.646-3.139,3.729-6.2S2867.024,1492.162,2867.024,1492.162Z" transform="translate(-2840.097 -1470.415)" fill="#fafafa"/>
        <path id="Path_17697" data-name="Path 17697" d="M2893.247,1502.691l-2.478-.323a27.867,27.867,0,0,1,1.318,7.138c-.083,3.063-1.16,5.13-3.729,6.2a18.037,18.037,0,0,1-5.635,1.149,18.908,18.908,0,0,1-4.793-.836,5.974,5.974,0,0,0,2.058,1.372,14.4,14.4,0,0,0,11.27,0c2.569-1.072,3.646-3.139,3.729-6.2S2893.247,1502.691,2893.247,1502.691Z" transform="translate(-2866.32 -1480.944)" fill="#b1b1d4" opacity="0.32"/>
        <g id="Group_22430" data-name="Group 22430" transform="translate(2.046 0)">
          <path id="Path_17255" data-name="Path 17255" d="M2103.381,476a11.272,11.272,0,0,0-1.3-4.8l-7.623-1-7.624,1a25,25,0,0,0-1.072,5.287,10.325,10.325,0,0,1,4.146-2.636,17.176,17.176,0,0,1,6.457-.647C2101.791,473.594,2103.332,475.958,2103.381,476Z" transform="translate(-2077.372 -450.224)" fill="#334350"/>
          <g id="Group_22348" data-name="Group 22348" transform="translate(0 0.163)">
            <path id="Path_17256" data-name="Path 17256" d="M1954.153,150s-7.066-2.955-3.009-8.273c3.577-4.688,8.275.6,8.275.6Z" transform="translate(-1949.888 -139.785)" fill="#334350"/>
            <path id="Path_17257" data-name="Path 17257" d="M1992.384,183.108s-3.943-1.649-1.679-4.616c2-2.616,4.617.334,4.617.334Z" transform="translate(-1987.597 -175.153)" fill="#f09fad"/>
            <path id="Path_17258" data-name="Path 17258" d="M1959.957,142.639c3.427-4.492,7.884.174,8.25.571l.609-.888s-4.7-5.286-8.275-.6a7.519,7.519,0,0,0-.657,1.01Z" transform="translate(-1959.285 -139.785)" fill="#334350"/>
            <path id="Path_17259" data-name="Path 17259" d="M1958.255,199.832a2.5,2.5,0,0,0,.377,1.435.644.644,0,0,0,.549.35.5.5,0,0,0,.4-.426,1.015,1.015,0,0,0-.118-.611c-.093-.188-.215-.359-.312-.546a2.267,2.267,0,0,1-.195-1.521c.023-.1.045-.232-.036-.3C1958.488,197.883,1958.259,199.653,1958.255,199.832Z" transform="translate(-1957.752 -194.673)" fill="#fff" opacity="0.22"/>
          </g>
          <g id="Group_22349" data-name="Group 22349" transform="translate(24.996)">
            <path id="Path_17260" data-name="Path 17260" d="M2366.592,140.526s4.03-6.513,8.643-1.67c4.067,4.27-1.892,8.078-1.892,8.078Z" transform="translate(-2366.592 -137.065)" fill="#334350"/>
            <path id="Path_17261" data-name="Path 17261" d="M2402.383,179s2.249-3.634,4.822-.932c2.27,2.382-1.055,4.507-1.055,4.507Z" transform="translate(-2400.236 -174.666)" fill="#f09fad"/>
            <path id="Path_17262" data-name="Path 17262" d="M2467.972,153.545c3.9,4.091-1.412,7.759-1.862,8.058l.781.741s5.959-3.808,1.892-8.078a7.525,7.525,0,0,0-.894-.808Z" transform="translate(-2460.14 -152.476)" fill="#334350"/>
            <path id="Path_17263" data-name="Path 17263" d="M2429.723,145.31a2.5,2.5,0,0,0-1.476.147c-.211.1-.422.262-.433.487a.5.5,0,0,0,.358.457,1.015,1.015,0,0,0,.622-.021c.2-.062.389-.156.588-.222a2.268,2.268,0,0,1,1.533.047c.1.039.223.081.3.011C2431.61,145.847,2429.9,145.342,2429.723,145.31Z" transform="translate(-2424.141 -144.77)" fill="#fff" opacity="0.22"/>
          </g>
          <path id="Path_17264" data-name="Path 17264" d="M2028.3,149.279a12.558,12.558,0,0,0-6.264-9.41c-3.628-2.029-12.549-2.214-16.866,0-3.579,1.835-5.746,6.163-6.024,9.314s.556,8.665,5.143,9.87,14.04,1.2,18.627,0S2028.577,152.43,2028.3,149.279Z" transform="translate(-1996.146 -138.205)" fill="#fafafa"/>
          <g id="Group_22248" data-name="Group 22248" transform="translate(7.149 4.399)">
            <g id="Group_21990" data-name="Group 21990" transform="translate(0 0)">
              <g id="Group_21989" data-name="Group 21989">
                <path id="Path_191" data-name="Path 191" d="M1410.552,1258.28a7.379,7.379,0,0,0-2.427,4.685,1.386,1.386,0,0,1-1.108,1.117c-2.842.548-5-2.541-3.58-5.964,1.874-4.431,6.555-3.9,7.529-1.4A1.371,1.371,0,0,1,1410.552,1258.28Z" transform="translate(-1402.986 -1254.811)" fill="#334350"/>
              </g>
            </g>
            <g id="Group_21992" data-name="Group 21992" transform="translate(13.003 0)">
              <g id="Group_21991" data-name="Group 21991">
                <path id="Path_192" data-name="Path 192" d="M2129.3,1258.28a7.378,7.378,0,0,1,2.427,4.685,1.387,1.387,0,0,0,1.108,1.117c2.842.548,5-2.541,3.581-5.964-1.874-4.431-6.556-3.9-7.529-1.4A1.371,1.371,0,0,0,2129.3,1258.28Z" transform="translate(-2128.795 -1254.811)" fill="#334350"/>
              </g>
            </g>
          </g>
          <g id="Group_22249" data-name="Group 22249" transform="translate(9.02 8.751)">
            <g id="Group_22038" data-name="Group 22038" transform="translate(0 0)">
              <ellipse id="Ellipse_8" data-name="Ellipse 8" cx="2.411" cy="1.661" rx="2.411" ry="1.661" transform="translate(0 4.782) rotate(-82.586)" fill="#fff"/>
              <path id="Path_236" data-name="Path 236" d="M1577.954,1517.523a1.2,1.2,0,0,1-.155-.01c-.931-.121-1.546-1.311-1.372-2.652a3.068,3.068,0,0,1,.713-1.651,1.37,1.37,0,0,1,2.4.312,3.064,3.064,0,0,1,.267,1.778C1579.639,1516.567,1578.827,1517.523,1577.954,1517.523Zm.322-4.8a1.466,1.466,0,0,0-1.073.545,2.983,2.983,0,0,0-.692,1.605c-.169,1.3.414,2.443,1.3,2.558a1.107,1.107,0,0,0,.144.009c.832,0,1.607-.925,1.767-2.15a2.985,2.985,0,0,0-.258-1.729,1.409,1.409,0,0,0-1.041-.83A1.123,1.123,0,0,0,1578.276,1512.722Z" transform="translate(-1576.158 -1512.475)" fill="#000072"/>
            </g>
            <g id="Group_22039" data-name="Group 22039" transform="translate(0 0)">
              <ellipse id="Ellipse_9" data-name="Ellipse 9" cx="2.411" cy="1.661" rx="2.411" ry="1.661" transform="translate(0 4.782) rotate(-82.586)" fill="#fff"/>
              <path id="Path_237" data-name="Path 237" d="M1577.954,1517.523a1.2,1.2,0,0,1-.155-.01c-.931-.121-1.546-1.311-1.372-2.652a3.068,3.068,0,0,1,.713-1.651,1.37,1.37,0,0,1,2.4.312,3.064,3.064,0,0,1,.267,1.778C1579.639,1516.567,1578.827,1517.523,1577.954,1517.523Zm.322-4.8a1.466,1.466,0,0,0-1.073.545,2.983,2.983,0,0,0-.692,1.605c-.169,1.3.414,2.443,1.3,2.558a1.107,1.107,0,0,0,.144.009c.832,0,1.607-.925,1.767-2.15a2.985,2.985,0,0,0-.258-1.729,1.409,1.409,0,0,0-1.041-.83A1.123,1.123,0,0,0,1578.276,1512.722Z" transform="translate(-1576.158 -1512.475)" fill="#334350"/>
            </g>
            <g id="Group_22040" data-name="Group 22040" transform="translate(0.665 0.562)">
              <ellipse id="Ellipse_10" data-name="Ellipse 10" cx="1.963" cy="1.352" rx="1.963" ry="1.352" transform="translate(0 3.893) rotate(-82.586)" fill="#334350"/>
            </g>
            <g id="Group_22042" data-name="Group 22042" transform="translate(0.751 1.162)">
              <ellipse id="Ellipse_11" data-name="Ellipse 11" cx="0.608" cy="0.608" rx="0.608" ry="0.608" transform="translate(0 1.15) rotate(-70.986)" fill="#fff"/>
            </g>
          </g>
          <g id="Group_22250" data-name="Group 22250" transform="translate(22.473 8.751)">
            <g id="Group_22044" data-name="Group 22044" transform="translate(0 0)">
              <ellipse id="Ellipse_12" data-name="Ellipse 12" cx="1.661" cy="2.411" rx="1.661" ry="2.411" transform="matrix(0.992, -0.129, 0.129, 0.992, 0, 0.429)" fill="#fff"/>
              <path id="Path_239" data-name="Path 239" d="M2260.5,1517.521c-.874,0-1.686-.956-1.85-2.223a3.067,3.067,0,0,1,.266-1.778,1.371,1.371,0,0,1,2.4-.312,3.065,3.065,0,0,1,.713,1.651c.174,1.341-.441,2.531-1.372,2.652A1.259,1.259,0,0,1,2260.5,1517.521Zm-.322-4.8a1.139,1.139,0,0,0-.146.009,1.409,1.409,0,0,0-1.042.83,2.986,2.986,0,0,0-.258,1.729c.168,1.3,1.025,2.256,1.911,2.14s1.468-1.263,1.3-2.558a2.984,2.984,0,0,0-.692-1.605A1.466,1.466,0,0,0,2260.178,1512.72Z" transform="translate(-2258.38 -1512.474)" fill="#000072"/>
            </g>
            <g id="Group_22045" data-name="Group 22045" transform="translate(0 0)">
              <ellipse id="Ellipse_13" data-name="Ellipse 13" cx="1.661" cy="2.411" rx="1.661" ry="2.411" transform="matrix(0.992, -0.129, 0.129, 0.992, 0, 0.429)" fill="#fff"/>
              <path id="Path_240" data-name="Path 240" d="M2260.5,1517.521c-.874,0-1.686-.956-1.85-2.223a3.067,3.067,0,0,1,.266-1.778,1.371,1.371,0,0,1,2.4-.312,3.065,3.065,0,0,1,.713,1.651c.174,1.341-.441,2.531-1.372,2.652A1.259,1.259,0,0,1,2260.5,1517.521Zm-.322-4.8a1.139,1.139,0,0,0-.146.009,1.409,1.409,0,0,0-1.042.83,2.986,2.986,0,0,0-.258,1.729c.168,1.3,1.025,2.256,1.911,2.14s1.468-1.263,1.3-2.558a2.984,2.984,0,0,0-.692-1.605A1.466,1.466,0,0,0,2260.178,1512.72Z" transform="translate(-2258.38 -1512.474)" fill="#334350"/>
            </g>
            <g id="Group_22046" data-name="Group 22046" transform="translate(0.063 0.562)">
              <ellipse id="Ellipse_14" data-name="Ellipse 14" cx="1.352" cy="1.963" rx="1.352" ry="1.963" transform="matrix(0.992, -0.129, 0.129, 0.992, 0, 0.349)" fill="#334350"/>
            </g>
            <g id="Group_22048" data-name="Group 22048" transform="translate(1.689 1.234)">
              <ellipse id="Ellipse_15" data-name="Ellipse 15" cx="0.608" cy="0.608" rx="0.608" ry="0.608" transform="translate(0 0.204) rotate(-9.647)" fill="#fff"/>
            </g>
          </g>
          <path id="Path_20738" data-name="Path 20738" d="M2053.529,171.883a11.764,11.764,0,0,0-7.94-9.953c-2.292-.935-7.659-1.262-10.63-.706a23.892,23.892,0,0,0-3.2.761,9.1,9.1,0,0,0-.931.383c-.147.066-.418.216-.829.448.377-.156,1.7-.635,2.187-.761a25.062,25.062,0,0,1,2.708-.577,27.377,27.377,0,0,1,10.375.912c5.293,1.634,6.794,7.569,6.894,8.693.278,3.151-2.216,7.132-6.8,8.337s-14.04,1.2-18.627,0a6.286,6.286,0,0,1-.834-.282,6.047,6.047,0,0,0,3.606,2.646c4.587,1.2,14.04,1.2,18.627,0S2053.807,175.034,2053.529,171.883Z" transform="translate(-2021.365 -160.936)" fill="#b1b1d4" opacity="0.1"/>
          <g id="Group_30719" data-name="Group 30719" transform="translate(13.803 11.541)">
            <g id="Group_22123" data-name="Group 22123" transform="translate(1.92)">
              <path id="Path_289" data-name="Path 289" d="M1918.888,1733.388a2.015,2.015,0,1,1-4.022-.036c.008-.906.911-1.141,2.021-1.131S1918.9,1732.481,1918.888,1733.388Z" transform="translate(-1914.866 -1732.22)" fill="#334350"/>
            </g>
            <g id="Group_22124" data-name="Group 22124" transform="translate(0 1.633)">
              <path id="Path_290" data-name="Path 290" d="M1812.245,1820.6a5.973,5.973,0,0,0,.39.637,2.368,2.368,0,0,0,.453.478,1.674,1.674,0,0,0,.564.3,1.493,1.493,0,0,0,.651.031,1.532,1.532,0,0,0,1.063-.691,1.833,1.833,0,0,0,.215-1.3.327.327,0,0,1,.645-.107h0v0a2.861,2.861,0,0,1,.011.89,2.2,2.2,0,0,1-.318.863,2.165,2.165,0,0,1-.651.659,2.222,2.222,0,0,1-.859.329,2.374,2.374,0,0,1-.92-.034,2.028,2.028,0,0,1-.841-.405,1.785,1.785,0,0,1-.315-.347,1.7,1.7,0,0,1-.212-.406,1.754,1.754,0,0,1-.1-.433,1.58,1.58,0,0,1,.011-.433.114.114,0,0,1,.131-.1.113.113,0,0,1,.081.055Z" transform="translate(-1812.009 -1819.671)" fill="#334350"/>
            </g>
            <g id="Group_22125" data-name="Group 22125" transform="translate(1.157 3.284)">
              <path id="Path_291" data-name="Path 291" d="M1879.692,1909.212s-.05,1.758-.721,2.343a2.565,2.565,0,0,0-4.377,0l-.584-1.431v-.912l.094-.194a1.772,1.772,0,0,0,2.412-.866h.537a1.767,1.767,0,0,0,2.453.841Z" transform="translate(-1874.009 -1908.151)" fill="#334350"/>
            </g>
            <g id="Group_22126" data-name="Group 22126" transform="translate(1.855 5.154)">
              <path id="Path_292" data-name="Path 292" d="M1915.521,2009.638a2.793,2.793,0,0,1-4.152,0,2.273,2.273,0,0,1,4.152,0Z" transform="translate(-1911.369 -2008.291)" fill="#f09fad"/>
            </g>
            <g id="Group_22127" data-name="Group 22127" transform="translate(3.605 1.633)">
              <path id="Path_293" data-name="Path 293" d="M2009.333,1820.636a1.729,1.729,0,0,1-.091.866,1.8,1.8,0,0,1-.527.752,1.985,1.985,0,0,1-.841.405,2.4,2.4,0,0,1-.92.034,2.187,2.187,0,0,1-1.829-1.851,2.863,2.863,0,0,1,.011-.89v0a.327.327,0,1,1,.645.1h0a1.832,1.832,0,0,0,.215,1.3,1.568,1.568,0,0,0,1.713.66,1.621,1.621,0,0,0,.563-.3,3.38,3.38,0,0,0,.844-1.115v0a.115.115,0,0,1,.214.037Z" transform="translate(-2005.096 -1819.676)" fill="#334350"/>
            </g>
            <g id="Group_22128" data-name="Group 22128" transform="translate(0.694 3.733)">
              <path id="Path_294" data-name="Path 294" d="M1852.442,1936.205a3.115,3.115,0,0,1-2.319-1.033,3.887,3.887,0,0,1-.917-2.659.327.327,0,0,1,.653,0,3.25,3.25,0,0,0,.75,2.222,2.466,2.466,0,0,0,3.666,0,3.251,3.251,0,0,0,.75-2.223.327.327,0,0,1,.654,0,3.888,3.888,0,0,1-.918,2.66A3.115,3.115,0,0,1,1852.442,1936.205Z" transform="translate(-1849.206 -1932.186)" fill="#334350"/>
            </g>
          </g>
        </g>
        <g id="Group_30715" data-name="Group 30715" transform="translate(0 16.136) rotate(-9)">
          <g id="Group_22009" data-name="Group 22009" transform="translate(0.042 0.002)">
            <path id="Path_208" data-name="Path 208" d="M.365.037a.565.565,0,0,1,.729.327L5.679,12.418a.4.4,0,0,1,.014.043v0a.5.5,0,0,1,.018.143l-.011.628-.008.452a.137.137,0,0,1-.238.09l-.318-.345-.413-.449a.512.512,0,0,1-.081-.119v0a.369.369,0,0,1-.018-.041L.037.766A.565.565,0,0,1,.365.037Z" transform="translate(0 0)" fill="#f58830"/>
          </g>
          <g id="Group_22011" data-name="Group 22011" transform="translate(0 0)" opacity="0.55">
            <path id="Path_210" data-name="Path 210" d="M.365.033A.566.566,0,0,1,.5,0,.566.566,0,0,0,.3.663L4.885,12.716a.355.355,0,0,0,.018.041v0a.5.5,0,0,0,.081.119l.413.449.294.318v.037a.137.137,0,0,1-.238.09l-.318-.345-.413-.449a.508.508,0,0,1-.082-.119v0a.357.357,0,0,1-.018-.041L.037.763A.565.565,0,0,1,.365.033Z" transform="translate(0)" fill="#fff"/>
          </g>
          <g id="Group_22012" data-name="Group 22012" transform="translate(0.042 0.002)">
            <path id="Path_211" data-name="Path 211" d="M.365.037a.565.565,0,0,1,.729.327l.305.8C1.161.541.06.851.3,1.478L.037.766A.565.565,0,0,1,.365.037Z" transform="translate(0 0)" fill="#ed4327"/>
          </g>
          <g id="Group_22013" data-name="Group 22013" transform="translate(4.664 12.196)">
            <path id="Path_212" data-name="Path 212" d="M1.071.266v0A.507.507,0,0,1,1.09.412l-.011.628-.008.452a.137.137,0,0,1-.238.09L.514,1.237.1.788A.506.506,0,0,1,.019.669v0A.577.577,0,0,1,1.071.266Z" transform="translate(0 0)" fill="#ffe5a4"/>
          </g>
          <g id="Group_22014" data-name="Group 22014" transform="translate(0.223 0.002)" opacity="0.3">
            <path id="Path_213" data-name="Path 213" d="M.184.037A.565.565,0,0,1,.913.365L5.5,12.418a.392.392,0,0,1,.014.043v0a.507.507,0,0,1,.018.143l-.011.628-.008.452a.137.137,0,0,1-.238.09l-.155-.168,0-.223.011-.628a.509.509,0,0,0-.018-.143v0a.363.363,0,0,0-.014-.043L.516.515A.565.565,0,0,0,0,.151.554.554,0,0,1,.184.037Z" transform="translate(0 0)" fill="#000072"/>
          </g>
          <g id="Group_22016" data-name="Group 22016" transform="translate(5.178 13.187)">
            <path id="Path_215" data-name="Path 215" d="M.542.04.564.049.556.481a.145.145,0,0,1-.251.1L0,.246A.386.386,0,0,1,.542.04Z" transform="translate(0 0)" fill="#334350"/>
          </g>
        </g>
        <g id="Group_30716" data-name="Group 30716" transform="translate(3.678 27.411)">
          <g id="Group_22479" data-name="Group 22479" transform="translate(0 6.165)">
            <path id="Path_145" data-name="Path 145" d="M1014.313,2956.058h-12.857a2.352,2.352,0,0,0-.128-.8,1.47,1.47,0,0,0-2.815,0,2.355,2.355,0,0,0-.128.8H985.447a.519.519,0,0,1-.485-.7l.036-.093.58-1.519a14.262,14.262,0,0,0,5.727-.328c.416-.109.822-.25,1.225-.4,3.755-1.4,6.47-.851,7.392,1.2.923-2.051,3.638-2.6,7.393-1.2.4.15.809.29,1.225.4a14.26,14.26,0,0,0,5.726.328l.5,1.519.038.115A.518.518,0,0,1,1014.313,2956.058Z" transform="translate(-984.927 -2952.239)" fill="#fff"/>
          </g>
          <g id="Group_22480" data-name="Group 22480" transform="translate(0.083 6.756)" opacity="0.3">
            <path id="Path_147" data-name="Path 147" d="M1005.343,2995.3a1.515,1.515,0,0,0-1.089,1.01,2.349,2.349,0,0,0-.128.8H991.188a.516.516,0,0,1-.436-.239v-.6l.321-.893a15.5,15.5,0,0,0,5.973-.324c.415-.109.822-.25,1.225-.4C1001.66,2993.394,1004.2,2993.719,1005.343,2995.3Z" transform="translate(-990.751 -2993.882)" fill="#000072"/>
          </g>
          <g id="Group_22481" data-name="Group 22481" transform="translate(15.311 6.756)" opacity="0.3">
            <path id="Path_148" data-name="Path 148" d="M2079.545,2996.387c-.089.144-.278.74-.469.74h-12.857a2.349,2.349,0,0,0-.128-.8,1.517,1.517,0,0,0-1.089-1.011c1.142-1.585,3.684-1.909,7.075-.646.4.15.809.29,1.225.4a15.067,15.067,0,0,0,5.892.216Z" transform="translate(-2065.002 -2993.9)" fill="#000072"/>
          </g>
          <g id="Group_22482" data-name="Group 22482" transform="translate(0 9.188)">
            <path id="Path_149" data-name="Path 149" d="M985,3165.48h13.516a2.355,2.355,0,0,0-.128.8H985.447a.519.519,0,0,1-.485-.7Z" transform="translate(-984.927 -3165.48)" fill="#298fff"/>
          </g>
          <g id="Group_22483" data-name="Group 22483" transform="translate(16.401 9.188)">
            <path id="Path_152" data-name="Path 152" d="M2154.836,3166.276h-12.856a2.355,2.355,0,0,0-.128-.8h13.438l.038.115A.518.518,0,0,1,2154.836,3166.276Z" transform="translate(-2141.851 -3165.48)" fill="#298fff"/>
          </g>
          <g id="Group_22485" data-name="Group 22485" transform="translate(0.65 0)">
            <path id="Path_155" data-name="Path 155" d="M1059.438,2525.023a14.664,14.664,0,0,1-2.443.144c-.1,0-.2-.006-.3-.011a14.177,14.177,0,0,1-2.981-.461c-.415-.11-.822-.25-1.225-.4-3.754-1.4-6.47-.852-7.393,1.2-.922-2.052-3.638-2.6-7.392-1.2-.4.149-.809.29-1.225.4a14.275,14.275,0,0,1-5.726.328l3.972-6.144a14.365,14.365,0,0,0,1.755-.349c.415-.11.822-.25,1.225-.4,3.755-1.4,6.47-.85,7.392,1.2.923-2.051,3.638-2.6,7.393-1.2.4.151.81.291,1.225.4a14.313,14.313,0,0,0,1.779.353l.1.163h0l0,.008,3.813,5.932Z" transform="translate(-1030.751 -2517.354)" fill="#fff" stroke="#6565aa" stroke-width="0.15"/>
          </g>
          <g id="Group_22486" data-name="Group 22486" transform="translate(2.792 4.667)" opacity="0.6">
            <g id="Group_21953" data-name="Group 21953" transform="translate(0 0)">
              <path id="Path_158" data-name="Path 158" d="M1181.863,2848.279c.391-.03.779-.062,1.166-.111s.77-.108,1.151-.178.76-.156,1.134-.255.743-.208,1.108-.34.736-.269,1.114-.38a11,11,0,0,1,1.149-.281,8.729,8.729,0,0,1,1.174-.143,6.239,6.239,0,0,1,1.178.053,9.108,9.108,0,0,0-1.165.085,11.553,11.553,0,0,0-1.141.219c-.375.095-.749.2-1.116.321q-.276.09-.549.189l-.551.2a10.824,10.824,0,0,1-1.137.333c-.385.086-.772.162-1.163.213A11.093,11.093,0,0,1,1181.863,2848.279Z" transform="translate(-1181.863 -2846.583)" fill="#000072"/>
            </g>
          </g>
          <g id="Group_22487" data-name="Group 22487" transform="translate(6.519 3.1)" opacity="0.6">
            <g id="Group_21955" data-name="Group 21955" transform="translate(0 0)">
              <path id="Path_159" data-name="Path 159" d="M1444.78,2737.362c.3-.111.592-.226.883-.35s.584-.25.884-.357.606-.2.914-.291.624-.149.94-.2a8.6,8.6,0,0,1,.96-.1q.242-.008.484,0c.081,0,.161,0,.242.013l.121.011.031,0,.033,0,.061.01a4.206,4.206,0,0,1,.93.271,2.873,2.873,0,0,1,.426.232,1.577,1.577,0,0,1,.35.329,1.858,1.858,0,0,0-.39-.261,3.076,3.076,0,0,0-.434-.17,4.92,4.92,0,0,0-.912-.182,6.882,6.882,0,0,0-.927.007,9.09,9.09,0,0,0-.928.109,15.1,15.1,0,0,0-1.83.424c-.3.088-.6.187-.906.279A8.018,8.018,0,0,1,1444.78,2737.362Z" transform="translate(-1444.78 -2736.059)" fill="#000072"/>
            </g>
          </g>
          <g id="Group_22488" data-name="Group 22488" transform="translate(18.026 4.809)" opacity="0.6">
            <g id="Group_21957" data-name="Group 21957" transform="translate(0 0)">
              <path id="Path_160" data-name="Path 160" d="M2265.668,2858.278a11.064,11.064,0,0,1-2.353-.072c-.39-.05-.778-.127-1.163-.213a10.993,10.993,0,0,1-1.137-.333l-.55-.2c-.182-.067-.365-.129-.55-.189-.367-.124-.74-.227-1.115-.322a11.474,11.474,0,0,0-1.14-.22,9.112,9.112,0,0,0-1.165-.086,6.251,6.251,0,0,1,1.177-.053,8.72,8.72,0,0,1,1.175.142,11.183,11.183,0,0,1,1.149.281c.378.112.75.253,1.114.381s.731.245,1.107.341.754.179,1.134.255.765.131,1.151.178S2265.277,2858.249,2265.668,2858.278Z" transform="translate(-2256.495 -2856.583)" fill="#000072"/>
            </g>
          </g>
          <g id="Group_22489" data-name="Group 22489" transform="translate(16.215 3.316)" opacity="0.6">
            <g id="Group_21959" data-name="Group 21959" transform="translate(0 0)">
              <path id="Path_161" data-name="Path 161" d="M2138.766,2752.988a11.54,11.54,0,0,1-2.6-.289,10.766,10.766,0,0,1-1.264-.364c-.208-.072-.408-.148-.613-.216-.1-.034-.2-.068-.307-.1s-.205-.063-.31-.092a11.959,11.959,0,0,0-1.252-.3,9.27,9.27,0,0,0-1.276-.153c-.213-.012-.43-.007-.638,0a4.739,4.739,0,0,0-.632.1,3.536,3.536,0,0,0-.612.193,1.8,1.8,0,0,0-.543.344,1.663,1.663,0,0,1,.509-.414,3.359,3.359,0,0,1,.611-.256,4.788,4.788,0,0,1,.647-.152c.06-.01.111-.011.167-.016s.111-.009.166-.011l.166-.007.166,0c.11,0,.221,0,.331.005s.22.011.331.023c.22.017.438.048.656.081a11.424,11.424,0,0,1,1.286.294c.421.124.838.272,1.241.427s.811.289,1.227.4A18.653,18.653,0,0,0,2138.766,2752.988Z" transform="translate(-2128.717 -2751.252)" fill="#000072"/>
            </g>
          </g>
        </g>
        <path id="Path_17711" data-name="Path 17711" d="M3040.759,502.4a4.107,4.107,0,0,1-.176,2.368,3.291,3.291,0,0,1-2.032,1.638,8.767,8.767,0,0,1-2.658.3,4,4,0,0,1-1.823-.295.518.518,0,0,1-.282-.268c-.042-.126.044-.3.177-.289a1.165,1.165,0,0,1-.619-.744c-.05-.33.29-.7.593-.562-.146-.045-.134-.279-.012-.372a.761.761,0,0,1,.441-.1,5.062,5.062,0,0,0,3.074-1.147c2.2-2.162,1.15-3.773.423-5.955A10.513,10.513,0,0,1,3040.759,502.4Z" transform="translate(-3010.921 -475.74)" fill="#334350"/>
      </g>
    </g>
  </g>
</svg>
