<svg xmlns="http://www.w3.org/2000/svg" xmlns:xlink="http://www.w3.org/1999/xlink" width="38.755" height="43.548" xmlns:v="https://vecta.io/nano"><style>.H,.I{isolation:isolate}.H{mix-blend-mode:multiply}.I{mix-blend-mode:screen}</style><path d="M27.504 24.039l-8.427-1.1-8.427 1.1s-2.015 6.01-1.924 9.4 1.282 5.671 4.122 6.856c3.98 1.693 8.477 1.693 12.457 0 2.84-1.185 4.03-3.47 4.122-6.856s-1.923-9.4-1.923-9.4z" fill="#fafafa"/><path fill="#b1b1d4" d="M27.503 24.04l-2.739-.358c.828 2.556 1.317 5.208 1.457 7.891-.092 3.386-1.282 5.671-4.122 6.856-1.995.753-4.098 1.182-6.229 1.269a20.91 20.91 0 0 1-5.3-.924 6.6 6.6 0 0 0 2.275 1.517c3.98 1.693 8.478 1.693 12.458 0 2.839-1.185 4.031-3.47 4.122-6.856s-1.922-9.395-1.922-9.395z" opacity=".32"/><g fill="#334350"><path d="M6.225 36.765c-1.247 1.716-2.632 1.838-3.316 2.967-.595.902-.491 2.096.252 2.881.575.674.66.928 1.464.934a26.74 26.74 0 0 0 5.069-.717l5.317-1.274c.554-.052 1.036-.402 1.257-.913.2-.7-.337-1.364-.82-1.823l-4.284-4.062c-1.227-1.161-2.627-1.176-4.939 2.007z"/><path d="M2.214 42.742a9.12 9.12 0 0 1-1.906-4.735 1.27 1.27 0 0 1 .108-.831.62.62 0 0 1 .661-.244.9.9 0 0 1 .2-.757 1.5 1.5 0 0 1 .67-.439 1.54 1.54 0 0 1 .775-.085c.263.04.498.19.645.412.42-.349 1.022-.369 1.464-.048a2.78 2.78 0 0 1 .923 1.264c.51 1.176.764 2.448.746 3.73a3.38 3.38 0 0 1-.36 1.646 1.56 1.56 0 0 1-1.173.817 2.98 2.98 0 0 1-2.753-.73zm30.316-5.977c1.247 1.716 2.632 1.838 3.316 2.967a2.33 2.33 0 0 1-.252 2.881c-.575.674-.66.928-1.464.934-1.709-.076-3.406-.316-5.069-.717l-5.318-1.274c-.554-.053-1.035-.402-1.256-.913-.2-.7.337-1.364.82-1.823l4.284-4.062c1.225-1.161 2.626-1.176 4.939 2.007z"/><path d="M36.54 42.742a9.13 9.13 0 0 0 1.906-4.735 1.27 1.27 0 0 0-.108-.831.62.62 0 0 0-.66-.244.9.9 0 0 0-.2-.757 1.5 1.5 0 0 0-.67-.439 1.54 1.54 0 0 0-.775-.085.95.95 0 0 0-.645.412c-.42-.349-1.022-.369-1.464-.048a2.78 2.78 0 0 0-.923 1.264c-.51 1.176-.764 2.448-.746 3.73a3.39 3.39 0 0 0 .361 1.646 1.56 1.56 0 0 0 1.173.817 2.98 2.98 0 0 0 2.751-.73zm-7.789-14.251a12.46 12.46 0 0 0-1.434-5.3l-8.427-1.1-8.427 1.1a20.15 20.15 0 0 0-1.55 5.9 12.88 12.88 0 0 1 4.948-2.968 18.99 18.99 0 0 1 7.138-.715c5.995.425 7.698 3.038 7.752 3.083zM4.713 11.468s-7.811-3.267-3.326-9.144c3.954-5.182 9.147.661 9.147.661z"/></g><path d="M5.29 8.973S.932 7.15 3.434 3.873c2.206-2.891 5.1.369 5.1.369z" fill="#f09fad"/><path d="M.742 3.335c3.789-4.966 8.715.192 9.12.631l.674-.982s-5.193-5.843-9.147-.661c-.271.352-.514.726-.726 1.117z" fill="#334350"/><path d="M.556 5.883a2.76 2.76 0 0 0 .417 1.586c.118.229.35.377.607.387a.55.55 0 0 0 .437-.471c.028-.233-.018-.47-.131-.676-.1-.208-.238-.4-.345-.6-.265-.519-.341-1.113-.215-1.682.026-.114.05-.257-.04-.327C.814 3.729.56 5.686.556 5.883z" fill="#fff" opacity=".22"/><path d="M27.631 3.826s4.455-7.2 9.554-1.846c4.5 4.72-2.091 8.929-2.091 8.929z" fill="#334350"/><path d="M30.004 4.787s2.485-4.017 5.331-1.03c2.509 2.633-1.167 4.982-1.167 4.982z" fill="#f09fad"/><path d="M36.288 1.182c4.308 4.523-1.561 8.577-2.058 8.907l.864.82S41.681 6.7 37.185 1.98c-.305-.324-.636-.622-.989-.893z" fill="#334350"/><path d="M33.801.597a2.76 2.76 0 0 0-1.632.162c-.233.107-.466.289-.478.538a.55.55 0 0 0 .4.505c.226.065.467.056.688-.023.222-.068.43-.172.65-.245.554-.18 1.153-.162 1.695.052.108.043.246.09.329.012.435-.407-1.458-.965-1.652-1.001z" fill="#fff" opacity=".22"/><path d="M35.542 12.241c-.53-4.368-3.098-8.226-6.924-10.4-4.01-2.243-13.871-2.447-18.644 0-3.956 2.029-6.351 6.812-6.658 10.3s.615 9.578 5.685 10.91 15.52 1.332 20.59 0 6.258-7.327 5.951-10.81z" fill="#fafafa"/><g fill="#334350"><path d="M16.266 8.697c-1.502 1.337-2.458 3.181-2.683 5.179a1.53 1.53 0 0 1-1.225 1.235c-3.142.606-5.532-2.809-3.958-6.593 2.072-4.9 7.246-4.307 8.323-1.546.238.613.054 1.31-.457 1.725zm6.569 0c1.502 1.337 2.458 3.181 2.683 5.179a1.53 1.53 0 0 0 1.225 1.235c3.142.606 5.532-2.809 3.958-6.593-2.072-4.9-7.247-4.307-8.322-1.546-.239.613-.054 1.31.456 1.725zm-1.008 5.352c.042.826-.378 1.607-1.09 2.028a2.23 2.23 0 0 1-2.303-.021c-.704-.434-1.11-1.223-1.053-2.048.009-1 1.007-1.261 2.234-1.25s2.221.288 2.212 1.29z"/><path d="M15.518 15.585a6.6 6.6 0 0 0 .432.7c.141.199.31.377.5.529.184.15.396.263.623.333.235.064.48.076.72.034a1.69 1.69 0 0 0 1.175-.764c.255-.433.339-.946.237-1.438a.36.36 0 1 1 .713-.119 3.17 3.17 0 0 1 .012.984c-.049.339-.169.664-.352.953s-.43.541-.72.729a2.45 2.45 0 0 1-.95.363 2.62 2.62 0 0 1-1.018-.037c-.341-.075-.659-.228-.93-.448a1.98 1.98 0 0 1-.348-.383c-.098-.138-.177-.289-.234-.449-.058-.154-.095-.315-.112-.478s-.015-.321.011-.479c.009-.053.049-.095.102-.105s.106.014.133.061z"/><path d="M22.819 17.561s-.056 1.943-.8 2.59c-.515-.843-1.432-1.357-2.419-1.357s-1.904.514-2.419 1.357l-.646-1.581v-1.009l.1-.215a1.96 1.96 0 0 0 2.666-.958h.593c.22.498.638.881 1.153 1.058s1.08.13 1.559-.128l.214.243z"/></g><path d="M21.899 19.944c-.585.65-1.419 1.022-2.294 1.022s-1.709-.371-2.294-1.022c.404-.905 1.303-1.488 2.294-1.488s1.89.583 2.294 1.488z" fill="#f09fad"/><g fill="#334350"><path d="M23.927 15.624a1.91 1.91 0 0 1-.1.957c-.119.323-.32.609-.583.831-.27.221-.588.375-.929.448a2.66 2.66 0 0 1-1.017.038c-1.051-.163-1.871-.994-2.022-2.046-.047-.326-.043-.658.012-.983a.36.36 0 1 1 .713.115c-.102.492-.017 1.005.238 1.438.408.626 1.171.921 1.894.73a1.79 1.79 0 0 0 .623-.333 3.74 3.74 0 0 0 .933-1.232c.026-.047.079-.072.133-.063s.095.051.103.104z"/><path d="M19.603 21.328c-.978.001-1.91-.415-2.564-1.142a4.3 4.3 0 0 1-1.014-2.939.36.36 0 0 1 .542-.313.36.36 0 0 1 .18.313c-.039.894.257 1.77.829 2.457.517.574 1.253.902 2.026.902s1.509-.328 2.026-.902c.573-.687.869-1.563.83-2.457a.36.36 0 0 1 .542-.313.36.36 0 0 1 .18.313 4.3 4.3 0 0 1-1.015 2.94c-.653.727-1.585 1.141-2.562 1.141z"/></g><ellipse cx="2.665" cy="1.836" rx="2.665" ry="1.836" transform="matrix(.129038 -.99164 .99164 .129038 9.97 14.959)" fill="#fff"/><use xlink:href="#B" fill="#000072"/><ellipse cx="2.665" cy="1.836" rx="2.665" ry="1.836" transform="matrix(.129038 -.99164 .99164 .129038 9.97 14.959)" fill="#fff"/><g fill="#334350"><use xlink:href="#B"/><ellipse cx="2.17" cy="1.494" rx="2.17" ry="1.494" transform="matrix(.129038 -.99164 .99164 .129038 10.706 14.597)"/></g><g fill="#fff"><circle cx=".673" cy=".673" r=".673" transform="matrix(.325799 -.945439 .945439 .325799 10.8 12.229)"/><ellipse cx="1.836" cy="2.665" rx="1.836" ry="2.665" transform="matrix(.992 -.129 .129 .992 24.842 10.147)"/></g><use xlink:href="#C" fill="#000072"/><ellipse cx="1.836" cy="2.665" rx="1.836" ry="2.665" transform="matrix(.992 -.129 .129 .992 24.842 10.147)" fill="#fff"/><g fill="#334350"><use xlink:href="#C"/><ellipse cx="1.494" cy="2.17" rx="1.494" ry="2.17" transform="matrix(.992 -.129 .129 .992 24.911 10.68)"/></g><circle cx=".673" cy=".673" r=".673" transform="matrix(.985859 -.167578 .167578 .985859 26.71 11.262)" fill="#fff"/><path fill="#b1b1d4" d="M35.554 12.101c-.518-5.07-3.949-9.369-8.777-11-2.534-1.033-8.467-1.4-11.75-.78a26.4 26.4 0 0 0-3.534.841 10.06 10.06 0 0 0-1.03.423c-.162.073-.462.238-.916.495.416-.172 1.875-.7 2.418-.841a27.7 27.7 0 0 1 2.994-.637C18.811.201 22.705.543 26.428 1.61c5.851 1.807 7.51 8.366 7.62 9.609.307 3.483-2.449 7.884-7.52 9.216s-15.52 1.332-20.591 0c-.314-.082-.622-.187-.922-.312.906 1.449 2.332 2.495 3.986 2.925 5.071 1.332 15.52 1.332 20.59 0s6.271-7.464 5.963-10.947z" opacity=".1"/><g fill="#f68f33"><path d="M22.586 24.8c-.837-.932-2.018-1.48-3.27-1.517h-.478c-1.257.037-2.443.591-3.278 1.531-.594.837-.867 1.86-.767 2.882a905.82 905.82 0 0 1 .01 4c0 .334-.178.642-.467.809s-.645.167-.935 0-.467-.475-.467-.809v-3.809a6.11 6.11 0 0 1 1.152-4.224c1.154-1.362 2.827-2.176 4.61-2.245h.759c1.784.069 3.457.883 4.611 2.245 1.342 1.717-.514 2.363-1.48 1.137z"/><path d="M24.067 23.663q-.144-.184-.3-.354a1.08 1.08 0 0 1 .042.454.55.55 0 0 1-.532.518c-.326-.073-.624-.24-.857-.479-.339-.247-.709-.448-1.1-.6-1.579-.642-3.356-.577-4.884.178a3.97 3.97 0 0 0-1.662 1.515 5.82 5.82 0 0 0-.548 2.7l-.015.543a3.11 3.11 0 0 1-.031.433.78.78 0 0 1-.379.645.6.6 0 0 1-.726-.192 1.03 1.03 0 0 1-.141-.248v2.917c0 .334.178.642.467.809s.645.167.935 0 .467-.475.467-.809c0 0 0-3.953-.01-4-.1-1.022.173-2.045.767-2.882.835-.94 2.021-1.493 3.278-1.53h.478c1.251.038 2.431.586 3.267 1.517.969 1.228 2.826.583 1.484-1.135z" class="H" opacity=".5"/><path d="M12.934 29.931v1.762c0 .334.178.642.467.809s.645.167.935 0 .467-.475.467-.809v-2.648a9.6 9.6 0 0 0-1.869.886z" class="H" opacity=".5"/></g><use xlink:href="#D" fill="#aaa"/><use xlink:href="#D" fill="#fbb035"/><path d="M19.077 28.952c4.437 0 8.033 2.081 8.033 4.649s-3.6 4.649-8.033 4.649-8.033-2.081-8.033-4.649 3.6-4.649 8.033-4.649c-4.7 0-8.5 2.2-8.5 4.922s3.807 4.922 8.5 4.922 8.5-2.2 8.5-4.922-3.803-4.922-8.5-4.922z" fill="#f68f33"/><path fill="#ffd074" d="M26.531 33.547c0 2.383-3.337 4.314-7.454 4.314s-7.454-1.932-7.454-4.314 3.337-4.314 7.454-4.314 7.454 1.933 7.454 4.314z"/><path fill="#ad561f" d="M17.7 31.954a1.41 1.41 0 0 1 1.264-1.368 1.56 1.56 0 0 0-.2-.013c-.784-.021-1.438.597-1.461 1.381.009.58.379 1.092.926 1.284l-1.053 3.154h.395l1.055-3.152c-.548-.192-.918-.706-.926-1.286z"/><path fill="#5e2a00" d="M20.226 31.954a1.27 1.27 0 0 0-1.927-1.182 1.27 1.27 0 0 0-.601 1.182c.01.58.38 1.092.928 1.283l-1.053 3.154h2.653l-.955-3.143c.561-.184.945-.703.955-1.294z"/><path d="M16.916 21.918c-1.538.538-2.785 1.688-3.447 3.177-.042.055-.049.129-.018.191s.094.101.163.1c0 0 .083.042.291-.353a4.82 4.82 0 0 1 2.97-2.6c2.076-.66.622-.743.041-.515z" style="mix-blend-mode:screen" fill="#f68f33"/><path d="M13.497 31.59a1.31 1.31 0 0 0 .369.9c.377.341 2.563-1.194 2.29-1.747s-2.625-.166-2.659.847zm-1.132.681c-.426.632.868 1.537 1.191.639.178-.5-.544-1.048-.977-.821a.57.57 0 0 0-.214.182z" class="I" fill="#aaa"/><path d="M7.009 29.233a4.54 4.54 0 0 0 .056 2.624c.419.911 1.195 1.609 2.146 1.928a9.69 9.69 0 0 0 2.917.485c.684.087 1.379.012 2.029-.218.141-.047.259-.147.328-.279.054-.137-.032-.33-.179-.329a1.29 1.29 0 0 0 .727-.785c.074-.361-.279-.793-.622-.656.165-.041.165-.3.036-.41a.84.84 0 0 0-.481-.132 5.6 5.6 0 0 1-3.326-1.448c-1.9-2.074-1.177-3.765-.218-6.655-1.698 1.574-2.887 3.62-3.413 5.875zm23.713.237a4.54 4.54 0 0 1-.2 2.617c-.467.887-1.28 1.542-2.246 1.81a9.7 9.7 0 0 1-2.939.329 4.42 4.42 0 0 1-2.015-.326c-.139-.056-.251-.163-.312-.3-.047-.14.049-.328.2-.319a1.29 1.29 0 0 1-.684-.823c-.055-.365.321-.777.656-.622-.162-.05-.148-.309-.014-.411a.84.84 0 0 1 .488-.106 5.6 5.6 0 0 0 3.4-1.268c2.434-2.39 1.271-4.171.468-6.583 1.641 1.637 2.755 3.727 3.198 6.002z" fill="#334350"/><g fill="#7b7b7b"><ellipse cx="1.861" cy="2.551" rx="1.861" ry="2.551" transform="matrix(.961262 -.275637 .275637 .961262 .992 38.138)" opacity=".38"/><ellipse cx="1.861" cy="2.551" rx="1.861" ry="2.551" transform="matrix(-.961262 -.275637 .275637 -.961262 36.31 43.042)" opacity=".38"/></g><defs ><path id="B" d="M11.954 15.253a1.29 1.29 0 0 1-.171-.011c-1.029-.134-1.709-1.449-1.516-2.932a3.39 3.39 0 0 1 .788-1.825c.325-.454.874-.693 1.428-.621s1.023.443 1.221.966a3.39 3.39 0 0 1 .295 1.965c-.182 1.401-1.079 2.458-2.045 2.458zm.356-5.308a1.62 1.62 0 0 0-1.187.6 3.3 3.3 0 0 0-.765 1.774c-.187 1.432.458 2.7 1.436 2.828a1.21 1.21 0 0 0 .16.01c.92 0 1.777-1.022 1.953-2.377a3.3 3.3 0 0 0-.285-1.911c-.206-.479-.638-.823-1.151-.917a1.23 1.23 0 0 0-.16-.007z"/><path id="C" d="M27.188 15.253c-.966 0-1.863-1.057-2.045-2.457-.1-.67.003-1.355.295-1.966.198-.523.667-.895 1.222-.967s1.103.167 1.428.622a3.39 3.39 0 0 1 .788 1.825c.192 1.483-.488 2.8-1.516 2.932-.057.007-.114.011-.172.011zm-.356-5.307a1.22 1.22 0 0 0-.16.01c-.513.093-.945.438-1.151.917a3.3 3.3 0 0 0-.285 1.911c.186 1.432 1.133 2.493 2.112 2.366s1.623-1.4 1.437-2.828a3.3 3.3 0 0 0-.765-1.774 1.62 1.62 0 0 0-1.19-.602z"/><path id="D" d="M27.581 33.874c0 2.718-3.807 4.922-8.5 4.922s-8.5-2.2-8.5-4.922 3.807-4.922 8.5-4.922 8.5 2.208 8.5 4.922z"/></defs></svg>