<svg width="50" height="58" viewBox="0 0 50 58" fill="none" xmlns="http://www.w3.org/2000/svg">
<g opacity="0.28">
<path opacity="0.28" d="M24.0745 57.0584C36.4228 57.0584 46.4332 55.3482 46.4332 53.2386C46.4332 51.1289 36.4228 49.4187 24.0745 49.4187C11.7261 49.4187 1.71582 51.1289 1.71582 53.2386C1.71582 55.3482 11.7261 57.0584 24.0745 57.0584Z" fill="#87C3FF"/>
</g>
<path d="M32.8084 33.0197L23.8483 31.8496L14.8882 33.0197C14.8882 33.0197 12.7457 39.4093 12.8431 43.0091C12.9404 46.6088 14.2066 49.0385 17.2256 50.2988C20.2446 51.5591 23.8483 51.6487 23.8483 51.6487C23.8483 51.6487 27.4518 51.5588 30.471 50.2988C33.4903 49.0387 34.7562 46.6088 34.8536 43.0091C34.9509 39.4093 32.8084 33.0197 32.8084 33.0197Z" fill="#FAFAFA"/>
<path opacity="0.32" d="M32.8074 33.0196L29.8949 32.6392C30.5213 34.7697 31.5106 38.557 31.4439 41.0291C31.3465 44.6289 30.0803 47.0585 27.0614 48.3188C24.0424 49.5791 20.4389 49.6688 20.4389 49.6688C18.5267 49.5851 16.6333 49.2549 14.8057 48.6862C15.4907 49.3867 16.3148 49.936 17.2249 50.2989C20.2442 51.559 23.8477 51.6489 23.8477 51.6489C23.8477 51.6489 27.4511 51.559 30.4704 50.2989C33.4896 49.0389 34.7558 46.609 34.8529 43.0095C34.95 39.41 32.8074 33.0196 32.8074 33.0196Z" fill="#B1B1D4"/>
<path d="M10.1838 46.5499C8.8581 48.3747 7.38542 48.5044 6.65763 49.705C6.35003 50.1707 6.20894 50.7268 6.25738 51.2829C6.30581 51.839 6.54092 52.3624 6.92441 52.7679C7.53589 53.4848 7.62607 53.7551 8.48059 53.7615C10.0111 53.7727 12.3658 53.3365 13.8697 52.9995C15.7591 52.5764 17.6412 52.1106 19.5232 51.6448C20.0567 51.5114 20.6797 51.2929 20.8595 50.6737C21.0751 49.9309 20.5015 49.2231 19.9874 48.7357L15.4325 44.4164C14.1314 43.1809 12.6417 43.1652 10.1838 46.5499Z" fill="#334350"/>
<path d="M5.91816 52.9051C4.50739 51.398 3.95971 48.7462 3.89061 47.8703C3.87407 47.6569 3.81269 47.2524 4.00531 46.9872C4.08219 46.8779 4.1905 46.7945 4.31587 46.7482C4.44124 46.7019 4.57777 46.6948 4.70726 46.7279C4.67958 46.5863 4.68436 46.4403 4.72133 46.3009C4.7583 46.1615 4.82651 46.0322 4.9207 45.923C5.11132 45.7054 5.35767 45.544 5.63327 45.4561C5.89572 45.356 6.17945 45.325 6.45734 45.3659C6.59579 45.3874 6.72827 45.4374 6.84632 45.5129C6.96436 45.5884 7.06541 45.6876 7.143 45.8043C7.53971 45.4041 8.23121 45.4425 8.69996 45.7536C9.14909 46.0984 9.48982 46.5649 9.68152 47.0977C10.2238 48.3486 10.494 49.7005 10.4741 51.0637C10.4962 51.6701 10.3644 52.2721 10.091 52.8138C9.96727 53.0475 9.78955 53.2482 9.57262 53.3993C9.35569 53.5505 9.10581 53.6477 8.84377 53.6828C8.64635 53.6911 7.05148 54.1158 5.91816 52.9051Z" fill="#334350"/>
<path d="M38.1511 46.5499C39.477 48.3747 40.9494 48.5044 41.6772 49.705C41.9848 50.1707 42.1259 50.7268 42.0774 51.2829C42.029 51.839 41.7939 52.3624 41.4104 52.7679C40.7987 53.4848 40.7088 53.7551 39.8542 53.7615C38.3234 53.7727 35.969 53.3365 34.4651 52.9995C32.576 52.5764 30.6939 52.1106 28.8114 51.6448C28.2778 51.5114 27.6551 51.2929 27.4753 50.6737C27.2598 49.9309 27.8334 49.2231 28.3472 48.7357L32.9023 44.4164C34.2032 43.1809 35.6921 43.1652 38.1511 46.5499Z" fill="#334350"/>
<path d="M42.4149 52.9051C43.8257 51.398 44.3735 48.7462 44.4426 47.8703C44.4591 47.6569 44.5204 47.2524 44.3275 46.9872C44.2507 46.8779 44.1424 46.7946 44.0171 46.7482C43.8918 46.7019 43.7554 46.6948 43.6259 46.7279C43.6536 46.5863 43.6488 46.4403 43.6118 46.3009C43.5749 46.1614 43.5067 46.0322 43.4125 45.923C43.2218 45.7054 42.9755 45.544 42.6999 45.4561C42.4374 45.356 42.1537 45.325 41.8758 45.3659C41.7373 45.3874 41.6048 45.4374 41.4868 45.5129C41.3687 45.5884 41.2677 45.6876 41.1901 45.8043C40.7931 45.4041 40.1019 45.4425 39.6331 45.7536C39.184 46.0983 38.8433 46.5649 38.6516 47.0977C38.1093 48.3486 37.839 49.7005 37.8588 51.0637C37.837 51.6701 37.9688 52.2721 38.2421 52.8138C38.3658 53.0475 38.5436 53.2482 38.7605 53.3993C38.9775 53.5505 39.2273 53.6477 39.4893 53.6828C39.6881 53.6911 41.2827 54.1158 42.4149 52.9051Z" fill="#334350"/>
<path d="M34.1343 37.7525C34.1343 34.8525 32.6096 32.1166 32.6096 32.1166L23.6495 30.9468L14.6895 32.1166C14.6895 32.1166 13.2809 35.2234 13.041 38.3885C14.5337 36.9522 16.3326 35.8731 18.3026 35.2325C20.7239 34.454 23.3361 34.2904 25.8922 34.4724C32.2652 34.9264 34.0759 37.7048 34.1343 37.7525Z" fill="#334350"/>
<path d="M8.57748 19.6534C8.57748 19.6534 0.272913 16.1801 5.04121 9.93058C9.24498 4.42088 14.7667 10.6333 14.7667 10.6333L8.57748 19.6534Z" fill="#334350"/>
<path d="M9.19016 17.0006C9.19016 17.0006 4.55659 15.0627 7.21593 11.5755C9.56153 8.50131 12.6424 11.9677 12.6424 11.9677L9.19016 17.0006Z" fill="#F09FAD"/>
<path d="M4.35381 11.0058C8.38231 5.72612 13.6204 11.2102 14.0505 11.6774L14.7668 10.6334C14.7668 10.6334 9.2443 4.42073 5.04159 9.9307C4.75298 10.3053 4.49481 10.7024 4.26953 11.1182C4.29754 11.0808 4.32527 11.0437 4.35381 11.0058Z" fill="#334350"/>
<path opacity="0.22" d="M4.15528 13.7149C4.12868 14.309 4.28319 14.8972 4.59839 15.4015C4.65963 15.5212 4.75165 15.6225 4.86498 15.6949C4.9783 15.7673 5.10887 15.8082 5.24324 15.8134C5.36311 15.7888 5.47226 15.7274 5.55549 15.6377C5.63873 15.548 5.69187 15.4346 5.70745 15.3132C5.73737 15.065 5.68863 14.8138 5.56816 14.5947C5.45931 14.3733 5.31527 14.1724 5.20188 13.9545C4.92035 13.4033 4.83941 12.7713 4.97297 12.167C4.99965 12.0461 5.02634 11.8938 4.93083 11.8202C4.429 11.4245 4.15982 13.5057 4.15528 13.7149Z" fill="white"/>
<path d="M32.9434 11.5274C32.9434 11.5274 37.6796 3.87245 43.1015 9.56437C47.8816 14.5826 40.8779 19.058 40.8779 19.058L32.9434 11.5274Z" fill="#334350"/>
<path d="M35.4668 12.5494C35.4668 12.5494 38.1096 8.27811 41.1347 11.454C43.8025 14.2552 39.8941 16.751 39.8941 16.751L35.4668 12.5494Z" fill="#F09FAD"/>
<path d="M42.1476 8.71626C46.7281 13.5248 40.4882 17.8353 39.96 18.1872L40.8782 19.0588C40.8782 19.0588 47.8817 14.5832 43.1016 9.56517C42.777 9.22133 42.4254 8.904 42.0502 8.61621C42.0825 8.64876 42.1151 8.68211 42.1476 8.71626Z" fill="#334350"/>
<path opacity="0.22" d="M39.5041 8.09433C38.9219 7.97487 38.3172 8.03496 37.77 8.26667C37.5221 8.38006 37.2745 8.57401 37.2617 8.83893C37.2672 8.96116 37.3106 9.07863 37.3861 9.17492C37.4616 9.27121 37.5653 9.34151 37.6827 9.37598C37.9231 9.44461 38.1789 9.43602 38.4142 9.35143C38.65 9.27886 38.871 9.16815 39.1052 9.09051C39.694 8.89911 40.3311 8.91864 40.9071 9.14574C41.0223 9.19162 41.1685 9.24098 41.2571 9.15881C41.7226 8.72501 39.7108 8.13195 39.5041 8.09433Z" fill="white"/>
<path d="M41.3542 20.4753C41.0274 16.772 38.5949 11.9896 33.9925 9.41615C29.7282 7.03187 19.244 6.81417 14.1702 9.41615C9.96349 11.5734 7.41727 16.6594 7.09045 20.3625C6.76364 24.0655 7.74381 30.5463 13.1353 31.9624C18.5268 33.3785 29.6364 33.3782 35.0279 31.9624C40.4194 30.5465 41.681 24.1786 41.3542 20.4753Z" fill="#FAFAFA"/>
<path d="M20.8594 16.7076C19.3185 17.9487 18.4202 19.8373 18.0067 22.2144C17.9483 22.5395 17.7926 22.8393 17.5599 23.0739C17.3273 23.3084 17.0289 23.4667 16.7042 23.5277C13.3635 24.1718 10.8221 20.5413 12.4959 16.5176C14.6988 11.3107 20.2007 11.9385 21.345 14.8737C21.4685 15.1914 21.4881 15.5402 21.4008 15.8697C21.3136 16.1993 21.124 16.4926 20.8594 16.7076Z" fill="#334350"/>
<path d="M27.8449 16.7076C29.3858 17.9487 30.2839 19.8373 30.6974 22.2144C30.7558 22.5395 30.9115 22.8392 31.1442 23.0738C31.3768 23.3084 31.6752 23.4667 31.9999 23.5277C35.3409 24.1718 37.8817 20.5413 36.2082 16.5176C34.0056 11.3107 28.5034 11.9385 27.3594 14.8737C27.2359 15.1914 27.2164 15.5402 27.3037 15.8697C27.3909 16.1992 27.5804 16.4926 27.8449 16.7076Z" fill="#334350"/>
<path d="M26.7722 22.3966C26.7626 23.4618 25.6912 24.8964 24.3858 24.8849C23.0804 24.8734 22.0351 23.4191 22.045 22.3541C22.0549 21.2891 23.1151 21.0133 24.4194 21.025C25.7237 21.0368 26.7818 21.331 26.7722 22.3966Z" fill="#334350"/>
<path d="M20.0648 24.0303C20.2019 24.2892 20.355 24.5393 20.5234 24.779C20.6742 24.9903 20.8538 25.1795 21.057 25.3411C21.253 25.5006 21.4779 25.6209 21.7194 25.6954C21.9688 25.7639 22.2302 25.7762 22.4849 25.7317C22.739 25.6933 22.9819 25.6009 23.1974 25.4607C23.4128 25.3206 23.5958 25.136 23.734 24.9193C24.005 24.4584 24.0949 23.9133 23.9863 23.3898C23.9726 23.2906 23.9981 23.1901 24.0574 23.1094C24.1167 23.0288 24.2051 22.9745 24.3039 22.9581C24.4026 22.9417 24.5039 22.9644 24.5861 23.0216C24.6683 23.0787 24.725 23.1656 24.744 23.2639V23.2657V23.2687C24.803 23.6145 24.8074 23.9675 24.7571 24.3148C24.7052 24.6752 24.578 25.0206 24.3836 25.3286C24.1873 25.6392 23.9261 25.9036 23.6179 26.1036C23.3119 26.3014 22.9678 26.433 22.6078 26.4899C22.2481 26.5475 21.8806 26.534 21.526 26.4501C21.1645 26.3703 20.8265 26.2073 20.5389 25.9742C20.3982 25.8551 20.2738 25.7181 20.1689 25.5665C20.0646 25.4194 19.9808 25.2589 19.9197 25.0892C19.8587 24.9255 19.8187 24.7546 19.801 24.5808C19.7816 24.4112 19.7859 24.2398 19.8135 24.0714C19.8171 24.0435 19.8294 24.0175 19.8487 23.997C19.868 23.9765 19.8933 23.9627 19.921 23.9575C19.9486 23.9522 19.9772 23.9559 20.0027 23.9678C20.0281 23.9798 20.0491 23.9996 20.0627 24.0242L20.0648 24.0303Z" fill="#334350"/>
<path d="M27.8274 26.1309C27.8274 26.1309 27.7682 28.1967 26.9802 28.8847C25.6654 26.9617 23.1499 26.9617 21.8351 28.8847L21.1484 27.2039V26.1315L21.2594 25.9031C22.2521 26.4303 23.5164 26.0309 24.0938 24.8848C24.3058 24.8864 24.5179 24.8864 24.7244 24.8864C25.3114 26.0509 26.609 26.4436 27.6079 25.8735C27.7381 26.0253 27.8274 26.1309 27.8274 26.1309Z" fill="#334350"/>
<path d="M26.8476 28.6653C26.5399 29.0075 26.1636 29.2811 25.7432 29.4684C25.3229 29.6557 24.8679 29.7525 24.4077 29.7525C23.9475 29.7525 23.4924 29.6557 23.0721 29.4684C22.6517 29.2811 22.2755 29.0075 21.9678 28.6653C22.178 28.1939 22.5204 27.7935 22.9534 27.5125C23.3864 27.2315 23.8915 27.082 24.4077 27.082C24.9239 27.082 25.429 27.2315 25.862 27.5125C26.295 27.7935 26.6373 28.1939 26.8476 28.6653Z" fill="#F09FAD"/>
<path d="M29.0047 24.0717C29.0567 24.4146 29.02 24.7651 28.8981 25.0898C28.7715 25.433 28.5579 25.7375 28.2783 25.9734C27.9918 26.2084 27.6534 26.3717 27.2912 26.4499C26.9365 26.5328 26.5692 26.5464 26.2094 26.4899C25.6653 26.4053 25.1628 26.1482 24.7758 25.7565C24.3889 25.3648 24.1379 24.8593 24.0599 24.3142C24.0098 23.9671 24.0143 23.6144 24.0732 23.2687V23.266C24.0894 23.1655 24.1449 23.0755 24.2274 23.0158C24.31 22.9562 24.4128 22.9318 24.5134 22.948C24.6139 22.9642 24.7039 23.0197 24.7636 23.1022C24.8232 23.1848 24.8476 23.2877 24.8314 23.3882V23.3898C24.7231 23.9132 24.8131 24.4581 25.0841 24.9188C25.2955 25.2434 25.6039 25.4931 25.9654 25.6325C26.3269 25.7718 26.7231 25.7936 27.0978 25.6949C27.34 25.6218 27.5652 25.5012 27.7602 25.34C28.1784 24.9773 28.5163 24.5312 28.7521 24.0304V24.0283C28.7656 24.0036 28.7865 23.9838 28.8118 23.9716C28.8371 23.9594 28.8656 23.9554 28.8933 23.9602C28.921 23.9649 28.9465 23.9782 28.9663 23.9981C28.9861 24.0181 28.9992 24.0437 29.0037 24.0715L29.0047 24.0717Z" fill="#334350"/>
<path d="M24.4077 30.1356C23.8936 30.1359 23.3851 30.028 22.9155 29.8187C22.4458 29.6095 22.0255 29.3037 21.6819 28.9212C20.9451 28.0505 20.5606 26.9358 20.6039 25.796C20.6039 25.6942 20.6443 25.5965 20.7163 25.5245C20.7884 25.4525 20.8861 25.412 20.9879 25.412C21.0898 25.412 21.1874 25.4525 21.2594 25.5245C21.3315 25.5965 21.3719 25.6942 21.3719 25.796C21.3301 26.746 21.6441 27.6773 22.2523 28.4082C22.5241 28.7102 22.8563 28.9517 23.2274 29.117C23.5985 29.2823 24.0002 29.3677 24.4065 29.3677C24.8128 29.3677 25.2145 29.2823 25.5856 29.117C25.9567 28.9517 26.289 28.7102 26.5607 28.4082C27.1696 27.6774 27.4841 26.7458 27.4427 25.7955C27.4427 25.6937 27.4831 25.596 27.5551 25.524C27.6271 25.452 27.7248 25.4116 27.8266 25.4116C27.9284 25.4116 28.0261 25.452 28.0981 25.524C28.1701 25.596 28.2105 25.6937 28.2105 25.7955C28.2536 26.9356 27.8688 28.0506 27.1316 28.9214C26.7882 29.3036 26.3682 29.6093 25.8989 29.8185C25.4296 30.0277 24.9215 30.1357 24.4077 30.1356Z" fill="#334350"/>
<path d="M18.4022 21.059C18.6041 19.507 17.9014 18.1361 16.8326 17.997C15.7638 17.858 14.7336 19.0034 14.5317 20.5554C14.3297 22.1073 15.0325 23.4782 16.1013 23.6173C17.1701 23.7564 18.2002 22.611 18.4022 21.059Z" fill="white"/>
<path d="M16.2766 23.6781C16.216 23.6781 16.1554 23.6742 16.0952 23.6663C15.0014 23.5241 14.2779 22.1256 14.483 20.5492C14.5622 19.8333 14.854 19.1576 15.3207 18.6091C15.4902 18.3717 15.7211 18.1848 15.9886 18.0684C16.256 17.952 16.55 17.9104 16.8393 17.9481C17.1286 17.9857 17.4022 18.1012 17.6309 18.2823C17.8596 18.4633 18.0349 18.7031 18.138 18.9759C18.4489 19.6255 18.5581 20.3532 18.4515 21.0654C18.257 22.5546 17.3032 23.6781 16.2766 23.6781ZM16.6552 18.0349C16.4116 18.0463 16.1731 18.1092 15.9556 18.2196C15.7381 18.33 15.5466 18.4853 15.3936 18.6752C14.9401 19.2088 14.6569 19.8659 14.5804 20.562C14.3822 22.0845 15.067 23.4331 16.1075 23.5689C16.1638 23.5763 16.2204 23.5799 16.2772 23.5799C17.2555 23.5799 18.166 22.4927 18.353 21.0528C18.4571 20.3605 18.3516 19.6528 18.05 19.021C17.9422 18.7702 17.7741 18.5499 17.5606 18.3798C17.3471 18.2096 17.0948 18.0949 16.8262 18.0459C16.7695 18.0385 16.7124 18.0348 16.6552 18.0349Z" fill="#000072"/>
<path d="M18.4022 21.059C18.6041 19.507 17.9014 18.1361 16.8326 17.997C15.7638 17.858 14.7336 19.0034 14.5317 20.5554C14.3297 22.1073 15.0325 23.4782 16.1013 23.6173C17.1701 23.7564 18.2002 22.611 18.4022 21.059Z" fill="white"/>
<path d="M16.2766 23.6781C16.216 23.6781 16.1554 23.6742 16.0952 23.6663C15.0014 23.5241 14.2779 22.1256 14.483 20.5492C14.5622 19.8333 14.854 19.1576 15.3207 18.6091C15.4902 18.3717 15.7211 18.1848 15.9886 18.0684C16.256 17.952 16.55 17.9104 16.8393 17.9481C17.1286 17.9857 17.4022 18.1012 17.6309 18.2823C17.8596 18.4633 18.0349 18.7031 18.138 18.9759C18.4489 19.6255 18.5581 20.3532 18.4515 21.0654C18.257 22.5546 17.3032 23.6781 16.2766 23.6781ZM16.6552 18.0349C16.4116 18.0463 16.1731 18.1092 15.9556 18.2196C15.7381 18.33 15.5466 18.4853 15.3936 18.6752C14.9401 19.2088 14.6569 19.8659 14.5804 20.562C14.3822 22.0845 15.067 23.4331 16.1075 23.5689C16.1638 23.5763 16.2204 23.5799 16.2772 23.5799C17.2555 23.5799 18.166 22.4927 18.353 21.0528C18.4571 20.3605 18.3516 19.6528 18.05 19.021C17.9422 18.7702 17.7741 18.5499 17.5606 18.3798C17.3471 18.2096 17.0948 18.0949 16.8262 18.0459C16.7695 18.0385 16.7124 18.0348 16.6552 18.0349Z" fill="#334350"/>
<path d="M18.3968 21.1031C18.5612 19.8397 17.9891 18.7237 17.119 18.6105C16.2489 18.4972 15.4103 19.4297 15.2459 20.6931C15.0815 21.9565 15.6536 23.0725 16.5237 23.1857C17.3938 23.2989 18.2324 22.3665 18.3968 21.1031Z" fill="#334350"/>
<path d="M16.6337 20.2528C16.7624 19.8795 16.564 19.4725 16.1907 19.3439C15.8174 19.2152 15.4104 19.4136 15.2818 19.7869C15.1531 20.1602 15.3515 20.5672 15.7248 20.6958C16.0981 20.8245 16.5051 20.6261 16.6337 20.2528Z" fill="white"/>
<path d="M32.6446 23.6191C33.7138 23.48 34.4169 22.1087 34.215 20.5562C34.0131 19.0036 32.9827 17.8577 31.9135 17.9968C30.8443 18.1358 30.1412 19.5071 30.3431 21.0597C30.545 22.6122 31.5754 23.7581 32.6446 23.6191Z" fill="white"/>
<path d="M32.4685 23.678C31.4413 23.678 30.4876 22.5546 30.2937 21.0656C30.187 20.3534 30.2961 19.6255 30.6069 18.9759C30.71 18.703 30.8853 18.4633 31.1141 18.2823C31.3428 18.1012 31.6165 17.9857 31.9057 17.948C32.195 17.9104 32.489 17.952 32.7565 18.0684C33.024 18.1848 33.2548 18.3717 33.4244 18.609C33.8912 19.1574 34.1831 19.833 34.2624 20.5488C34.4673 22.125 33.7443 23.5235 32.6502 23.666C32.5899 23.6738 32.5292 23.6778 32.4685 23.678ZM32.0897 18.0346C32.0326 18.0347 31.9756 18.0384 31.9189 18.0458C31.6503 18.0947 31.3979 18.2093 31.1844 18.3794C30.9708 18.5495 30.8026 18.7698 30.6949 19.0207C30.3933 19.6526 30.2876 20.3603 30.3916 21.0528C30.5895 22.5751 31.5961 23.7041 32.6376 23.5683C33.6792 23.4325 34.3632 22.0842 34.1648 20.5614C34.0881 19.8654 33.8049 19.2083 33.3516 18.6747C33.1986 18.4849 33.0072 18.3297 32.7898 18.2194C32.5725 18.109 32.3342 18.0461 32.0907 18.0346H32.0897Z" fill="#000072"/>
<path d="M32.6446 23.6191C33.7138 23.48 34.4169 22.1087 34.215 20.5562C34.0131 19.0036 32.9827 17.8577 31.9135 17.9968C30.8443 18.1358 30.1412 19.5071 30.3431 21.0597C30.545 22.6122 31.5754 23.7581 32.6446 23.6191Z" fill="white"/>
<path d="M32.4685 23.678C31.4413 23.678 30.4876 22.5546 30.2937 21.0656C30.187 20.3534 30.2961 19.6255 30.6069 18.9759C30.71 18.703 30.8853 18.4633 31.1141 18.2823C31.3428 18.1012 31.6165 17.9857 31.9057 17.948C32.195 17.9104 32.489 17.952 32.7565 18.0684C33.024 18.1848 33.2548 18.3717 33.4244 18.609C33.8912 19.1574 34.1831 19.833 34.2624 20.5488C34.4673 22.125 33.7443 23.5235 32.6502 23.666C32.5899 23.6738 32.5292 23.6778 32.4685 23.678ZM32.0897 18.0346C32.0326 18.0347 31.9756 18.0384 31.9189 18.0458C31.6503 18.0947 31.3979 18.2093 31.1844 18.3794C30.9708 18.5495 30.8026 18.7698 30.6949 19.0207C30.3933 19.6526 30.2876 20.3603 30.3916 21.0528C30.5895 22.5751 31.5961 23.7041 32.6376 23.5683C33.6792 23.4325 34.3632 22.0842 34.1648 20.5614C34.0881 19.8654 33.8049 19.2083 33.3516 18.6747C33.1986 18.4849 33.0072 18.3297 32.7898 18.2194C32.5725 18.109 32.3342 18.0461 32.0907 18.0346H32.0897Z" fill="#334350"/>
<path d="M32.223 23.1876C33.0934 23.0745 33.6657 21.9581 33.5014 20.6942C33.337 19.4304 32.4982 18.4975 31.6278 18.6107C30.7574 18.7239 30.185 19.8403 30.3493 21.1041C30.5137 22.368 31.3525 23.3008 32.223 23.1876Z" fill="#334350"/>
<path d="M32.9074 20.7245C33.2967 20.6583 33.5586 20.2891 33.4925 19.8998C33.4263 19.5105 33.0571 19.2486 32.6678 19.3148C32.2785 19.3809 32.0165 19.7502 32.0827 20.1395C32.1489 20.5287 32.5181 20.7907 32.9074 20.7245Z" fill="white"/>
<path opacity="0.1" d="M41.3676 20.3256C41.2009 18.4357 39.8136 11.2781 32.0356 8.62752C29.3411 7.52889 23.0334 7.14418 19.5425 7.79781C18.2709 8.00948 17.0155 8.30845 15.785 8.69262C15.4124 8.82232 15.0472 8.97258 14.6912 9.14269C14.5189 9.22005 14.1998 9.39613 13.7172 9.66906C14.16 9.48577 15.7103 8.92205 16.2879 8.77505C17.3356 8.4907 18.3981 8.26448 19.4707 8.09741C23.564 7.76206 27.6917 7.94187 31.665 9.16883C37.8865 11.0897 39.6508 18.0643 39.7674 19.3855C40.0942 23.0887 37.1633 27.7682 31.7718 29.184C26.3803 30.5999 15.2704 30.5999 9.8789 29.184C9.54472 29.0965 9.21709 28.9856 8.89844 28.8522C9.86165 30.3924 11.3781 31.5054 13.1364 31.9624C18.5279 33.3782 29.6377 33.3782 35.0292 31.9624C40.4207 30.5465 41.6941 24.0289 41.3676 20.3256Z" fill="#B1B1D4"/>
<path opacity="0.38" d="M8.01665 52.679C9.0673 52.3777 9.58432 50.9662 9.17145 49.5264C8.75857 48.0865 7.57216 47.1635 6.52151 47.4648C5.47086 47.766 4.95384 49.1775 5.36671 50.6174C5.77959 52.0572 6.96601 52.9802 8.01665 52.679Z" fill="#7B7B7B"/>
<path opacity="0.38" d="M41.7637 47.4647C40.713 47.1634 39.5266 48.0864 39.1137 49.5263C38.7009 50.9661 39.2179 52.3776 40.2685 52.6789C41.3192 52.9801 42.5056 52.0571 42.9185 50.6173C43.3313 49.1774 42.8143 47.7659 41.7637 47.4647Z" fill="#7B7B7B"/>
<path d="M24.9786 46.7335L25.0144 40.4506L23.6116 40.4426L23.579 46.1484H23.5777C23.5777 46.1484 23.5777 46.1602 23.5777 46.1751L23.575 46.6396C23.543 47.4527 23.34 48.9889 22.2539 48.9825L26.2693 49.0054C25.2214 49.0006 25.0112 47.564 24.9786 46.7335Z" fill="#FFD074"/>
<path d="M18.2386 34.0123C18.5524 34.1789 18.831 34.4047 19.059 34.6771C19.3443 35.0011 19.5248 35.4039 19.5769 35.8324C19.629 36.261 19.5502 36.6953 19.3509 37.0782C19.2377 37.3005 19.0666 37.4881 18.8557 37.6212C18.6448 37.7542 18.4018 37.8279 18.1524 37.8343C17.8893 37.8437 17.628 37.7854 17.3938 37.665C17.1596 37.5447 16.9601 37.3662 16.8145 37.1468C16.7099 36.971 16.6555 36.7698 16.6572 36.5653C16.6589 36.3607 16.7168 36.1605 16.8244 35.9865C16.8585 35.9268 16.9041 35.8744 16.9585 35.8323C17.013 35.7903 17.0752 35.7594 17.1416 35.7415C17.2081 35.7236 17.2774 35.719 17.3456 35.728C17.4138 35.737 17.4795 35.7594 17.5391 35.794C17.5986 35.8285 17.6506 35.8744 17.6923 35.9292C17.734 35.9839 17.7644 36.0464 17.7819 36.1129C17.7993 36.1795 17.8034 36.2488 17.7939 36.3169C17.7844 36.3851 17.7616 36.4507 17.7267 36.51C17.6901 36.5729 17.7 36.59 17.7109 36.6135C17.7611 36.6719 17.8239 36.7182 17.8946 36.7488C17.9654 36.7793 18.0421 36.7934 18.1191 36.7898C18.1826 36.7911 18.2452 36.7739 18.299 36.7401C18.3529 36.7064 18.3957 36.6576 18.4222 36.5999C18.4297 36.588 18.4357 36.5753 18.44 36.562C18.5288 36.3805 18.5645 36.1777 18.5431 35.9768C18.5216 35.7759 18.4439 35.5852 18.3189 35.4265C18.2957 35.3972 18.2757 35.3694 18.2538 35.3446C18.0477 35.0949 17.7756 34.908 17.4685 34.8052C17.1615 34.7024 16.8317 34.6878 16.5168 34.763C15.8453 34.9644 15.4021 35.7005 15.2759 36.833C15.0297 39.0178 16.5669 40.5046 17.5058 41.1939C18.3146 41.8035 19.2412 42.2382 20.227 42.4705C20.4851 42.5482 20.7585 42.5604 21.0225 42.506C21.0851 42.4785 21.1525 42.4636 21.2208 42.4622C21.2891 42.4607 21.357 42.4729 21.4207 42.4978C21.4843 42.5227 21.5423 42.56 21.5915 42.6075C21.6407 42.655 21.68 42.7117 21.7071 42.7744C21.7412 42.8493 21.7568 42.9313 21.7525 43.0135C21.7482 43.0957 21.7242 43.1756 21.6826 43.2466C21.6283 43.3423 21.5439 43.4174 21.4425 43.46C21.309 43.5174 21.1667 43.5518 21.0217 43.5617C19.9959 43.674 18.2781 43.0596 16.8881 42.0322C14.9558 40.6097 14.0164 38.7222 14.2392 36.717C14.4793 34.5896 15.5827 33.9507 16.2174 33.7642C16.8976 33.5776 17.6238 33.6667 18.2386 34.0123Z" fill="#F1701F"/>
<g style="mix-blend-mode:multiply" opacity="0.5">
<path d="M21.7056 42.7736C21.7397 42.8485 21.7553 42.9305 21.751 43.0127C21.7467 43.0949 21.7228 43.1748 21.6811 43.2458C21.6268 43.3415 21.5424 43.4166 21.441 43.4592C21.3075 43.5166 21.1652 43.5509 21.0203 43.5609C20.7213 43.2233 20.4555 42.8577 20.2266 42.4692C20.4847 42.5469 20.7581 42.5591 21.0221 42.5047C21.0846 42.4773 21.152 42.4626 21.2202 42.4613C21.2884 42.46 21.3562 42.4722 21.4197 42.4972C21.4832 42.5222 21.5412 42.5594 21.5902 42.6069C21.6393 42.6543 21.6785 42.711 21.7056 42.7736Z" fill="#F1701F"/>
</g>
<g style="mix-blend-mode:multiply" opacity="0.5">
<path d="M18.2383 34.0122C18.5519 34.1785 18.8305 34.4038 19.0587 34.6757C19.344 34.9997 19.5246 35.4025 19.5766 35.831C19.6287 36.2596 19.5499 36.6939 19.3505 37.0768C19.1994 37.3835 18.9366 37.6208 18.6161 37.74C18.5494 37.3356 18.4899 36.9397 18.44 36.5606C18.5287 36.3791 18.5644 36.1763 18.543 35.9754C18.5216 35.7745 18.4439 35.5838 18.3189 35.4251C18.2711 34.8625 18.2498 34.3806 18.2383 34.0122Z" fill="#F1701F"/>
</g>
<path d="M30.1948 34.005C29.8762 34.1623 29.591 34.3797 29.355 34.6453C29.0602 34.9605 28.8677 35.3575 28.8027 35.7842C28.7378 36.2108 28.8034 36.6471 28.991 37.0358C29.0973 37.2612 29.2625 37.4537 29.4691 37.5931C29.6757 37.7324 29.9161 37.8134 30.1649 37.8276C30.4277 37.8449 30.6906 37.7945 30.9283 37.6811C31.1661 37.5678 31.3708 37.3954 31.5229 37.1803C31.6327 37.0078 31.6931 36.8085 31.6975 36.604C31.7019 36.3995 31.6502 36.1977 31.5479 36.0206C31.4822 35.8989 31.3708 35.8083 31.2382 35.7688C31.1056 35.7292 30.9628 35.744 30.8411 35.8097C30.7194 35.8755 30.6288 35.9869 30.5893 36.1195C30.5497 36.252 30.5644 36.3949 30.6302 36.5166C30.6649 36.5809 30.6545 36.5982 30.6427 36.6204C30.5908 36.6773 30.5267 36.7217 30.4551 36.7501C30.3835 36.7786 30.3063 36.7903 30.2295 36.7844C30.1659 36.7839 30.1039 36.7647 30.0511 36.7294C29.9983 36.694 29.957 36.644 29.9323 36.5854C29.9251 36.5734 29.9194 36.5605 29.9155 36.547C29.8322 36.3629 29.8026 36.1591 29.83 35.9589C29.8574 35.7588 29.9408 35.5704 30.0705 35.4155C30.0945 35.3867 30.1153 35.3598 30.138 35.3355C30.3515 35.0921 30.6291 34.9136 30.9391 34.82C31.249 34.7265 31.579 34.7218 31.8916 34.8065C32.5569 35.0279 32.9774 35.7768 33.0697 36.9128C33.2503 39.1039 31.6691 40.5437 30.71 41.2046C29.8834 41.7896 28.9443 42.1963 27.9522 42.399C27.6919 42.4688 27.4183 42.4728 27.1561 42.4105C27.0944 42.381 27.0275 42.3641 26.9593 42.3607C26.891 42.3572 26.8228 42.3673 26.7584 42.3903C26.6941 42.4133 26.6349 42.4488 26.5844 42.4947C26.5338 42.5407 26.4928 42.5962 26.4638 42.658C26.4275 42.7319 26.4094 42.8134 26.4113 42.8957C26.4131 42.978 26.4347 43.0586 26.4742 43.1308C26.5255 43.2285 26.6079 43.3063 26.7084 43.3519C26.8402 43.4133 26.9813 43.4519 27.1259 43.4661C28.148 43.6091 29.8834 43.0465 31.3036 42.0612C33.2778 40.6974 34.2734 38.839 34.111 36.8279C33.9338 34.6936 32.8512 34.0227 32.2224 33.8172C31.5482 33.6104 30.8196 33.6779 30.1948 34.005Z" fill="#F1701F"/>
<g style="mix-blend-mode:multiply" opacity="0.5">
<path d="M26.4657 42.658C26.4294 42.7318 26.4114 42.8133 26.4132 42.8956C26.415 42.9779 26.4366 43.0585 26.4761 43.1307C26.5275 43.2284 26.6099 43.3062 26.7104 43.3519C26.8421 43.4132 26.9833 43.4518 27.1279 43.4661C27.4372 43.1377 27.7141 42.7804 27.9549 42.3989C27.6946 42.4688 27.421 42.4727 27.1588 42.4104C27.0971 42.3809 27.0302 42.3638 26.9618 42.3603C26.8935 42.3568 26.8251 42.3668 26.7607 42.3898C26.6963 42.4128 26.637 42.4484 26.5864 42.4944C26.5358 42.5404 26.4948 42.596 26.4657 42.658Z" fill="#F1701F"/>
</g>
<g style="mix-blend-mode:multiply" opacity="0.5">
<path d="M30.1947 34.0049C29.8761 34.1621 29.5909 34.3796 29.3549 34.6452C29.0601 34.9604 28.8676 35.3574 28.8027 35.784C28.7377 36.2107 28.8034 36.647 28.991 37.0356C29.1328 37.3465 29.3881 37.5914 29.7047 37.7202C29.7847 37.3179 29.8551 36.9235 29.9162 36.5463C29.833 36.3622 29.8034 36.1584 29.8309 35.9582C29.8583 35.7581 29.9417 35.5697 30.0715 35.4149C30.1363 34.8546 30.1721 34.3728 30.1947 34.0049Z" fill="#F1701F"/>
</g>
<path d="M29.5732 33.2516C29.5732 33.2516 29.5764 33.6272 29.5443 34.2438C29.4192 36.6838 28.7469 42.9227 25.169 44.6947L24.9948 44.8427C24.7732 45.0281 24.4909 45.125 24.2022 45.1146L24.0248 45.1082C23.7741 45.0986 23.5332 45.0082 23.3381 44.8505L23.1334 44.6835C19.6233 42.8912 18.9945 36.7817 18.8854 34.2739C18.8571 33.6022 18.864 33.1884 18.864 33.1884C18.867 32.587 19.5715 32.4331 19.5715 32.4331L28.8696 32.4883C28.8696 32.4883 29.5764 32.6503 29.5732 33.2516Z" fill="#FFD074"/>
<path d="M29.0245 34.0463L19.4007 33.9917C19.117 33.9891 18.8458 33.8744 18.6463 33.6727C18.4468 33.4709 18.3352 33.1984 18.3359 32.9146C18.3383 32.6308 18.453 32.3595 18.6548 32.16C18.8566 31.9604 19.1292 31.8488 19.413 31.8496L29.0365 31.9046C29.3205 31.9068 29.592 32.0213 29.7917 32.2231C29.9914 32.4249 30.1031 32.6976 30.1023 32.9816C30.0999 33.2655 29.9851 33.5369 29.7831 33.7364C29.5812 33.9359 29.3084 34.0473 29.0245 34.0463Z" fill="#F8BD36"/>
<g style="mix-blend-mode:multiply" opacity="0.4">
<path d="M29.5726 33.2515C29.5726 33.2515 29.5758 33.6271 29.5438 34.2437C29.3684 34.3651 29.1598 34.4293 28.9465 34.4278L19.3234 34.3725C19.1722 34.3712 19.023 34.338 18.8854 34.2752C18.8571 33.6034 18.864 33.1896 18.864 33.1896C18.867 32.5883 19.5716 32.4343 19.5716 32.4343L28.8696 32.4896C28.8696 32.4896 29.5758 32.6502 29.5726 33.2515Z" fill="#FFD454"/>
</g>
<path d="M29.0245 34.0463L19.4007 33.9917C19.117 33.9891 18.8458 33.8744 18.6463 33.6727C18.4468 33.4709 18.3352 33.1984 18.3359 32.9146C18.3383 32.6308 18.453 32.3595 18.6548 32.16C18.8566 31.9604 19.1292 31.8488 19.413 31.8496L29.0365 31.9046C29.3205 31.9068 29.592 32.0213 29.7917 32.2231C29.9914 32.4249 30.1031 32.6976 30.1023 32.9816C30.0999 33.2655 29.9851 33.5369 29.7831 33.7364C29.5812 33.9359 29.3084 34.0473 29.0245 34.0463Z" fill="#FFB127"/>
<path d="M29.0245 34.0463L19.4007 33.9917C19.117 33.9891 18.8458 33.8744 18.6463 33.6727C18.4468 33.4709 18.3352 33.1984 18.3359 32.9146C18.3383 32.6308 18.453 32.3595 18.6548 32.16C18.8566 31.9604 19.1292 31.8488 19.413 31.8496L29.0365 31.9046C29.3205 31.9068 29.592 32.0213 29.7917 32.2231C29.9914 32.4249 30.1031 32.6976 30.1023 32.9816C30.0999 33.2655 29.9851 33.5369 29.7831 33.7364C29.5812 33.9359 29.3084 34.0473 29.0245 34.0463Z" fill="#F1701F"/>
<path d="M21.5458 49.5292L26.9775 49.5602C27.4478 49.5628 27.8978 49.7523 28.2284 50.0867C28.5591 50.4212 28.7434 50.8733 28.7407 51.3436L28.7235 54.3473L19.7452 54.2961L19.7623 51.2924C19.765 50.822 19.9544 50.3721 20.2889 50.0414C20.6233 49.7107 21.0755 49.5265 21.5458 49.5292V49.5292Z" fill="#FFD074"/>
<path d="M29.0512 53.5815L19.4272 53.5267C19.2716 53.5259 19.1448 53.6513 19.1439 53.8069L19.1427 54.011C19.1419 54.1666 19.2673 54.2934 19.4229 54.2943L29.0468 54.349C29.2024 54.3499 29.3292 54.2245 29.3301 54.0689L29.3313 53.8648C29.3322 53.7092 29.2068 53.5824 29.0512 53.5815Z" fill="#FFB127"/>
<g style="mix-blend-mode:multiply" opacity="0.5">
<path d="M29.0512 53.5815L19.4272 53.5267C19.2716 53.5259 19.1448 53.6513 19.1439 53.8069L19.1427 54.011C19.1419 54.1666 19.2673 54.2934 19.4229 54.2943L29.0468 54.349C29.2024 54.3499 29.3292 54.2245 29.3301 54.0689L29.3313 53.8648C29.3322 53.7092 29.2068 53.5824 29.0512 53.5815Z" fill="#F1701F"/>
</g>
<path d="M26.2199 50.5897L22.2931 50.5673C21.8281 50.5647 21.449 50.9395 21.4464 51.4045L21.4429 52.0141C21.4402 52.4791 21.815 52.8582 22.2801 52.8608L26.2068 52.8833C26.6718 52.8859 27.051 52.5111 27.0536 52.0461L27.0571 51.4365C27.0597 50.9715 26.6849 50.5924 26.2199 50.5897Z" fill="#FBB035"/>
<path d="M26.3063 49.0069L22.2173 48.9836C22.1059 48.9829 22.0151 49.0727 22.0145 49.1841L22.0136 49.33C22.013 49.4414 22.1028 49.5322 22.2142 49.5329L26.3032 49.5562C26.4146 49.5569 26.5054 49.4671 26.506 49.3557L26.5068 49.2097C26.5075 49.0984 26.4177 49.0075 26.3063 49.0069Z" fill="#FFB127"/>
<g style="mix-blend-mode:multiply" opacity="0.5">
<path d="M26.3063 49.0069L22.2173 48.9836C22.1059 48.9829 22.0151 49.0727 22.0145 49.1841L22.0136 49.33C22.013 49.4414 22.1028 49.5322 22.2142 49.5329L26.3032 49.5562C26.4146 49.5569 26.5054 49.4671 26.506 49.3557L26.5068 49.2097C26.5075 49.0984 26.4177 49.0075 26.3063 49.0069Z" fill="#F1701F"/>
</g>
<g style="mix-blend-mode:screen" opacity="0.5">
<path d="M21.1926 35.4291C21.0325 37.2944 20.9837 41.4521 23.2669 44.1197C23.292 44.1477 23.3056 44.1842 23.3048 44.2219C23.3041 44.2595 23.2891 44.2954 23.263 44.3225C23.2368 44.3495 23.2014 44.3657 23.1638 44.3676C23.1262 44.3696 23.0893 44.3573 23.0604 44.3331C21.8017 43.3244 20.1015 41.359 19.6127 37.8929C19.5137 37.0282 19.4896 36.1567 19.5407 35.2879C19.5574 35.0903 19.6446 34.9053 19.7864 34.7666C19.9282 34.6279 20.1151 34.5448 20.313 34.5324C20.4321 34.5244 20.5515 34.5422 20.663 34.5847C20.7745 34.6271 20.8755 34.6932 20.9591 34.7784C21.0426 34.8636 21.1068 34.9658 21.1471 35.0782C21.1874 35.1905 21.2029 35.3102 21.1926 35.4291Z" fill="#FFD454"/>
</g>
<g style="mix-blend-mode:multiply" opacity="0.4">
<path d="M26.9178 35.3552C26.9781 37.2265 26.8074 41.3809 24.386 43.9237C24.3603 43.9505 24.3456 43.986 24.3448 44.0231C24.3439 44.0602 24.357 44.0963 24.3813 44.1243C24.4057 44.1523 24.4397 44.1702 24.4766 44.1744C24.5135 44.1787 24.5507 44.169 24.5808 44.1472C25.8912 43.2065 27.6931 41.3339 28.3651 37.8985C28.5097 37.0404 28.5799 36.1713 28.5748 35.3011C28.5686 35.1029 28.4914 34.9135 28.3572 34.7674C28.223 34.6214 28.0408 34.5284 27.8438 34.5055C27.7253 34.4912 27.605 34.5026 27.4913 34.5392C27.3776 34.5757 27.2732 34.6364 27.1852 34.7172C27.0972 34.7979 27.0277 34.8968 26.9816 35.0069C26.9354 35.1171 26.9137 35.2359 26.9178 35.3552Z" fill="#FFD454"/>
</g>
<path d="M22.8132 51.5171L23.2497 51.5972L22.9215 51.8954L22.981 52.3348L22.596 52.1147L22.1959 52.3074L22.286 51.873L21.9795 51.5529L22.4202 51.5046L22.6302 51.114L22.8132 51.5171Z" fill="#FFD074"/>
<path d="M24.446 51.5171L24.8825 51.5972L24.5543 51.8954L24.6138 52.3348L24.2288 52.1147L23.8287 52.3074L23.9188 51.873L23.6123 51.5529L24.053 51.5046L24.263 51.114L24.446 51.5171Z" fill="#FFD074"/>
<path d="M26.0798 51.5171L26.5163 51.5972L26.1881 51.8954L26.2476 52.3348L25.8626 52.1147L25.4625 52.3074L25.5526 51.873L25.2461 51.5529L25.6868 51.5046L25.8968 51.114L26.0798 51.5171Z" fill="#FFD074"/>
<path d="M11.0167 38.5411C10.8195 39.4644 10.7232 40.4545 11.0756 41.3309C11.4673 42.3076 12.3734 43.0076 13.3578 43.3803C14.3591 43.71 15.4051 43.884 16.4592 43.8963C17.1883 43.9363 17.9484 43.959 18.6167 43.6647C18.7669 43.6145 18.8917 43.508 18.9648 43.3675C19.0222 43.2219 18.9315 43.0162 18.7749 43.0175C19.1196 42.8307 19.4685 42.5666 19.5486 42.1827C19.6286 41.7988 19.2519 41.3399 18.8878 41.4853C19.0625 41.4416 19.0625 41.1652 18.9256 41.0494C18.7733 40.952 18.595 40.9029 18.4142 40.9088C17.2249 40.7954 15.6853 40.2496 14.8777 39.3694C12.8538 37.1636 13.6262 35.3676 14.6456 32.2937C12.8538 34.1087 11.5569 36.0095 11.0167 38.5411Z" fill="#334350"/>
<path d="M36.2289 38.7939C36.3767 39.7276 36.4191 40.7204 36.0216 41.5767C35.5782 42.5313 34.6362 43.182 33.6336 43.5016C32.631 43.8212 31.5615 43.85 30.509 43.8514C29.7788 43.8514 29.0187 43.8346 28.3667 43.5046C28.2194 43.4464 28.1005 43.3333 28.035 43.1892C27.9854 43.0406 28.0884 42.84 28.2437 42.8496C27.9092 42.6452 27.5746 42.3624 27.5164 41.9748C27.4583 41.5872 27.8577 41.1477 28.2133 41.3137C28.0412 41.2603 28.0558 40.9855 28.1986 40.8764C28.356 40.7872 28.5367 40.7478 28.717 40.7633C29.9103 40.7132 31.4782 40.2516 32.3301 39.4147C34.9179 36.8733 33.6811 34.9799 32.8274 32.4155C34.5188 34.3239 35.8234 36.237 36.2289 38.7939Z" fill="#334350"/>
<path d="M43.7656 38.8096C43.7656 38.8096 44.5017 40.6747 44.2565 41.8528C44.2565 41.8528 45.2081 41.4382 45.3621 40.6747C45.32 39.7297 45.1119 38.7995 44.7471 37.9268L43.7656 38.8096Z" fill="#E8B331"/>
<path d="M42.6699 37.0438C42.6699 37.0438 44.5022 37.6329 44.7477 39.2691C44.7477 39.2691 45.3879 38.9418 45.3613 37.9765C45.3613 37.9765 45.0251 36.8312 43.5036 36.3403C43.5044 36.3403 43.1117 36.3566 42.6699 37.0438Z" fill="#FFCB39"/>
<path d="M44.7471 39.2689C44.7471 39.2689 44.0268 39.2199 43.7656 38.8109L44.3259 38.2405C44.5407 38.5479 44.6846 38.8992 44.7471 39.2689Z" fill="#BF8E22"/>
<path d="M45.8955 17.8893C45.8955 17.8893 47.8041 17.7802 48.7643 18.0422C48.7775 17.6865 48.7165 17.332 48.585 17.0012C48.4534 16.6705 48.2544 16.3708 48.0005 16.1213C48.0005 16.1213 46.2773 17.1477 45.8955 17.8893Z" fill="#FDA046"/>
<path d="M48.6797 26.1773C48.6797 26.1773 47.2943 25.6971 46.4219 26.0247C46.4219 26.0247 46.7153 25.1849 47.2564 24.9885C47.2564 24.9885 48.5927 24.8685 49.3998 25.414C49.2416 25.7349 48.9908 26.0008 48.6797 26.1773Z" fill="#234080"/>
<path d="M46.4219 26.0238C46.6306 26.2201 46.883 26.3641 47.1582 26.4437L47.2729 25.9123C47.2729 25.9123 46.659 25.8653 46.4219 26.0238Z" fill="#0D344C"/>
<path d="M47.1582 26.4437C46.3821 26.3673 45.5993 26.49 44.8838 26.8001C45.0053 26.3491 45.2293 25.9322 45.5382 25.5819C45.917 25.4688 46.3141 25.4303 46.7075 25.4688C46.7075 25.4688 46.5445 25.8082 46.4218 26.0237C46.4218 26.0237 46.9044 26.3047 47.1582 26.4437Z" fill="#1A3A72"/>
<path d="M28.5545 3.70862C28.5545 3.70862 29.449 1.28725 30.4308 0.545314C29.8778 0.243723 29.2692 0.0581656 28.642 0C28.642 0 27.9873 1.85417 28.5545 3.70862Z" fill="#EA543B"/>
<path d="M35.9561 3.7086C35.9561 3.7086 36.9813 2.50806 38.0285 2.50806C38.2249 2.88051 38.3437 3.28892 38.3777 3.7086C37.5783 3.5501 36.7555 3.5501 35.9561 3.7086Z" fill="#CCCCCC"/>
<path d="M1.80509 22.8127C1.47542 22.7018 1.12287 22.6769 0.780889 22.7404C0.610627 22.7743 0.452007 22.8516 0.320387 22.9648C0.188768 23.078 0.0886104 23.2233 0.0296143 23.3866C-0.0210173 23.5523 -0.00633351 23.7311 0.0706566 23.8863C0.147647 24.0415 0.281109 24.1614 0.443669 24.2213C0.781689 24.3139 1.11064 24.0823 1.41744 23.9113C1.98863 23.5912 2.54462 23.5626 3.17317 23.5077C2.88157 23.1537 2.23435 22.9365 1.80509 22.8127Z" fill="#CCCCCC"/>
<path d="M6.6748 3.96854C6.96054 4.3073 7.18898 4.69047 7.35111 5.10292L8.50737 4.42662C8.50737 4.42662 8.37637 3.44511 7.59095 3.22607L6.6748 3.96854Z" fill="#234080"/>
<path d="M2.38537 35.0232C2.38537 35.0232 3.65501 33.9848 4.63386 33.8827C4.63386 33.8827 4.0736 33.2448 3.44052 33.3147C2.71453 33.5828 2.04146 33.9767 1.45215 34.4784L2.38537 35.0232Z" fill="#EA543B"/>
<path d="M1.28147 36.3174C1.28147 36.3174 1.28387 34.7434 2.49748 34.1442C2.33758 34.0133 2.14447 33.9293 1.93966 33.9016C1.73485 33.874 1.52639 33.9037 1.33749 33.9876C1.33749 33.9876 0.528859 34.5348 0.525391 35.8423C0.525924 35.842 0.635841 36.1446 1.28147 36.3174Z" fill="#EA543B"/>
<path d="M2.49807 34.144C2.49807 34.144 2.6392 34.7171 2.38575 35.0228L1.80176 34.7294C1.98765 34.4851 2.22548 34.2852 2.49807 34.144Z" fill="#D63F2B"/>
</svg>
