<svg width="20" height="21" viewBox="0 0 20 21" fill="none" xmlns="http://www.w3.org/2000/svg">
<mask id="mask0_1787_153" style="mask-type:alpha" maskUnits="userSpaceOnUse" x="0" y="0" width="20" height="21">
<rect y="0.5" width="20" height="20" fill="#D9D9D9"/>
</mask>
<g mask="url(#mask0_1787_153)">
<path d="M10.0001 14.6667C10.2362 14.6667 10.4341 14.5868 10.5938 14.4271C10.7536 14.2674 10.8334 14.0694 10.8334 13.8333C10.8334 13.5972 10.7536 13.3993 10.5938 13.2396C10.4341 13.0799 10.2362 13 10.0001 13C9.76397 13 9.56605 13.0799 9.40633 13.2396C9.24661 13.3993 9.16675 13.5972 9.16675 13.8333C9.16675 14.0694 9.24661 14.2674 9.40633 14.4271C9.56605 14.5868 9.76397 14.6667 10.0001 14.6667ZM9.16675 11.3333H10.8334V6.33332H9.16675V11.3333ZM10.0001 18.8333C8.8473 18.8333 7.76397 18.6146 6.75008 18.1771C5.73619 17.7396 4.85425 17.1458 4.10425 16.3958C3.35425 15.6458 2.7605 14.7639 2.323 13.75C1.8855 12.7361 1.66675 11.6528 1.66675 10.5C1.66675 9.34721 1.8855 8.26388 2.323 7.24999C2.7605 6.2361 3.35425 5.35416 4.10425 4.60416C4.85425 3.85416 5.73619 3.26041 6.75008 2.82291C7.76397 2.38541 8.8473 2.16666 10.0001 2.16666C11.1529 2.16666 12.2362 2.38541 13.2501 2.82291C14.264 3.26041 15.1459 3.85416 15.8959 4.60416C16.6459 5.35416 17.2397 6.2361 17.6772 7.24999C18.1147 8.26388 18.3334 9.34721 18.3334 10.5C18.3334 11.6528 18.1147 12.7361 17.6772 13.75C17.2397 14.7639 16.6459 15.6458 15.8959 16.3958C15.1459 17.1458 14.264 17.7396 13.2501 18.1771C12.2362 18.6146 11.1529 18.8333 10.0001 18.8333ZM10.0001 17.1667C11.8612 17.1667 13.4376 16.5208 14.7292 15.2292C16.0209 13.9375 16.6667 12.3611 16.6667 10.5C16.6667 8.63888 16.0209 7.06249 14.7292 5.77082C13.4376 4.47916 11.8612 3.83332 10.0001 3.83332C8.13897 3.83332 6.56258 4.47916 5.27091 5.77082C3.97925 7.06249 3.33341 8.63888 3.33341 10.5C3.33341 12.3611 3.97925 13.9375 5.27091 15.2292C6.56258 16.5208 8.13897 17.1667 10.0001 17.1667Z" fill="#663B00"/>
</g>
</svg>
