<svg width="16" height="16" viewBox="0 0 16 16" fill="none" xmlns="http://www.w3.org/2000/svg">
<g id="Icons">
<path id="Vector" d="M8.00005 14.7C6.67492 14.7 5.37954 14.3071 4.27773 13.5709C3.17592 12.8346 2.31717 11.7882 1.81006 10.564C1.30295 9.33972 1.17027 7.99257 1.42879 6.6929C1.68731 5.39323 2.32542 4.1994 3.26244 3.26239C4.19945 2.32538 5.39327 1.68727 6.69295 1.42874C7.99262 1.17022 9.33977 1.30291 10.564 1.81001C11.7883 2.31712 12.8347 3.17588 13.5709 4.27769C14.3071 5.3795 14.7001 6.67487 14.7001 8.00001C14.6974 9.77614 13.9907 11.4788 12.7347 12.7347C11.4788 13.9906 9.77619 14.6974 8.00005 14.7ZM8.00005 2.70001C6.95181 2.70001 5.92711 3.01085 5.05553 3.59322C4.18395 4.17559 3.50463 5.00334 3.10349 5.97178C2.70235 6.94023 2.59739 8.00589 2.80189 9.03398C3.00639 10.0621 3.51117 11.0065 4.25239 11.7477C4.9936 12.4889 5.93797 12.9937 6.96607 13.1982C7.99417 13.4027 9.05982 13.2977 10.0283 12.8966C10.9967 12.4954 11.8245 11.8161 12.4068 10.9445C12.9892 10.0729 13.3001 9.04825 13.3001 8.00001C13.2974 6.59517 12.7382 5.24863 11.7448 4.25526C10.7514 3.26189 9.40489 2.70265 8.00005 2.70001Z" fill="#E22D4C"/>
<path id="Vector_2" d="M8.00005 9.2C7.8144 9.2 7.63635 9.12625 7.50507 8.99498C7.3738 8.8637 7.30005 8.68565 7.30005 8.5V5C7.30005 4.81435 7.3738 4.6363 7.50507 4.50503C7.63635 4.37375 7.8144 4.3 8.00005 4.3C8.1857 4.3 8.36375 4.37375 8.49502 4.50503C8.6263 4.6363 8.70005 4.81435 8.70005 5V8.5C8.70005 8.68565 8.6263 8.8637 8.49502 8.99498C8.36375 9.12625 8.1857 9.2 8.00005 9.2Z" fill="#E22D4C"/>
<path id="Vector_3" d="M8 11.5C8.41421 11.5 8.75 11.1642 8.75 10.75C8.75 10.3358 8.41421 10 8 10C7.58579 10 7.25 10.3358 7.25 10.75C7.25 11.1642 7.58579 11.5 8 11.5Z" fill="#E22D4C"/>
</g>
</svg>
