<svg width="22" height="22" viewBox="0 0 22 22" fill="none" xmlns="http://www.w3.org/2000/svg">
<path d="M10.9998 8.24997V11.9166M10.9998 15.5833H11.0089M9.73048 3.56738L2.191 16.5901C1.77281 17.3124 1.56372 17.6736 1.59462 17.97C1.62158 18.2286 1.75703 18.4635 1.96728 18.6164C2.20832 18.7916 2.62565 18.7916 3.46029 18.7916H18.5392C19.3739 18.7916 19.7912 18.7916 20.0323 18.6164C20.2425 18.4635 20.378 18.2286 20.4049 17.97C20.4358 17.6736 20.2267 17.3124 19.8085 16.5901L12.2691 3.56738C11.8524 2.84764 11.644 2.48778 11.3722 2.36691C11.1351 2.26148 10.8644 2.26148 10.6273 2.36691C10.3555 2.48778 10.1472 2.84765 9.73048 3.56738Z" stroke="#A42137" stroke-width="2" stroke-linecap="round" stroke-linejoin="round"/>
</svg>
