<svg width="16" height="16" viewBox="0 0 16 16" fill="none" xmlns="http://www.w3.org/2000/svg">
<path d="M8 6.00003V8.6667M8 11.3334H8.00667M7.07688 2.59451L1.59362 12.0656C1.28948 12.5909 1.13742 12.8536 1.15989 13.0692C1.1795 13.2572 1.27801 13.4281 1.43091 13.5392C1.60622 13.6667 1.90973 13.6667 2.51674 13.6667H13.4833C14.0903 13.6667 14.3938 13.6667 14.5691 13.5392C14.722 13.4281 14.8205 13.2572 14.8401 13.0692C14.8626 12.8536 14.7105 12.5909 14.4064 12.0656L8.92312 2.59451C8.62007 2.07107 8.46855 1.80935 8.27087 1.72145C8.09843 1.64477 7.90157 1.64477 7.72913 1.72145C7.53145 1.80935 7.37992 2.07107 7.07688 2.59451Z" stroke="#E95D75" stroke-width="1.5" stroke-linecap="round" stroke-linejoin="round"/>
</svg>
