<svg width="22" height="22" viewBox="0 0 22 22" fill="none" xmlns="http://www.w3.org/2000/svg">
<path d="M14.7583 7.71452V15.7645C14.7583 16.1204 14.6169 16.4616 14.3653 16.7132C14.1137 16.9648 13.7724 17.1062 13.4166 17.1062H4.02494C3.58447 17.1062 3.14831 17.0194 2.74136 16.8509C2.33441 16.6823 1.96465 16.4352 1.65319 16.1238C1.02416 15.4947 0.670776 14.6416 0.670776 13.752V5.70202C0.670776 5.34619 0.81213 5.00493 1.06374 4.75332C1.31535 4.50171 1.65661 4.36035 2.01244 4.36035H11.4041C12.2937 4.36035 13.1468 4.71374 13.7759 5.34276C14.4049 5.97179 14.7583 6.82494 14.7583 7.71452ZM20.4604 6.12967C20.3593 6.06822 20.2432 6.03572 20.1249 6.03572C20.0066 6.03572 19.8906 6.06822 19.7895 6.12967L16.4354 8.04155C16.3325 8.10093 16.2472 8.18657 16.1883 8.2897C16.1294 8.39283 16.0989 8.50975 16.0999 8.62853V12.838C16.0989 12.9568 16.1294 13.0737 16.1883 13.1768C16.2472 13.28 16.3325 13.3656 16.4354 13.425L19.7895 15.3369C19.8917 15.3955 20.0071 15.4272 20.1249 15.4291C20.2429 15.4284 20.3586 15.3966 20.4604 15.3369C20.5632 15.2795 20.6486 15.1955 20.7076 15.0937C20.7666 14.9918 20.7971 14.876 20.7958 14.7583V6.70827C20.7971 6.59057 20.7666 6.47469 20.7076 6.37286C20.6486 6.27103 20.5632 6.18701 20.4604 6.12967Z" fill="white"/>
<rect x="13.35" y="11.35" width="8.3" height="8.3" rx="0.65" fill="#C95040" stroke="white" stroke-width="0.7"/>
<path fill-rule="evenodd" clip-rule="evenodd" d="M19.6853 13.3148C19.8049 13.4344 19.8049 13.6283 19.6853 13.7479L15.7478 17.6854C15.6282 17.805 15.4343 17.805 15.3147 17.6854C15.1951 17.5658 15.1951 17.3719 15.3147 17.2523L19.2522 13.3148C19.3718 13.1952 19.5657 13.1952 19.6853 13.3148Z" fill="white"/>
<path fill-rule="evenodd" clip-rule="evenodd" d="M15.3147 13.3148C15.4343 13.1952 15.6282 13.1952 15.7478 13.3148L19.6853 17.2523C19.8049 17.3719 19.8049 17.5658 19.6853 17.6854C19.5657 17.805 19.3718 17.805 19.2522 17.6854L15.3147 13.7479C15.1951 13.6283 15.1951 13.4344 15.3147 13.3148Z" fill="white"/>
</svg>
