<svg xmlns="http://www.w3.org/2000/svg" width="28" height="29" viewBox="0 0 28 29" fill="none">
  <path
    d="M26.2375 11.35C25.7625 10.8625 25.275 10.35 25.0875 9.9125C24.9 9.475 24.9125 8.825 24.9 8.1625C24.8875 6.95 24.8625 5.5625 23.9 4.6C22.9375 3.6375 21.55 3.6125 20.3375 3.6C19.675 3.5875 19 3.575 18.5875 3.4125C18.175 3.25 17.6375 2.7375 17.15 2.2625C16.2875 1.4375 15.3 0.5 14 0.5C12.7 0.5 11.7125 1.4375 10.85 2.2625C10.3625 2.7375 9.85 3.225 9.4125 3.4125C8.975 3.6 8.325 3.5875 7.6625 3.6C6.45 3.6125 5.0625 3.6375 4.1 4.6C3.1375 5.5625 3.1125 6.95 3.1 8.1625C3.0875 8.825 3.075 9.5 2.9125 9.9125C2.75 10.325 2.2375 10.8625 1.7625 11.35C0.9375 12.2125 0 13.2 0 14.5C0 15.8 0.9375 16.7875 1.7625 17.65C2.2375 18.1375 2.725 18.65 2.9125 19.0875C3.1 19.525 3.0875 20.175 3.1 20.8375C3.1125 22.05 3.1375 23.4375 4.1 24.4C5.0625 25.3625 6.45 25.3875 7.6625 25.4C8.325 25.4125 9 25.425 9.4125 25.5875C9.825 25.75 10.3625 26.2625 10.85 26.7375C11.7125 27.5625 12.7 28.5 14 28.5C15.3 28.5 16.2875 27.5625 17.15 26.7375C17.6375 26.2625 18.15 25.775 18.5875 25.5875C19.025 25.4 19.675 25.4125 20.3375 25.4C21.55 25.3875 22.9375 25.3625 23.9 24.4C24.8625 23.4375 24.8875 22.05 24.9 20.8375C24.9125 20.175 24.925 19.5 25.0875 19.0875C25.25 18.675 25.7625 18.1375 26.2375 17.65C27.0625 16.7875 28 15.8 28 14.5C28 13.2 27.0625 12.2125 26.2375 11.35ZM13 8.5C13 8.23478 13.1054 7.98043 13.2929 7.79289C13.4804 7.60536 13.7348 7.5 14 7.5C14.2652 7.5 14.5196 7.60536 14.7071 7.79289C14.8946 7.98043 15 8.23478 15 8.5V15.5C15 15.7652 14.8946 16.0196 14.7071 16.2071C14.5196 16.3946 14.2652 16.5 14 16.5C13.7348 16.5 13.4804 16.3946 13.2929 16.2071C13.1054 16.0196 13 15.7652 13 15.5V8.5ZM14 21.5C13.7033 21.5 13.4133 21.412 13.1666 21.2472C12.92 21.0824 12.7277 20.8481 12.6142 20.574C12.5006 20.2999 12.4709 19.9983 12.5288 19.7074C12.5867 19.4164 12.7296 19.1491 12.9393 18.9393C13.1491 18.7296 13.4164 18.5867 13.7074 18.5288C13.9983 18.4709 14.2999 18.5007 14.574 18.6142C14.8481 18.7277 15.0824 18.92 15.2472 19.1666C15.412 19.4133 15.5 19.7033 15.5 20C15.5 20.3978 15.342 20.7794 15.0607 21.0607C14.7794 21.342 14.3978 21.5 14 21.5Z"
    fill="#91A1B7" />
</svg>
