<svg width="80" height="81" viewBox="0 0 80 81" fill="none" xmlns="http://www.w3.org/2000/svg">
<g id="sync_saved_locally_24dp_E8EAED_FILL0_wght300_GRAD0_opsz24 1">
<path id="Vector" d="M36.4166 46.9166L54.1474 29.2691L50.5832 25.705L36.4166 39.8716L29.3332 32.7883L25.8207 36.3016L36.4166 46.9166ZM4.61572 67.9358V62.9358H75.3841V67.9358H4.61572ZM14.3591 59.6025C12.6752 59.6025 11.2499 59.0191 10.0832 57.8525C8.91656 56.6858 8.33322 55.2605 8.33322 53.5766V18.9616C8.33322 17.2777 8.91656 15.8525 10.0832 14.6858C11.2499 13.5191 12.6752 12.9358 14.3591 12.9358H65.6407C67.3246 12.9358 68.7499 13.5191 69.9166 14.6858C71.0832 15.8525 71.6666 17.2777 71.6666 18.9616V53.5766C71.6666 55.2605 71.0832 56.6858 69.9166 57.8525C68.7499 59.0191 67.3246 59.6025 65.6407 59.6025H14.3591ZM14.3591 54.6025H65.6407C65.8974 54.6025 66.1324 54.4958 66.3457 54.2825C66.5596 54.0686 66.6666 53.8333 66.6666 53.5766V18.9616C66.6666 18.705 66.5596 18.47 66.3457 18.2566C66.1324 18.0427 65.8974 17.9358 65.6407 17.9358H14.3591C14.1024 17.9358 13.8674 18.0427 13.6541 18.2566C13.4402 18.47 13.3332 18.705 13.3332 18.9616V53.5766C13.3332 53.8333 13.4402 54.0686 13.6541 54.2825C13.8674 54.4958 14.1024 54.6025 14.3591 54.6025Z" fill="#979797"/>
</g>
</svg>
