<svg xmlns="http://www.w3.org/2000/svg" width="21" height="20" viewBox="0 0 21 20" fill="none">
  <path d="M2.58337 16.25V14.375H4.25004V5.25646C4.25004 4.84215 4.39754 4.4875 4.69254 4.1925C4.98754 3.8975 5.34219 3.75 5.7565 3.75H17.5834V5H5.7565C5.68164 5 5.62018 5.02403 5.57212 5.07208C5.52407 5.12014 5.50004 5.1816 5.50004 5.25646V14.375H10.2836V16.25H2.58337ZM13.024 16.25C12.8107 16.25 12.6318 16.1778 12.4873 16.0333C12.343 15.889 12.2709 15.7101 12.2709 15.4967V7.58021C12.2709 7.36674 12.343 7.18785 12.4873 7.04354C12.6318 6.8991 12.8107 6.82688 13.024 6.82688H17.6715C17.8848 6.82688 18.0637 6.8991 18.2082 7.04354C18.3525 7.18785 18.4246 7.36674 18.4246 7.58021V15.4967C18.4246 15.7101 18.3525 15.889 18.2082 16.0333C18.0637 16.1778 17.8848 16.25 17.6715 16.25H13.024ZM13.5209 14.375H17.1746V8.07688H13.5209V14.375Z" fill="white"/>
</svg>