<svg width="20" height="20" viewBox="0 0 20 20" fill="none" xmlns="http://www.w3.org/2000/svg">
<g id="devices_24dp_E8EAED_FILL0_wght300_GRAD0_opsz24 1">
<path id="Vector" d="M2.08333 16.25V14.375H3.75V5.25646C3.75 4.84215 3.8975 4.4875 4.1925 4.1925C4.4875 3.8975 4.84215 3.75 5.25646 3.75H17.0833V5H5.25646C5.1816 5 5.12014 5.02403 5.07208 5.07208C5.02403 5.12014 5 5.1816 5 5.25646V14.375H9.78354V16.25H2.08333ZM12.524 16.25C12.3106 16.25 12.1317 16.1778 11.9873 16.0333C11.843 15.889 11.7708 15.7101 11.7708 15.4967V7.58021C11.7708 7.36674 11.843 7.18785 11.9873 7.04354C12.1317 6.8991 12.3106 6.82688 12.524 6.82688H17.1715C17.3848 6.82688 17.5637 6.8991 17.7081 7.04354C17.8524 7.18785 17.9246 7.36674 17.9246 7.58021V15.4967C17.9246 15.7101 17.8524 15.889 17.7081 16.0333C17.5637 16.1778 17.3848 16.25 17.1715 16.25H12.524ZM13.0208 14.375H16.6746V8.07688H13.0208V14.375Z" fill="#61738E"/>
</g>
</svg>
