<svg width="13" height="13" viewBox="0 0 13 13" fill="none" xmlns="http://www.w3.org/2000/svg">
  <path
    d="M6.25 0.5C4.59341 0.503303 3.00562 1.16284 1.83423 2.33423C0.662844 3.50562 0.00330328 5.09341 0 6.75L0 12.0188C0 12.279 0.103381 12.5286 0.287401 12.7126C0.471422 12.8966 0.721006 13 0.98125 13L6.25 13C7.9076 13 9.49732 12.3415 10.6694 11.1694C11.8415 9.99732 12.5 8.4076 12.5 6.75C12.5 5.0924 11.8415 3.50269 10.6694 2.33058C9.49732 1.15848 7.9076 0.5 6.25 0.5ZM3.25 7.75C3.10166 7.75 2.95666 7.70601 2.83332 7.6236C2.70999 7.54119 2.61386 7.42406 2.55709 7.28701C2.50032 7.14997 2.48547 6.99917 2.51441 6.85368C2.54335 6.7082 2.61478 6.57456 2.71967 6.46967C2.82456 6.36478 2.9582 6.29335 3.10368 6.26441C3.24917 6.23547 3.39997 6.25032 3.53701 6.30709C3.67406 6.36386 3.79119 6.45999 3.8736 6.58332C3.95601 6.70666 4 6.85166 4 7C4 7.19891 3.92098 7.38968 3.78033 7.53033C3.63968 7.67098 3.44891 7.75 3.25 7.75ZM6.25 7.75C6.10166 7.75 5.95666 7.70601 5.83332 7.6236C5.70999 7.54119 5.61386 7.42406 5.55709 7.28701C5.50032 7.14997 5.48547 6.99917 5.51441 6.85368C5.54335 6.7082 5.61478 6.57456 5.71967 6.46967C5.82456 6.36478 5.9582 6.29335 6.10368 6.26441C6.24917 6.23547 6.39997 6.25032 6.53701 6.30709C6.67406 6.36386 6.79119 6.45999 6.8736 6.58332C6.95601 6.70666 7 6.85166 7 7C7 7.19891 6.92098 7.38968 6.78033 7.53033C6.63968 7.67098 6.44891 7.75 6.25 7.75ZM9.25 7.75C9.10166 7.75 8.95666 7.70601 8.83332 7.6236C8.70999 7.54119 8.61386 7.42406 8.55709 7.28701C8.50033 7.14997 8.48547 6.99917 8.51441 6.85368C8.54335 6.7082 8.61478 6.57456 8.71967 6.46967C8.82456 6.36478 8.9582 6.29335 9.10368 6.26441C9.24917 6.23547 9.39997 6.25032 9.53701 6.30709C9.67406 6.36386 9.79119 6.45999 9.8736 6.58332C9.95601 6.70666 10 6.85166 10 7C10 7.19891 9.92098 7.38968 9.78033 7.53033C9.63968 7.67098 9.44891 7.75 9.25 7.75Z"
    fill="#212121" />
</svg>
