<svg width="19" height="14" viewBox="0 0 19 14" fill="none" xmlns="http://www.w3.org/2000/svg">
<path d="M1.51726 7.59415C1.40377 7.41445 1.34702 7.3246 1.31526 7.18602C1.2914 7.08192 1.2914 6.91775 1.31526 6.81366C1.34702 6.67507 1.40377 6.58522 1.51726 6.40552C2.4551 4.92054 5.24665 1.1665 9.50082 1.1665C13.755 1.1665 16.5466 4.92054 17.4844 6.40552C17.5979 6.58522 17.6546 6.67507 17.6864 6.81366C17.7103 6.91775 17.7103 7.08192 17.6864 7.18602C17.6546 7.3246 17.5979 7.41445 17.4844 7.59415C16.5466 9.07914 13.755 12.8332 9.50082 12.8332C5.24666 12.8332 2.4551 9.07914 1.51726 7.59415Z" stroke="#9B9B9B" stroke-linecap="round" stroke-linejoin="round"/>
<path d="M9.50082 9.49984C10.8815 9.49984 12.0008 8.38055 12.0008 6.99984C12.0008 5.61913 10.8815 4.49984 9.50082 4.49984C8.12011 4.49984 7.00083 5.61913 7.00083 6.99984C7.00083 8.38055 8.12011 9.49984 9.50082 9.49984Z" stroke="#9B9B9B" stroke-linecap="round" stroke-linejoin="round"/>
</svg>
