<svg width="14" height="14" viewBox="0 0 14 14" fill="none" xmlns="http://www.w3.org/2000/svg">
<path d="M12.8332 1.16675V12.8334M3.33276 11.9337L8.19839 8.04124C8.64326 7.68534 8.8657 7.50739 8.94623 7.29241C9.01684 7.10392 9.01684 6.89624 8.94623 6.70775C8.8657 6.49277 8.64326 6.31482 8.19839 5.95892L3.33276 2.06642C2.63929 1.51164 2.29255 1.23425 2.00074 1.23394C1.74695 1.23366 1.50688 1.34905 1.34855 1.54739C1.1665 1.77546 1.1665 2.2195 1.1665 3.10758V10.8926C1.1665 11.7807 1.1665 12.2247 1.34855 12.4528C1.50688 12.6511 1.74695 12.7665 2.00074 12.7662C2.29255 12.7659 2.63929 12.4885 3.33276 11.9337Z" stroke="white" stroke-linecap="round" stroke-linejoin="round"/>
</svg>
