<svg width="17" height="17" viewBox="0 0 17 17" fill="none" xmlns="http://www.w3.org/2000/svg">
<path d="M2.24992 12.75C0.999919 13.8 0.583252 16.9167 0.583252 16.9167C0.583252 16.9167 3.69992 16.5 4.74992 15.25C5.34159 14.55 5.33325 13.475 4.67492 12.825C4.35101 12.5159 3.92433 12.3372 3.47677 12.3234C3.02922 12.3096 2.59232 12.4615 2.24992 12.75Z" fill="white"/>
<path d="M8.49992 11.5L5.99992 9.00004C6.44337 7.84957 7.00175 6.74676 7.66658 5.70838C8.63757 4.15587 9.9896 2.87758 11.5941 1.99512C13.1986 1.11266 15.0021 0.655353 16.8333 0.66671C16.8333 2.93338 16.1833 6.91671 11.8333 9.83338C10.7807 10.499 9.66396 11.0573 8.49992 11.5Z" fill="white"/>
<path d="M5.99992 9.00004H1.83325C1.83325 9.00004 2.29159 6.47504 3.49992 5.66671C4.84992 4.76671 7.66658 5.66671 7.66658 5.66671" fill="white"/>
<path d="M8.49992 11.5V15.6667C8.49992 15.6667 11.0249 15.2084 11.8333 14C12.7333 12.65 11.8333 9.83338 11.8333 9.83338" fill="white"/>
</svg>
