<svg width="53" height="75" viewBox="0 0 53 75" fill="none" xmlns="http://www.w3.org/2000/svg">
<path opacity="0.8" fill-rule="evenodd" clip-rule="evenodd" d="M47.6537 1.18551C47.9134 1.8571 43.6671 8.41534 37.8591 16.3134L27.6069 30.2557L40.8034 30.4901C51.9257 30.6878 54 30.9281 54 32.0182C54 33.358 15.7406 75 14.5097 75C12.5734 75 13.4409 72.3281 19.7297 58.9321C23.4926 50.9156 26.5714 44.1562 26.5714 43.9116C26.5714 43.6662 20.5929 43.4659 13.2857 43.4659C4.12629 43.4659 0 43.1719 0 42.5207C0 42 5.274 32.2202 11.7197 20.7878L23.4394 0H35.3177C44.6717 0 47.2937 0.252273 47.6537 1.18551Z" fill="#3F1B59"/>
</svg>
