<svg width="20" height="20" viewBox="0 0 20 20" fill="none" xmlns="http://www.w3.org/2000/svg">
<path d="M16 5.08333V15.9167C16 16.204 15.8851 16.4795 15.6805 16.6827C15.4759 16.8859 15.1984 17 14.9091 17H12.1818C11.8925 17 11.615 16.8859 11.4104 16.6827C11.2058 16.4795 11.0909 16.204 11.0909 15.9167V5.08333C11.0909 4.79602 11.2058 4.52047 11.4104 4.3173C11.615 4.11414 11.8925 4 12.1818 4H14.9091C15.1984 4 15.4759 4.11414 15.6805 4.3173C15.8851 4.52047 16 4.79602 16 5.08333ZM7.81818 4H5.09091C4.80158 4 4.5241 4.11414 4.31952 4.3173C4.11493 4.52047 4 4.79602 4 5.08333V15.9167C4 16.204 4.11493 16.4795 4.31952 16.6827C4.5241 16.8859 4.80158 17 5.09091 17H7.81818C8.10751 17 8.38499 16.8859 8.58957 16.6827C8.79416 16.4795 8.90909 16.204 8.90909 15.9167V5.08333C8.90909 4.79602 8.79416 4.52047 8.58957 4.3173C8.38499 4.11414 8.10751 4 7.81818 4Z" fill="white"/>
</svg>
