<svg width="30" height="30" viewBox="0 0 30 30" fill="none" xmlns="http://www.w3.org/2000/svg">
<path d="M11.25 10.9875V19.0125C11.25 19.5875 11.5125 20.025 12.0375 20.325C12.5625 20.625 13.075 20.6 13.575 20.25L19.8 16.275C20.275 15.975 20.5125 15.55 20.5125 15C20.5125 14.45 20.275 14.025 19.8 13.725L13.575 9.75C13.075 9.4 12.5625 9.375 12.0375 9.675C11.5125 9.975 11.25 10.4125 11.25 10.9875ZM15 30C12.925 30 10.975 29.606 9.15 28.818C7.325 28.03 5.7375 26.9615 4.3875 25.6125C3.0375 24.2625 1.969 22.675 1.182 20.85C0.395 19.025 0.001 17.075 0 15C0 12.925 0.394 10.975 1.182 9.15C1.97 7.325 3.0385 5.7375 4.3875 4.3875C5.7375 3.0375 7.325 1.969 9.15 1.182C10.975 0.395 12.925 0.001 15 0C17.075 0 19.025 0.394 20.85 1.182C22.675 1.97 24.2625 3.0385 25.6125 4.3875C26.9625 5.7375 28.0315 7.325 28.8195 9.15C29.6075 10.975 30.001 12.925 30 15C30 17.075 29.606 19.025 28.818 20.85C28.03 22.675 26.9615 24.2625 25.6125 25.6125C24.2625 26.9625 22.675 28.0315 20.85 28.8195C19.025 29.6075 17.075 30.001 15 30Z" fill="#3F3F3F"/>
</svg>
