<svg width="43" height="43" viewBox="0 0 43 43" fill="none" xmlns="http://www.w3.org/2000/svg">
<path opacity="0.2" fill-rule="evenodd" clip-rule="evenodd" id="Vector" d="M42.75 17.8125V24.9375C42.75 25.4099 42.5623 25.863 42.2283 26.197C41.8942 26.5311 41.4412 26.7188 40.9688 26.7188H3.5625V30.2812H23.1562C23.6287 30.2812 24.0817 30.4689 24.4158 30.803C24.7498 31.137 24.9375 31.5901 24.9375 32.0625V37.4062C24.9375 37.8787 24.7498 38.3317 24.4158 38.6658C24.0817 38.9998 23.6287 39.1875 23.1562 39.1875H3.5625V40.9688C3.5625 41.4412 3.37483 41.8942 3.04078 42.2283C2.70673 42.5623 2.25367 42.75 1.78125 42.75C1.30883 42.75 0.855766 42.5623 0.521716 42.2283C0.187667 41.8942 0 41.4412 0 40.9688V1.78125C0 1.30883 0.187667 0.855766 0.521716 0.521716C0.855766 0.187667 1.30883 0 1.78125 0C2.25367 0 2.70673 0.187667 3.04078 0.521716C3.37483 0.855766 3.5625 1.30883 3.5625 1.78125V3.5625H30.2812C30.7537 3.5625 31.2067 3.75017 31.5408 4.08422C31.8748 4.41827 32.0625 4.87133 32.0625 5.34375V10.6875C32.0625 11.1599 31.8748 11.613 31.5408 11.947C31.2067 12.2811 30.7537 12.4688 30.2812 12.4688H3.5625V16.0312H40.9688C41.4412 16.0312 41.8942 16.2189 42.2283 16.553C42.5623 16.887 42.75 17.3401 42.75 17.8125Z" fill="#9B9B9B"/>
</svg>
