<svg width="25" height="36" viewBox="0 0 25 36" fill="none" xmlns="http://www.w3.org/2000/svg">
<path d="M13.0557 28.7537H11.3954C10.2261 28.7537 9.27588 29.7039 9.27588 30.8732V33.1659C9.27588 34.3352 10.2261 35.2854 11.3954 35.2854H13.0557C14.2251 35.2854 15.1753 34.3352 15.1753 33.1659V30.8732C15.1753 29.7004 14.2251 28.7537 13.0557 28.7537Z" fill="#3F3F3F"/>
<path d="M1.34863 11.0059L4.41139 11.3874C5.38285 11.5076 6.30485 10.9494 6.65458 10.0345C7.09615 8.87931 7.71082 7.9679 8.49859 7.30377C9.61492 6.3641 11.0032 5.89074 12.6635 5.89074C14.3839 5.89074 15.7545 6.34291 16.7719 7.24372C17.7893 8.14806 18.2945 9.22903 18.2945 10.4972C18.2945 11.4086 18.0083 12.2423 17.436 12.9983C17.0651 13.4787 15.9241 14.4891 14.02 16.0328C12.1124 17.5765 10.8443 18.9683 10.2084 20.2047C9.5584 21.4694 9.33231 22.8719 9.27579 24.2779C9.22637 25.4825 10.1872 26.4857 11.3953 26.4857H13.1263C14.2285 26.4857 15.1399 25.6414 15.2388 24.5463C15.3095 23.7586 15.4402 23.1616 15.638 22.7553C15.97 22.0594 16.8285 21.1409 18.2062 19.9964C20.8732 17.7885 22.6113 16.0434 23.4273 14.7575C24.2398 13.4752 24.6496 12.1152 24.6496 10.6774C24.6496 8.08094 23.5439 5.80242 21.329 3.84537C19.1176 1.88832 16.1361 0.90979 12.3915 0.90979C8.83069 0.90979 5.9587 1.87419 3.76849 3.80651C1.90329 5.4527 0.769326 7.40269 0.370143 9.65294C0.246467 10.31 0.695106 10.9247 1.34863 11.0059Z" fill="#3F3F3F"/>
</svg>
