<svg width="13" height="16" viewBox="0 0 13 16" fill="none" xmlns="http://www.w3.org/2000/svg">
<path d="M0.666748 2.15809C0.666748 1.34879 0.666748 0.944135 0.83549 0.721075C0.982493 0.526751 1.20718 0.406501 1.45041 0.391978C1.72961 0.375308 2.0663 0.599768 2.73968 1.04869L11.5026 6.89067C12.0591 7.2616 12.3373 7.44707 12.4342 7.68084C12.519 7.88522 12.519 8.11491 12.4342 8.31929C12.3373 8.55306 12.0591 8.73853 11.5026 9.10947L2.73968 14.9514C2.0663 15.4004 1.72961 15.6248 1.45041 15.6082C1.20718 15.5936 0.982493 15.4734 0.83549 15.2791C0.666748 15.056 0.666748 14.6513 0.666748 13.842V2.15809Z" fill="white"/>
</svg>
