<svg width="56" height="56" viewBox="0 0 56 56" fill="none" xmlns="http://www.w3.org/2000/svg">
<g id="Frame">
<path id="Vector" d="M52.3252 21.2818C52.1133 20.6285 51.7139 20.0521 51.1767 19.6242C50.6395 19.1964 49.9884 18.936 49.3043 18.8755L36.3127 17.7555L31.2202 5.6455C30.9551 5.01007 30.5079 4.46729 29.9349 4.0855C29.3619 3.70372 28.6888 3.5 28.0002 3.5C27.3117 3.5 26.6386 3.70372 26.0656 4.0855C25.4926 4.46729 25.0454 5.01007 24.7802 5.6455L19.7031 17.7555L6.69618 18.8821C6.00938 18.9398 5.35491 19.199 4.81484 19.6272C4.27477 20.0553 3.87313 20.6335 3.66031 21.289C3.44748 21.9445 3.43293 22.6483 3.61849 23.3121C3.80405 23.9758 4.18145 24.5701 4.70337 25.0202L14.5712 33.6433L11.6137 46.4489C11.4573 47.1191 11.5019 47.8204 11.742 48.4653C11.982 49.1102 12.4069 49.6701 12.9634 50.0748C13.5199 50.4796 14.1833 50.7113 14.8708 50.7411C15.5583 50.7708 16.2393 50.5973 16.8287 50.2421L27.9849 43.4608L39.1652 50.2421C39.7546 50.5973 40.4356 50.7708 41.1231 50.7411C41.8106 50.7113 42.4741 50.4796 43.0306 50.0748C43.5871 49.6701 44.0119 49.1102 44.2519 48.4653C44.492 47.8204 44.5366 47.1191 44.3802 46.4489L41.4249 33.6302L51.2906 25.0202C51.8124 24.5685 52.1891 23.9726 52.3732 23.3074C52.5573 22.6422 52.5406 21.9375 52.3252 21.2818ZM48.9959 22.3755L39.1302 30.9855C38.6501 31.4032 38.2929 31.9438 38.0971 32.5494C37.9013 33.1549 37.8743 33.8023 38.019 34.4221L40.9831 47.2496L29.8115 40.4683C29.2664 40.1364 28.6406 39.9608 28.0024 39.9608C27.3643 39.9608 26.7384 40.1364 26.1934 40.4683L15.0371 47.2496L17.9815 34.4308C18.1262 33.8111 18.0992 33.1636 17.9034 32.5581C17.7076 31.9526 17.3504 31.4119 16.8702 30.9943L7.00024 22.3886C6.99944 22.3821 6.99944 22.3755 7.00024 22.3689L20.0027 21.2446C20.6376 21.1886 21.2451 20.9604 21.7597 20.5845C22.2743 20.2087 22.6766 19.6994 22.9231 19.1118L28.0002 7.01706L33.0752 19.1118C33.3217 19.6994 33.724 20.2087 34.2386 20.5845C34.7532 20.9604 35.3607 21.1886 35.9956 21.2446L49.0002 22.3689C49.0002 22.3689 49.0002 22.3821 49.0002 22.3843L48.9959 22.3755Z" fill="#91A1B7"/>
</g>
</svg>
