<svg width="56" height="56" viewBox="0 0 56 56" fill="none" xmlns="http://www.w3.org/2000/svg">
<g id="Frame">
<path id="Vector" d="M51.2971 25.0202L41.4315 33.6302L44.3868 46.4489C44.5432 47.1191 44.4986 47.8204 44.2585 48.4653C44.0185 49.1102 43.5936 49.6701 43.0371 50.0748C42.4806 50.4796 41.8172 50.7113 41.1297 50.7411C40.4422 50.7708 39.7612 50.5973 39.1718 50.2421L27.9915 43.4608L16.8352 50.2421C16.2459 50.5973 15.5649 50.7708 14.8774 50.7411C14.1899 50.7113 13.5264 50.4796 12.9699 50.0748C12.4134 49.6701 11.9886 49.1102 11.7485 48.4653C11.5085 47.8204 11.4639 47.1191 11.6202 46.4489L14.5712 33.6433L4.70337 25.0202C4.18145 24.5701 3.80405 23.9758 3.61849 23.3121C3.43293 22.6483 3.44748 21.9445 3.66031 21.289C3.87313 20.6335 4.27477 20.0553 4.81484 19.6272C5.35491 19.199 6.00938 18.9398 6.69618 18.8821L19.7031 17.7555L24.7802 5.6455C25.0454 5.01007 25.4926 4.46729 26.0656 4.0855C26.6386 3.70372 27.3117 3.5 28.0002 3.5C28.6888 3.5 29.3619 3.70372 29.9349 4.0855C30.5079 4.46729 30.9551 5.01007 31.2202 5.6455L36.3127 17.7555L49.3152 18.8821C50.002 18.9398 50.6565 19.199 51.1966 19.6272C51.7367 20.0553 52.1383 20.6335 52.3511 21.289C52.5639 21.9445 52.5785 22.6483 52.3929 23.3121C52.2074 23.9758 51.83 24.5701 51.3081 25.0202H51.2971Z" fill="#FEC601"/>
</g>
</svg>
