<svg width="13" height="14" viewBox="0 0 13 14" fill="none" xmlns="http://www.w3.org/2000/svg">
<path d="M0.125 4.025C0.125 2.83489 0.125 2.23983 0.356611 1.78527C0.560342 1.38543 0.885426 1.06034 1.28527 0.856611C1.73983 0.625 2.33489 0.625 3.525 0.625H9.475C10.6651 0.625 11.2602 0.625 11.7147 0.856611C12.1146 1.06034 12.4397 1.38543 12.6434 1.78527C12.875 2.23983 12.875 2.83489 12.875 4.025V9.975C12.875 11.1651 12.875 11.7602 12.6434 12.2147C12.4397 12.6146 12.1146 12.9397 11.7147 13.1434C11.2602 13.375 10.6651 13.375 9.475 13.375H3.525C2.33489 13.375 1.73983 13.375 1.28527 13.1434C0.885426 12.9397 0.560342 12.6146 0.356611 12.2147C0.125 11.7602 0.125 11.1651 0.125 9.975V4.025Z" fill="#FDAA39"/>
</svg>
