<svg width="22" height="27" viewBox="0 0 22 27" fill="none" xmlns="http://www.w3.org/2000/svg">
<g opacity="0.3">
<path d="M1 7C1 4.8998 1 3.8497 1.40873 3.04754C1.76825 2.34193 2.34193 1.76825 3.04754 1.40873C3.8497 1 4.8998 1 7 1H11.0147C11.9319 1 12.3905 1 12.8221 1.10361C13.2048 1.19548 13.5705 1.34699 13.9061 1.5526C14.2845 1.78451 14.6088 2.10879 15.2574 2.75736L19.2426 6.74264C19.8912 7.39121 20.2155 7.71549 20.4474 8.09393C20.653 8.42945 20.8045 8.79524 20.8964 9.17788C21 9.60946 21 10.0681 21 10.9853V20C21 22.1002 21 23.1503 20.5913 23.9525C20.2317 24.6581 19.6581 25.2317 18.9525 25.5913C18.1503 26 17.1002 26 15 26H7C4.8998 26 3.8497 26 3.04754 25.5913C2.34193 25.2317 1.76825 24.6581 1.40873 23.9525C1 23.1503 1 22.1002 1 20V7Z" fill="#606060"/>
<path d="M13.5 1.33683V6.5C13.5 7.20007 13.5 7.5501 13.6362 7.81749C13.7561 8.05269 13.9473 8.24392 14.1825 8.36376C14.4499 8.5 14.7999 8.5 15.5 8.5H20.6632M21 10.9853V20C21 22.1002 21 23.1503 20.5913 23.9525C20.2317 24.6581 19.6581 25.2317 18.9525 25.5913C18.1503 26 17.1002 26 15 26H7C4.8998 26 3.8497 26 3.04754 25.5913C2.34193 25.2317 1.76825 24.6581 1.40873 23.9525C1 23.1503 1 22.1002 1 20V7C1 4.8998 1 3.8497 1.40873 3.04754C1.76825 2.34193 2.34193 1.76825 3.04754 1.40873C3.8497 1 4.8998 1 7 1H11.0147C11.9319 1 12.3905 1 12.8221 1.10361C13.2048 1.19548 13.5705 1.34699 13.9061 1.5526C14.2845 1.78451 14.6088 2.10879 15.2574 2.75736L19.2426 6.74264C19.8912 7.39121 20.2155 7.71549 20.4474 8.09393C20.653 8.42945 20.8045 8.79524 20.8964 9.17788C21 9.60946 21 10.0681 21 10.9853Z" stroke="#CCCCCC" stroke-linecap="round" stroke-linejoin="round"/>
</g>
</svg>
