<svg width="17" height="18" viewBox="0 0 17 18" fill="none" xmlns="http://www.w3.org/2000/svg">
<path d="M8.28516 5.99994V8.99994M8.28516 11.9999H8.29266M1.53516 5.95602V12.0439C1.53516 12.3008 1.53516 12.4293 1.57302 12.5439C1.60652 12.6453 1.66127 12.7384 1.73363 12.8169C1.81542 12.9056 1.92774 12.968 2.15239 13.0928L7.70238 16.1762C7.91509 16.2943 8.02144 16.3534 8.13407 16.3766C8.23375 16.3971 8.33656 16.3971 8.43624 16.3766C8.54887 16.3534 8.65522 16.2943 8.86793 16.1762L14.4179 13.0928C14.6426 12.968 14.7549 12.9056 14.8367 12.8169C14.909 12.7384 14.9638 12.6453 14.9973 12.5439C15.0352 12.4293 15.0352 12.3008 15.0352 12.0439V5.95603C15.0352 5.69904 15.0352 5.57055 14.9973 5.45595C14.9638 5.35457 14.909 5.26151 14.8367 5.18299C14.7549 5.09424 14.6426 5.03184 14.4179 4.90704L8.86793 1.8237C8.65522 1.70553 8.54887 1.64645 8.43624 1.62329C8.33656 1.60278 8.23375 1.60278 8.13407 1.62329C8.02144 1.64645 7.91509 1.70553 7.70238 1.8237L2.15238 4.90704C1.92774 5.03184 1.81542 5.09424 1.73363 5.18299C1.66127 5.26151 1.60652 5.35457 1.57302 5.45595C1.53516 5.57055 1.53516 5.69904 1.53516 5.95602Z" stroke="white" stroke-width="2" stroke-linecap="round" stroke-linejoin="round"/>
</svg>
