<svg width="19" height="14" viewBox="0 0 19 14" fill="none" xmlns="http://www.w3.org/2000/svg">
<path d="M1.51677 7.5944C1.40328 7.4147 1.34654 7.32485 1.31477 7.18626C1.29091 7.08216 1.29091 6.918 1.31477 6.8139C1.34654 6.67532 1.40328 6.58547 1.51677 6.40577C2.45461 4.92078 5.24617 1.16675 9.50034 1.16675C13.7545 1.16675 16.5461 4.92078 17.4839 6.40577C17.5974 6.58547 17.6541 6.67532 17.6859 6.8139C17.7098 6.918 17.7098 7.08216 17.6859 7.18626C17.6541 7.32485 17.5974 7.4147 17.4839 7.5944C16.5461 9.07938 13.7545 12.8334 9.50034 12.8334C5.24617 12.8334 2.45461 9.07938 1.51677 7.5944Z" stroke="white" stroke-linecap="round" stroke-linejoin="round"/>
<path d="M9.50034 9.50008C10.881 9.50008 12.0003 8.38079 12.0003 7.00008C12.0003 5.61937 10.881 4.50008 9.50034 4.50008C8.11962 4.50008 7.00034 5.61937 7.00034 7.00008C7.00034 8.38079 8.11962 9.50008 9.50034 9.50008Z" stroke="white" stroke-linecap="round" stroke-linejoin="round"/>
</svg>
