<svg xmlns="http://www.w3.org/2000/svg" width="11.975" height="11.455" viewBox="0 0 11.975 11.455">
    <defs>
        <style>
            .cls-2{fill:#ffd54f}.cls-3{fill:#607d8b}
        </style>
    </defs>
    <g id="bomb" transform="translate(0 -10.666)">
        <path id="Path_17286" fill="#ffc107" d="M239.271 33.12a.26.26 0 0 1-.117-.028 10.281 10.281 0 0 0-2.747-1.013.96.96 0 0 0-1.064.625.26.26 0 0 1-.475-.212 1.453 1.453 0 0 1 1.539-.933 10.634 10.634 0 0 1 2.981 1.069.26.26 0 0 1-.117.493z" transform="translate(-229.118 -20.371)"/>
        <g id="Group_20093" transform="translate(8.788 10.666)">
            <path id="Path_17287" d="M405.593 118.374a.26.26 0 0 1-.26-.26v-.521a.26.26 0 0 1 .521 0v.521a.26.26 0 0 1-.261.26z" class="cls-2" transform="translate(-404.228 -114.73)"/>
            <path id="Path_17288" d="M405.593 11.707a.26.26 0 0 1-.26-.26v-.521a.26.26 0 0 1 .521 0v.521a.26.26 0 0 1-.261.26z" class="cls-2" transform="translate(-404.228 -10.666)"/>
            <path id="Path_17289" d="M436.244 105.858a.26.26 0 0 1-.184-.076l-.368-.368a.26.26 0 0 1 .368-.368l.368.368a.26.26 0 0 1-.184.445z" class="cls-2" transform="translate(-433.775 -102.671)"/>
            <path id="Path_17290" d="M448.781 75.187h-.521a.26.26 0 1 1 0-.521h.521a.26.26 0 0 1 0 .521z" class="cls-2" transform="translate(-445.854 -73.104)"/>
            <path id="Path_17291" d="M435.74 30.424a.26.26 0 0 1-.184-.445l.368-.368a.26.26 0 0 1 .368.368l-.368.368a.26.26 0 0 1-.184.077z" class="cls-2" transform="translate(-433.638 -29.078)"/>
            <path id="Path_17292" d="M360.327 105.582a.26.26 0 0 1-.184-.445l.368-.368a.26.26 0 0 1 .375.362l-.006.006-.368.368a.26.26 0 0 1-.185.077z" class="cls-2" transform="translate(-360.066 -102.395)"/>
        </g>
        <path id="Path_17293" d="M156.5 65.006A5.691 5.691 0 0 0 153.263 64a.26.26 0 0 0-.247.178l-.442 1.326a.26.26 0 0 0 .044.246.267.267 0 0 0 .23.1 3.928 3.928 0 0 1 2.831.818.261.261 0 0 0 .4-.1l.515-1.238a.26.26 0 0 0-.094-.324z" class="cls-3" transform="translate(-148.837 -52.032)"/>
        <path id="Path_17294" fill="#455a64" d="M4.426 117.333a4.426 4.426 0 1 0 4.426 4.426 4.426 4.426 0 0 0-4.426-4.426z" transform="translate(0 -104.064)"/>
        <path id="Path_17295" d="M42.926 163.645a.26.26 0 0 1-.26-.26A3.389 3.389 0 0 1 46.05 160a.26.26 0 0 1 0 .521 2.867 2.867 0 0 0-2.864 2.864.26.26 0 0 1-.26.26z" class="cls-3" transform="translate(-41.625 -145.689)"/>
    </g>
</svg>
