<svg width="14" height="14" viewBox="0 0 14 14" fill="none" xmlns="http://www.w3.org/2000/svg">
<path fill-rule="evenodd" clip-rule="evenodd" d="M3.88001 5.38078C4.15334 5.10738 4.59656 5.10732 4.86996 5.38065L7.00005 7.51018L9.13014 5.38065C9.40354 5.10732 9.84676 5.10738 10.1201 5.38078C10.3934 5.65418 10.3934 6.0974 10.12 6.37073L7.49496 8.99504C7.22161 9.26832 6.77849 9.26832 6.50514 8.99504L3.88014 6.37073C3.60674 6.0974 3.60668 5.65418 3.88001 5.38078Z" fill="#0080FF"/>
<path fill-rule="evenodd" clip-rule="evenodd" d="M7.00005 0.799988C7.38665 0.799988 7.70005 1.11339 7.70005 1.49999V8.49815C7.70005 8.88475 7.38665 9.19815 7.00005 9.19815C6.61345 9.19815 6.30005 8.88475 6.30005 8.49815V1.49999C6.30005 1.11339 6.61345 0.799988 7.00005 0.799988Z" fill="#0080FF"/>
<path fill-rule="evenodd" clip-rule="evenodd" d="M1.50005 7.79999C1.88665 7.79999 2.20005 8.11339 2.20005 8.49999V11.8H11.8V8.49999C11.8 8.11339 12.1134 7.79999 12.5 7.79999C12.8866 7.79999 13.2 8.11339 13.2 8.49999V12C13.2 12.3182 13.0736 12.6235 12.8486 12.8485C12.6235 13.0736 12.3183 13.2 12 13.2H2.00005C1.68179 13.2 1.37657 13.0736 1.15152 12.8485C0.926477 12.6235 0.800049 12.3182 0.800049 12V8.49999C0.800049 8.11339 1.11345 7.79999 1.50005 7.79999Z" fill="#0080FF"/>
</svg>
