<svg width="12" height="12" viewBox="0 0 12 12" fill="none" xmlns="http://www.w3.org/2000/svg">
<path d="M10.125 9.37501C10.125 9.87229 9.92746 10.3492 9.57583 10.7008C9.2242 11.0525 8.74728 11.25 8.25 11.25C7.75272 11.25 7.27581 11.0525 6.92418 10.7008C6.57255 10.3492 6.375 9.87229 6.375 9.37501C6.37576 9.14266 6.41864 8.91237 6.50157 8.69532L4.34063 7.30782C4.08046 7.5751 3.74649 7.75872 3.38142 7.83518C3.01635 7.91165 2.63676 7.8775 2.29121 7.73708C1.94565 7.59667 1.64982 7.35639 1.44155 7.04696C1.23328 6.73752 1.12203 6.373 1.12203 6.00001C1.12203 5.62701 1.23328 5.26249 1.44155 4.95306C1.64982 4.64363 1.94565 4.40334 2.29121 4.26293C2.63676 4.12252 3.01635 4.08837 3.38142 4.16483C3.74649 4.2413 4.08046 4.42491 4.34063 4.6922L6.50157 3.3047C6.41864 3.08765 6.37576 2.85736 6.375 2.62501C6.37385 2.18893 6.52436 1.76603 6.80074 1.42872C7.07712 1.09141 7.46218 0.860695 7.88997 0.776082C8.31775 0.69147 8.76165 0.758228 9.14563 0.964922C9.52961 1.17162 9.82978 1.50539 9.99472 1.90906C10.1597 2.31274 10.1791 2.76121 10.0498 3.17766C9.9204 3.5941 9.65027 3.95262 9.28563 4.19179C8.921 4.43096 8.48455 4.53591 8.05104 4.48867C7.61753 4.44143 7.21393 4.24492 6.90938 3.93282L4.74844 5.32032C4.91712 5.75775 4.91712 6.24227 4.74844 6.6797L6.90938 8.0672C7.16971 7.80095 7.50343 7.61825 7.86799 7.54238C8.23256 7.46651 8.61145 7.50091 8.95639 7.6412C9.30133 7.78149 9.59668 8.02131 9.80481 8.33009C10.0129 8.63887 10.1244 9.00264 10.125 9.37501Z" fill="#0080FF"/>
</svg>
