<svg xmlns="http://www.w3.org/2000/svg" width="19.02" height="18.383" viewBox="0 0 19.02 18.383">
  <g>
    <g>
      <path fill="none" stroke="#4e5f72" d="M108.8 59.9l3.81 1.227a1.391 1.391 0 0 1 .655 2.2l-2.519 3.111a1.391 1.391 0 0 0-.31.879l.01 4a1.391 1.391 0 0 1-1.889 1.3l-3.737-1.435a1.39 1.39 0 0 0-.932-.023l-3.8 1.247a1.391 1.391 0 0 1-1.822-1.395l.21-4a1.39 1.39 0 0 0-.266-.893l-2.361-3.232a1.391 1.391 0 0 1 .763-2.164l3.867-1.036a1.392 1.392 0 0 0 .768-.529l2.344-3.245a1.391 1.391 0 0 1 2.294.057l2.18 3.357a1.392 1.392 0 0 0 .735.574z" transform="translate(-1245.309 -731.254) translate(1245.82 731.754) translate(-95.58 -55.343)"/>
    </g>
  </g>
</svg>
