<svg xmlns="http://www.w3.org/2000/svg" width="17.085" height="16.489" viewBox="0 0 17.085 16.489">
  <g>
    <g>
      <path fill="#ffd200" d="M108.133 59.667l3.617 1.165a1.32 1.32 0 0 1 .621 2.088l-2.391 2.953a1.32 1.32 0 0 0-.294.834l.01 3.8a1.32 1.32 0 0 1-1.793 1.236l-3.547-1.362a1.319 1.319 0 0 0-.884-.022l-3.61 1.184a1.32 1.32 0 0 1-1.73-1.324l.2-3.794a1.319 1.319 0 0 0-.252-.848l-2.241-3.068a1.32 1.32 0 0 1 .725-2.054l3.67-.983a1.321 1.321 0 0 0 .729-.5l2.225-3.08a1.32 1.32 0 0 1 2.177.054l2.069 3.187a1.322 1.322 0 0 0 .699.534z" transform="translate(-1245.82 -731.754) translate(1245.82 731.754) translate(-95.58 -55.343)"/>
    </g>
    <g>
      <path fill="#ffa10b" d="M105.1 59.468l3.617 1.165a1.32 1.32 0 0 1 .621 2.088l-2.391 2.953a1.32 1.32 0 0 0-.294.834l.01 3.8a1.32 1.32 0 0 1-1.793 1.236l-3.547-1.362c-.284-.109.5-15.215 1.007-14.437l2.069 3.187a1.322 1.322 0 0 0 .701.536z" transform="translate(-1245.82 -731.754) translate(1254.534 732.326) translate(-101.259 -55.715)"/>
    </g>
  </g>
</svg>
