<svg xmlns="http://www.w3.org/2000/svg" id="Group_24" width="31.569" height="31.569" data-name="Group 24" viewBox="0 0 31.569 31.569">
    <path id="Path_126" fill="#00a9ff" d="M579.247 205.051a15.784 15.784 0 1 0-15.783 15.785 15.785 15.785 0 0 0 15.783-15.785z" data-name="Path 126" transform="translate(-547.678 -189.267)"/>
    <path id="Path_127" fill="#fff" d="M595.464 232.963a7.781 7.781 0 0 1-2.014.515 3.8 3.8 0 0 0 1.635-1.94.059.059 0 0 0-.085-.071 7.735 7.735 0 0 1-2.3.839 3.856 3.856 0 0 0-2.8-1.192 3.777 3.777 0 0 0-3.736 4.636 10.955 10.955 0 0 1-7.887-3.922.021.021 0 0 0-.035 0 3.739 3.739 0 0 0 1.136 4.969.023.023 0 0 1-.014.043 3.876 3.876 0 0 1-1.625-.452.019.019 0 0 0-.029.017 5.111 5.111 0 0 0 .259 1.382 3.871 3.871 0 0 0 2.818 2.335 4.021 4.021 0 0 1-1.013.134 3.829 3.829 0 0 1-.688-.064.021.021 0 0 0-.024.028 3.836 3.836 0 0 0 3.507 2.586.023.023 0 0 1 .014.041 7.762 7.762 0 0 1-4.713 1.578 7.989 7.989 0 0 1-.913-.052 10.987 10.987 0 0 0 5.879 1.7 10.683 10.683 0 0 0 7.187-2.594 11.076 11.076 0 0 0 3.467-5.87 10.373 10.373 0 0 0 .263-2.279c0-.162 0-.326-.013-.488a7.714 7.714 0 0 0 1.8-1.788.059.059 0 0 0-.076-.091z" data-name="Path 127" transform="translate(-570.52 -221.915)"/>
</svg>
