<?xml version="1.0" encoding="utf-8"?>
<!-- Generator: Adobe Illustrator 27.2.0, SVG Export Plug-In . SVG Version: 6.00 Build 0)  -->
<svg version="1.1" id="Layer_1" xmlns="http://www.w3.org/2000/svg" xmlns:xlink="http://www.w3.org/1999/xlink" x="0px" y="0px"
	 viewBox="0 0 25.9 26.5" style="enable-background:new 0 0 25.9 26.5;" xml:space="preserve">
<style type="text/css">
	.st0{fill:#FFFFFF;}
	.st1{fill:url(#SVGID_1_);}
	.st2{fill:url(#SVGID_00000130609518054367985130000016786560180188938142_);}
	.st3{fill-rule:evenodd;clip-rule:evenodd;fill:#FFFFFF;}
</style>
<path class="st0" d="M0,26.5l1.7-6.9c-1.1-2-1.7-4.2-1.7-6.5C0,5.9,5.8,0,13,0c3.5,0,6.7,1.4,9.2,3.8c2.5,2.5,3.8,5.7,3.8,9.2
	c0,7.2-5.8,13-13,13c-2.2,0-4.3-0.5-6.2-1.6L0,26.5z M7.1,22.2l0.4,0.2c1.7,1,3.6,1.5,5.5,1.5c5.9,0,10.8-4.9,10.8-10.8
	c0-2.9-1.1-5.6-3.2-7.7c-2-2-4.7-3.2-7.6-3.2C7,2.2,2.2,7.1,2.2,13.1c0,2,0.6,4,1.6,5.8l0.3,0.4l-1.1,4L7.1,22.2L7.1,22.2z"/>
<linearGradient id="SVGID_1_" gradientUnits="userSpaceOnUse" x1="12.9576" y1="0.536" x2="12.9576" y2="26.0712" gradientTransform="matrix(1 0 0 -1 0 26.5358)">
	<stop  offset="0" style="stop-color:#20B038"/>
	<stop  offset="1" style="stop-color:#60D66A"/>
</linearGradient>
<path class="st1" d="M0.4,26l1.7-6.7c-1.1-1.9-1.7-4.1-1.7-6.3C0.4,6.1,6.1,0.5,13,0.5c3.4,0,6.5,1.3,8.9,3.7
	c1.2,1.2,2.1,2.6,2.7,4.1c0.6,1.5,1,3.2,0.9,4.8c0,6.9-5.6,12.6-12.5,12.6c-2.1,0-4.2-0.5-6-1.5L0.4,26z"/>
<linearGradient id="SVGID_00000057857077289212844160000016364371901521216164_" gradientUnits="userSpaceOnUse" x1="12.964" y1="8.449717e-02" x2="12.964" y2="26.5358" gradientTransform="matrix(1 0 0 -1 0 26.5358)">
	<stop  offset="0" style="stop-color:#F9F9F9"/>
	<stop  offset="1" style="stop-color:#FFFFFF"/>
</linearGradient>
<path style="fill:url(#SVGID_00000057857077289212844160000016364371901521216164_);" d="M0,26.5l1.7-6.9c-1.1-2-1.7-4.2-1.7-6.5
	C0,5.9,5.8,0,13,0c3.5,0,6.7,1.4,9.2,3.8c2.5,2.5,3.8,5.7,3.8,9.2c0,7.2-5.8,13-13,13c-2.2,0-4.3-0.5-6.2-1.6L0,26.5z M7.1,22.2
	l0.4,0.2c1.7,1,3.6,1.5,5.5,1.5c5.9,0,10.8-4.9,10.8-10.8c0-2.9-1.1-5.6-3.2-7.7c-2-2-4.7-3.2-7.6-3.2C7,2.2,2.2,7.1,2.2,13.1
	c0,2,0.6,4,1.6,5.8l0.3,0.4l-1.1,4L7.1,22.2L7.1,22.2z"/>
<path class="st3" d="M9.7,7.6C9.5,7,9.2,7,9,7C8.8,7,8.6,7,8.4,7C8.2,7,7.8,7.1,7.5,7.4c-0.3,0.3-1.1,1.1-1.1,2.7
	c0,1.6,1.2,3.2,1.3,3.4c0.2,0.2,2.2,3.6,5.5,4.9c2.7,1.1,3.3,0.9,3.9,0.8c0.6-0.1,1.9-0.8,2.2-1.6c0.3-0.8,0.3-1.4,0.2-1.6
	c-0.1-0.1-0.3-0.2-0.6-0.4c-0.3-0.2-1.9-1-2.2-1.1c-0.3-0.1-0.5-0.2-0.7,0.2c-0.2,0.3-0.8,1.1-1,1.3c-0.2,0.2-0.4,0.2-0.7,0.1
	c-0.3-0.2-1.4-0.5-2.6-1.6c-1-0.9-1.6-1.9-1.8-2.3c-0.2-0.3,0-0.5,0.1-0.7c0.1-0.1,0.3-0.4,0.5-0.6c0.2-0.2,0.2-0.3,0.3-0.5
	c0.1-0.2,0.1-0.4,0-0.6C10.6,9.8,10,8.2,9.7,7.6z"/>
</svg>
