<svg width="18" height="18" viewBox="0 0 18 18" fill="none" xmlns="http://www.w3.org/2000/svg">
<circle cx="9" cy="9" r="9" fill="#3A9DFF"/>
<g clip-path="url(#clip0_2369_4612)">
<path d="M8.95 7.69999C9.69531 7.69999 10.3 8.30468 10.3 9.04999C10.3 9.29784 10.5021 9.49999 10.75 9.49999C10.9979 9.49999 11.2 9.29784 11.2 9.04999C11.2 7.80721 10.1928 6.79999 8.95 6.79999C8.70215 6.79999 8.5 7.00214 8.5 7.24999C8.5 7.49784 8.70215 7.69999 8.95 7.69999Z" fill="white"/>
<path d="M8.95 5.9C10.6902 5.9 12.1 7.30977 12.1 9.05C12.1 9.29785 12.3021 9.5 12.55 9.5C12.7979 9.5 13 9.29785 13 9.05C13 6.81406 11.1859 5 8.95 5C8.70215 5 8.5 5.20215 8.5 5.45C8.5 5.69785 8.70215 5.9 8.95 5.9Z" fill="white"/>
<path d="M12.8875 11.2596C12.8365 11.1119 12.7152 11.0029 12.5641 10.9678L9.86406 10.3508C9.71465 10.3174 9.55996 10.3613 9.45098 10.4668C9.3877 10.5248 9.38418 10.5301 9.09063 11.0873C8.12031 10.6408 7.3416 9.85859 6.89863 8.88652C7.46992 8.59824 7.4752 8.59824 7.5332 8.53145C7.64043 8.42246 7.68438 8.26602 7.65098 8.11836L7.03223 5.45C6.99707 5.29883 6.88633 5.17578 6.74043 5.12656C6.63496 5.08965 6.52773 5.06152 6.41699 5.0457C6.30273 5.01934 6.18672 5.00352 6.0707 5C4.92637 5 4 5.92637 4 7.0707C4.00527 10.8957 7.1043 13.9965 10.9293 14C12.0719 14 13 13.0736 13 11.9293C13 11.815 12.9912 11.7008 12.9736 11.5883C12.9543 11.4758 12.9262 11.3668 12.8875 11.2596Z" fill="white"/>
</g>
<defs>
<clipPath id="clip0_2369_4612">
<rect width="9" height="9" fill="white" transform="translate(4 5)"/>
</clipPath>
</defs>
</svg>
